<svg width="32" height="32" viewBox="0 0 32 32" fill="none" xmlns="http://www.w3.org/2000/svg">
<g id="ico_Building">
<path id="Vector" d="M13.3333 12.0133L13.3467 11.9987M18.6667 12.0133L18.68 11.9987M13.3333 17.3467L13.3467 17.332M18.6667 17.3467L18.68 17.332M13.3333 22.68L13.3467 22.6653M18.6667 22.68L18.68 22.6653M8 27.2V7.46667C8 7.25449 8.08429 7.05101 8.23431 6.90098C8.38434 6.75095 8.58783 6.66667 8.8 6.66667H16V4.8C16 4.58783 16.0843 4.38434 16.2343 4.23431C16.3843 4.08429 16.5878 4 16.8 4H23.2C23.4122 4 23.6157 4.08429 23.7657 4.23431C23.9157 4.38434 24 4.58783 24 4.8V27.2C24 27.4122 23.9157 27.6157 23.7657 27.7657C23.6157 27.9157 23.4122 28 23.2 28H8.8C8.58783 28 8.38434 27.9157 8.23431 27.7657C8.08429 27.6157 8 27.4122 8 27.2Z" stroke="#17285D" stroke-width="2" stroke-linecap="round" stroke-linejoin="round"/>
</g>
</svg>
