<svg width="32" height="32" viewBox="0 0 32 32" fill="none" xmlns="http://www.w3.org/2000/svg">
<g id="ico_Quality">
<path id="Vector" d="M14.0279 3.49878C14.2778 3.22423 14.5823 3.00489 14.9219 2.85481C15.2614 2.70472 15.6286 2.6272 15.9999 2.6272C16.3711 2.6272 16.7383 2.70472 17.0779 2.85481C17.4175 3.00489 17.7219 3.22423 17.9719 3.49878L19.3319 4.99211C19.5959 5.282 19.9207 5.51009 20.283 5.66012C20.6453 5.81015 21.0362 5.87844 21.4279 5.86011L23.4452 5.76678C23.8159 5.74931 24.1862 5.80942 24.5323 5.94324C24.8785 6.07707 25.1929 6.28168 25.4554 6.54397C25.718 6.80627 25.9229 7.12047 26.057 7.46649C26.1912 7.81251 26.2516 8.18272 26.2345 8.55345L26.1399 10.5721C26.1215 10.9638 26.1898 11.3547 26.3399 11.717C26.4899 12.0793 26.718 12.4041 27.0079 12.6681L28.5012 14.0281C28.7757 14.278 28.9951 14.5825 29.1452 14.9221C29.2953 15.2617 29.3728 15.6288 29.3728 16.0001C29.3728 16.3714 29.2953 16.7385 29.1452 17.0781C28.9951 17.4177 28.7757 17.7222 28.5012 17.9721L27.0079 19.3321C26.718 19.5962 26.4899 19.9209 26.3399 20.2832C26.1898 20.6455 26.1215 21.0364 26.1399 21.4281L26.2332 23.4454C26.2507 23.8162 26.1906 24.1864 26.0567 24.5326C25.9229 24.8787 25.7183 25.1931 25.456 25.4557C25.1937 25.7182 24.8795 25.9231 24.5335 26.0573C24.1875 26.1914 23.8173 26.2519 23.4465 26.2348L21.4279 26.1401C21.0362 26.1218 20.6453 26.1901 20.283 26.3401C19.9207 26.4901 19.5959 26.7182 19.3319 27.0081L17.9719 28.5014C17.7219 28.776 17.4175 28.9953 17.0779 29.1454C16.7383 29.2955 16.3711 29.373 15.9999 29.373C15.6286 29.373 15.2614 29.2955 14.9219 29.1454C14.5823 28.9953 14.2778 28.776 14.0279 28.5014L12.6679 27.0081C12.4038 26.7182 12.0791 26.4901 11.7168 26.3401C11.3545 26.1901 10.9636 26.1218 10.5719 26.1401L8.55454 26.2334C8.18383 26.2509 7.81356 26.1908 7.46741 26.057C7.12126 25.9232 6.80686 25.7185 6.54432 25.4563C6.28177 25.194 6.07687 24.8798 5.94271 24.5337C5.80855 24.1877 5.74809 23.8175 5.7652 23.4468L5.85987 21.4281C5.87819 21.0364 5.80991 20.6455 5.65987 20.2832C5.50984 19.9209 5.28176 19.5962 4.99187 19.3321L3.49854 17.9721C3.22399 17.7222 3.00465 17.4177 2.85456 17.0781C2.70448 16.7385 2.62695 16.3714 2.62695 16.0001C2.62695 15.6288 2.70448 15.2617 2.85456 14.9221C3.00465 14.5825 3.22399 14.278 3.49854 14.0281L4.99187 12.6681C5.28176 12.4041 5.50984 12.0793 5.65987 11.717C5.80991 11.3547 5.87819 10.9638 5.85987 10.5721L5.76654 8.55478C5.74907 8.18407 5.80917 7.8138 5.943 7.46766C6.07683 7.12151 6.28143 6.80711 6.54373 6.54456C6.80602 6.28202 7.12023 6.07711 7.46625 5.94295C7.81227 5.80879 8.18248 5.74833 8.5532 5.76545L10.5719 5.86011C10.9636 5.87844 11.3545 5.81015 11.7168 5.66012C12.0791 5.51009 12.4038 5.282 12.6679 4.99211L14.0279 3.49878Z" stroke="#17285D" stroke-width="2"/>
<path id="Vector_2" d="M12 15.9999L14.6667 18.6666L20 13.3333" stroke="#17285D" stroke-width="2" stroke-linecap="round" stroke-linejoin="round"/>
</g>
</svg>
