<svg width="32" height="32" viewBox="0 0 32 32" fill="none" xmlns="http://www.w3.org/2000/svg">
<g id="ico_Money">
<path id="Vector" d="M25.3335 21.4999C24.6615 22.8199 23.5442 23.9679 22.1215 24.8346L22.7682 26.9679C22.8044 27.0874 22.8121 27.2138 22.7907 27.3368C22.7694 27.4598 22.7195 27.5762 22.6451 27.6765C22.5707 27.7768 22.4739 27.8583 22.3624 27.9144C22.2508 27.9706 22.1277 27.9999 22.0028 27.9999H19.6508C19.4777 27.9999 19.3093 27.9438 19.1708 27.8399L17.3108 26.4439H14.0615L12.2015 27.8399C12.063 27.9438 11.8946 27.9999 11.7215 27.9999H9.3695C9.24462 27.9999 9.12149 27.9706 9.00995 27.9144C8.89842 27.8583 8.80159 27.7768 8.7272 27.6765C8.65282 27.5762 8.60295 27.4598 8.58158 27.3368C8.56021 27.2138 8.56795 27.0874 8.60416 26.9679L9.25083 24.8346C6.86416 23.3799 5.3335 21.1319 5.3335 18.6106C5.3335 14.2239 9.96816 10.6666 15.6868 10.6666C16.8455 10.6666 18.2935 11.0639 19.3335 11.3333L25.3335 9.33325L25.2215 14.1706L28.0002 15.3333V19.9999L25.4322 21.3333" stroke="#17285D" stroke-width="2" stroke-linecap="round" stroke-linejoin="round"/>
<path id="Vector_2" d="M20.6667 17.3333C20.4899 17.3333 20.3203 17.2631 20.1953 17.1381C20.0702 17.013 20 16.8435 20 16.6667C20 16.4899 20.0702 16.3203 20.1953 16.1953C20.3203 16.0702 20.4899 16 20.6667 16C20.8435 16 21.013 16.0702 21.1381 16.1953C21.2631 16.3203 21.3333 16.4899 21.3333 16.6667C21.3333 16.8435 21.2631 17.013 21.1381 17.1381C21.013 17.2631 20.8435 17.3333 20.6667 17.3333Z" fill="#17285D" stroke="#17285D" stroke-width="2" stroke-linecap="round" stroke-linejoin="round"/>
<path id="Vector_3" d="M2.6665 13.3333C2.6665 13.3333 2.6665 16.5333 5.33317 17.3333" stroke="#17285D" stroke-width="2" stroke-linecap="round" stroke-linejoin="round"/>
<path id="Vector_4" d="M17.0667 10.3373C17.24 9.84133 17.3333 9.308 17.3333 8.75333C17.3333 6.128 15.244 4 12.6667 4C10.0893 4 8 6.128 8 8.75333C8 10.008 8.47733 11.1507 9.25867 12" stroke="#17285D" stroke-width="2" stroke-linejoin="round"/>
</g>
</svg>
