<svg width="32" height="32" viewBox="0 0 32 32" fill="none" xmlns="http://www.w3.org/2000/svg">
<g id="ico&#194;&#176;Book">
<path id="Vector" d="M5.3335 25.3333V6.66667C5.3335 5.95942 5.61445 5.28115 6.11454 4.78105C6.61464 4.28095 7.29292 4 8.00016 4H25.8668C26.079 4 26.2825 4.08429 26.4325 4.23431C26.5825 4.38434 26.6668 4.58783 26.6668 4.8V22.2853M8.00016 22.6667H26.6668M8.00016 28H26.6668" stroke="#17285D" stroke-width="2" stroke-linecap="round"/>
<path id="Vector_2" d="M8.00016 28.0001C7.29292 28.0001 6.61464 27.7191 6.11454 27.219C5.61445 26.7189 5.3335 26.0407 5.3335 25.3334C5.3335 24.6262 5.61445 23.9479 6.11454 23.4478C6.61464 22.9477 7.29292 22.6667 8.00016 22.6667" stroke="#17285D" stroke-width="2" stroke-linecap="round" stroke-linejoin="round"/>
<path id="Vector_3" d="M12 9.33325H20" stroke="#17285D" stroke-width="2" stroke-linecap="round"/>
</g>
</svg>
