<svg xmlns="http://www.w3.org/2000/svg" xmlns:xlink="http://www.w3.org/1999/xlink" width="95" height="118" viewBox="0 0 95 118">
    <defs>
        <path id="xylj1imjfa" d="M0 0.368L94.562 0.368 94.562 103.319 0 103.319z"/>
        <path id="0jd0j3tpbc" d="M0.647 0.394L19.572 0.394 19.572 23.935 0.647 23.935z"/>
        <path id="qt6p8tl1qe" d="M0.666 0.982L12.396 0.982 12.396 15 0.666 15z"/>
    </defs>
    <g fill="none" fill-rule="evenodd">
        <g>
            <g>
                <g>
                    <g>
                        <g transform="translate(-673 -1082) translate(0 803) translate(529 231) translate(144 48) translate(0 3.606)">
                            <mask id="ucxj96qzab" fill="#fff">
                                <use xlink:href="#xylj1imjfa"/>
                            </mask>
                            <path fill="#6866FB" d="M51.944 35.285c4.02 6.066 7.728 11.511 11.273 17.06 3.006 4.701 5.246 4.73 8.323-.06 3.68-5.725 7.378-11.438 11.096-17.138 1.204-1.844 2.825-3.72.115-5.505-2.78-1.83-3.878.706-5.04 2.367-2.956 4.221-5.789 8.53-8.6 12.848-1.285 1.973-2.457 1.922-3.739.077-.758-1.09-1.707-2.1-2.229-3.295-4.387-10.054-11.619-13.937-22.913-13.917-13.148.024-24.437 3.332-34.537 11.423-2.044 1.638-3.35 3.452-2.82 6.408 2.133 11.914 8.512 22.338 11.74 33.867.592 2.114 3.012 2.228 4.62 1.85 1.964-.464.611-2.243.376-3.362-1.517-7.183-4.266-13.977-6.655-20.89-4.793-13.863-4.713-13.785 9.444-18.788 3.08-1.088 3.964-.802 4.172 2.632.493 8.126 1.643 16.213 2.081 24.34.216 3.992 1.803 5.135 5.53 4.825 3.64-.302 7.323-.277 10.976-.128 2.51.102 3.553-.598 3.63-3.295.142-4.983.48-9.98 1.11-14.923.66-5.185.042-10.545 2.047-16.396M24.79 92.015c2.473-.867 1.641-2.999 1.673-4.68.235-12.65.1-25.312-1.194-37.894-1.073-10.447 1.122-10.294-9.845-5.494-3.228 1.413-4.15 2.982-2.84 6.426 2.95 7.763 5.792 15.59 8.16 23.544 1.677 5.635 3.586 11.321 3.302 17.375-.302.377-.577.8-.007 1.117.134.076.495-.252.751-.394m-12.29 9.608c2.194-1.699 4.39-3.398 6.94-5.37-9.63-1.599-11.462-5.115-7.503-13.104 1.501-3.028.158-5.898-.837-8.66C7.718 65.115 4.274 55.761.662 46.473c-1.364-3.505-.636-6.07 2.311-8.204C11.03 32.44 18.7 25.835 29.681 26.53c3.71.234 5.426-1.8 4.694-5.594 2.25-.38 2.404-2.155 2.122-3.766-1.053-6.018 2.164-9.863 6.34-13.38 1.094-.923 1.833-2.269 2.735-3.42 6.668 5.064 6.783 13.44.102 18.475-1.93 1.454-4.135 2.63-3.193 5.432.957 2.845 3.741 1.961 5.604 1.72 7.463-.97 10.51 4.028 13.811 9.245 5.596 8.84 5.71 8.744 10.95-.27.998-1.719 2.138-3.376 3.375-4.933 1.712-2.153 3.184-4.048 2.995-7.28-.214-3.686 2.51-6.172 6.114-6.857 3.662-.696 6.564.987 8.207 4.301 1.653 3.335 1.47 7.09-1.762 8.937-5.108 2.921-7.313 7.894-10.357 12.3-3.116 4.507-5.918 9.23-8.98 13.774-2.878 4.273-7.094 4.366-10.129.138-2.795-3.892-5.312-7.984-8.584-12.946-1.087 8.797-2.6 16.47-2.78 24.332-.062 2.715 1.36 3.67 3.744 3.187 5.21-1.056 6.56 1.303 7.191 6.204.76 5.913 1.853 11.814 2.628 17.75-.952.601-1.922 1.056-3.038.388.15-6.502-1.909-12.707-2.563-19.1-.219-2.145-1.533-2.566-3.452-2.539-7.46.103-14.923.217-22.38.07-3.21-.063-3.905 1.336-3.789 4.178.17 4.136.005 8.285.022 12.428.007 1.507.19 3.128-1.187 4.114-4.67 3.351-9.409 6.61-14.122 9.902l-1.499-1.696" mask="url(#ucxj96qzab)"/>
                        </g>
                        <g transform="translate(-673 -1082) translate(0 803) translate(529 231) translate(144 48) translate(26 .606)">
                            <mask id="qaxeu6ujld" fill="#fff">
                                <use xlink:href="#0jd0j3tpbc"/>
                            </mask>
                            <path fill="#343A55" d="M19.572 3.368c-.902 1.152-1.64 2.498-2.735 3.42-4.176 3.517-7.393 7.363-6.34 13.381.282 1.611.127 3.385-2.122 3.766C3.57 21.482.52 17.782.651 12.181c.115-4.885 2.474-8.73 6.93-10.67 4.18-1.819 8.43-1.564 11.991 1.857" mask="url(#qaxeu6ujld)"/>
                        </g>
                        <path fill="#6866FB" d="M54.616 98.247c-.89-3.875-1.828-7.741-2.65-11.631-.528-2.49-1.789-3.411-4.466-3.464-7.534-.15-7.757-.306-7.979 7.35-.176 6.116-.526 11.228-7.946 13.549-4.89 1.529-9.076 5.303-13.575 8.074l-1.9-2.325c5.115-3.054 10.118-6.31 15.374-9.088 3.487-1.843 4.901-4.2 5.051-8.191.472-12.522.632-12.42 13.004-11.961 2.908.108 4.124 1.262 4.691 3.914.966 4.524 2.128 9.006 3.21 13.506l-2.814.267z" transform="translate(-673 -1082) translate(0 803) translate(529 231) translate(144 48)"/>
                        <g transform="translate(-673 -1082) translate(0 803) translate(529 231) translate(144 48) translate(8 102.606)">
                            <mask id="9m8j5m0d7f" fill="#fff">
                                <use xlink:href="#qt6p8tl1qe"/>
                            </mask>
                            <path fill="#343A55" d="M8.099 7.194l1.9 2.324c.657.944 1.333 1.877 1.965 2.838.483.735.685 1.559-.061 2.212-1.007.883-1.823.268-2.498-.538-2.533-3.024-5.073-6.042-7.547-9.112-.81-1.005-1.886-2.268-.586-3.466 1.53-1.411 2.134.772 3.226 1.17.502.567 1.002 1.133 1.5 1.69.307 1.241 1.004 2.207 2.1 2.882" mask="url(#9m8j5m0d7f)"/>
                        </g>
                        <path fill="#343A55" d="M54.616 98.247c.937-.09 1.875-.178 2.813-.266l4.041-.108c1.116.668 2.086.213 3.04-.39 1.873 1.41 6.29-.73 5.967 2.45-.27 2.673-4.245.879-6.54 1.175-2.442.315-4.948.175-7.425.163-2.148-.01-3.254-.77-1.896-3.024" transform="translate(-673 -1082) translate(0 803) translate(529 231) translate(144 48)"/>
                    </g>
                </g>
            </g>
        </g>
    </g>
</svg>
