<svg xmlns="http://www.w3.org/2000/svg" width="94" height="116" viewBox="0 0 94 116">
    <g fill="none" fill-rule="evenodd">
        <g>
            <g>
                <g>
                    <g>
                        <path fill="#6866FB" d="M25.842 49.224c1.78 1.443 1.546 3.613 1.756 5.5.532 4.794 1.07 9.62 1.057 14.432-.008 3.594 1.33 4.703 4.702 4.33 2.972-.329 6.108-1.002 8.94-.41 6.116 1.273 6.588-1.653 6.728-6.643.257-9.213 1.339-18.404 2.079-27.605l1.27-.259c3.706 5.635 7.43 11.258 11.112 16.91 2.462 3.781 4.7 3.986 7.176.32 4.19-6.203 8.194-12.533 12.297-18.796 1.096-1.672 1.795-3.336-.162-4.81-2.052-1.548-3.443-.23-4.532 1.378-2.24 3.308-4.306 6.735-6.57 10.025-4.611 6.697-4.646 6.673-9.223-.238-8.666-13.08-8.68-13.384-24.324-12.635-5.388.257-11.022-1.482-16.237 1.235-5.021 2.617-9.923 5.421-14.75 8.4-4.3 2.654-5.28 6.021-3.952 10.566 3.036 10.39 7.676 20.19 11.149 30.413.803 2.366 2.618 2.656 4.325 2.168 2.086-.595.967-2.499.645-3.787-2.015-8.086-5.061-15.834-7.801-23.688-3.736-10.71-3.767-9.12 5.772-13.294 8.716-3.814 8.794-3.715 8.482 5.671-1.48-.58-1-1.934-1.113-2.997-.178-1.684-.823-2.203-2.608-1.89-9.332 1.628-11.476 5.172-8.165 13.79.177.465.394.915.564 1.382 4.272 11.773 8.928 23.444 9.506 36.266 2.028-.459 2.135-1.98 2.076-3.46-.447-11.244 1.05-22.528-1.052-33.759-.5-2.673-1.42-5.893.853-8.515M45.11 2.611c6.189 4.208 7.099 12.363 1.905 17.493-.94.928-2.055 1.69-3.15 2.441-1.644 1.131-1.821 2.721-1.386 4.424.44 1.727 1.976 1.481 3.276 1.536 1.496.064 3.006.22 4.488.091 3.742-.324 6.378 1.282 8.36 4.333 2.695 4.152 5.459 8.26 8.328 12.59 4.788-5.192 7.098-11.472 11.632-16.17.607-.63.25-2.213.296-3.356.17-4.274 2.45-6.894 6.558-7.548 3.404-.542 6.344.683 7.714 4.098 1.66 4.14.336 8.683-3.242 10.326-2.006.921-2.852 2.303-3.931 4.038-4.384 7.054-9.006 13.963-13.677 20.832-2.914 4.285-7.131 4.315-10.178.04-2.78-3.9-5.257-8.013-8.97-11.906-.752 7.927-1.68 15.842-2.176 23.785-.205 3.28 2.622 2.087 3.934 1.44 4.418-2.178 6.136-.492 7.878 3.718 2.529 6.116 6.052 11.821 9.153 17.702-.63 1.004-1.452 1.737-2.682 1.893-2.516-6.523-5.854-12.64-9.204-18.755-.784-1.432-1.635-2.538-3.481-1.958-8.051 2.532-16.423 2.18-24.691 2.646-2.587.146-2.942 1.394-2.92 3.492.039 3.822-.202 7.65-.076 11.465.08 2.411-.676 4.085-2.703 5.42-4.29 2.825-8.32 6.055-12.994 8.275l-1.342-2.074 6.029-3.713c-3.586-1.077-6.26-2.51-7.632-5.43-1.453-3.092.19-5.609 1.42-8.412 1.568-3.58-.25-7.112-1.55-10.534C6.736 65.993 3.113 57.256.4 48.168c-.914-3.062-.264-5.157 2.006-7.018 5.42-4.443 11.267-8.167 17.718-10.993 3.033-1.33 6.108-1.339 9.239-1.305 3.672.04 5.655-1.367 4.95-5.332 1.779-.397 2.512-1.705 2.254-3.299-1.054-6.499 2.026-10.947 6.839-14.712.822-.643 1.149-1.916 1.704-2.898" transform="translate(-1085 -1082) translate(0 803) translate(940 231) translate(145 48)"/>
                        <path fill="#343A55" d="M45.11 2.61c-.556.983-.883 2.256-1.704 2.899-4.814 3.766-7.894 8.213-6.84 14.712.26 1.595-.475 2.902-2.253 3.299-7.466-4.653-9.75-10.523-6.539-16.804C31.4-.374 38.4-2.031 45.11 2.61" transform="translate(-1085 -1082) translate(0 803) translate(940 231) translate(145 48)"/>
                        <path fill="#6866FB" d="M64.03 97.765c-2.632-4.022-5.267-8.043-7.893-12.068-.27-.416-.38-1.04-.75-1.274-5.366-3.364-11.018-.049-16.559-.494-3.192-.257-1.95 3.581-2.064 5.614-.63 11.465-.568 11.461-11.562 16.073-3.206 1.344-6.389 2.743-9.582 4.115l-1.19-1.91c1.938-.967 3.823-2.058 5.818-2.88 13.995-5.763 14.108-5.744 14.212-20.609.017-2.617.758-3.154 3.04-3.06 5.503.227 10.995.112 16.345-1.438 1.462-.423 2.218-.208 3.091 1.365 2.824 5.082 6 9.967 9.041 14.93-.314.944-1.094 1.331-1.947 1.636" transform="translate(-1085 -1082) translate(0 803) translate(940 231) translate(145 48)"/>
                        <path fill="#343A55" d="M14.428 107.822c.397.636.795 1.27 1.191 1.909.136 2.195 3.785 4.847 1.491 5.957-3.086 1.493-3.474-2.931-4.903-4.833-1.372-1.822-2.254-4.016-3.312-6.066-.52-1.006-1.355-2.177-.185-3.131 1.597-1.303 2.25.388 3.116 1.263.45.693.897 1.384 1.346 2.07.42.94.838 1.886 1.256 2.83M64.03 97.765c.853-.305 1.633-.692 1.946-1.638 1.087-.573 2.176-1.144 3.264-1.716 1.23-.156 2.053-.889 2.682-1.893 2.237-.612 5.196-3.775 6.426-1.518 1.348 2.471-2.848 3.108-4.666 4.458-2.097 1.56-4.327 2.958-6.584 4.282-2.145 1.257-3.498.937-3.068-1.975" transform="translate(-1085 -1082) translate(0 803) translate(940 231) translate(145 48)"/>
                    </g>
                </g>
            </g>
        </g>
    </g>
</svg>
