<?xml version="1.0" encoding="UTF-8"?>
<svg width="100px" height="80px" viewBox="0 0 100 80" version="1.1" xmlns="http://www.w3.org/2000/svg" xmlns:xlink="http://www.w3.org/1999/xlink">
    <title>infographic</title>
    <defs>
        <polygon id="path-1" points="0 0 100 0 100 80 0 80"></polygon>
    </defs>
    <g id="Page-1" stroke="none" stroke-width="1" fill="none" fill-rule="evenodd">
        <g id="Artboard" transform="translate(-66.000000, -60.000000)">
            <g id="infographic" transform="translate(66.000000, 60.000000)">
                <g id="Clipped">
                    <mask id="mask-2" fill="white">
                        <use xlink:href="#path-1"></use>
                    </mask>
                    <g id="2kpuamatua"></g>
                    <path d="M73.747,14.426 C73.725,14.492 73.705,14.564 73.689,14.648 C73.671,14.744 73.707,14.856 73.719,14.911 C73.755,15.088 73.679,15.325 73.719,15.524 C73.756,15.716 73.804,15.936 73.834,16.123 C73.84,16.273 73.844,16.425 73.849,16.575 C73.901,16.738 74.046,16.909 74.067,17.102 C74.081,17.225 73.987,17.295 74.024,17.452 C74.076,17.684 74.222,17.908 74.241,18.138 L74.198,18.313 C74.231,18.505 74.374,19.023 74.401,19.073 C75.219,20.654 76.329,22.588 77.667,23.659 C77.63,23.661 77.687,23.738 77.695,23.746 C77.896,23.924 77.96,24.213 78.131,24.388 C78.465,24.728 78.909,25.055 79.251,25.338 C79.423,25.482 79.769,25.545 79.888,25.762 C79.948,25.788 79.925,25.762 79.918,25.819 C80.073,25.9 80.178,26.014 80.309,26.112 C80.595,26.322 80.81,26.339 81.136,26.506 C81.754,26.826 82.46,26.894 83.066,27.164 L83.096,27.164 C83.588,27.327 84.343,27.312 84.839,27.441 L85.23,27.427 C85.333,27.51 85.663,27.467 85.854,27.499 C86.15,27.55 86.506,27.543 86.842,27.537 L86.842,27.544 C86.982,27.528 87.142,27.57 87.175,27.576 L87.131,27.605 C87.255,27.575 87.455,27.567 87.567,27.663 C87.507,27.673 87.555,27.653 87.524,27.707 C87.855,27.609 88.301,27.733 88.728,27.81 L89.178,27.823 L89.15,27.867 C89.202,27.84 89.224,27.835 89.28,27.837 C89.308,27.891 89.304,27.842 89.295,27.897 C89.367,27.891 89.441,27.887 89.513,27.882 C89.525,27.932 89.495,27.9 89.542,27.925 C89.493,27.802 90.015,27.959 90.064,27.984 C90.109,28.007 90.124,28.009 90.166,27.999 C90.109,27.984 90.123,27.993 90.093,27.955 L90.282,28.013 L90.238,28.028 L90.296,28.013 L90.456,28.072 L90.413,28.087 C90.498,28.077 90.631,28.087 90.717,28.131 L90.689,28.145 L90.602,28.145 L90.689,28.145 C90.727,28.141 90.742,28.134 90.805,28.131 C90.79,28.145 90.775,28.159 90.762,28.174 L90.993,28.188 C91.003,28.238 90.981,28.212 91.037,28.248 C91.053,28.218 91.037,28.218 91.066,28.232 C91.157,28.312 91.392,28.325 91.502,28.422 L91.502,28.378 C91.637,28.472 92.018,28.635 92.112,28.728 C92.047,28.737 92.086,28.701 92.053,28.758 L92.068,28.758 C92.151,28.644 92.911,29.149 93.055,29.24 C93.078,29.211 93.053,29.222 93.113,29.225 C93.125,29.275 93.103,29.277 93.156,29.313 C93.148,29.297 93.137,29.283 93.128,29.269 C93.309,29.366 93.892,29.585 93.898,29.679 L93.955,29.679 L93.925,29.649 C94.088,29.682 94.543,30.047 94.595,30.101 L94.536,30.087 C94.606,30.144 94.806,30.3 94.972,30.32 C94.97,30.39 94.995,30.393 94.972,30.451 C95.074,30.419 95.235,30.512 95.306,30.598 C95.297,30.647 95.29,30.614 95.334,30.642 C95.35,30.613 95.334,30.614 95.364,30.627 C95.411,30.771 95.476,30.874 95.595,31.007 C95.565,31.065 95.563,31.031 95.582,31.08 L95.612,31.021 L95.64,31.051 L95.611,31.065 C95.698,31.069 95.896,31.215 95.958,31.299 C95.94,31.309 95.92,31.318 95.901,31.327 C96.009,31.422 96.076,31.419 96.234,31.532 C96.246,31.614 96.264,31.626 96.249,31.692 L96.336,31.65 C96.331,31.715 96.3,31.668 96.351,31.722 C96.497,31.759 96.726,32.089 96.83,32.248 C96.992,32.494 97.2,32.601 97.367,32.847 C97.443,32.957 97.489,33.083 97.512,33.182 C97.561,33.23 97.734,33.348 97.802,33.489 C97.846,33.577 97.789,33.591 97.832,33.649 L97.847,33.606 C97.89,33.853 98.151,34.001 98.224,34.146 C98.286,34.268 98.282,34.524 98.34,34.599 C98.424,34.575 98.678,35.126 98.673,35.153 C98.636,35.378 98.966,35.575 98.906,35.665 L98.906,35.709 C98.921,35.716 99.061,36.242 99.051,36.249 C99.15,36.359 99.332,36.797 99.429,37.037 C99.476,37.157 99.426,37.37 99.472,37.533 L99.675,37.987 C99.709,38.103 99.583,38.157 99.645,38.321 C99.768,38.637 99.708,38.841 99.777,39.096 L99.849,39.126 C99.85,39.387 100.006,40.113 100.000169,40.656 L99.952,40.656 C99.958,40.758 99.967,40.866 99.982,40.974 L99.972,41.095 C99.995,41.245 100.012,41.476 99.989,41.64 C99.901,42.28 99.915,43.081 99.759,43.753 C99.752,43.843 99.744,43.931 99.735,44.02 C99.663,44.303 99.601,44.563 99.531,44.817 C99.497,44.938 99.512,45.05 99.47,45.154 C99.427,45.264 99.357,45.38 99.314,45.49 L99.308,45.597 C99.272,45.74 99.262,45.885 99.218,46.05 L99.115,46.31 L98.988,46.777 C98.946,46.863 98.884,46.958 98.85,47.053 C98.774,47.263 98.712,47.531 98.609,47.733 L98.41,48.017 C98.362,48.129 98.365,48.225 98.313,48.347 C98.293,48.396 98.231,48.435 98.211,48.484 C98.123,48.691 98.021,48.828 97.909,48.998 C97.805,49.158 97.733,49.349 97.639,49.518 C97.564,49.649 97.475,49.775 97.396,49.908 L97.276,50.046 L97.197,50.222 C97.14,50.307 96.961,50.449 96.921,50.529 C96.891,50.586 96.88,50.629 96.841,50.673 L96.751,50.667 L96.751,50.673 C96.781,50.675 96.832,50.685 96.841,50.696 C96.784,50.876 96.627,50.983 96.529,51.133 C96.494,51.185 96.479,51.283 96.439,51.323 C96.421,51.333 96.402,51.341 96.384,51.348 C96.315,51.431 96.267,51.548 96.203,51.638 C96.14,51.728 96.056,51.778 95.986,51.861 C95.916,51.943 95.866,52.062 95.8,52.151 C95.696,52.291 95.545,52.386 95.45,52.535 C95.309,52.753 95.195,52.955 95.046,53.147 C94.972,53.241 94.922,53.343 94.852,53.445 C94.795,53.53 94.698,53.578 94.642,53.668 C94.61,53.717 94.598,53.777 94.564,53.82 L94.407,53.981 L94.377,53.981 C94.307,54.084 94.257,54.213 94.177,54.302 L94.081,54.372 C94.054,54.427 94.038,54.5 93.996,54.555 C93.933,54.639 93.811,54.728 93.744,54.831 L93.641,55.031 C93.584,55.108 93.498,55.159 93.441,55.236 C93.371,55.338 93.317,55.461 93.243,55.558 L93.189,55.588 C93.105,55.708 93.056,55.86 92.972,55.979 C92.848,56.154 92.712,56.315 92.586,56.492 C92.529,56.572 92.458,56.611 92.411,56.7 C92.298,56.915 92.193,57.111 92.074,57.311 C92.012,57.414 91.914,57.481 91.856,57.587 C91.706,57.863 91.598,58.216 91.405,58.437 L91.416,58.475 C91.36,58.575 91.312,58.685 91.253,58.797 C91.12,59.053 91.055,59.347 90.928,59.601 L90.808,59.777 C90.761,59.862 90.752,59.987 90.723,60.091 C90.676,60.257 90.58,60.433 90.53,60.595 C90.512,60.656 90.449,60.891 90.452,60.895 C90.364,61.029 90.337,61.206 90.26,61.361 L90.193,61.461 C90.178,61.508 90.189,61.589 90.181,61.637 L90.091,61.974 C90.071,62.044 90.085,62.108 90.072,62.174 C90.022,62.419 89.924,62.733 89.849,62.993 L89.825,63.26 C89.808,63.334 89.771,63.453 89.753,63.52 C89.723,63.629 89.758,63.724 89.734,63.85 C89.631,64.397 89.606,64.953 89.506,65.458 C89.485,65.564 89.524,65.674 89.512,65.771 C89.492,65.94 89.525,66.106 89.512,66.246 L89.482,66.53 C89.474,66.624 89.473,66.885 89.473,66.885 C89.471,67.089 89.447,67.266 89.383,67.385 L89.44,67.413 C89.39,67.513 89.52,67.676 89.425,67.881 C89.351,67.865 89.383,68.154 89.338,68.202 L89.266,68.217 L89.251,68.275 C89.307,68.416 89.063,68.656 89.106,68.918 L89.048,68.903 C89.067,68.958 89.048,68.933 89.091,68.962 C89.069,69.032 89.089,69.019 89.033,69.02 L89.063,69.093 L89.003,69.063 C89,69.103 88.994,69.141 88.99,69.181 C89.02,69.204 89.052,69.204 89.033,69.239 C89.018,69.327 89.003,69.414 88.99,69.501 C88.963,69.491 88.985,69.491 88.96,69.501 L88.917,69.531 L88.975,69.531 L88.945,69.545 L88.903,69.589 C88.871,69.541 88.898,69.567 88.843,69.589 C88.871,69.652 88.91,69.689 88.83,69.764 C88.797,69.793 88.83,69.765 88.787,69.764 C88.771,69.902 88.765,69.869 88.713,69.969 L88.757,69.954 C88.725,70.044 88.684,70.06 88.641,70.026 C88.636,70.126 88.626,70.109 88.583,70.159 C88.628,70.227 88.638,70.21 88.641,70.319 L88.569,70.45 L88.597,70.32 C88.588,70.323 88.578,70.329 88.569,70.334 L88.554,70.421 L88.526,70.393 C88.556,70.46 88.583,70.461 88.597,70.553 L88.569,70.509 C88.582,70.669 88.556,70.833 88.569,70.933 L88.554,70.933 C88.528,70.903 88.554,70.921 88.51,70.903 C88.511,70.949 88.508,70.933 88.496,70.991 L88.554,70.947 L88.554,70.961 C88.512,71.023 88.469,71.059 88.437,71.092 C88.48,71.127 88.46,71.08 88.482,71.137 C88.425,71.151 88.437,71.143 88.409,71.181 L88.452,71.151 C88.442,71.234 88.147,72.279 88.119,72.305 C88.092,72.341 88.025,72.361 87.988,72.436 C88.027,72.446 88.023,72.425 88.018,72.465 L88.031,72.495 C87.756,72.611 87.821,72.925 87.611,73.065 C87.653,73.105 87.643,73.08 87.653,73.123 L87.61,73.108 C87.626,73.155 87.633,73.168 87.596,73.211 C87.576,73.256 87.581,73.221 87.537,73.211 C87.571,73.314 87.546,73.395 87.48,73.473 L87.48,73.43 C87.387,73.472 87.425,73.543 87.364,73.604 L87.407,73.663 C87.332,73.695 87.257,73.871 87.174,73.969 C87.181,73.955 87.184,73.941 87.189,73.925 L87.131,73.941 L87.146,73.969 C87.122,74.002 87.156,74.035 87.073,74.057 C87.053,74.042 87.053,74.044 87.03,74.1 C87.063,74.14 87.044,74.098 87.044,74.16 C86.966,74.185 86.949,74.184 86.971,74.276 C86.919,74.268 86.927,74.267 86.884,74.291 C86.881,74.359 86.855,74.365 86.9,74.451 L86.84,74.524 L86.812,74.48 C86.807,74.541 86.809,74.532 86.768,74.583 C86.824,74.604 86.82,74.593 86.783,74.642 C86.742,74.795 86.681,74.754 86.58,74.904 L86.623,74.919 C86.451,74.93 86.405,75.177 86.231,75.239 C86.272,75.281 86.254,75.267 86.274,75.313 C86.162,75.403 86.1,75.472 86.028,75.561 C86.064,75.589 86.033,75.569 86.071,75.577 L86.028,75.649 C86.016,75.598 86.047,75.627 85.998,75.605 C85.992,75.664 85.989,75.66 85.97,75.692 L86.028,75.677 L85.97,75.707 C85.933,75.787 85.9,75.777 85.853,75.824 L85.913,75.81 C85.896,75.828 85.883,75.848 85.869,75.868 C85.813,75.852 85.853,75.836 85.81,75.868 C85.848,75.875 85.819,75.854 85.853,75.882 L85.782,75.926 C85.728,75.882 85.635,76.029 85.635,76.029 C85.624,76.071 85.608,76.039 85.635,76.072 L85.679,76.058 L85.635,76.102 L85.521,76.102 C85.537,76.142 85.481,76.159 85.461,76.262 C85.431,76.239 85.391,76.247 85.316,76.306 L85.316,76.321 L85.389,76.306 L85.374,76.336 L85.303,76.378 C85.285,76.342 85.311,76.365 85.273,76.35 C85.268,76.392 85.245,76.467 85.201,76.51 L85.273,76.481 C85.247,76.544 85.151,76.617 85.113,76.686 C85.06,76.672 85.102,76.657 85.055,76.686 C85.07,76.743 85.082,76.701 85.041,76.758 L84.968,76.758 L85.002,76.758 C85.005,76.759 85.005,76.762 84.997,76.773 C84.914,76.853 84.833,76.855 84.735,76.89 L84.795,76.89 L84.765,76.934 L84.62,77.007 C84.634,76.987 84.648,76.967 84.664,76.947 C84.648,76.944 84.634,76.938 84.62,76.934 C84.594,76.983 84.585,76.976 84.547,77.007 L84.59,77.035 C84.488,77.04 84.43,77.071 84.416,77.108 L84.46,77.124 C84.284,77.114 84.277,77.18 84.155,77.21 C84.133,77.288 84.125,77.291 84.111,77.328 C84.021,77.308 84.026,77.363 83.923,77.358 C83.928,77.422 83.954,77.391 83.894,77.444 L83.908,77.386 C83.876,77.416 83.881,77.406 83.864,77.46 C83.694,77.517 83.654,77.667 83.516,77.752 L83.56,77.678 L83.487,77.693 L83.444,77.81 L83.4,77.78 C83.41,77.795 83.419,77.81 83.43,77.824 C83.194,77.874 83.091,78 82.848,78.117 L82.864,78.189 C82.784,78.191 82.65,78.257 82.674,78.32 C82.507,78.3 82.497,78.392 82.412,78.451 C82.406,78.406 82.43,78.443 82.399,78.408 C82.365,78.451 82.331,78.497 82.296,78.54 L82.296,78.497 C82.086,78.578 82.086,78.683 81.963,78.744 C81.875,78.787 81.843,78.726 81.773,78.803 L81.803,78.818 C81.767,78.814 81.414,78.942 81.426,78.948 C81.294,79.005 80.986,79.034 80.961,79.021 C80.728,79.146 80.484,79.217 80.132,79.343 C79.852,79.443 79.665,79.356 79.379,79.43 C79.35,79.438 79.299,79.453 79.291,79.416 C79.251,79.489 78.247,79.683 78.231,79.679 L78.231,79.694 L78.261,79.738 C78.187,79.738 78.177,79.754 78.115,79.723 C78.108,79.787 78.145,79.753 78.087,79.781 C78.017,79.745 77.763,79.923 77.752,79.927 L76.94,80 C76.756,79.985 76.54,79.99 76.315,79.994 L76.315,79.962 C76.239,79.971 76.239,79.996 76.149,80 C75.965,79.91 75.796,80.019 75.606,79.985 C75.064,79.89 74.39,80.014 73.927,79.91 C73.927,79.91 73.479,79.923 73.448,79.917 C73.282,79.886 73.1,79.825 72.931,79.804 L72.774,79.82 C72.503,79.791 72.219,79.744 72,79.653 C71.927,79.623 71.671,79.641 71.631,79.631 C71.474,79.591 71.231,79.498 71.069,79.451 L70.911,79.465 C70.723,79.415 70.561,79.34 70.386,79.292 C70.236,79.251 70.109,79.252 69.943,79.202 C69.673,79.12 69.438,78.951 69.123,78.892 L69.123,78.855 C68.926,78.835 68.72,78.699 68.596,78.607 C68.491,78.527 68.174,78.449 68.016,78.381 C67.916,78.337 67.813,78.243 67.721,78.207 C67.514,78.129 67.259,78.056 67.075,77.958 C67.012,77.925 67.004,77.872 66.946,77.838 L66.863,77.83 C66.788,77.797 66.706,77.724 66.633,77.688 C66.582,77.661 66.503,77.665 66.486,77.65 L66.319,77.507 C66.23,77.471 66.132,77.467 66.061,77.416 L66.024,77.333 C65.91,77.268 65.774,77.263 65.664,77.198 L65.544,77.085 C65.251,76.892 64.967,76.714 64.678,76.52 L64.603,76.535 C64.582,76.382 63.958,76.071 63.986,75.97 C63.792,75.973 63.189,75.283 63.045,75.284 C63.022,75.237 62.657,75.044 62.585,74.998 C62.486,74.937 62.395,74.822 62.307,74.75 C62.303,74.746 62.275,74.715 62.299,74.712 C62.081,74.594 61.889,74.475 61.689,74.342 L61.542,74.2 C61.452,74.143 61.332,74.088 61.257,74.019 C61.104,73.88 60.85,73.728 60.731,73.589 C60.675,73.526 60.637,73.45 60.565,73.402 C60.348,73.254 60.104,73.142 59.872,72.987 C59.817,72.948 59.815,72.879 59.772,72.829 C59.661,72.703 59.322,72.569 59.162,72.467 C59.117,72.437 59.09,72.347 59.061,72.324 C58.886,72.188 58.667,72.089 58.489,71.954 C58.439,71.888 58.391,71.82 58.342,71.751 L58.241,71.729 C58.171,71.69 58.119,71.609 58.057,71.564 C58.005,71.524 57.931,71.518 57.881,71.481 C57.681,71.331 57.46,71.129 57.235,71.006 L57.226,71.014 L57.226,71.066 L57.189,71.066 C57.125,71.003 57.115,70.916 57.051,70.847 L56.931,70.802 C56.781,70.717 56.681,70.627 56.516,70.538 C56.504,70.516 56.491,70.493 56.48,70.47 C56.388,70.394 56.244,70.363 56.138,70.297 L56.046,70.2 L55.908,70.17 C55.601,69.995 55.322,69.8 54.985,69.642 C54.937,69.619 54.891,69.555 54.847,69.537 C54.817,69.524 54.757,69.544 54.717,69.522 L54.671,69.454 C54.573,69.389 54.474,69.324 54.377,69.258 C54.094,69.12 53.831,68.961 53.537,68.851 C53.447,68.818 53.253,68.746 53.261,68.663 C53.065,68.665 53.038,68.568 52.938,68.497 C52.892,68.464 52.802,68.462 52.763,68.444 C52.703,68.417 52.643,68.35 52.587,68.316 L52.329,68.241 L52.274,68.181 C51.986,68.049 51.496,67.928 51.14,67.835 L51.093,67.781 C51.028,67.753 50.911,67.762 50.826,67.729 C50.782,67.712 50.712,67.664 50.651,67.646 L50.439,67.624 C50.369,67.596 50.272,67.54 50.181,67.518 C49.869,67.444 49.507,67.425 49.221,67.338 L49.111,67.345 C48.909,67.3 48.06,67.123 47.893,67.179 C47.365,67.029 46.734,67.089 46.206,66.983 C46.04,66.949 45.808,67.016 45.671,66.991 C45.401,66.941 45.024,66.907 44.758,66.885 C44.751,66.889 44.744,66.893 44.737,66.895 L44.737,66.885 C44.616,66.892 44.503,66.897 44.411,66.91 L44.344,66.895 C44.241,66.878 44.071,66.899 43.988,66.91 L43.617,66.895 C43.296,66.935 42.976,66.93 42.636,66.972 L42.39,66.978 C42.165,67.014 41.872,67.03 41.671,67.056 L41.461,67.062 C41.175,67.135 40.859,67.122 40.513,67.186 C40.345,67.218 40.193,67.276 40.023,67.316 C39.789,67.371 39.567,67.361 39.321,67.405 C39.167,67.432 39.021,67.507 38.873,67.545 C38.802,67.563 38.716,67.561 38.637,67.586 C38.577,67.607 38.491,67.65 38.425,67.665 L38.299,67.681 C37.939,67.806 37.604,67.951 37.275,68.091 C37.097,68.167 36.893,68.201 36.708,68.273 C36.272,68.443 35.824,68.595 35.372,68.773 L35.33,68.825 C35.237,68.882 35.035,68.988 34.924,69.028 C34.689,69.113 34.459,69.205 34.248,69.304 C34.194,69.329 34.111,69.336 34.062,69.366 C33.908,69.456 33.765,69.554 33.588,69.631 C33.34,69.738 33.064,69.799 32.802,69.896 C32.6,69.971 32.488,70.109 32.312,70.198 C32.206,70.251 32.056,70.275 31.957,70.333 C31.663,70.503 31.38,70.659 31.051,70.811 C31.021,70.838 30.989,70.864 30.959,70.889 C30.856,70.954 30.738,71.011 30.629,71.071 C30.572,71.103 30.578,71.131 30.527,71.154 C30.291,71.269 30.087,71.425 29.86,71.524 C29.628,71.625 29.347,71.705 29.166,71.836 C28.983,71.969 28.764,72.08 28.591,72.216 C28.465,72.315 28.354,72.424 28.211,72.512 C28.175,72.522 28.138,72.53 28.101,72.538 C27.972,72.588 27.891,72.694 27.788,72.763 L27.585,72.86 L27.585,72.893 C27.547,72.924 27.466,72.947 27.432,72.981 L27.432,73.011 C27.384,73.04 27.317,73.049 27.264,73.074 C27.151,73.127 27.07,73.217 26.985,73.287 C26.929,73.334 26.806,73.361 26.74,73.402 C26.595,73.49 26.464,73.602 26.3,73.678 C26.207,73.72 26.103,73.736 26.004,73.776 C25.862,73.833 25.714,73.913 25.573,73.968 C25.484,74.004 25.362,74.021 25.293,74.068 C25.228,74.112 25.181,74.125 25.099,74.161 L24.973,74.255 C24.902,74.28 24.804,74.298 24.736,74.339 L24.626,74.432 C24.449,74.492 24.222,74.523 24.059,74.599 C23.977,74.636 23.909,74.694 23.831,74.733 C23.621,74.839 23.329,74.896 23.061,74.962 C22.996,74.979 22.918,75.028 22.859,75.051 C22.816,75.057 22.774,75.065 22.731,75.072 C22.597,75.115 22.471,75.183 22.325,75.222 C22.221,75.252 22.145,75.245 22.03,75.269 L21.836,75.337 C21.598,75.411 21.299,75.469 21.049,75.519 C20.859,75.557 20.654,75.583 20.482,75.618 L20.186,75.665 C20.088,75.71 19.996,75.711 19.856,75.742 C19.619,75.797 19.346,75.837 19.096,75.872 C18.798,75.914 18.498,75.898 18.199,75.94 C17.963,75.973 17.744,75.983 17.498,76.013 L17.236,76.034 C17.076,76.015 16.802,76.072 16.593,76.066 C16.32,76.056 16.073,76.044 15.789,76.044 L15.789,76.066 C15.615,76.009 15.479,75.946 15.354,75.908 C15.174,75.854 14.789,76.065 14.544,76.013 C14.244,75.949 13.988,75.844 13.577,75.908 L13.577,75.855 C13.505,75.935 12.99,75.738 12.892,75.698 C12.801,75.764 12.317,75.569 12.118,75.593 C11.683,75.646 11.143,75.363 10.746,75.228 L10.394,75.21 C10.314,75.156 10.239,75.085 10.13,75.017 C9.995,74.934 9.505,74.852 9.515,74.704 C9.347,74.773 8.788,74.547 8.618,74.46 C8.472,74.468 7.905,73.96 7.686,73.832 L7.335,73.709 C7.085,73.453 6.865,73.18 6.545,73.012 L6.05,72.908 C5.786,72.764 5.461,72.528 5.278,72.279 C5.254,72.311 5.281,72.306 5.242,72.296 C5.155,72.25 5.066,72.204 4.978,72.156 L4.978,72.122 C4.855,72.017 4.653,71.567 4.434,71.547 L4.486,71.494 C4.372,71.459 3.295,70.292 3.273,70.117 C3.298,70.117 3.26,70.104 3.255,70.099 C3.097,69.883 2.612,69.655 2.465,69.295 C2.407,69.16 2.363,68.882 2.287,68.79 C2.137,68.604 2.032,68.567 1.954,68.37 C1.839,68.081 1.709,67.462 1.514,67.237 C1.279,66.966 0.9,66.457 0.934,66.051 C0.848,66.063 0.922,66.043 0.812,66.015 C0.846,65.923 0.807,65.935 0.881,65.946 L0.828,65.806 L0.828,65.877 L0.812,65.877 C0.746,65.703 0.682,65.527 0.618,65.353 C0.598,65.28 0.568,64.963 0.618,64.917 C0.556,64.838 0.508,64.749 0.477,64.637 L0.495,64.428 C0.479,64.492 0.495,64.464 0.459,64.498 C0.486,64.351 0.392,64.092 0.442,63.993 L0.442,63.975 L0.406,63.975 C0.401,63.986 0.396,63.998 0.389,64.009 C0.398,63.81 0.374,63.827 0.406,63.678 C0.356,63.698 0.381,63.694 0.336,63.696 C0.287,63.265 0.196,62.853 0.196,62.196 C0.191,62.212 0.183,62.23 0.178,62.248 L0.143,62.248 C0.17,62.03 0.1,61.307 0.038,61.149 C0.032,61.178 0.025,61.206 0.02,61.235 L0.002,60.713 L0.055,60.415 L0.038,60.468 C0.017,60.426 0.005,60.378 0,60.328 L0.027,60.328 C0.021,60.276 0.003,60.276 0,60.218 C0.063,60.095 -0.013,59.983 0.01,59.856 C0.078,59.496 -0.008,59.048 0.063,58.74 C0.063,58.74 0.055,58.442 0.059,58.423 C0.081,58.311 0.124,58.191 0.138,58.078 L0.128,57.975 C0.148,57.795 0.18,57.605 0.243,57.46 C0.265,57.411 0.253,57.241 0.26,57.215 C0.286,57.111 0.353,56.95 0.387,56.841 L0.376,56.737 C0.411,56.612 0.463,56.504 0.498,56.388 C0.526,56.288 0.525,56.204 0.561,56.093 C0.619,55.914 0.737,55.758 0.778,55.548 L0.804,55.548 C0.819,55.418 0.914,55.28 0.979,55.198 C1.035,55.128 1.089,54.918 1.138,54.813 C1.168,54.746 1.235,54.678 1.26,54.617 C1.314,54.48 1.365,54.31 1.434,54.187 C1.458,54.145 1.494,54.141 1.519,54.102 L1.524,54.047 C1.547,53.997 1.598,53.943 1.624,53.893 C1.642,53.86 1.641,53.807 1.651,53.796 L1.751,53.686 C1.776,53.626 1.78,53.561 1.816,53.513 L1.873,53.489 C1.919,53.414 1.923,53.322 1.968,53.25 L2.048,53.17 C2.183,52.975 2.308,52.787 2.444,52.594 L2.434,52.545 C2.541,52.53 2.76,52.115 2.831,52.135 C2.828,52.007 3.313,51.606 3.311,51.51 C3.346,51.494 3.481,51.251 3.514,51.203 C3.556,51.138 3.637,51.078 3.687,51.02 C3.691,51.016 3.712,50.998 3.714,51.013 C3.798,50.868 3.88,50.742 3.974,50.609 L4.074,50.512 C4.114,50.451 4.153,50.372 4.201,50.321 C4.298,50.221 4.405,50.051 4.503,49.971 C4.547,49.936 4.6,49.91 4.635,49.861 C4.738,49.718 4.817,49.555 4.925,49.401 C4.953,49.364 5.001,49.364 5.037,49.335 C5.125,49.261 5.219,49.037 5.29,48.931 C5.312,48.899 5.376,48.882 5.392,48.862 C5.486,48.746 5.556,48.6 5.65,48.482 L5.793,48.385 C5.799,48.362 5.804,48.34 5.808,48.317 C5.836,48.271 5.894,48.237 5.925,48.195 C5.953,48.161 5.957,48.111 5.985,48.078 C6.089,47.945 6.229,47.798 6.317,47.65 L6.312,47.643 L6.275,47.643 L6.275,47.619 C6.318,47.576 6.381,47.569 6.428,47.527 L6.46,47.447 C6.52,47.347 6.583,47.281 6.645,47.171 L6.693,47.147 C6.746,47.087 6.768,46.991 6.815,46.92 L6.883,46.858 L6.904,46.768 C7.027,46.564 7.164,46.378 7.274,46.154 C7.29,46.121 7.336,46.093 7.348,46.062 C7.358,46.042 7.344,46.003 7.36,45.976 L7.407,45.946 C7.453,45.88 7.497,45.815 7.544,45.75 C7.641,45.563 7.754,45.388 7.829,45.192 C7.854,45.132 7.903,45.004 7.962,45.008 C7.961,44.878 8.028,44.86 8.079,44.794 C8.102,44.764 8.103,44.702 8.116,44.677 C8.135,44.637 8.182,44.597 8.206,44.561 L8.259,44.39 L8.301,44.352 C8.394,44.161 8.479,43.836 8.544,43.599 L8.581,43.569 C8.602,43.524 8.595,43.447 8.618,43.389 C8.63,43.361 8.664,43.315 8.677,43.274 L8.693,43.133 C8.713,43.086 8.752,43.023 8.766,42.962 C8.818,42.755 8.833,42.514 8.894,42.324 L8.888,42.25 C8.92,42.117 9.043,41.552 9.004,41.442 C9.11,41.09 9.067,40.672 9.142,40.321 C9.165,40.21 9.119,40.056 9.137,39.965 C9.172,39.785 9.195,39.535 9.21,39.359 L9.204,39.344 L9.205,39.344 C9.207,39.339 9.207,39.334 9.21,39.33 C9.197,39.153 9.177,38.904 9.147,38.723 C9.133,38.633 9.172,38.479 9.152,38.367 C9.087,38.016 9.124,37.598 9.034,37.247 C9.067,37.137 8.961,36.571 8.934,36.438 L8.939,36.365 C8.886,36.175 8.875,35.933 8.83,35.727 C8.817,35.666 8.783,35.603 8.766,35.556 L8.753,35.414 C8.743,35.374 8.713,35.328 8.703,35.299 C8.683,35.242 8.688,35.164 8.672,35.12 L8.639,35.09 C8.583,34.853 8.51,34.527 8.43,34.337 L8.395,34.299 L8.349,34.128 C8.329,34.091 8.289,34.051 8.272,34.011 C8.261,33.986 8.26,33.925 8.241,33.895 C8.198,33.829 8.14,33.811 8.141,33.681 C8.091,33.685 8.047,33.557 8.027,33.496 C7.962,33.301 7.865,33.126 7.782,32.939 L7.664,32.743 L7.624,32.713 C7.61,32.685 7.622,32.646 7.614,32.626 C7.604,32.596 7.565,32.568 7.55,32.534 C7.455,32.311 7.339,32.124 7.234,31.921 C7.227,31.891 7.222,31.861 7.216,31.83 L7.156,31.768 C7.116,31.698 7.099,31.602 7.053,31.542 L7.012,31.517 C6.959,31.407 6.904,31.341 6.852,31.241 L6.825,31.161 C6.785,31.119 6.732,31.112 6.694,31.069 L6.694,31.045 L6.726,31.045 L6.73,31.039 C6.656,30.89 6.535,30.743 6.444,30.611 C6.422,30.577 6.418,30.528 6.394,30.493 C6.367,30.451 6.318,30.418 6.294,30.372 L6.281,30.303 L6.159,30.206 C6.078,30.088 6.019,29.943 5.937,29.826 C5.923,29.806 5.868,29.789 5.85,29.758 C5.79,29.652 5.708,29.428 5.634,29.354 C5.604,29.324 5.561,29.324 5.538,29.287 C5.444,29.134 5.377,28.971 5.288,28.827 C5.258,28.779 5.214,28.753 5.175,28.717 C5.092,28.637 5,28.468 4.917,28.367 C4.875,28.317 4.842,28.237 4.807,28.177 L4.721,28.079 C4.642,27.947 4.571,27.82 4.499,27.675 C4.498,27.691 4.479,27.672 4.477,27.669 C4.433,27.61 4.363,27.55 4.327,27.485 C4.3,27.437 4.184,27.195 4.155,27.179 C4.155,27.082 3.74,26.682 3.742,26.554 C3.681,26.573 3.494,26.158 3.402,26.144 L3.412,26.094 C3.294,25.902 3.186,25.714 3.071,25.518 L3.003,25.438 C2.963,25.366 2.96,25.275 2.921,25.199 C2.904,25.191 2.888,25.182 2.871,25.175 C2.842,25.128 2.838,25.062 2.817,25.003 L2.731,24.893 C2.722,24.881 2.723,24.829 2.708,24.795 C2.686,24.746 2.642,24.691 2.622,24.641 L2.618,24.586 C2.597,24.548 2.565,24.543 2.545,24.502 C2.486,24.379 2.442,24.209 2.395,24.072 C2.374,24.01 2.317,23.942 2.291,23.875 C2.249,23.77 2.203,23.56 2.155,23.49 C2.099,23.408 2.017,23.27 2.005,23.14 L1.983,23.14 C1.947,22.93 1.846,22.775 1.797,22.595 C1.767,22.485 1.767,22.4 1.742,22.3 C1.712,22.185 1.667,22.077 1.638,21.952 L1.648,21.847 C1.618,21.739 1.561,21.577 1.538,21.474 C1.533,21.447 1.543,21.277 1.525,21.228 C1.471,21.083 1.442,20.894 1.425,20.714 C1.427,20.678 1.431,20.644 1.434,20.61 C1.422,20.498 1.384,20.377 1.366,20.266 C1.362,20.246 1.371,19.948 1.371,19.948 C1.308,19.641 1.382,19.193 1.325,18.833 C1.305,18.706 1.371,18.593 1.315,18.471 C1.319,18.412 1.334,18.412 1.339,18.361 L1.316,18.361 C1.382,18.157 1.456,17.999 1.5,17.853 C1.563,17.646 1.317,17.198 1.378,16.913 C1.452,16.563 1.575,16.265 1.5,15.788 L1.562,15.788 C1.468,15.704 1.699,15.105 1.746,14.991 C1.668,14.885 1.896,14.322 1.868,14.091 C1.808,13.585 2.138,12.957 2.297,12.496 L2.317,12.086 C2.38,11.993 2.464,11.906 2.542,11.78 C2.64,11.622 2.737,11.053 2.911,11.065 C2.829,10.87 3.093,10.219 3.196,10.022 C3.186,9.851 3.781,9.192 3.931,8.938 L4.074,8.528 C4.374,8.239 4.693,7.982 4.889,7.608 C4.932,7.418 4.972,7.227 5.013,7.036 C5.181,6.729 5.457,6.351 5.748,6.136 C5.712,6.109 5.717,6.141 5.728,6.096 C5.782,5.994 5.836,5.891 5.892,5.789 L5.932,5.789 C6.055,5.645 6.582,5.409 6.605,5.156 L6.666,5.216 C6.708,5.082 8.074,3.831 8.28,3.806 C8.279,3.835 8.294,3.79 8.301,3.784 C8.553,3.602 8.819,3.037 9.24,2.865 C9.399,2.799 9.725,2.748 9.833,2.66 C10.05,2.486 10.093,2.362 10.323,2.273 C10.663,2.138 11.386,1.988 11.649,1.761 C11.967,1.487 12.563,1.046 13.038,1.086 C13.024,0.986 13.048,1.071 13.08,0.943 C13.187,0.983 13.173,0.939 13.161,1.025 C13.216,1.005 13.269,0.985 13.324,0.963 L13.242,0.963 L13.242,0.943 L13.855,0.719 C13.94,0.695 14.312,0.659 14.365,0.719 C14.457,0.646 14.562,0.589 14.693,0.554 C14.773,0.561 14.856,0.569 14.938,0.575 C14.863,0.556 14.896,0.576 14.856,0.533 C15.027,0.566 15.33,0.455 15.447,0.514 L15.468,0.514 L15.468,0.474 L15.428,0.452 C15.661,0.462 15.641,0.434 15.816,0.473 C15.793,0.414 15.798,0.443 15.795,0.39 C16.3,0.334 16.781,0.228 17.551,0.227 L17.491,0.207 L17.491,0.166 C17.744,0.196 18.591,0.116 18.776,0.044 L18.675,0.022 L19.287,0.002 C19.402,0.022 19.517,0.044 19.635,0.063 C19.614,0.057 19.593,0.049 19.573,0.044 C19.622,0.019 19.679,0.006 19.737,0 L19.737,0.007 L19.755,0 C19.977,0.018 20.29,0.044 20.515,0.085 C20.629,0.105 20.823,0.051 20.962,0.079 C21.402,0.164 21.927,0.114 22.367,0.235 C22.507,0.191 23.215,0.332 23.382,0.368 C23.412,0.366 23.443,0.363 23.475,0.362 C23.713,0.432 24.015,0.447 24.274,0.506 C24.349,0.524 24.429,0.568 24.488,0.591 C24.548,0.596 24.606,0.602 24.665,0.609 C24.717,0.623 24.775,0.661 24.811,0.675 C24.882,0.701 24.979,0.694 25.035,0.718 L25.073,0.76 C25.369,0.834 25.778,0.93 26.018,1.037 C26.034,1.052 26.049,1.069 26.064,1.085 L26.279,1.145 C26.325,1.172 26.376,1.225 26.425,1.247 C26.458,1.262 26.534,1.263 26.571,1.289 C26.655,1.347 26.677,1.424 26.84,1.422 C26.835,1.489 26.995,1.546 27.07,1.574 C27.316,1.66 27.536,1.788 27.77,1.898 L28.017,2.054 C28.028,2.074 28.042,2.091 28.055,2.109 C28.088,2.127 28.137,2.111 28.162,2.12 C28.199,2.136 28.237,2.186 28.278,2.206 C28.558,2.333 28.79,2.488 29.046,2.627 C29.084,2.636 29.122,2.644 29.161,2.651 L29.238,2.73 C29.326,2.782 29.446,2.807 29.522,2.868 L29.554,2.923 C29.69,2.993 29.774,3.066 29.899,3.133 L29.999,3.17 C30.052,3.224 30.061,3.294 30.114,3.345 L30.145,3.345 L30.145,3.302 L30.152,3.297 C30.34,3.397 30.524,3.556 30.69,3.677 C30.732,3.707 30.794,3.712 30.837,3.742 C30.889,3.779 30.932,3.844 30.99,3.875 L31.075,3.892 C31.115,3.947 31.157,4.002 31.198,4.055 C31.345,4.163 31.528,4.242 31.674,4.351 C31.699,4.369 31.72,4.441 31.759,4.465 C31.892,4.547 32.174,4.655 32.266,4.755 C32.303,4.795 32.303,4.851 32.35,4.882 C32.543,5.006 32.746,5.095 32.927,5.212 C32.987,5.252 33.02,5.312 33.065,5.363 C33.164,5.473 33.375,5.596 33.504,5.706 C33.566,5.762 33.665,5.806 33.742,5.852 L33.864,5.966 C34.03,6.072 34.19,6.166 34.371,6.262 C34.352,6.264 34.376,6.288 34.38,6.292 C34.452,6.35 34.528,6.442 34.61,6.49 C34.67,6.527 34.975,6.681 34.995,6.719 C35.114,6.718 35.617,7.271 35.778,7.268 C35.755,7.348 36.275,7.598 36.292,7.72 L36.355,7.707 C36.595,7.864 36.832,8.005 37.077,8.159 L37.177,8.249 C37.267,8.302 37.381,8.306 37.476,8.359 L37.507,8.425 C37.567,8.465 37.648,8.469 37.722,8.497 L37.861,8.612 C37.875,8.623 37.941,8.622 37.983,8.642 C38.044,8.672 38.113,8.729 38.176,8.756 L38.244,8.763 C38.292,8.789 38.3,8.832 38.352,8.858 C38.505,8.937 38.719,8.996 38.89,9.058 C38.967,9.086 39.053,9.161 39.137,9.196 C39.268,9.251 39.532,9.313 39.621,9.378 C39.721,9.451 39.895,9.56 40.059,9.576 L40.059,9.606 C40.321,9.652 40.517,9.788 40.743,9.853 C40.881,9.893 40.986,9.893 41.111,9.925 C41.257,9.965 41.391,10.024 41.549,10.064 L41.679,10.052 C41.816,10.091 42.019,10.166 42.149,10.197 C42.182,10.204 42.395,10.191 42.456,10.215 C42.638,10.287 42.875,10.325 43.102,10.347 L43.232,10.335 C43.372,10.351 43.524,10.401 43.662,10.425 C43.688,10.43 44.062,10.419 44.062,10.419 C44.448,10.502 45.009,10.404 45.461,10.479 C45.62,10.506 45.761,10.42 45.915,10.492 C45.988,10.489 45.988,10.469 46.052,10.462 L46.052,10.479 L46.068,10.487 C46.138,10.507 46.384,10.459 46.428,10.475 L46.612,10.482 L46.692,10.475 L46.737,10.487 C46.809,10.477 46.939,10.462 47.037,10.475 C47.097,10.482 47.282,10.494 47.331,10.487 C47.464,10.467 47.585,10.445 47.721,10.43 C47.832,10.418 47.973,10.398 48.08,10.377 L48.145,10.385 C48.172,10.377 48.228,10.375 48.269,10.362 C48.352,10.337 48.529,10.272 48.629,10.249 C48.685,10.237 48.742,10.242 48.799,10.219 C48.827,10.209 48.866,10.181 48.909,10.171 L49.039,10.155 C49.126,10.134 49.204,10.111 49.283,10.084 L49.343,10.081 C49.45,10.048 49.578,10.018 49.693,9.998 C49.741,9.989 49.793,10.001 49.843,9.982 L49.887,9.952 C49.948,9.93 50.017,9.942 50.077,9.919 C50.21,9.866 50.352,9.816 50.477,9.756 C50.52,9.736 50.559,9.748 50.602,9.73 C50.632,9.719 50.656,9.688 50.682,9.678 C50.702,9.677 50.725,9.676 50.746,9.673 C50.766,9.663 50.776,9.636 50.796,9.625 L50.871,9.614 C50.891,9.606 50.904,9.584 50.921,9.576 L51.016,9.55 C51.09,9.516 51.151,9.463 51.241,9.437 C51.249,9.423 51.246,9.432 51.241,9.418 C51.325,9.421 51.392,9.334 51.461,9.305 C51.518,9.281 51.573,9.28 51.625,9.253 C51.746,9.188 51.867,9.125 51.99,9.061 C52.08,9.012 52.113,8.922 52.23,8.898 L52.234,8.876 L52.259,8.876 C52.354,8.825 52.424,8.763 52.499,8.696 L52.559,8.666 C52.579,8.641 52.581,8.618 52.609,8.601 C52.784,8.497 52.961,8.369 53.098,8.266 L53.083,8.259 L53.143,8.24 L53.143,8.21 C53.226,8.168 53.337,8.094 53.393,8.034 L53.418,7.996 C53.493,7.951 53.576,7.919 53.648,7.871 C53.684,7.847 53.7,7.785 53.728,7.766 C53.761,7.744 53.831,7.69 53.862,7.676 C53.888,7.664 53.916,7.673 53.937,7.661 C53.977,7.638 53.991,7.607 54.011,7.578 C54.04,7.54 54.096,7.531 54.127,7.503 C54.163,7.47 54.194,7.424 54.237,7.398 C54.366,7.316 54.496,7.233 54.636,7.161 C54.72,7.118 54.806,7.017 54.881,6.961 C54.976,6.892 55.091,6.843 55.196,6.781 C55.216,6.767 55.239,6.733 55.25,6.724 C55.27,6.711 55.3,6.711 55.32,6.698 C55.336,6.688 55.331,6.664 55.345,6.653 C55.365,6.644 55.385,6.637 55.405,6.63 L55.425,6.596 C55.48,6.564 55.559,6.543 55.595,6.499 C55.713,6.355 55.893,6.246 56.073,6.138 C56.133,6.102 56.134,6.046 56.174,6.013 L56.22,6 C56.239,5.99 56.248,5.966 56.254,5.96 L56.354,5.907 C56.437,5.857 56.484,5.764 56.614,5.749 C56.608,5.737 56.614,5.744 56.604,5.737 C56.812,5.661 56.954,5.55 57.134,5.459 C57.176,5.437 57.274,5.377 57.288,5.373 C57.307,5.366 57.331,5.376 57.353,5.365 L57.363,5.361 L57.368,5.331 C57.383,5.314 57.418,5.319 57.438,5.309 L57.563,5.21 L57.643,5.203 C57.673,5.189 57.696,5.157 57.728,5.143 C57.805,5.111 57.881,5.086 57.943,5.052 C57.953,5.048 57.947,5.027 57.947,5.027 L58.007,5.007 L58.063,4.947 L58.103,4.947 C58.14,4.937 58.19,4.896 58.202,4.89 C58.222,4.883 58.282,4.885 58.322,4.872 C58.379,4.854 58.481,4.834 58.532,4.804 C58.556,4.79 58.598,4.76 58.636,4.748 L58.722,4.736 C58.739,4.726 58.754,4.714 58.772,4.702 C58.895,4.657 59.018,4.628 59.15,4.574 C59.188,4.56 59.226,4.528 59.26,4.514 L59.385,4.5 C59.406,4.494 59.423,4.475 59.441,4.47 C59.56,4.433 59.661,4.446 59.78,4.401 L59.88,4.346 C60.028,4.316 60.212,4.296 60.35,4.232 C60.363,4.241 60.531,4.197 60.544,4.19 C60.556,4.201 60.62,4.198 60.644,4.19 C60.776,4.15 60.932,4.157 61.079,4.12 C61.149,4.101 61.263,4.112 61.358,4.089 C61.56,4.041 61.823,4.026 62.027,3.995 C62.187,3.971 62.42,3.991 62.571,3.961 C62.631,3.951 62.687,3.966 62.726,3.961 C62.833,3.949 62.916,3.952 63.01,3.934 C63.06,3.926 63.115,3.955 63.159,3.94 L63.159,4.105 C63.271,4.093 63.399,4.126 63.425,4.13 L63.39,4.153 C63.49,4.13 63.65,4.123 63.74,4.2 C63.69,4.206 63.73,4.193 63.704,4.235 C63.969,4.157 64.326,4.257 64.668,4.316 L65.028,4.328 L65.005,4.364 C65.047,4.342 65.064,4.337 65.109,4.339 C65.131,4.384 65.129,4.343 65.122,4.387 C65.18,4.384 65.238,4.378 65.295,4.375 C65.305,4.415 65.282,4.39 65.319,4.41 C65.279,4.31 65.698,4.436 65.736,4.457 C65.772,4.475 65.784,4.477 65.819,4.469 C65.773,4.457 65.783,4.464 65.759,4.434 L65.911,4.48 L65.876,4.492 C65.891,4.487 65.907,4.484 65.922,4.48 L66.052,4.526 L66.015,4.539 C66.084,4.53 66.19,4.539 66.26,4.573 L66.236,4.586 L66.166,4.586 L66.236,4.586 C66.267,4.583 66.279,4.576 66.329,4.573 C66.318,4.586 66.306,4.597 66.294,4.609 C66.356,4.612 66.419,4.616 66.481,4.621 C66.488,4.661 66.469,4.64 66.514,4.667 C66.528,4.645 66.514,4.645 66.539,4.655 C66.611,4.718 66.799,4.729 66.886,4.807 L66.886,4.772 C66.994,4.847 67.301,4.978 67.374,5.052 C67.323,5.059 67.354,5.03 67.328,5.076 L67.34,5.076 C67.407,4.984 68.014,5.389 68.13,5.461 C68.148,5.439 68.128,5.446 68.175,5.449 C68.185,5.489 68.168,5.491 68.21,5.519 L68.188,5.485 C68.333,5.562 68.798,5.737 68.803,5.811 L68.849,5.811 L68.826,5.788 C68.956,5.815 69.32,6.108 69.361,6.15 L69.314,6.139 C69.37,6.185 69.531,6.309 69.663,6.326 C69.662,6.381 69.682,6.384 69.663,6.43 C69.745,6.404 69.873,6.479 69.93,6.548 C69.924,6.587 69.917,6.561 69.953,6.583 C69.966,6.56 69.953,6.561 69.976,6.571 C70.013,6.686 70.066,6.768 70.162,6.874 C70.137,6.921 70.135,6.894 70.15,6.933 C70.157,6.917 70.166,6.903 70.173,6.886 L70.196,6.91 L70.173,6.921 C70.243,6.925 70.402,7.041 70.453,7.108 L70.406,7.131 C70.493,7.207 70.547,7.205 70.673,7.295 C70.682,7.361 70.696,7.371 70.685,7.424 C70.708,7.411 70.731,7.401 70.755,7.388 C70.75,7.441 70.725,7.404 70.765,7.448 C70.884,7.477 71.065,7.741 71.149,7.868 C71.279,8.065 71.445,8.151 71.579,8.348 C71.639,8.435 71.676,8.535 71.695,8.615 C71.733,8.654 71.872,8.748 71.927,8.86 C71.962,8.93 71.917,8.941 71.95,8.99 L71.963,8.954 C71.997,9.152 72.206,9.27 72.263,9.386 C72.313,9.484 72.311,9.689 72.357,9.748 C72.425,9.728 72.628,10.17 72.624,10.192 C72.594,10.372 72.857,10.53 72.81,10.601 L72.81,10.637 C72.822,10.643 72.934,11.063 72.926,11.069 C73.006,11.157 73.151,11.507 73.228,11.699 C73.266,11.795 73.225,11.966 73.264,12.096 C73.317,12.218 73.371,12.337 73.426,12.458 C73.452,12.552 73.352,12.595 73.403,12.727 C73.5,12.979 73.453,13.142 73.507,13.347 C73.527,13.354 73.546,13.361 73.565,13.37 C73.565,13.58 73.69,14.16 73.685,14.594" id="Path" fill="#F6F8FA" fill-rule="nonzero" mask="url(#mask-2)"></path>
                </g>
                <g id="Group" transform="translate(28.000000, 20.000000)" fill="#504FFF" fill-rule="nonzero">
                    <path d="M42.47,17.848 L42.383,17.85 C41.501,17.895 40.618,17.931 39.735,17.964 C38.214,9.562 31.661,3.344 23.255,2.406 L23.229,2.403 C23.189,2.387 23.146,2.373 23.104,2.359 L23.105,1.579 C23.105,0.713 22.439,0.059 21.556,0.059 C20.674,0.059 20.008,0.713 20.008,1.579 L20.008,2.247 C12.4,2.906 5.584,9.8 4.112,15.825 C3.795,17.122 3.613,18.448 3.571,19.776 C2.874,19.751 2.255,19.714 1.659,19.662 C0.775,19.587 0.125,20.198 0.088,21.06 C0.055,21.818 0.553,22.67 1.542,22.755 C2.222,22.815 2.928,22.855 3.73,22.879 C4.412,27.629 7.039,31.612 11.174,34.138 C13.851,35.774 17.324,36.701 20.993,36.766 C21.061,37.354 21.133,37.943 21.207,38.532 C21.324,39.466 22.127,39.955 22.858,39.955 C23.302,39.955 23.708,39.782 23.975,39.479 C24.235,39.186 24.348,38.789 24.295,38.363 C24.221,37.782 24.15,37.201 24.082,36.62 C31.995,35.73 40.191,30.73 40.077,21.56 C40.075,21.396 40.071,21.227 40.064,21.05 C40.859,21.02 41.655,20.986 42.451,20.946 C43.319,20.902 43.957,20.199 43.934,19.312 C43.913,18.464 43.297,17.848 42.47,17.848 Z M23.776,33.563 C23.61,31.532 23.571,29.812 23.649,28.196 C23.669,27.775 23.533,27.386 23.263,27.104 C22.984,26.812 22.576,26.644 22.143,26.644 C21.389,26.644 20.601,27.154 20.553,28.13 C20.471,29.813 20.513,31.6 20.685,33.702 C12.91,33.427 8.217,28.707 6.992,24.028 C6.898,23.667 6.826,23.283 6.779,22.882 C9.323,22.807 12.087,22.546 15.403,22.068 C16.169,21.958 16.667,21.346 16.613,20.582 C16.553,19.755 15.832,18.892 14.747,19.046 C11.774,19.474 9.245,19.712 6.865,19.786 C7.915,13.217 13.93,6.46 19.88,5.345 C19.92,5.337 19.96,5.33 20.001,5.324 C19.989,8.179 19.958,10.427 19.9,12.534 C19.888,12.954 20.032,13.338 20.305,13.618 C20.586,13.908 20.995,14.073 21.425,14.073 C22.298,14.073 22.973,13.428 22.997,12.572 C23.054,10.49 23.085,8.277 23.098,5.485 L23.104,5.485 C29.994,6.255 35.677,11.488 36.89,18.063 C34.69,18.138 32.431,18.225 30.197,18.394 C29.208,18.469 28.706,19.314 28.734,20.071 C28.767,20.939 29.413,21.555 30.3,21.488 C32.564,21.318 34.874,21.23 37.123,21.153 C37.09,22.248 36.938,23.343 36.669,24.417 C35.313,29.837 29.332,32.868 23.776,33.563 Z" id="Shape"></path>
                    <path d="M22.217,18 C19.261,18 19.261,22.667 22.217,22.667 C25.172,22.667 25.172,18 22.217,18" id="Path"></path>
                </g>
            </g>
        </g>
    </g>
</svg>