<?xml version="1.0" encoding="UTF-8"?>
<svg width="101px" height="80px" viewBox="0 0 101 80" version="1.1" xmlns="http://www.w3.org/2000/svg" xmlns:xlink="http://www.w3.org/1999/xlink">
    <title>infographic2</title>
    <defs>
        <polygon id="path-1" points="0 0 100.488 0 100.488 80 0 80"></polygon>
        <polygon id="path-3" points="0 0 100.488 0 100.488 80 0 80"></polygon>
    </defs>
    <g id="Page-1" stroke="none" stroke-width="1" fill="none" fill-rule="evenodd">
        <g id="Artboard" transform="translate(-66.000000, -185.000000)">
            <g id="infographic2" transform="translate(66.000000, 185.000000)">
                <g id="Clipped">
                    <mask id="mask-2" fill="white">
                        <use xlink:href="#path-1"></use>
                    </mask>
                    <g id="7uzoj67eqa"></g>
                    <path d="M74.107,14.426 C74.085,14.492 74.064,14.564 74.049,14.648 C74.031,14.744 74.067,14.856 74.079,14.911 C74.115,15.088 74.038,15.325 74.079,15.524 C74.116,15.716 74.164,15.936 74.195,16.123 L74.209,16.575 C74.261,16.738 74.407,16.909 74.429,17.102 C74.442,17.225 74.348,17.295 74.385,17.452 C74.438,17.684 74.584,17.908 74.603,18.138 L74.559,18.313 C74.593,18.505 74.737,19.023 74.764,19.073 C75.585,20.654 76.701,22.588 78.046,23.659 C78.009,23.661 78.066,23.738 78.074,23.746 C78.276,23.924 78.34,24.213 78.512,24.388 C78.848,24.728 79.294,25.055 79.637,25.338 C79.81,25.482 80.158,25.545 80.277,25.762 C80.338,25.788 80.315,25.762 80.307,25.819 C80.464,25.9 80.569,26.014 80.701,26.112 C80.989,26.322 81.204,26.339 81.532,26.506 C82.153,26.826 82.862,26.894 83.472,27.164 L83.502,27.164 C83.996,27.327 84.754,27.312 85.252,27.441 L85.646,27.427 C85.75,27.51 86.081,27.467 86.273,27.499 C86.57,27.55 86.928,27.543 87.265,27.537 L87.265,27.544 C87.407,27.528 87.567,27.57 87.601,27.576 L87.556,27.605 C87.681,27.575 87.882,27.567 87.994,27.663 C87.934,27.673 87.982,27.653 87.951,27.707 C88.284,27.609 88.731,27.733 89.161,27.81 L89.614,27.823 L89.585,27.867 C89.637,27.84 89.659,27.835 89.716,27.837 C89.744,27.891 89.739,27.842 89.731,27.897 C89.803,27.891 89.877,27.887 89.95,27.882 C89.962,27.932 89.932,27.9 89.978,27.925 C89.93,27.802 90.454,27.959 90.503,27.984 C90.549,28.007 90.563,28.009 90.606,27.999 C90.549,27.984 90.562,27.993 90.533,27.955 L90.722,28.013 L90.679,28.028 L90.737,28.013 L90.897,28.072 L90.854,28.087 C90.94,28.077 91.074,28.087 91.16,28.131 L91.131,28.145 L91.044,28.145 L91.131,28.145 C91.169,28.141 91.184,28.134 91.248,28.131 L91.204,28.174 L91.437,28.188 C91.447,28.238 91.424,28.212 91.482,28.248 C91.497,28.218 91.48,28.218 91.51,28.232 C91.602,28.312 91.838,28.325 91.948,28.422 L91.948,28.378 C92.084,28.472 92.468,28.635 92.56,28.728 C92.496,28.737 92.535,28.701 92.502,28.758 L92.517,28.758 C92.601,28.644 93.364,29.149 93.509,29.24 C93.533,29.211 93.507,29.222 93.567,29.225 C93.579,29.275 93.557,29.277 93.611,29.313 C93.602,29.297 93.591,29.283 93.582,29.269 C93.764,29.366 94.35,29.585 94.355,29.679 L94.414,29.679 L94.384,29.649 C94.547,29.682 95.004,30.047 95.056,30.101 L94.998,30.087 C95.068,30.144 95.269,30.3 95.435,30.32 C95.433,30.39 95.459,30.393 95.435,30.451 C95.538,30.419 95.7,30.512 95.771,30.598 C95.762,30.647 95.755,30.614 95.799,30.642 C95.815,30.613 95.799,30.614 95.829,30.627 C95.877,30.771 95.942,30.874 96.062,31.007 C96.031,31.065 96.029,31.031 96.048,31.08 L96.078,31.021 L96.106,31.051 L96.077,31.065 C96.165,31.069 96.364,31.215 96.427,31.299 L96.368,31.327 C96.478,31.422 96.545,31.419 96.704,31.532 C96.715,31.614 96.734,31.626 96.718,31.692 L96.806,31.65 C96.801,31.715 96.769,31.668 96.821,31.722 C96.968,31.759 97.198,32.089 97.302,32.248 C97.465,32.494 97.675,32.601 97.842,32.847 C97.918,32.957 97.965,33.083 97.988,33.182 C98.036,33.23 98.211,33.348 98.28,33.489 C98.323,33.577 98.266,33.591 98.308,33.649 C98.314,33.635 98.318,33.619 98.324,33.606 C98.368,33.853 98.63,34.001 98.703,34.146 C98.765,34.268 98.761,34.524 98.819,34.599 C98.904,34.575 99.159,35.126 99.155,35.153 C99.117,35.378 99.449,35.575 99.388,35.665 L99.388,35.709 C99.403,35.716 99.544,36.242 99.534,36.249 C99.634,36.359 99.817,36.797 99.914,37.037 C99.962,37.157 99.911,37.37 99.957,37.533 L100.162,37.987 C100.195,38.103 100.068,38.157 100.132,38.321 C100.255,38.637 100.194,38.841 100.264,39.096 L100.336,39.126 C100.337,39.387 100.494,40.113 100.488168,40.656 L100.44,40.656 C100.446,40.758 100.455,40.866 100.47,40.974 L100.459,41.095 C100.483,41.245 100.5,41.476 100.477,41.64 C100.387,42.28 100.403,43.081 100.247,43.753 L100.222,44.02 C100.149,44.303 100.086,44.563 100.017,44.817 C99.983,44.938 99.997,45.05 99.955,45.154 C99.912,45.264 99.842,45.38 99.799,45.49 L99.792,45.597 C99.756,45.74 99.746,45.885 99.702,46.05 C99.668,46.137 99.632,46.223 99.599,46.31 L99.471,46.777 C99.428,46.863 99.366,46.958 99.332,47.053 C99.256,47.263 99.194,47.531 99.09,47.733 L98.89,48.017 C98.841,48.129 98.845,48.225 98.793,48.347 C98.772,48.396 98.71,48.435 98.69,48.484 C98.601,48.691 98.499,48.828 98.387,48.998 C98.282,49.158 98.21,49.349 98.115,49.518 C98.04,49.649 97.951,49.775 97.871,49.908 L97.751,50.046 L97.671,50.222 C97.613,50.307 97.434,50.449 97.393,50.529 C97.363,50.586 97.353,50.629 97.314,50.673 C97.284,50.671 97.254,50.668 97.223,50.667 L97.223,50.673 C97.253,50.675 97.304,50.685 97.314,50.696 C97.256,50.876 97.098,50.983 97,51.133 C96.965,51.185 96.95,51.283 96.909,51.323 C96.891,51.333 96.872,51.341 96.854,51.348 C96.785,51.431 96.736,51.548 96.672,51.638 C96.608,51.728 96.525,51.778 96.454,51.861 C96.384,51.943 96.334,52.062 96.267,52.151 C96.163,52.291 96.011,52.386 95.916,52.535 C95.774,52.753 95.66,52.955 95.509,53.147 C95.435,53.241 95.385,53.343 95.315,53.445 C95.258,53.53 95.16,53.578 95.103,53.668 C95.072,53.717 95.06,53.777 95.025,53.82 L94.867,53.981 L94.837,53.981 C94.768,54.084 94.717,54.213 94.637,54.302 L94.54,54.372 C94.513,54.427 94.497,54.5 94.455,54.555 C94.391,54.639 94.269,54.728 94.201,54.831 L94.097,55.031 C94.04,55.108 93.955,55.159 93.897,55.236 C93.826,55.338 93.773,55.461 93.697,55.558 L93.644,55.588 C93.559,55.708 93.51,55.86 93.426,55.979 C93.301,56.154 93.163,56.315 93.037,56.492 C92.98,56.572 92.909,56.611 92.862,56.7 C92.749,56.915 92.642,57.111 92.523,57.311 C92.461,57.414 92.363,57.481 92.304,57.587 C92.154,57.863 92.045,58.216 91.851,58.437 L91.862,58.475 C91.805,58.575 91.758,58.685 91.698,58.797 C91.564,59.053 91.5,59.347 91.372,59.601 L91.251,59.777 C91.203,59.862 91.195,59.987 91.165,60.091 C91.119,60.257 91.021,60.433 90.972,60.595 C90.954,60.656 90.89,60.891 90.893,60.895 C90.805,61.029 90.778,61.206 90.7,61.361 L90.633,61.461 C90.618,61.508 90.629,61.589 90.621,61.637 L90.53,61.974 C90.51,62.044 90.524,62.108 90.512,62.174 C90.462,62.419 90.362,62.733 90.287,62.993 L90.263,63.26 C90.246,63.334 90.209,63.453 90.191,63.52 C90.161,63.629 90.196,63.724 90.172,63.85 C90.068,64.397 90.043,64.953 89.942,65.458 C89.922,65.564 89.96,65.674 89.949,65.771 C89.928,65.94 89.962,66.106 89.949,66.246 L89.919,66.53 C89.911,66.624 89.909,66.885 89.909,66.885 C89.908,67.089 89.883,67.266 89.819,67.385 L89.876,67.413 C89.826,67.513 89.957,67.676 89.861,67.881 C89.787,67.865 89.819,68.154 89.774,68.202 L89.701,68.217 L89.686,68.275 C89.743,68.416 89.497,68.656 89.541,68.918 L89.482,68.903 C89.502,68.958 89.482,68.933 89.526,68.962 C89.504,69.032 89.524,69.019 89.468,69.02 L89.498,69.093 L89.438,69.063 L89.424,69.181 C89.454,69.204 89.487,69.204 89.468,69.239 L89.424,69.501 C89.397,69.491 89.419,69.491 89.394,69.501 L89.351,69.531 L89.409,69.531 L89.379,69.545 C89.366,69.56 89.351,69.575 89.336,69.589 C89.305,69.541 89.332,69.567 89.277,69.589 C89.305,69.652 89.344,69.689 89.263,69.764 C89.231,69.793 89.263,69.765 89.22,69.764 C89.204,69.902 89.198,69.869 89.146,69.969 L89.19,69.954 C89.158,70.044 89.116,70.06 89.073,70.026 C89.069,70.126 89.058,70.109 89.015,70.159 C89.06,70.227 89.071,70.21 89.073,70.319 L89.001,70.45 L89.03,70.32 C89.02,70.323 89.01,70.329 89.001,70.334 L88.986,70.421 L88.958,70.393 C88.988,70.46 89.015,70.461 89.03,70.553 L89,70.51 C89.013,70.67 88.987,70.834 89,70.934 L88.985,70.934 C88.959,70.904 88.985,70.922 88.941,70.904 C88.941,70.95 88.939,70.934 88.927,70.992 L88.985,70.948 L88.985,70.962 C88.943,71.024 88.9,71.06 88.868,71.093 C88.91,71.128 88.89,71.081 88.912,71.138 C88.855,71.152 88.868,71.144 88.839,71.182 L88.883,71.152 C88.873,71.235 88.576,72.28 88.547,72.306 C88.521,72.342 88.453,72.362 88.417,72.437 C88.455,72.447 88.451,72.426 88.446,72.466 L88.46,72.496 C88.183,72.612 88.25,72.926 88.036,73.066 C88.08,73.106 88.069,73.081 88.08,73.124 L88.036,73.109 C88.052,73.156 88.06,73.169 88.023,73.212 C88.002,73.257 88.007,73.222 87.963,73.212 C87.997,73.315 87.972,73.396 87.905,73.474 L87.905,73.431 C87.812,73.473 87.85,73.544 87.789,73.605 L87.832,73.664 C87.757,73.696 87.682,73.872 87.599,73.97 C87.605,73.956 87.609,73.942 87.613,73.926 L87.555,73.942 L87.57,73.97 C87.546,74.003 87.58,74.036 87.497,74.058 C87.477,74.043 87.476,74.045 87.454,74.101 C87.486,74.141 87.467,74.099 87.467,74.161 C87.389,74.186 87.372,74.185 87.394,74.277 C87.341,74.269 87.35,74.268 87.307,74.292 C87.303,74.36 87.278,74.366 87.322,74.452 C87.303,74.477 87.283,74.502 87.263,74.525 L87.235,74.481 C87.229,74.542 87.231,74.533 87.19,74.584 C87.246,74.605 87.242,74.594 87.205,74.643 C87.164,74.796 87.102,74.755 87.001,74.905 C87.016,74.909 87.031,74.915 87.044,74.92 C86.872,74.931 86.825,75.178 86.651,75.24 C86.692,75.282 86.674,75.268 86.694,75.314 C86.581,75.404 86.519,75.473 86.447,75.562 C86.483,75.59 86.452,75.57 86.49,75.578 L86.447,75.65 C86.435,75.599 86.466,75.628 86.417,75.606 C86.411,75.665 86.407,75.661 86.388,75.693 C86.408,75.689 86.427,75.683 86.447,75.678 L86.388,75.708 C86.351,75.788 86.318,75.778 86.271,75.825 L86.331,75.811 C86.314,75.829 86.301,75.849 86.287,75.869 C86.231,75.853 86.271,75.837 86.227,75.869 C86.266,75.876 86.237,75.855 86.271,75.883 L86.199,75.927 C86.145,75.883 86.052,76.03 86.052,76.03 C86.04,76.072 86.025,76.04 86.052,76.073 L86.095,76.059 L86.052,76.103 L85.937,76.103 C85.954,76.143 85.897,76.16 85.877,76.263 C85.846,76.24 85.807,76.248 85.732,76.307 L85.732,76.322 C85.756,76.316 85.782,76.312 85.805,76.307 L85.79,76.337 L85.718,76.379 C85.7,76.343 85.726,76.366 85.688,76.351 C85.683,76.393 85.66,76.468 85.615,76.511 L85.688,76.482 C85.662,76.545 85.566,76.618 85.528,76.687 C85.473,76.673 85.516,76.658 85.469,76.687 C85.484,76.744 85.496,76.702 85.454,76.759 L85.382,76.759 L85.416,76.759 C85.419,76.76 85.419,76.763 85.412,76.774 C85.329,76.854 85.247,76.856 85.149,76.891 L85.208,76.891 L85.178,76.935 L85.032,77.008 L85.077,76.948 C85.061,76.945 85.047,76.939 85.032,76.935 C85.007,76.984 84.997,76.977 84.959,77.008 L85.003,77.036 C84.9,77.041 84.842,77.072 84.828,77.109 L84.872,77.125 C84.695,77.115 84.689,77.181 84.566,77.211 C84.544,77.289 84.536,77.292 84.521,77.329 C84.431,77.309 84.436,77.364 84.332,77.359 C84.337,77.423 84.364,77.392 84.304,77.445 L84.317,77.387 C84.286,77.417 84.29,77.407 84.273,77.461 C84.103,77.518 84.063,77.668 83.923,77.753 L83.967,77.679 L83.894,77.694 L83.851,77.811 L83.806,77.781 L83.836,77.825 C83.6,77.875 83.496,78.001 83.252,78.118 L83.268,78.19 C83.188,78.192 83.053,78.258 83.078,78.321 C82.909,78.301 82.9,78.393 82.814,78.452 C82.808,78.407 82.832,78.444 82.8,78.409 C82.767,78.452 82.733,78.498 82.698,78.541 L82.698,78.498 C82.486,78.579 82.486,78.684 82.363,78.745 C82.275,78.788 82.242,78.727 82.173,78.804 C82.183,78.808 82.193,78.814 82.202,78.819 C82.166,78.815 81.812,78.943 81.823,78.949 C81.691,79.006 81.381,79.035 81.356,79.022 C81.122,79.147 80.876,79.218 80.523,79.344 C80.241,79.444 80.053,79.357 79.766,79.431 C79.737,79.439 79.686,79.454 79.678,79.417 C79.638,79.49 78.628,79.684 78.613,79.68 L78.613,79.695 L78.643,79.739 C78.568,79.739 78.559,79.755 78.496,79.724 C78.489,79.788 78.526,79.754 78.468,79.782 C78.397,79.746 78.142,79.924 78.132,79.928 L77.315,80.001 C77.131,79.986 76.913,79.991 76.688,79.995 L76.688,79.963 C76.61,79.972 76.61,79.997 76.521,80.001 C76.335,79.911 76.166,80.02 75.975,79.986 C75.43,79.891 74.753,80.015 74.288,79.911 C74.288,79.911 73.837,79.924 73.806,79.918 C73.639,79.887 73.456,79.826 73.287,79.805 L73.129,79.821 C72.856,79.792 72.571,79.745 72.351,79.654 C72.278,79.624 72.021,79.642 71.981,79.632 C71.823,79.592 71.579,79.499 71.416,79.452 L71.257,79.466 C71.067,79.416 70.905,79.341 70.729,79.293 C70.579,79.252 70.451,79.253 70.284,79.203 C70.012,79.121 69.776,78.952 69.46,78.893 L69.46,78.856 C69.262,78.836 69.055,78.7 68.931,78.608 C68.825,78.528 68.507,78.45 68.348,78.382 C68.247,78.338 68.144,78.244 68.051,78.208 C67.844,78.13 67.587,78.057 67.403,77.959 C67.339,77.926 67.331,77.873 67.273,77.839 L67.189,77.831 C67.114,77.798 67.031,77.725 66.957,77.689 C66.907,77.662 66.827,77.666 66.81,77.651 L66.642,77.508 C66.553,77.472 66.455,77.468 66.383,77.417 L66.346,77.334 C66.232,77.269 66.094,77.264 65.984,77.199 L65.864,77.086 C65.57,76.893 65.284,76.715 64.994,76.521 L64.918,76.536 C64.897,76.383 64.27,76.072 64.298,75.971 C64.103,75.974 63.498,75.284 63.352,75.285 C63.329,75.238 62.962,75.045 62.89,74.999 C62.79,74.938 62.7,74.823 62.611,74.751 C62.607,74.747 62.579,74.716 62.603,74.713 C62.383,74.595 62.191,74.476 61.99,74.343 L61.842,74.201 C61.751,74.144 61.632,74.089 61.555,74.02 C61.402,73.881 61.147,73.729 61.028,73.59 C60.971,73.527 60.932,73.451 60.86,73.403 C60.642,73.255 60.397,73.143 60.164,72.988 C60.108,72.949 60.107,72.88 60.064,72.83 C59.952,72.704 59.612,72.57 59.451,72.468 C59.405,72.438 59.378,72.348 59.349,72.325 C59.173,72.189 58.953,72.09 58.774,71.955 C58.724,71.889 58.676,71.821 58.626,71.752 L58.525,71.73 C58.455,71.691 58.402,71.61 58.34,71.565 C58.288,71.525 58.214,71.519 58.163,71.482 C57.963,71.332 57.74,71.13 57.515,71.007 L57.505,71.015 L57.505,71.067 L57.468,71.067 C57.404,71.004 57.394,70.917 57.33,70.848 L57.209,70.803 C57.059,70.718 56.959,70.628 56.791,70.539 L56.755,70.471 C56.663,70.395 56.518,70.364 56.411,70.298 C56.381,70.266 56.351,70.233 56.319,70.201 L56.181,70.171 C55.872,69.996 55.591,69.801 55.253,69.643 C55.205,69.62 55.159,69.556 55.115,69.538 C55.084,69.525 55.025,69.545 54.985,69.523 L54.938,69.455 L54.642,69.259 C54.358,69.121 54.094,68.962 53.799,68.852 C53.708,68.819 53.513,68.747 53.521,68.664 C53.324,68.666 53.296,68.569 53.196,68.498 C53.15,68.465 53.059,68.463 53.02,68.445 C52.961,68.418 52.9,68.351 52.844,68.317 L52.584,68.242 L52.529,68.182 C52.239,68.05 51.747,67.929 51.389,67.836 L51.343,67.782 C51.277,67.754 51.16,67.763 51.074,67.73 C51.03,67.713 50.96,67.665 50.898,67.647 L50.685,67.625 C50.614,67.597 50.518,67.541 50.425,67.519 C50.112,67.445 49.749,67.426 49.462,67.339 L49.351,67.346 C49.148,67.301 48.294,67.124 48.127,67.18 C47.597,67.03 46.962,67.09 46.431,66.984 C46.264,66.95 46.031,67.017 45.894,66.992 C45.622,66.942 45.244,66.908 44.976,66.886 C44.97,66.89 44.962,66.894 44.955,66.896 L44.955,66.886 C44.833,66.893 44.72,66.898 44.628,66.911 L44.56,66.896 C44.457,66.879 44.286,66.9 44.203,66.911 L43.829,66.896 C43.507,66.936 43.185,66.931 42.844,66.973 C42.762,66.975 42.68,66.978 42.597,66.979 C42.371,67.015 42.077,67.031 41.875,67.057 L41.663,67.063 C41.375,67.136 41.058,67.123 40.711,67.187 C40.541,67.219 40.388,67.277 40.218,67.317 C39.983,67.372 39.76,67.362 39.513,67.406 C39.358,67.433 39.213,67.508 39.063,67.546 C38.991,67.564 38.904,67.562 38.825,67.587 C38.765,67.608 38.679,67.651 38.613,67.666 L38.486,67.682 C38.125,67.807 37.787,67.952 37.456,68.092 C37.278,68.168 37.073,68.202 36.887,68.274 C36.449,68.444 35.999,68.596 35.545,68.774 C35.531,68.791 35.516,68.808 35.503,68.826 C35.409,68.883 35.205,68.989 35.094,69.029 C34.859,69.114 34.627,69.206 34.415,69.305 C34.36,69.33 34.278,69.337 34.228,69.367 C34.074,69.457 33.93,69.555 33.752,69.632 C33.502,69.739 33.225,69.8 32.962,69.897 C32.759,69.972 32.647,70.11 32.469,70.199 C32.363,70.252 32.212,70.276 32.113,70.334 C31.817,70.504 31.533,70.66 31.203,70.812 C31.173,70.839 31.14,70.865 31.11,70.89 C31.006,70.955 30.888,71.012 30.779,71.072 C30.722,71.104 30.727,71.132 30.676,71.155 C30.439,71.27 30.233,71.426 30.006,71.525 C29.773,71.626 29.49,71.706 29.308,71.837 C29.124,71.97 28.904,72.081 28.731,72.217 C28.604,72.316 28.491,72.425 28.348,72.513 C28.312,72.523 28.275,72.531 28.238,72.539 C28.108,72.589 28.026,72.695 27.924,72.764 L27.72,72.861 L27.72,72.894 C27.682,72.925 27.6,72.948 27.566,72.982 L27.566,73.012 C27.518,73.041 27.45,73.05 27.397,73.075 C27.284,73.128 27.202,73.218 27.117,73.288 C27.061,73.335 26.937,73.362 26.87,73.403 C26.724,73.491 26.593,73.603 26.428,73.679 C26.335,73.721 26.23,73.737 26.131,73.777 C25.988,73.834 25.839,73.914 25.697,73.969 C25.608,74.005 25.486,74.022 25.417,74.069 C25.351,74.113 25.304,74.126 25.221,74.162 L25.094,74.256 C25.024,74.281 24.925,74.299 24.856,74.34 L24.746,74.433 C24.569,74.493 24.34,74.524 24.176,74.6 C24.094,74.637 24.026,74.695 23.948,74.734 C23.736,74.84 23.443,74.897 23.173,74.963 C23.108,74.98 23.03,75.029 22.97,75.052 C22.927,75.058 22.885,75.066 22.842,75.073 C22.707,75.116 22.58,75.184 22.434,75.223 C22.329,75.253 22.252,75.246 22.138,75.27 L21.942,75.338 C21.703,75.412 21.402,75.47 21.152,75.52 C20.962,75.558 20.754,75.584 20.582,75.619 L20.285,75.666 C20.186,75.711 20.093,75.712 19.954,75.743 C19.714,75.798 19.44,75.838 19.189,75.873 C18.889,75.915 18.588,75.899 18.288,75.941 C18.051,75.974 17.831,75.984 17.583,76.014 L17.32,76.035 C17.159,76.016 16.884,76.073 16.673,76.067 C16.4,76.057 16.151,76.045 15.866,76.045 L15.866,76.067 C15.691,76.01 15.554,75.947 15.429,75.909 C15.249,75.855 14.862,76.066 14.615,76.014 C14.314,75.95 14.057,75.845 13.643,75.909 L13.643,75.856 C13.571,75.936 13.053,75.739 12.954,75.699 C12.864,75.765 12.377,75.57 12.177,75.594 C11.74,75.647 11.197,75.364 10.799,75.229 L10.444,75.211 C10.364,75.157 10.289,75.086 10.18,75.018 C10.043,74.935 9.552,74.853 9.561,74.705 C9.393,74.774 8.831,74.548 8.66,74.461 C8.513,74.469 7.944,73.961 7.724,73.833 L7.37,73.71 C7.12,73.454 6.898,73.181 6.576,73.013 L6.08,72.909 C5.815,72.765 5.488,72.529 5.304,72.28 C5.279,72.312 5.307,72.307 5.268,72.297 C5.18,72.251 5.091,72.205 5.002,72.157 L5.002,72.123 C4.878,72.018 4.675,71.568 4.455,71.548 L4.508,71.495 C4.393,71.46 3.311,70.293 3.288,70.118 C3.314,70.118 3.276,70.105 3.271,70.1 C3.111,69.884 2.624,69.656 2.476,69.296 C2.419,69.161 2.375,68.883 2.299,68.791 C2.149,68.605 2.041,68.568 1.963,68.371 C1.848,68.082 1.718,67.463 1.521,67.238 C1.285,66.967 0.904,66.458 0.938,66.052 C0.853,66.064 0.927,66.044 0.816,66.016 C0.85,65.924 0.811,65.936 0.886,65.947 L0.832,65.807 L0.832,65.878 L0.816,65.878 C0.75,65.704 0.686,65.528 0.621,65.354 C0.601,65.281 0.571,64.964 0.621,64.918 C0.558,64.839 0.51,64.75 0.479,64.638 C0.486,64.57 0.491,64.499 0.497,64.429 C0.481,64.493 0.498,64.465 0.461,64.499 C0.489,64.352 0.393,64.093 0.444,63.994 L0.444,63.976 L0.408,63.976 C0.403,63.987 0.398,63.999 0.391,64.01 C0.4,63.811 0.376,63.828 0.408,63.679 C0.358,63.699 0.383,63.695 0.338,63.697 C0.288,63.266 0.197,62.854 0.197,62.197 C0.191,62.213 0.184,62.231 0.179,62.249 L0.144,62.249 C0.17,62.03 0.1,61.307 0.038,61.149 C0.032,61.178 0.025,61.206 0.02,61.235 L0.002,60.713 L0.055,60.415 L0.038,60.468 C0.017,60.426 0.005,60.378 0,60.328 L0.028,60.328 C0.021,60.276 0.003,60.276 0,60.218 C0.063,60.095 -0.013,59.983 0.01,59.856 C0.078,59.496 -0.008,59.048 0.063,58.74 C0.063,58.74 0.055,58.442 0.059,58.423 C0.081,58.311 0.125,58.191 0.139,58.078 L0.128,57.975 C0.148,57.795 0.181,57.605 0.244,57.46 C0.267,57.411 0.254,57.241 0.261,57.215 C0.288,57.111 0.354,56.95 0.389,56.841 L0.378,56.737 C0.413,56.612 0.465,56.504 0.5,56.388 C0.529,56.288 0.528,56.204 0.564,56.093 C0.622,55.914 0.74,55.758 0.782,55.548 L0.808,55.548 C0.823,55.418 0.918,55.28 0.984,55.198 C1.04,55.128 1.094,54.918 1.144,54.813 C1.174,54.746 1.241,54.678 1.266,54.617 C1.32,54.48 1.372,54.31 1.441,54.187 C1.465,54.145 1.502,54.141 1.526,54.102 C1.527,54.083 1.53,54.065 1.532,54.047 C1.555,53.997 1.606,53.943 1.632,53.893 C1.65,53.86 1.649,53.807 1.659,53.796 L1.76,53.686 C1.784,53.626 1.789,53.561 1.825,53.513 L1.882,53.489 C1.928,53.414 1.932,53.322 1.978,53.25 L2.058,53.17 C2.194,52.975 2.318,52.787 2.456,52.594 L2.446,52.545 C2.553,52.53 2.773,52.115 2.844,52.135 C2.842,52.007 3.329,51.606 3.328,51.51 C3.363,51.494 3.498,51.251 3.531,51.203 C3.573,51.138 3.655,51.078 3.705,51.02 C3.709,51.016 3.73,50.998 3.732,51.013 C3.816,50.868 3.899,50.742 3.993,50.609 L4.093,50.512 C4.133,50.451 4.173,50.372 4.222,50.321 C4.319,50.221 4.427,50.051 4.525,49.971 C4.57,49.936 4.622,49.91 4.657,49.861 C4.761,49.718 4.84,49.555 4.949,49.401 C4.977,49.364 5.025,49.364 5.061,49.335 C5.151,49.261 5.244,49.037 5.316,48.931 C5.337,48.899 5.402,48.882 5.418,48.862 C5.513,48.746 5.583,48.6 5.678,48.482 L5.821,48.385 L5.837,48.317 C5.864,48.271 5.922,48.237 5.954,48.195 C5.982,48.161 5.986,48.111 6.014,48.078 C6.119,47.945 6.26,47.798 6.348,47.65 L6.342,47.643 L6.305,47.643 L6.305,47.619 C6.349,47.576 6.412,47.569 6.46,47.527 L6.491,47.447 C6.551,47.347 6.615,47.281 6.678,47.171 C6.694,47.164 6.709,47.155 6.725,47.147 C6.779,47.087 6.801,46.991 6.848,46.92 L6.917,46.858 L6.937,46.768 C7.062,46.564 7.198,46.378 7.31,46.154 C7.326,46.121 7.372,46.093 7.384,46.062 C7.394,46.042 7.38,46.003 7.396,45.976 L7.443,45.946 C7.489,45.88 7.534,45.815 7.581,45.75 C7.678,45.563 7.791,45.388 7.868,45.192 C7.892,45.132 7.942,45.004 8.001,45.008 C8,44.878 8.068,44.86 8.118,44.794 C8.142,44.764 8.143,44.702 8.155,44.677 C8.175,44.637 8.222,44.597 8.245,44.561 L8.299,44.39 L8.342,44.352 C8.435,44.161 8.52,43.836 8.586,43.599 L8.623,43.569 C8.644,43.524 8.637,43.447 8.66,43.389 C8.673,43.361 8.706,43.315 8.72,43.274 L8.735,43.133 C8.755,43.086 8.795,43.023 8.809,42.962 C8.861,42.755 8.876,42.514 8.937,42.324 L8.932,42.25 C8.963,42.117 9.087,41.552 9.048,41.442 C9.155,41.09 9.112,40.672 9.187,40.321 C9.21,40.21 9.163,40.056 9.181,39.965 C9.216,39.785 9.24,39.535 9.255,39.359 L9.249,39.344 L9.25,39.344 C9.252,39.339 9.252,39.334 9.255,39.33 C9.242,39.153 9.222,38.904 9.192,38.723 C9.177,38.633 9.216,38.479 9.196,38.367 C9.132,38.016 9.169,37.598 9.078,37.247 C9.112,37.137 9.005,36.571 8.978,36.438 L8.983,36.365 C8.93,36.175 8.918,35.933 8.873,35.727 C8.86,35.666 8.826,35.603 8.809,35.556 C8.805,35.508 8.801,35.461 8.795,35.414 C8.785,35.374 8.756,35.328 8.745,35.299 C8.725,35.242 8.731,35.164 8.714,35.12 L8.681,35.09 C8.625,34.853 8.552,34.527 8.471,34.337 L8.436,34.299 L8.39,34.128 C8.37,34.091 8.329,34.051 8.312,34.011 C8.302,33.986 8.3,33.925 8.282,33.895 C8.238,33.829 8.18,33.811 8.181,33.681 C8.13,33.685 8.087,33.557 8.066,33.496 C8.001,33.301 7.904,33.126 7.82,32.939 L7.702,32.743 L7.662,32.713 C7.648,32.685 7.659,32.646 7.652,32.626 C7.64,32.596 7.602,32.568 7.587,32.534 C7.491,32.311 7.375,32.124 7.269,31.921 L7.251,31.83 L7.191,31.768 C7.151,31.698 7.134,31.602 7.087,31.542 L7.046,31.517 C6.993,31.407 6.938,31.341 6.886,31.241 L6.859,31.161 C6.819,31.119 6.764,31.112 6.726,31.069 L6.726,31.045 L6.759,31.045 L6.763,31.039 C6.688,30.89 6.567,30.743 6.476,30.611 C6.453,30.577 6.449,30.528 6.426,30.493 C6.398,30.451 6.349,30.418 6.326,30.372 L6.312,30.303 L6.189,30.206 C6.108,30.088 6.049,29.943 5.966,29.826 C5.952,29.806 5.897,29.789 5.879,29.758 C5.818,29.652 5.736,29.428 5.661,29.354 C5.631,29.324 5.588,29.324 5.565,29.287 C5.471,29.134 5.403,28.971 5.315,28.827 C5.285,28.779 5.239,28.753 5.2,28.717 C5.116,28.637 5.024,28.468 4.94,28.367 C4.898,28.317 4.866,28.237 4.83,28.177 L4.744,28.079 C4.664,27.947 4.593,27.82 4.521,27.675 C4.52,27.691 4.501,27.672 4.499,27.669 C4.454,27.61 4.384,27.55 4.349,27.485 C4.321,27.437 4.205,27.195 4.175,27.179 C4.176,27.082 3.758,26.682 3.76,26.554 C3.699,26.573 3.51,26.158 3.419,26.144 L3.429,26.094 C3.309,25.902 3.202,25.714 3.085,25.518 L3.018,25.438 C2.978,25.366 2.974,25.275 2.935,25.199 C2.918,25.191 2.902,25.182 2.885,25.175 C2.856,25.128 2.852,25.062 2.831,25.003 L2.744,24.893 C2.735,24.881 2.736,24.829 2.722,24.795 C2.699,24.746 2.655,24.691 2.635,24.641 L2.631,24.586 C2.609,24.548 2.578,24.543 2.558,24.502 C2.498,24.379 2.454,24.209 2.408,24.072 C2.385,24.01 2.328,23.942 2.302,23.875 C2.26,23.77 2.214,23.56 2.165,23.49 C2.109,23.408 2.027,23.27 2.015,23.14 L1.993,23.14 C1.957,22.93 1.855,22.775 1.806,22.595 C1.775,22.485 1.776,22.4 1.751,22.3 C1.721,22.185 1.675,22.077 1.646,21.952 L1.656,21.847 C1.626,21.739 1.569,21.577 1.546,21.474 C1.54,21.447 1.551,21.277 1.533,21.228 C1.478,21.083 1.449,20.894 1.431,20.714 L1.441,20.61 C1.429,20.498 1.391,20.377 1.373,20.266 C1.369,20.246 1.377,19.948 1.377,19.948 C1.315,19.641 1.389,19.193 1.332,18.833 C1.312,18.706 1.377,18.593 1.322,18.471 C1.325,18.412 1.34,18.412 1.345,18.361 L1.322,18.361 C1.389,18.157 1.464,17.999 1.507,17.853 C1.571,17.646 1.323,17.198 1.385,16.913 C1.459,16.563 1.582,16.265 1.507,15.788 L1.57,15.788 C1.476,15.704 1.707,15.105 1.755,14.991 C1.677,14.885 1.906,14.322 1.878,14.091 C1.816,13.585 2.149,12.957 2.308,12.496 L2.328,12.086 C2.392,11.993 2.476,11.906 2.554,11.78 C2.653,11.622 2.75,11.053 2.924,11.065 C2.844,10.87 3.108,10.219 3.211,10.022 C3.201,9.851 3.799,9.192 3.95,8.938 L4.094,8.528 C4.395,8.239 4.715,7.982 4.914,7.608 C4.956,7.418 4.996,7.227 5.037,7.036 C5.207,6.729 5.483,6.351 5.777,6.136 C5.739,6.109 5.745,6.141 5.757,6.096 C5.81,5.994 5.864,5.891 5.92,5.789 L5.962,5.789 C6.084,5.645 6.614,5.409 6.637,5.156 L6.699,5.216 C6.741,5.082 8.113,3.831 8.32,3.806 C8.32,3.835 8.334,3.79 8.342,3.784 C8.594,3.602 8.862,3.037 9.285,2.865 C9.445,2.799 9.773,2.748 9.881,2.66 C10.1,2.486 10.143,2.362 10.373,2.273 C10.714,2.138 11.442,1.988 11.706,1.761 C12.026,1.487 12.624,1.046 13.101,1.086 C13.088,0.986 13.111,1.071 13.144,0.943 C13.252,0.983 13.237,0.939 13.225,1.025 C13.28,1.005 13.335,0.985 13.389,0.963 L13.307,0.963 L13.307,0.943 L13.922,0.719 C14.008,0.695 14.382,0.659 14.435,0.719 C14.527,0.646 14.633,0.589 14.765,0.554 C14.845,0.561 14.928,0.569 15.011,0.575 C14.936,0.556 14.968,0.576 14.928,0.533 C15.101,0.566 15.405,0.455 15.523,0.514 L15.543,0.514 L15.543,0.474 L15.503,0.452 C15.737,0.462 15.717,0.434 15.893,0.473 C15.87,0.414 15.875,0.443 15.872,0.39 C16.379,0.334 16.862,0.228 17.637,0.227 L17.576,0.207 L17.576,0.166 C17.831,0.196 18.682,0.116 18.867,0.044 L18.766,0.022 L19.381,0.002 C19.497,0.022 19.613,0.044 19.731,0.063 L19.668,0.044 C19.718,0.019 19.775,0.006 19.833,0 L19.833,0.007 L19.851,0 C20.074,0.018 20.389,0.044 20.616,0.085 C20.73,0.105 20.925,0.051 21.064,0.079 C21.506,0.164 22.034,0.114 22.476,0.235 C22.616,0.191 23.328,0.332 23.496,0.368 C23.526,0.366 23.557,0.363 23.589,0.362 C23.829,0.432 24.132,0.447 24.392,0.506 C24.468,0.524 24.549,0.568 24.608,0.591 L24.785,0.609 C24.837,0.623 24.895,0.661 24.932,0.675 C25.003,0.701 25.101,0.694 25.157,0.718 L25.195,0.76 C25.493,0.834 25.904,0.93 26.145,1.037 C26.161,1.052 26.176,1.069 26.191,1.085 L26.407,1.145 C26.454,1.172 26.504,1.225 26.554,1.247 C26.587,1.262 26.663,1.263 26.701,1.289 C26.785,1.347 26.807,1.424 26.971,1.422 C26.966,1.489 27.126,1.546 27.202,1.574 C27.449,1.66 27.67,1.788 27.906,1.898 L28.153,2.054 C28.165,2.074 28.179,2.091 28.191,2.109 C28.225,2.127 28.274,2.111 28.299,2.12 C28.336,2.136 28.374,2.186 28.416,2.206 C28.697,2.333 28.931,2.488 29.188,2.627 C29.226,2.636 29.264,2.644 29.303,2.651 L29.38,2.73 C29.47,2.782 29.59,2.807 29.666,2.868 L29.698,2.923 C29.835,2.993 29.92,3.066 30.045,3.133 L30.145,3.17 C30.199,3.224 30.208,3.294 30.26,3.345 L30.292,3.345 L30.292,3.302 L30.3,3.297 C30.488,3.397 30.673,3.556 30.84,3.677 C30.882,3.707 30.944,3.712 30.987,3.742 C31.04,3.779 31.083,3.844 31.142,3.875 L31.226,3.892 L31.35,4.055 C31.498,4.163 31.682,4.242 31.828,4.351 C31.853,4.369 31.875,4.441 31.914,4.465 C32.048,4.547 32.33,4.655 32.424,4.755 C32.461,4.795 32.461,4.851 32.508,4.882 C32.702,5.006 32.906,5.095 33.088,5.212 C33.148,5.252 33.181,5.312 33.226,5.363 C33.326,5.473 33.538,5.596 33.667,5.706 C33.73,5.762 33.829,5.806 33.907,5.852 L34.029,5.966 C34.196,6.072 34.357,6.166 34.539,6.262 C34.52,6.264 34.543,6.288 34.548,6.292 C34.621,6.35 34.697,6.442 34.778,6.49 C34.839,6.527 35.145,6.681 35.165,6.719 C35.285,6.718 35.79,7.271 35.952,7.268 C35.929,7.348 36.452,7.598 36.469,7.72 L36.532,7.707 C36.774,7.864 37.012,8.005 37.258,8.159 L37.358,8.249 C37.449,8.302 37.563,8.306 37.658,8.359 L37.69,8.425 C37.75,8.465 37.832,8.469 37.906,8.497 L38.046,8.612 C38.059,8.623 38.126,8.622 38.168,8.642 C38.23,8.672 38.298,8.729 38.362,8.756 L38.431,8.763 C38.479,8.789 38.487,8.832 38.54,8.858 C38.693,8.937 38.908,8.996 39.08,9.058 C39.157,9.086 39.244,9.161 39.328,9.196 C39.46,9.251 39.725,9.313 39.814,9.378 C39.916,9.451 40.089,9.56 40.254,9.576 L40.254,9.606 C40.518,9.652 40.714,9.788 40.942,9.853 C41.08,9.893 41.186,9.893 41.312,9.925 C41.458,9.965 41.593,10.024 41.752,10.064 L41.883,10.052 C42.02,10.091 42.223,10.166 42.353,10.197 C42.388,10.204 42.601,10.191 42.663,10.215 C42.846,10.287 43.083,10.325 43.313,10.347 L43.443,10.335 C43.584,10.351 43.736,10.401 43.876,10.425 C43.901,10.43 44.276,10.419 44.276,10.419 C44.665,10.502 45.229,10.404 45.683,10.479 C45.843,10.506 45.984,10.42 46.138,10.492 C46.213,10.489 46.213,10.469 46.277,10.462 L46.277,10.479 L46.293,10.487 C46.363,10.507 46.61,10.459 46.653,10.475 L46.84,10.482 L46.92,10.475 L46.965,10.487 C47.038,10.477 47.168,10.462 47.266,10.475 C47.326,10.482 47.513,10.494 47.562,10.487 C47.696,10.467 47.817,10.445 47.954,10.43 C48.066,10.418 48.207,10.398 48.314,10.377 L48.38,10.385 C48.407,10.377 48.463,10.375 48.505,10.362 C48.588,10.337 48.765,10.272 48.866,10.249 C48.923,10.237 48.98,10.242 49.036,10.219 C49.066,10.209 49.104,10.181 49.146,10.171 L49.278,10.155 C49.366,10.134 49.444,10.111 49.523,10.084 L49.583,10.081 C49.691,10.048 49.819,10.018 49.935,9.998 C49.983,9.989 50.036,10.001 50.086,9.982 L50.13,9.952 C50.192,9.93 50.262,9.942 50.322,9.919 C50.455,9.866 50.598,9.816 50.722,9.756 C50.766,9.736 50.805,9.748 50.849,9.73 C50.879,9.719 50.903,9.688 50.929,9.678 C50.95,9.677 50.972,9.676 50.994,9.673 C51.014,9.663 51.024,9.636 51.044,9.625 L51.119,9.614 C51.139,9.606 51.152,9.584 51.169,9.576 L51.264,9.55 C51.339,9.516 51.401,9.463 51.491,9.437 C51.499,9.423 51.496,9.432 51.491,9.418 C51.575,9.421 51.643,9.334 51.711,9.305 C51.769,9.281 51.825,9.28 51.877,9.253 C51.998,9.188 52.12,9.125 52.244,9.061 C52.334,9.012 52.368,8.922 52.484,8.898 L52.489,8.876 L52.514,8.876 C52.61,8.825 52.68,8.763 52.754,8.696 L52.815,8.666 C52.835,8.641 52.837,8.618 52.865,8.601 C53.041,8.497 53.219,8.369 53.357,8.266 L53.342,8.259 L53.402,8.24 L53.402,8.21 C53.486,8.168 53.597,8.094 53.654,8.034 C53.661,8.021 53.67,8.008 53.678,7.996 C53.754,7.951 53.837,7.919 53.908,7.871 C53.946,7.847 53.962,7.785 53.989,7.766 C54.023,7.744 54.094,7.69 54.125,7.676 C54.151,7.664 54.179,7.673 54.2,7.661 C54.24,7.638 54.255,7.607 54.275,7.578 C54.303,7.54 54.359,7.531 54.391,7.503 C54.427,7.47 54.459,7.424 54.501,7.398 C54.631,7.316 54.761,7.233 54.902,7.161 C54.987,7.118 55.073,7.017 55.148,6.961 C55.244,6.892 55.36,6.843 55.465,6.781 C55.485,6.767 55.508,6.733 55.52,6.724 C55.539,6.711 55.57,6.711 55.59,6.698 C55.605,6.688 55.601,6.664 55.615,6.653 C55.635,6.644 55.655,6.637 55.675,6.63 L55.695,6.596 C55.75,6.564 55.83,6.543 55.865,6.499 C55.985,6.355 56.166,6.246 56.347,6.138 C56.407,6.102 56.408,6.046 56.448,6.013 L56.493,6 C56.512,5.99 56.521,5.966 56.528,5.96 L56.628,5.907 C56.711,5.857 56.759,5.764 56.89,5.749 C56.883,5.737 56.89,5.744 56.879,5.737 C57.089,5.661 57.231,5.55 57.411,5.459 C57.454,5.437 57.551,5.377 57.567,5.373 C57.586,5.366 57.61,5.376 57.632,5.365 L57.642,5.361 L57.647,5.331 C57.662,5.314 57.697,5.319 57.717,5.309 L57.843,5.21 L57.923,5.203 C57.953,5.189 57.977,5.157 58.009,5.143 C58.086,5.111 58.162,5.086 58.224,5.052 C58.234,5.048 58.229,5.027 58.229,5.027 L58.289,5.007 L58.345,4.947 L58.385,4.947 C58.422,4.937 58.473,4.896 58.485,4.89 C58.505,4.883 58.565,4.885 58.605,4.872 C58.662,4.854 58.765,4.834 58.815,4.804 C58.841,4.79 58.882,4.76 58.922,4.748 C58.95,4.743 58.979,4.74 59.007,4.736 C59.024,4.726 59.04,4.714 59.057,4.702 C59.182,4.657 59.304,4.628 59.437,4.574 C59.476,4.56 59.514,4.528 59.549,4.514 L59.674,4.5 C59.694,4.494 59.712,4.475 59.73,4.47 C59.85,4.433 59.952,4.446 60.07,4.401 L60.17,4.346 C60.32,4.316 60.505,4.296 60.642,4.232 C60.656,4.241 60.825,4.197 60.838,4.19 C60.851,4.201 60.914,4.198 60.938,4.19 C61.072,4.15 61.228,4.157 61.376,4.12 C61.446,4.101 61.561,4.112 61.656,4.089 C61.859,4.041 62.123,4.026 62.329,3.995 C62.489,3.971 62.723,3.991 62.875,3.961 C62.935,3.951 62.992,3.966 63.031,3.961 C63.139,3.949 63.221,3.952 63.317,3.934 C63.367,3.926 63.422,3.955 63.466,3.94 L63.466,4.105 C63.579,4.093 63.706,4.126 63.733,4.13 L63.698,4.153 C63.798,4.13 63.958,4.123 64.05,4.2 C64,4.206 64.039,4.193 64.014,4.235 C64.28,4.157 64.639,4.257 64.982,4.316 L65.344,4.328 L65.321,4.364 C65.363,4.342 65.381,4.337 65.426,4.339 C65.448,4.384 65.446,4.343 65.438,4.387 C65.497,4.384 65.555,4.378 65.613,4.375 C65.623,4.415 65.599,4.39 65.636,4.41 C65.597,4.31 66.017,4.436 66.056,4.457 C66.092,4.475 66.104,4.477 66.139,4.469 C66.093,4.457 66.103,4.464 66.079,4.434 L66.232,4.48 C66.22,4.484 66.208,4.487 66.197,4.492 L66.242,4.48 L66.372,4.526 L66.336,4.539 C66.406,4.53 66.512,4.539 66.582,4.573 L66.559,4.586 L66.488,4.586 L66.558,4.586 C66.589,4.583 66.601,4.576 66.652,4.573 L66.617,4.609 C66.679,4.612 66.742,4.616 66.804,4.621 C66.811,4.661 66.792,4.64 66.838,4.667 C66.852,4.645 66.838,4.645 66.862,4.655 C66.935,4.718 67.123,4.729 67.212,4.807 L67.212,4.772 C67.32,4.847 67.628,4.978 67.702,5.052 C67.65,5.059 67.682,5.03 67.655,5.076 L67.667,5.076 C67.735,4.984 68.345,5.389 68.461,5.461 C68.479,5.439 68.459,5.446 68.507,5.449 C68.517,5.489 68.5,5.491 68.542,5.519 L68.52,5.485 C68.666,5.562 69.133,5.737 69.137,5.811 L69.184,5.811 L69.161,5.788 C69.291,5.815 69.657,6.108 69.698,6.15 L69.651,6.139 C69.708,6.185 69.869,6.309 70.001,6.326 C70.001,6.381 70.021,6.384 70.001,6.43 C70.084,6.404 70.213,6.479 70.271,6.548 C70.264,6.587 70.258,6.561 70.294,6.583 C70.306,6.56 70.292,6.561 70.317,6.571 C70.354,6.686 70.407,6.768 70.503,6.874 C70.479,6.921 70.477,6.894 70.491,6.933 L70.515,6.886 L70.538,6.91 L70.515,6.921 C70.585,6.925 70.745,7.041 70.795,7.108 C70.779,7.117 70.765,7.124 70.748,7.131 C70.836,7.207 70.89,7.205 71.017,7.295 C71.025,7.361 71.04,7.371 71.029,7.424 C71.052,7.411 71.075,7.401 71.099,7.388 C71.094,7.441 71.069,7.404 71.11,7.448 C71.229,7.477 71.412,7.741 71.495,7.868 C71.625,8.065 71.792,8.151 71.927,8.348 C71.988,8.435 72.025,8.535 72.044,8.615 C72.082,8.654 72.222,8.748 72.277,8.86 C72.312,8.93 72.267,8.941 72.3,8.99 L72.313,8.954 C72.348,9.152 72.557,9.27 72.615,9.386 C72.665,9.484 72.663,9.689 72.709,9.748 C72.777,9.728 72.981,10.17 72.977,10.192 C72.947,10.372 73.212,10.53 73.164,10.601 L73.164,10.637 C73.176,10.643 73.289,11.063 73.281,11.069 C73.361,11.157 73.507,11.507 73.584,11.699 C73.622,11.795 73.581,11.966 73.62,12.096 L73.783,12.458 C73.81,12.552 73.709,12.595 73.76,12.727 C73.857,12.979 73.81,13.142 73.865,13.347 C73.885,13.354 73.904,13.361 73.923,13.37 C73.923,13.58 74.049,14.16 74.043,14.594" id="Path" fill="#F6F8FA" fill-rule="nonzero" mask="url(#mask-2)"></path>
                </g>
                <g id="Clipped">
                    <mask id="mask-4" fill="white">
                        <use xlink:href="#path-3"></use>
                    </mask>
                    <g id="7uzoj67eqa"></g>
                    <g id="Group" mask="url(#mask-4)">
                        <g transform="translate(32.000000, 16.000000)">
                            <path d="M32.416,0.747 C32.31,0.719 32.198,0.7 32.078,0.693 C22.296,0.08 12.506,-0.285 2.712,0.283 C1.792,0.337 1.304,1.033 1.24,1.747 C1.07,1.977 0.966,2.271 0.966,2.634 C0.976,17.649 1.359,29.594 1.571,44.607 C1.183,45.494 1.631,46.812 2.917,46.878 C10.718,47.278 16.679,47.501 24.48,47.901 C24.677,47.911 24.849,47.882 25.006,47.836 C25.334,47.826 25.672,47.716 25.979,47.452 C28.889,44.97 31.774,42.469 34.4,39.686 C34.723,39.344 34.841,38.962 34.823,38.596 C34.847,38.471 34.86,38.339 34.851,38.194 C34.054,25.197 34.221,15.239 34.03,2.226 C34.015,1.216 33.202,0.724 32.416,0.747 Z M25.44,43.87 C25.3,42.246 25.139,40.626 24.93,39.01 C26.958,38.659 29.01,38.582 31.072,38.676 C29.269,40.486 27.373,42.197 25.44,43.87 L25.44,43.87 Z M22.838,36.306 C21.95,36.513 21.648,37.246 21.763,37.937 C21.744,38.083 21.739,38.234 21.763,38.397 C22.075,40.499 22.263,42.614 22.432,44.732 C16.196,44.422 11.166,44.207 4.639,43.892 C4.429,29.336 4.069,17.846 4.049,3.287 C13.025,2.842 21.999,3.15 30.966,3.692 C31.116,15.364 31.028,23.977 31.636,35.637 C28.683,35.46 25.724,35.634 22.838,36.307 L22.838,36.306 Z" id="Shape" fill="#504FFF" fill-rule="nonzero"></path>
                            <path d="M8.286,10.746 C10.175,10.746 12.063,10.75 13.949,10.883 C15.727,11.008 15.715,8.259 13.949,8.134 C12.063,8.002 10.175,7.997 8.286,7.997 C6.504,7.997 6.505,10.746 8.286,10.746 Z M13.949,15.556 C15.726,15.692 15.713,12.942 13.949,12.807 C12.155,12.67 10.362,12.543 8.562,12.5319728 C6.781,12.522 6.782,15.271 8.562,15.281 C10.362,15.291 12.155,15.419 13.949,15.556 Z M14.363,20.091 C16.129,19.966 16.141,17.216 14.363,17.343 C12.656,17.463 10.955,17.345 9.253,17.205 C7.477,17.059 7.491,19.809 9.253,19.955 C10.955,20.094 12.656,20.212 14.363,20.091 L14.363,20.091 Z M26.793,22.565 C21.13,22.565 15.467,22.574 9.805,22.703 C8.027,22.743 8.023,25.493 9.805,25.452 C15.467,25.322 21.13,25.314 26.793,25.314 C28.574,25.314 28.574,22.565 26.793,22.565 Z M26.793,27.788 C21.32,28.173 15.839,28.071 10.358,28.063 C8.576,28.06 8.577,30.809 10.358,30.812 C15.839,30.819 21.32,30.922 26.793,30.537 C28.559,30.412 28.571,27.663 26.793,27.788 Z M27.622,9.509 C27.619,8.695 27.035,8.259 26.405,8.193 C26.21,8.073 25.975,7.997 25.688,7.997 L19.058,7.997 C18.082,7.997 17.644,8.824 17.739,9.57 C17.707,9.68 17.684,9.794 17.678,9.92 C17.543,12.668 17.54,15.417 17.54,18.167 C17.54,18.53 17.659,18.815 17.843,19.029 C18.028,19.472 18.43,19.817 19.059,19.817 C21.639,19.817 24.216,19.804 26.793,19.679 C27.733,19.633 28.173,18.839 28.116,18.116 C28.139,17.973 28.148,17.825 28.126,17.665 C27.739,14.962 27.632,12.235 27.622,9.509 L27.622,9.509 Z M20.303,17.065 C20.307,14.958 20.325,12.851 20.409,10.745 L24.881,10.745 C24.921,12.835 25.047,14.913 25.287,16.988 C23.627,17.043 21.966,17.061 20.303,17.065 L20.303,17.065 Z M18.092,33.56 L10.496,33.56 C8.714,33.56 8.714,36.31 10.496,36.31 L18.092,36.31 C19.873,36.31 19.873,33.56 18.092,33.56 L18.092,33.56 Z" id="Shape" fill="#504FFF" fill-rule="nonzero"></path>
                        </g>
                    </g>
                </g>
            </g>
        </g>
    </g>
</svg>