<svg width="24" height="24" viewBox="0 0 24 24" fill="none" xmlns="http://www.w3.org/2000/svg">
<path d="M6 6H18M6 10H18M13 14H18M13 18H18M2 21.4V2.6C2 2.44087 2.06321 2.28826 2.17574 2.17574C2.28826 2.06321 2.44087 2 2.6 2H21.4C21.5591 2 21.7117 2.06321 21.8243 2.17574C21.9368 2.28826 22 2.44087 22 2.6V21.4C22 21.5591 21.9368 21.7117 21.8243 21.8243C21.7117 21.9368 21.5591 22 21.4 22H2.6C2.44087 22 2.28826 21.9368 2.17574 21.8243C2.06321 21.7117 2 21.5591 2 21.4Z" stroke="#17285d" stroke-width="1.5" stroke-linecap="round" stroke-linejoin="round"/>
<path d="M6 18V14H9V18H6Z" stroke="#17285d" stroke-width="1.5" stroke-linecap="round" stroke-linejoin="round"/>
</svg>
