<?xml version="1.0" encoding="UTF-8"?>
<svg width="295px" height="323px" viewBox="0 0 295 323" version="1.1" xmlns="http://www.w3.org/2000/svg" xmlns:xlink="http://www.w3.org/1999/xlink">
    <!-- Generator: Sketch Beta 63 (92437) - https://sketch.com -->
    <title>sprite</title>
    <desc>Created with Sketch Beta.</desc>
    <g id="sprite" stroke="none" stroke-width="1" fill="none" fill-rule="evenodd">
        <polyline id="Rectangle" stroke="#001E82" stroke-width="2" stroke-linecap="round" stroke-linejoin="round" transform="translate(5.656854, 9.656854) rotate(-315.000000) translate(-5.656854, -9.656854) " points="1.65685425 5.65685425 9.65685425 5.65685425 9.65685425 13.6568542"></polyline>
        <polyline id="Rectangle-Copy" stroke="#0B0B0D" stroke-width="2" stroke-linecap="round" stroke-linejoin="round" transform="translate(26.000000, 9.656854) rotate(-315.000000) translate(-26.000000, -9.656854) " points="22 5.65685425 30 5.65685425 30 13.6568542"></polyline>
        <polyline id="Rectangle-Copy-2" stroke="#FFFFFF" stroke-width="2" stroke-linecap="round" stroke-linejoin="round" transform="translate(26.000000, 9.656854) rotate(-315.000000) translate(-26.000000, -9.656854) " points="22 5.65685425 30 5.65685425 30 13.6568542"></polyline>
        <polyline id="Rectangle-Copy-3" stroke="#0DF394" stroke-width="2" stroke-linecap="round" stroke-linejoin="round" transform="translate(46.000000, 9.656854) rotate(-315.000000) translate(-46.000000, -9.656854) " points="42 5.65685425 50 5.65685425 50 13.6568542"></polyline>
        <polyline id="Rectangle-Copy-4" stroke="#EB323C" stroke-width="2" stroke-linecap="round" stroke-linejoin="round" transform="translate(66.000000, 9.656854) rotate(-315.000000) translate(-66.000000, -9.656854) " points="62 5.65685425 70 5.65685425 70 13.6568542"></polyline>
        <polyline id="Rectangle-Copy-4" stroke="#0A3CF0" stroke-width="2" stroke-linecap="round" stroke-linejoin="round" transform="translate(86.000000, 9.656854) rotate(-315.000000) translate(-86.000000, -9.656854) " points="82 5.65685425 90 5.65685425 90 13.6568542"></polyline>
        <g id="shape" transform="translate(4.000000, 34.000000)" fill="#001E82" fill-rule="nonzero">
            <path d="M9.942,0.362 C9.903,0.17 9.682,0.052 9.482,0.065 C9.474,0.065 9.466,0.062 9.456,0.062 C6.826,0.062 4.198,-0.068 1.569,0.048 C1.393,0.056 1.08,0.015 0.782,0.016 C0.38,0.017 0,0.095 0,0.47 C0,0.48 0.003,0.491 0.003,0.502 C0.001,0.544 0.003,0.589 0.016,0.637 C0.746,3.296 2.296,5.709 4.106,7.85 C4.206,7.97 4.331,8.005 4.447,7.985 C4.509,7.994 4.571,7.999 4.634,7.999 C4.775,7.999 4.902,7.933 4.982,7.834 C5.002,7.821 5.02,7.808 5.038,7.792 C7.117,5.872 8.974,3.634 9.973,1.045 C10.006,0.961 10.006,0.886 9.988,0.821 C9.985,0.666 9.972,0.514 9.942,0.361 L9.942,0.362 Z" id="Path"></path>
        </g>
        <g id="next" transform="translate(8.000000, 83.000000)" fill="#FFFFFF" fill-rule="nonzero">
            <path d="M2.433,27.73 C1.765,27.174 1.095,26.633 0.425,26.112 C-0.085,25.715 -0.145,24.992 0.295,24.525 C1.015,23.761 1.734,22.991 2.438,22.235 C4.61,19.909 6.856,17.5 9.11,15.33 L9.759,14.705 C10.177,14.303 10.205,13.662 9.825,13.227 L9.233,12.551 C7.655,10.748 5.949,8.939 4.299,7.191 C3.059,5.876 1.785,4.526 0.573,3.185 C0.171,2.74 0.206,2.069 0.654,1.666 C1.18,1.193 1.712,0.729 2.248,0.275 C2.709,-0.115 3.413,-0.087 3.836,0.342 C6.432,2.979 8.956,5.738 11.409,8.42 C13.08,10.248 14.796,12.124 16.542,13.97 C16.974,14.426 16.93,15.133 16.444,15.536 C13.324,18.125 10.525,21.009 7.808,23.81 C6.568,25.088 5.298,26.397 4.006,27.668 C3.582,28.085 2.891,28.113 2.433,27.73" id="Path"></path>
            <path d="M40.4328063,27.73 C39.7648063,27.174 39.0948063,26.633 38.4248063,26.112 C37.9148063,25.715 37.8548063,24.992 38.2948063,24.525 C39.0148063,23.761 39.7338063,22.991 40.4378063,22.235 C42.6098063,19.909 44.8558063,17.5 47.1098063,15.33 L47.7588063,14.705 C48.1768063,14.303 48.2048063,13.662 47.8248063,13.227 L47.2328063,12.551 C45.6548063,10.748 43.9488063,8.939 42.2988063,7.191 C41.0588063,5.876 39.7848063,4.526 38.5728063,3.185 C38.1708063,2.74 38.2058063,2.069 38.6538063,1.666 C39.1798063,1.193 39.7118063,0.729 40.2478063,0.275 C40.7088063,-0.115 41.4128063,-0.087 41.8358063,0.342 C44.4318063,2.979 46.9558063,5.738 49.4088063,8.42 C51.0798063,10.248 52.7958063,12.124 54.5418063,13.97 C54.9738063,14.426 54.9298063,15.133 54.4438063,15.536 C51.3238063,18.125 48.5248063,21.009 45.8078063,23.81 C44.5678063,25.088 43.2978063,26.397 42.0058063,27.668 C41.5818063,28.085 40.8908063,28.113 40.4328063,27.73" id="Path-Copy" transform="translate(46.419557, 14.000146) rotate(-180.000000) translate(-46.419557, -14.000146) "></path>
        </g>
        <g id="previous" transform="translate(75.000000, 83.000000)" fill="#BBBDBF" fill-rule="nonzero">
            <path d="M14.407,0.27 C15.074,0.826 15.744,1.367 16.415,1.888 C16.925,2.285 16.985,3.008 16.545,3.475 C15.825,4.239 15.105,5.009 14.401,5.765 C12.23,8.091 9.983,10.5 7.73,12.67 L7.08,13.295 C6.663,13.697 6.634,14.338 7.015,14.773 L7.606,15.449 C9.185,17.252 10.891,19.061 12.541,20.809 C13.781,22.124 15.054,23.474 16.266,24.815 C16.669,25.26 16.633,25.931 16.186,26.334 C15.659,26.807 15.127,27.271 14.592,27.725 C14.13,28.115 13.426,28.087 13.004,27.658 C10.408,25.021 7.884,22.262 5.431,19.58 C3.759,17.752 2.043,15.876 0.298,14.03 C-0.135,13.574 -0.091,12.867 0.396,12.464 C3.516,9.875 6.314,6.991 9.032,4.19 C10.272,2.912 11.542,1.603 12.833,0.332 C13.258,-0.085 13.948,-0.113 14.407,0.27" id="Path"></path>
        </g>
        <g id="previous-copy" transform="translate(128.500000, 97.000000) rotate(-180.000000) translate(-128.500000, -97.000000) translate(120.000000, 83.000000)" fill="#BBBDBF" fill-rule="nonzero">
            <path d="M14.407,0.27 C15.074,0.826 15.744,1.367 16.415,1.888 C16.925,2.285 16.985,3.008 16.545,3.475 C15.825,4.239 15.105,5.009 14.401,5.765 C12.23,8.091 9.983,10.5 7.73,12.67 L7.08,13.295 C6.663,13.697 6.634,14.338 7.015,14.773 L7.606,15.449 C9.185,17.252 10.891,19.061 12.541,20.809 C13.781,22.124 15.054,23.474 16.266,24.815 C16.669,25.26 16.633,25.931 16.186,26.334 C15.659,26.807 15.127,27.271 14.592,27.725 C14.13,28.115 13.426,28.087 13.004,27.658 C10.408,25.021 7.884,22.262 5.431,19.58 C3.759,17.752 2.043,15.876 0.298,14.03 C-0.135,13.574 -0.091,12.867 0.396,12.464 C3.516,9.875 6.314,6.991 9.032,4.19 C10.272,2.912 11.542,1.603 12.833,0.332 C13.258,-0.085 13.948,-0.113 14.407,0.27" id="Path"></path>
        </g>
    </g>
</svg>