<svg xmlns="http://www.w3.org/2000/svg" width="279" height="153" viewBox="0 0 279 153">
    <path fill="#EFF2F3" fill-rule="evenodd" d="M273.757.627c-3.398-.015-6.795-.032-10.195-.05-7.69.321-15.689-.367-25.212-.102L222.646.78l-9.094-.204c-10.442.319-22.963.165-31.826.204-5.428.023-9.38-.114-14.464-.357-2.535-.12-6.015.315-8.818.153-4.172-.241-9.24-.3-13.502-.05L139.43.475l-16.946.204C119.97.277 111.948.545 108.568.475 98.479.269 86.093 0 75.919.475L62.416.272C58.169.367 51.663.482 45.744.22h-7.302c-1.719-.106-4.364-.275-6.337-.203C22.01.388 11.619.637 1.366.38c.015.137.01.276.028.414.465 3.093-.773 5.413.415 8.42-.186 1.454-.368 2.91-.554 4.361.675 2.057 1.45 5.308.83 7.102-.367 1.067-.83 2.329-.414 3.652C3.016 28.61.565 33.35.84 37.668c.238 3.714.9 8.767 0 12.478.141.93.275 1.86.415 2.79-.967 4.033-.251 8.142.83 12.122.2.726-.263 1.7-.551 2.333v2.69c-.714 2.178-.4 4.571-.14 6.136-.182 1.658-.37 3.314-.554 4.971 1.295 3.746.562 8.305 0 12.021-.186 1.243.543 4.197-.552 5.123.184 2.08.37 4.159.552 6.238-.045.677-.091 1.354-.14 2.03.683 1.569.52 3.434-.135 4.97-.437 1.032.744 2.314.416 3.247-.662 1.872-1.036 3.327-.97 5.325.107 3.263-.315 7.873.554 11.718l-.555 3.347c.278 1.927.555 3.855.83 5.783.722 3.505-1.148 6.45-.275 9.282l-.093 2.444c4.717-.122 9.402-.23 13.914-.191 10.085.087 23.812.33 33.89 0l7.58.151c10.958-.355 22.115-.09 32.927.306 1.972.073 4.62-.096 6.337-.202h7.3c5.914-.263 12.418-.147 16.672-.052 4.501-.068 9.002-.137 13.498-.203 10.176.475 22.564.206 32.656 0 3.38-.07 11.402.199 13.911-.204 5.65.067 11.298.135 16.947.204l5.51-.052c4.262.25 9.329.191 13.503-.05 2.8-.162 6.283.273 8.818.152 5.083-.242 9.034-.379 14.467-.356 8.865.038 21.38-.115 31.823.203 2.321-.05 4.635-.104 6.956-.156.023-.663.045-1.33.07-1.994-.87-2.833.998-5.777.276-9.282l-.83-5.783c.187-1.115.37-2.232.553-3.347-.865-3.845-.446-8.455-.552-11.718-.064-1.998.308-3.453.972-5.325.328-.933-.857-2.215-.42-3.246.653-1.537.817-3.402.14-4.971.048-.676.096-1.353.137-2.03-.182-2.079-.368-4.158-.554-6.238 1.094-.926.368-3.88.554-5.123.562-3.716 1.297-8.275 0-12.021.188-1.657.372-3.313.555-4.971-.26-1.565-.573-3.958.137-6.137v-2.689c.292-.632.752-1.607.554-2.333-1.08-3.98-1.8-8.089-.83-12.123-.14-.93-.273-1.858-.416-2.789.899-3.711.242-8.764 0-12.478-.277-4.317 2.175-9.058.832-13.34-.415-1.323.046-2.585.414-3.652.62-1.794-.156-5.045-.83-7.102l.555-4.36c-1.19-3.008.049-5.328-.416-8.421-.008-.041-.004-.083-.01-.124-1.408.005-2.833 0-4.315-.042z"/>
</svg>
