<svg width="32" height="32" viewBox="0 0 32 32" fill="none" xmlns="http://www.w3.org/2000/svg">
<path id="Facebook" fill-rule="evenodd" clip-rule="evenodd" d="M32 16C32 24.8366 24.8366 32 16 32C7.16344 32 0 24.8366 0 16C0 7.16344 7.16344 0 16 0C24.8366 0 32 7.16344 32 16ZM16.7018 26.3232H12.8645L12.8628 26.3223V17.4691H9.63568V13.8931H12.8628V11.2326C12.8628 8.57207 14.433 6.34868 17.2675 6.52267L20.2332 6.65381V9.61948H18.5764C17.6601 9.61948 16.701 10.1869 16.701 11.1897V13.894H20.1029L19.5364 17.4699H16.7018V26.3232Z" fill="white"/>
</svg>
