<svg width="32" height="32" viewBox="0 0 32 32" fill="none" xmlns="http://www.w3.org/2000/svg">
<path id="LinkedIn" fill-rule="evenodd" clip-rule="evenodd" d="M27.3136 4.68625C33.562 10.9346 33.562 21.0653 27.3136 27.3137C21.0652 33.5621 10.9345 33.5621 4.68615 27.3137C-1.56224 21.0653 -1.56224 10.9346 4.68615 4.68625C10.9345 -1.56213 21.0652 -1.56213 27.3136 4.68625ZM11.2364 13.144H8.05647V23.8212H11.2364V13.144ZM11.5501 9.65034C11.5501 8.59093 10.687 7.72694 9.62673 7.72694C8.56732 7.72694 7.74276 8.59093 7.74276 9.65034C7.74276 10.7097 8.56732 11.5737 9.62673 11.5737C10.6861 11.5737 11.5501 10.7097 11.5501 9.65034ZM16.2609 13.144H13.1204V23.8204H16.2609V18.0502C16.2995 16.8331 17.3203 15.8911 18.5374 15.8911C19.7537 15.8911 20.5782 16.8331 20.6177 18.0502V22.839V23.8204H23.7582V16.6368C23.7582 14.6748 22.1494 13.0257 20.1471 13.0257H19.2831C18.0274 13.0257 16.9286 13.654 16.2609 14.6354V13.144Z" fill="white"/>
</svg>
