<svg width="32" height="32" viewBox="0 0 32 32" fill="none" xmlns="http://www.w3.org/2000/svg">
<path id="Twitter" fill-rule="evenodd" clip-rule="evenodd" d="M32 16C32 24.8366 24.8366 32 16 32C7.16344 32 0 24.8366 0 16C0 7.16344 7.16344 0 16 0C24.8366 0 32 7.16344 32 16ZM16.1747 13.3396C16.1748 13.3399 16.1748 13.3401 16.1749 13.3404L16.1758 13.3395C16.1754 13.3396 16.1751 13.3396 16.1747 13.3396ZM22.9925 9.88104C20.1856 7.02357 15.4239 9.37929 16.1747 13.3396C11.4122 13.4889 8.10419 9.27848 8.10419 9.27848C6.34964 12.6376 9.45759 14.4924 9.45759 14.4924C8.45475 14.7435 7.55219 14.0415 7.55219 14.0415C7.80333 17.4006 10.6104 17.8515 10.6104 17.8515C9.70787 18.3023 8.80532 17.9518 8.80532 17.9518C10.0087 20.8591 12.4147 20.6586 12.4147 20.6586C10.7604 22.564 6.85021 22.3634 6.85021 22.3634C14.7709 26.8753 24.5465 21.3605 23.895 12.287C25.0985 11.7856 25.7499 10.4322 25.7499 10.4322C25.0985 10.8333 23.5942 11.0339 23.5942 11.0339C24.9476 10.1819 25.3487 8.82849 25.3487 8.82849C24.2456 9.53047 22.9925 9.88104 22.9925 9.88104Z" fill="white"/>
</svg>
