<?xml version="1.0" standalone="no"?>
<!DOCTYPE svg PUBLIC "-//W3C//DTD SVG 20010904//EN"
 "http://www.w3.org/TR/2001/REC-SVG-20010904/DTD/svg10.dtd">
<svg version="1.0" xmlns="http://www.w3.org/2000/svg"
 width="575.000000pt" height="575.000000pt" viewBox="0 0 575.000000 575.000000"
 preserveAspectRatio="xMidYMid meet">
<metadata>
Created by potrace 1.14, written by Peter Selinger 2001-2017
</metadata>
<g transform="translate(0.000000,575.000000) scale(0.100000,-0.100000)"
fill="#000000" stroke="none">
<path d="M2626 5738 c3 -4 3 -8 0 -8 -2 0 -12 -3 -22 -7 -12 -5 -15 -3 -9 6 5
10 3 11 -11 4 -11 -5 -28 -9 -39 -9 -11 1 -23 -3 -27 -9 -5 -6 -8 -5 -8 3 0 6
-4 12 -10 12 -5 0 -9 -3 -9 -7 3 -20 -2 -26 -11 -13 -8 12 -10 12 -10 1 0 -11
-3 -11 -17 0 -11 10 -14 10 -9 2 5 -9 -1 -13 -21 -13 -16 0 -35 -6 -42 -12
-11 -11 -12 -10 -6 1 5 8 -3 6 -21 -5 -27 -17 -28 -17 -15 -1 12 15 12 17 -3
11 -9 -3 -16 -10 -16 -15 0 -4 -7 -6 -15 -3 -9 4 -15 0 -15 -7 0 -11 -3 -11
-10 1 -7 11 -10 11 -10 2 0 -7 -4 -10 -10 -7 -5 3 -10 1 -10 -5 0 -6 -5 -8
-11 -4 -6 3 -15 0 -20 -7 -6 -10 -9 -10 -9 -2 0 7 -7 10 -15 7 -8 -4 -12 -11
-9 -16 4 -6 -4 -4 -17 2 -13 7 -21 9 -17 5 10 -11 -24 -35 -37 -27 -20 12 -37
11 -26 -2 8 -9 3 -12 -20 -10 -19 1 -32 -3 -36 -13 -3 -8 -12 -12 -19 -9 -8 3
-14 1 -14 -3 0 -5 -10 -7 -22 -3 -16 4 -20 2 -16 -10 5 -11 0 -14 -18 -10 -16
3 -24 0 -24 -9 0 -11 -2 -11 -10 1 -8 13 -10 13 -10 -1 0 -11 -8 -16 -22 -15
-15 1 -22 -4 -20 -13 2 -11 0 -12 -11 -3 -11 10 -17 9 -27 -3 -7 -9 -19 -14
-27 -11 -8 3 -11 2 -8 -3 7 -13 -31 -24 -47 -15 -9 5 -8 2 1 -9 12 -15 12 -17
-2 -12 -8 4 -18 1 -22 -4 -3 -6 -11 -9 -16 -6 -5 4 -9 1 -9 -4 0 -6 -9 -11
-20 -11 -11 0 -20 -4 -20 -9 0 -5 -11 -12 -25 -15 -16 -4 -23 -11 -19 -18 5
-8 1 -9 -11 -5 -19 8 -48 -10 -39 -24 3 -5 -3 -6 -12 -2 -14 5 -16 3 -11 -12
6 -15 5 -16 -8 -5 -11 9 -15 9 -15 1 0 -7 -4 -10 -9 -7 -5 3 -12 -1 -15 -9 -3
-8 -9 -15 -13 -14 -23 4 -35 -3 -29 -16 5 -13 2 -14 -17 -4 -21 12 -21 11 -7
-7 8 -10 10 -16 5 -11 -4 4 -19 0 -32 -8 -13 -9 -23 -12 -23 -9 0 4 -12 -6
-26 -22 -15 -16 -23 -23 -19 -16 6 11 3 11 -14 0 -12 -7 -21 -18 -21 -25 0 -7
-3 -12 -7 -11 -16 3 -43 -15 -36 -25 3 -6 1 -7 -5 -3 -6 4 -20 -2 -32 -14 -11
-11 -23 -20 -27 -20 -5 0 -8 -5 -8 -12 0 -6 -6 -13 -14 -16 -9 -3 -11 0 -7 9
4 8 1 6 -7 -3 -8 -10 -18 -14 -23 -10 -4 4 -2 -2 6 -12 10 -13 10 -17 3 -12
-7 4 -13 3 -13 -2 0 -5 -9 -12 -20 -15 -11 -3 -20 -13 -20 -24 0 -14 -2 -15
-9 -4 -7 10 -13 6 -26 -17 -12 -19 -24 -28 -33 -24 -10 3 -13 1 -8 -6 4 -7 0
-15 -11 -19 -10 -4 -39 -28 -65 -54 -26 -26 -49 -44 -53 -41 -3 3 -8 -4 -12
-16 -3 -12 -12 -22 -21 -22 -8 0 -13 -3 -10 -6 7 -7 -34 -50 -44 -47 -4 2 -5
-4 -2 -11 3 -8 -2 -17 -13 -20 -10 -3 -24 -20 -32 -36 -7 -17 -16 -29 -19 -26
-3 3 -16 -10 -29 -29 -13 -19 -29 -35 -34 -35 -6 0 -9 -6 -6 -14 3 -8 -5 -18
-20 -25 -21 -10 -23 -14 -13 -26 11 -13 10 -14 -4 -9 -11 4 -16 1 -16 -11 0
-12 -5 -15 -17 -11 -10 4 -15 4 -11 1 9 -9 -12 -66 -22 -60 -5 3 -11 -4 -15
-15 -3 -11 -12 -20 -18 -20 -7 0 -6 -4 3 -10 13 -8 12 -10 -2 -10 -10 0 -18
-7 -18 -15 0 -9 -6 -18 -14 -21 -8 -3 -13 -15 -11 -26 4 -17 2 -18 -12 -6 -10
8 -14 8 -10 1 4 -6 2 -15 -4 -18 -5 -4 -8 -14 -5 -22 5 -11 2 -13 -9 -9 -11 4
-15 0 -13 -12 2 -9 -3 -16 -9 -14 -7 1 -13 -7 -13 -18 0 -11 -5 -20 -11 -20
-5 0 -8 -4 -5 -9 3 -4 -2 -17 -10 -27 -9 -10 -12 -13 -8 -5 4 9 3 12 -4 8 -5
-4 -8 -16 -5 -27 3 -12 -1 -22 -11 -26 -9 -3 -13 -10 -10 -15 3 -5 0 -9 -6 -9
-6 0 -8 -4 -5 -10 3 -5 1 -10 -4 -10 -6 0 -11 -9 -11 -20 0 -11 -5 -20 -11
-20 -5 0 -7 -4 -4 -10 3 -5 1 -10 -5 -10 -6 0 -8 -4 -5 -10 3 -5 1 -10 -6 -10
-7 0 -10 -3 -6 -6 3 -4 -1 -13 -9 -22 -13 -12 -13 -16 -2 -23 10 -7 9 -9 -4
-9 -12 0 -16 -6 -13 -20 3 -13 0 -18 -7 -14 -7 5 -9 2 -5 -9 3 -9 1 -19 -5
-23 -7 -5 -8 -2 -3 6 5 9 4 11 -3 6 -7 -4 -10 -20 -7 -37 4 -22 2 -28 -6 -23
-9 5 -10 2 -5 -11 5 -14 4 -15 -7 -7 -10 9 -13 5 -12 -16 0 -15 -5 -26 -11
-25 -6 1 -10 -8 -9 -20 1 -12 -5 -28 -12 -35 -11 -11 -11 -17 -2 -29 7 -8 8
-13 3 -12 -20 4 -24 -2 -14 -21 8 -16 8 -20 -2 -18 -7 2 -12 -3 -10 -11 2 -8
-3 -18 -10 -23 -10 -6 -10 -10 2 -18 13 -8 12 -10 -3 -10 -10 0 -15 -4 -12
-10 3 -5 1 -19 -5 -30 -8 -15 -8 -25 -1 -34 7 -9 5 -17 -9 -28 -10 -9 -20 -16
-22 -15 -2 1 0 -2 4 -7 4 -5 2 -18 -3 -29 -6 -11 -7 -17 -2 -14 5 3 9 -3 9
-13 0 -14 -4 -16 -12 -9 -14 12 -14 -7 0 -30 6 -9 5 -12 -1 -8 -6 4 -13 -2
-16 -13 -3 -11 -1 -23 5 -26 5 -3 2 -15 -9 -27 -10 -11 -13 -18 -7 -14 12 7
12 -29 -1 -40 -4 -5 -5 -3 -1 4 3 6 2 14 -3 17 -5 4 -7 -7 -5 -23 3 -16 0 -32
-6 -36 -8 -5 -7 -11 2 -22 10 -12 9 -18 -7 -29 -15 -11 -15 -14 -4 -14 9 0 16
-6 16 -14 0 -8 -5 -12 -11 -10 -7 3 -12 -18 -12 -61 -1 -36 2 -63 6 -60 5 3
12 1 15 -5 4 -6 1 -9 -7 -8 -18 4 -21 -357 -3 -387 13 -23 13 -34 1 -54 -6
-10 -5 -16 2 -19 7 -2 9 -9 5 -15 -11 -18 -11 -47 0 -40 6 4 8 0 4 -10 -4 -10
-1 -17 6 -17 9 0 8 -3 -1 -9 -11 -7 -10 -9 3 -15 9 -3 13 -11 9 -17 -4 -8 -9
-7 -15 2 -7 11 -9 11 -9 1 0 -7 7 -15 15 -18 8 -4 15 -10 15 -16 0 -5 -6 -6
-12 -2 -9 5 -9 3 1 -9 7 -9 11 -26 8 -37 -4 -14 0 -20 11 -21 11 0 12 -2 5 -6
-18 -7 -16 -23 4 -40 17 -14 17 -14 -1 -8 -19 6 -19 5 -3 -13 9 -10 14 -22 10
-26 -4 -4 -1 -11 7 -16 10 -7 11 -10 3 -10 -7 0 -13 -5 -13 -11 0 -5 5 -7 12
-3 8 5 9 2 5 -9 -3 -10 -2 -17 2 -17 5 0 8 -11 7 -24 -2 -14 3 -27 11 -30 8
-3 11 -11 8 -16 -4 -6 -1 -18 7 -27 11 -14 11 -16 -2 -8 -12 7 -13 6 -3 -7 7
-8 10 -18 6 -21 -3 -4 -1 -7 5 -7 7 0 12 -5 12 -11 0 -5 -6 -7 -12 -3 -7 4 -5
-1 4 -12 16 -19 18 -23 18 -45 0 -5 3 -8 8 -6 4 3 8 -9 9 -26 2 -18 7 -33 13
-35 5 -2 10 -8 10 -13 0 -6 -6 -7 -12 -3 -7 5 -1 -7 15 -25 17 -21 26 -41 23
-55 -3 -15 3 -28 15 -37 21 -15 27 -35 7 -23 -10 6 -10 5 -1 -8 7 -8 9 -19 5
-23 -4 -5 -2 -5 4 -2 8 4 14 -6 18 -28 4 -20 11 -33 16 -30 6 3 15 -14 22 -39
7 -26 16 -46 20 -46 4 0 8 -7 8 -15 0 -8 5 -15 12 -15 6 0 8 -3 5 -7 -4 -3 1
-12 11 -20 9 -8 11 -11 4 -8 -11 6 -11 3 -1 -13 7 -12 18 -18 24 -14 5 3 3 -3
-5 -13 -8 -10 -10 -16 -5 -13 6 3 15 0 22 -7 10 -11 10 -15 0 -18 -9 -4 -9 -6
1 -6 7 -1 10 -6 7 -11 -4 -6 -3 -10 2 -9 19 3 34 -2 29 -10 -7 -11 19 -65 39
-81 8 -7 15 -19 15 -27 0 -7 10 -18 22 -23 13 -5 17 -9 9 -9 -7 -1 0 -14 18
-30 18 -17 32 -32 31 -35 -1 -21 2 -26 15 -26 8 0 14 -3 14 -7 -3 -21 2 -33
14 -30 7 1 11 -7 11 -21 -1 -19 1 -20 14 -10 12 10 14 10 8 1 -4 -8 -2 -13 4
-13 7 0 9 -7 6 -16 -3 -8 -2 -12 4 -9 9 6 15 -9 11 -29 -1 -5 5 -3 14 4 9 7
15 9 14 4 -4 -23 2 -36 15 -31 11 4 13 1 9 -10 -4 -11 -2 -14 5 -9 7 4 12 1
12 -9 0 -17 66 -87 108 -115 12 -8 22 -18 22 -23 0 -12 27 -37 40 -37 7 0 9
-7 6 -17 -4 -10 -4 -14 0 -10 4 4 13 -1 21 -11 8 -9 11 -11 7 -3 -5 9 2 7 18
-5 14 -10 24 -22 21 -26 -2 -5 3 -8 12 -8 9 0 13 -4 10 -10 -3 -5 -2 -10 3
-10 5 0 29 -18 53 -40 24 -22 50 -40 56 -40 7 0 13 -4 13 -10 0 -5 7 -10 16
-10 8 0 12 -4 9 -10 -3 -5 3 -10 14 -10 12 0 21 -7 21 -16 0 -11 6 -14 20 -9
15 5 18 3 14 -8 -3 -10 3 -18 18 -23 12 -4 29 -14 36 -23 11 -13 12 -13 7 -1
-4 10 -2 9 8 -2 8 -10 21 -18 28 -18 8 0 20 -9 27 -20 7 -12 23 -20 39 -20 14
0 24 -3 20 -6 -9 -9 16 -32 29 -27 7 2 15 -1 19 -6 3 -6 12 -8 18 -5 7 4 9 4
5 -1 -10 -10 21 -34 45 -35 9 0 17 -4 17 -10 0 -5 7 -10 16 -10 9 0 12 -5 8
-12 -6 -10 -4 -10 8 0 11 9 17 9 20 2 2 -6 13 -12 25 -12 12 -1 19 -7 16 -14
-3 -9 3 -11 18 -7 16 5 20 3 14 -7 -5 -8 -3 -11 6 -8 8 3 20 -2 27 -11 8 -9
10 -10 7 -2 -6 9 -1 9 17 -3 14 -9 28 -13 31 -10 4 4 10 -1 13 -10 5 -14 9
-15 15 -4 7 10 9 9 9 -4 0 -10 3 -17 8 -17 28 5 52 -2 46 -14 -5 -8 -2 -8 9 2
13 10 17 10 17 1 0 -7 8 -10 20 -7 10 3 19 2 18 -2 -2 -19 4 -22 19 -10 15 12
16 12 10 -4 -5 -13 -3 -17 5 -14 7 2 21 0 32 -5 13 -7 16 -7 12 1 -5 7 -1 9 8
5 9 -3 16 -10 16 -14 0 -4 7 -11 16 -14 14 -5 15 -4 4 9 -11 13 -10 14 4 9 9
-3 16 -11 16 -17 0 -6 3 -7 6 -4 4 3 16 1 28 -5 11 -6 42 -12 68 -12 26 -1 50
-5 55 -10 4 -5 3 -6 -4 -2 -6 3 -14 3 -17 -2 -2 -4 4 -8 14 -9 11 -1 22 2 25
8 4 5 16 2 29 -6 12 -8 26 -12 29 -8 4 3 7 1 7 -7 0 -10 3 -10 15 0 11 9 15 9
15 1 0 -9 5 -9 20 -1 15 8 18 7 15 -3 -4 -9 5 -12 36 -9 25 3 39 0 36 -5 -3
-5 0 -10 8 -10 8 0 12 3 10 7 -2 4 9 7 24 6 16 -1 27 -4 24 -8 -5 -9 -5 -9 54
-13 24 -1 40 1 37 6 -3 5 7 4 21 -1 35 -13 48 -13 39 3 -6 9 -5 9 7 0 20 -16
243 -18 233 -1 -5 7 -3 8 7 3 23 -15 49 -13 50 4 0 14 1 14 7 1 4 -8 17 -16
29 -16 13 -1 20 3 17 7 -3 5 -11 6 -17 3 -7 -4 -9 -3 -4 1 4 5 17 9 28 10 14
1 18 -3 14 -14 -4 -13 -2 -12 9 2 15 19 31 23 20 5 -6 -10 -4 -10 7 -2 8 6 34
12 59 13 25 2 48 8 52 14 5 8 8 8 8 1 0 -6 7 -11 15 -11 8 0 11 5 8 10 -4 6 1
8 12 4 11 -5 22 -1 31 10 13 17 14 17 8 -2 -6 -16 -4 -18 6 -8 7 6 19 9 28 6
11 -5 13 -3 7 8 -7 12 -6 12 7 1 12 -10 18 -9 28 3 15 18 34 20 24 2 -6 -9 -4
-9 7 -1 11 9 58 24 89 29 3 0 11 4 19 9 10 6 12 6 6 -3 -5 -10 -2 -9 13 0 12
7 18 18 14 24 -3 5 1 4 10 -2 8 -7 18 -10 22 -6 3 4 16 8 27 10 11 2 27 10 36
18 11 12 19 13 28 5 9 -8 17 -7 28 4 8 9 29 17 45 18 17 1 30 6 29 11 -1 5 4
12 12 15 9 3 11 0 6 -9 -5 -8 1 -6 12 4 11 10 30 19 42 20 11 1 21 5 21 9 0 4
7 8 15 8 8 0 15 5 15 10 0 6 11 10 25 10 14 0 25 5 25 11 0 5 5 7 11 4 6 -4
17 1 25 11 9 11 13 13 9 7 -3 -7 -1 -13 4 -13 6 0 11 5 11 11 0 6 7 8 16 5 8
-3 12 -2 9 4 -3 6 -1 10 5 10 6 0 9 4 6 9 -3 4 2 8 12 8 40 0 53 4 47 13 -5 8
22 15 47 11 4 0 4 7 1 16 -5 13 -2 15 16 10 18 -4 20 -3 11 8 -9 11 -7 12 8 8
10 -2 26 3 36 12 9 9 16 13 17 8 0 -4 4 2 9 14 6 15 15 20 29 16 12 -3 21 -1
21 6 0 6 7 11 15 11 7 0 18 6 22 14 8 14 12 16 34 16 5 0 8 4 5 9 -3 5 1 12
10 15 22 9 26 8 18 -6 -4 -7 -3 -8 4 -4 7 4 12 14 12 23 0 9 3 13 7 10 3 -4
12 2 20 13 8 12 20 17 30 13 11 -4 14 -3 9 5 -4 7 -1 12 8 12 8 0 21 9 29 20
8 11 16 17 20 14 3 -3 10 4 17 15 6 12 17 21 25 21 8 0 15 5 15 11 0 5 5 7 12
3 8 -5 9 -2 5 10 -5 11 -3 15 5 10 6 -4 17 1 25 11 7 11 13 15 13 11 0 -4 14
6 31 23 17 17 37 31 45 31 9 0 12 5 9 10 -3 6 1 13 9 16 9 3 16 12 16 19 0 8
5 17 12 21 6 4 8 3 4 -4 -3 -6 -2 -14 4 -17 6 -4 10 -3 9 2 -3 20 2 34 11 28
9 -6 14 8 11 28 -1 5 3 5 10 2 6 -4 17 2 25 14 9 12 20 19 25 16 5 -4 9 1 9 9
0 9 7 16 15 16 8 0 14 3 12 8 -1 4 1 7 5 7 11 0 37 39 32 47 -3 4 3 5 12 1 12
-4 15 -3 10 5 -4 7 -2 12 3 12 6 0 11 10 11 23 0 15 3 18 8 9 6 -9 12 -6 22
12 7 14 17 23 22 20 4 -3 8 2 8 11 0 9 4 14 9 11 5 -3 11 4 15 17 5 19 8 20
17 7 8 -12 9 -10 4 8 -5 16 -2 22 9 22 8 0 18 5 22 12 5 7 2 9 -7 4 -8 -4 -1
4 15 17 18 16 26 29 21 37 -5 9 -4 11 3 6 7 -4 12 -2 12 3 0 6 6 11 14 11 8 0
17 11 20 25 4 14 11 23 16 20 6 -4 7 1 3 11 -5 13 -3 15 7 9 10 -6 12 -4 7 8
-4 12 -1 17 10 17 9 0 14 3 10 6 -3 4 9 23 28 43 19 20 35 41 35 47 0 6 7 17
15 24 9 7 14 19 11 27 -4 9 -1 11 6 7 7 -5 9 -2 5 9 -4 11 -2 14 9 10 8 -3 14
-2 13 3 -3 20 2 35 10 29 6 -3 8 3 6 15 -2 11 1 23 7 26 7 5 8 2 3 -7 -6 -10
-5 -11 4 -3 7 6 13 21 14 33 1 13 6 20 14 17 7 -3 12 -2 11 2 -1 4 4 18 12 32
7 14 13 26 12 28 -6 9 0 22 8 17 6 -4 7 1 3 11 -4 12 -3 15 5 10 7 -4 12 -1
12 8 0 8 7 22 16 30 8 9 12 16 7 16 -5 0 -9 8 -9 19 0 10 5 17 11 15 5 -2 16
5 23 17 8 12 9 18 3 14 -6 -3 -11 -2 -11 3 0 6 7 12 15 16 9 3 12 12 8 22 -4
12 -3 15 5 10 7 -4 14 4 18 21 4 15 11 33 16 40 6 7 4 13 -4 16 -9 4 -7 6 4 6
11 1 15 7 11 24 -4 17 -2 19 5 8 8 -11 12 -3 17 32 4 26 12 47 17 47 5 0 7 4
3 9 -3 5 0 13 6 17 8 4 7 9 -2 15 -11 7 -10 9 4 9 9 0 17 5 17 11 0 5 -6 7
-12 4 -7 -4 -6 -1 2 7 8 7 16 24 18 38 1 14 3 30 4 37 1 7 6 9 11 6 6 -4 8 4
5 20 -3 17 0 28 10 32 12 4 12 8 1 22 -10 12 -10 14 -1 9 11 -7 18 23 13 62
-1 6 3 12 9 12 6 0 8 5 5 10 -3 6 -1 10 6 10 8 0 7 5 -2 17 -12 14 -12 16 0 8
11 -6 13 -4 8 8 -3 9 -2 19 3 22 6 4 6 14 -1 27 -9 17 -9 20 4 15 13 -5 14 -1
7 23 -6 20 -4 35 6 49 10 14 12 26 5 38 -14 27 -13 31 9 53 18 18 18 56 1 45
-4 -2 -8 2 -8 9 0 8 6 12 13 9 9 -3 10 4 4 31 -4 21 -4 34 1 30 5 -3 9 0 9 5
0 6 -5 11 -11 11 -5 0 -7 5 -3 12 11 17 12 121 1 142 -6 12 -6 16 1 12 6 -4
10 2 9 14 -1 11 -5 20 -10 20 -5 0 -3 7 4 17 11 13 11 17 2 20 -9 3 -10 10 -3
24 8 14 7 19 -2 19 -10 0 -10 2 0 9 11 6 10 10 -3 15 -14 5 -15 9 -5 21 7 8 8
15 3 15 -6 0 -10 15 -9 34 1 25 5 32 16 29 8 -2 5 2 -8 9 -12 8 -19 17 -15 21
10 11 13 37 3 37 -10 0 -6 33 6 52 5 7 3 8 -6 3 -10 -6 -12 -3 -8 13 4 12 2
25 -4 28 -5 3 -8 15 -5 25 3 11 1 19 -5 19 -5 0 -6 5 -3 10 9 15 -5 71 -16 64
-5 -3 -9 0 -9 5 0 6 6 11 13 11 9 0 9 2 0 8 -6 4 -12 25 -14 47 -2 26 -10 46
-23 58 -15 13 -17 16 -4 11 13 -4 15 -1 11 15 -3 11 -9 18 -14 15 -5 -3 -10 6
-10 20 -2 35 -3 39 -13 54 -4 7 -5 16 -2 19 3 3 -2 12 -12 20 -10 9 -11 12 -2
7 10 -5 8 1 -5 16 -11 13 -15 20 -8 17 6 -4 14 -3 18 3 3 5 -1 10 -9 10 -9 0
-17 8 -17 18 -3 42 -5 47 -16 45 -7 -2 -10 6 -8 17 2 11 -3 26 -11 34 -8 8
-14 26 -14 39 0 14 -7 28 -16 31 -9 3 -14 12 -12 18 3 7 -2 19 -9 27 -8 7 -12
20 -9 27 3 8 -4 18 -15 24 -11 6 -17 15 -14 20 8 13 -14 52 -25 45 -6 -3 -7 1
-4 9 4 9 1 16 -6 16 -10 0 -9 4 0 16 11 12 11 15 -1 12 -8 -2 -14 5 -14 15 0
10 -6 22 -14 26 -7 5 -10 14 -7 20 4 6 4 11 -1 10 -4 -1 -15 -1 -23 0 -12 1
-13 3 -1 10 11 7 9 11 -8 21 -18 9 -20 14 -10 26 9 11 7 14 -10 14 -12 0 -20
4 -17 9 3 4 -3 19 -14 31 -25 28 -26 37 -2 19 9 -7 5 0 -10 15 -16 15 -28 34
-28 42 0 8 -4 13 -9 9 -9 -5 -27 32 -23 48 1 5 -3 5 -9 1 -9 -5 -10 -2 -5 11
5 15 4 16 -9 5 -12 -10 -15 -10 -15 4 0 9 -13 30 -30 48 -16 17 -30 36 -30 42
0 6 -9 18 -19 26 -11 7 -18 17 -15 22 3 4 0 8 -6 8 -17 0 -40 26 -32 36 4 5 6
8 3 7 -2 -1 -11 6 -20 15 -9 10 -11 11 -6 3 7 -10 7 -13 -1 -8 -6 3 -23 26
-39 51 -19 31 -33 43 -44 39 -9 -4 -13 -3 -9 1 4 5 -4 20 -17 34 -13 14 -21
30 -18 36 4 5 -1 7 -10 3 -10 -3 -17 -2 -17 4 0 6 -4 8 -9 5 -5 -3 -8 2 -7 11
0 10 -9 20 -24 24 -14 4 -22 7 -18 8 4 1 0 10 -9 20 -9 11 -20 18 -25 15 -7
-5 -12 10 -9 29 0 4 -2 6 -6 6 -20 -3 -34 2 -29 10 4 5 -7 15 -24 23 -16 7
-30 18 -30 25 0 7 -7 10 -17 6 -13 -5 -15 -3 -9 12 4 11 4 16 0 12 -4 -4 -13
1 -21 11 -8 9 -12 11 -8 5 4 -8 1 -11 -9 -7 -9 3 -15 9 -14 12 2 19 -3 32 -13
32 -5 0 -7 -6 -4 -12 4 -7 -2 -3 -13 10 -11 12 -28 22 -37 22 -9 0 -14 3 -12
8 3 4 -1 13 -9 20 -11 10 -14 10 -14 0 0 -9 -3 -9 -9 2 -6 8 -7 18 -4 23 3 5
-4 4 -16 -2 -17 -9 -20 -9 -15 3 3 9 -3 17 -15 21 -12 3 -19 11 -16 16 3 5 0
6 -8 3 -8 -3 -17 2 -21 11 -3 10 -12 15 -21 11 -8 -3 -15 -1 -15 5 0 6 -5 7
-12 3 -7 -5 -9 -2 -5 9 4 11 1 15 -13 12 -10 -2 -21 3 -24 12 -4 8 -12 13 -19
10 -8 -3 -20 -1 -28 5 -11 8 -10 8 5 4 16 -5 17 -4 7 8 -7 8 -21 13 -32 11
-12 -2 -19 2 -19 11 0 8 -3 13 -7 13 -21 -3 -33 2 -27 13 5 7 0 9 -14 6 -13
-4 -27 1 -38 13 -9 10 -21 16 -25 13 -5 -3 -9 1 -9 8 0 9 -3 9 -10 -2 -8 -13
-10 -12 -10 4 0 11 -3 16 -7 13 -3 -4 -17 2 -29 14 -15 14 -24 17 -29 9 -5 -8
-10 -6 -19 5 -6 9 -25 17 -41 19 -17 2 -29 9 -27 16 1 6 -2 9 -8 5 -6 -4 -18
-1 -26 6 -9 7 -24 14 -35 16 -38 6 -44 8 -56 23 -11 13 -12 12 -7 -5 4 -15 1
-13 -10 5 -8 14 -15 20 -16 13 0 -6 -8 -10 -17 -8 -10 1 -17 8 -15 15 1 6 -2
9 -7 6 -5 -4 -12 0 -14 6 -4 10 -6 9 -6 -1 -1 -11 -4 -11 -16 -1 -12 10 -15
10 -15 -1 0 -11 -2 -11 -9 -1 -4 7 -18 14 -29 15 -12 1 -22 5 -22 10 0 5 -9 7
-19 4 -11 -3 -22 1 -25 8 -3 8 -20 12 -46 11 -27 -1 -44 3 -47 11 -7 17 -43
17 -43 1 0 -9 -4 -8 -10 2 -6 11 -21 15 -49 13 -39 -2 -55 10 -28 20 9 4 9 6
-1 6 -7 1 -15 -6 -18 -14 -5 -12 -8 -12 -19 -1 -8 8 -25 11 -41 8 -15 -3 -24
-1 -21 4 3 6 -3 10 -14 10 -10 0 -19 -3 -19 -7 0 -4 -9 -5 -20 -2 -11 3 -18 8
-16 12 2 3 -99 7 -225 9 -180 2 -229 0 -229 -10 0 -9 -3 -8 -10 2 -9 13 -11
13 -20 0 -6 -10 -10 -11 -10 -2 0 6 -7 12 -15 12 -8 0 -15 -7 -15 -16 0 -8 -5
-12 -10 -9 -6 4 -8 10 -6 14 3 3 -4 7 -14 7 -10 0 -16 -4 -14 -8z m-1741 -888
c3 -5 1 -10 -4 -10 -6 0 -11 5 -11 10 0 6 2 10 4 10 3 0 8 -4 11 -10z m4103
-55 c-3 -3 -9 2 -12 12 -6 14 -5 15 5 6 7 -7 10 -15 7 -18z m745 -2120 c-3 -9
-8 -14 -10 -11 -3 3 -2 9 2 15 9 16 15 13 8 -4z m-492 -1278 c-10 -9 -11 -8
-5 6 3 10 9 15 12 12 3 -3 0 -11 -7 -18z m-4467 -493 c3 -8 2 -12 -4 -9 -6 3
-10 10 -10 16 0 14 7 11 14 -7z m1760 -872 c3 -5 -1 -9 -9 -9 -8 0 -12 4 -9 9
7 10 11 10 18 0z"/>
<path d="M5733 3165 c0 -8 4 -12 9 -9 5 3 6 10 3 15 -9 13 -12 11 -12 -6z"/>
<path d="M3 2582 c2 -12 6 -24 10 -28 3 -4 4 4 2 16 -6 30 -16 40 -12 12z"/>
<path d="M190 1795 c0 -8 4 -15 10 -15 5 0 7 7 4 15 -4 8 -8 15 -10 15 -2 0
-4 -7 -4 -15z"/>
</g>
</svg>
