<svg width="63" height="52" viewBox="0 0 63 52" fill="none" xmlns="http://www.w3.org/2000/svg">
<mask id="path-1-outside-1_14_201" maskUnits="userSpaceOnUse" x="10.879" y="0" width="25" height="23" fill="black">
<rect fill="white" x="10.879" width="25" height="23"/>
<path fill-rule="evenodd" clip-rule="evenodd" d="M23.3677 21.6172C21.1368 21.6172 18.9249 20.8856 16.9716 19.5007C12.4475 16.2941 11.5751 10.6987 14.8508 5.89316C15.3579 5.14974 15.9262 4.37414 16.1017 4.14778C16.1775 4.05014 16.2724 3.95656 16.3832 3.87075C18.8461 1.96608 21.4771 1 24.2016 1C26.1839 1 28.197 1.51879 30.1848 2.5411C30.3418 2.62185 30.4784 2.71764 30.5895 2.82466C30.8054 3.03351 31.4062 3.70863 32.0839 4.5047C34.9393 7.86096 35.3099 12.1816 33.098 16.3589C33.0385 16.4711 32.9703 16.5743 32.8952 16.6642C32.723 16.8692 32.0807 17.5647 31.4662 18.1598C29.1643 20.3895 26.2879 21.6172 23.3677 21.6172ZM18.5254 6.36711C18.4845 6.42345 18.4396 6.47905 18.3896 6.53231C15.4068 9.6833 15.9671 12.4899 16.5654 13.8815C17.6796 16.4709 20.6286 18.2789 23.7366 18.2789C26.282 18.2789 28.5668 17.0897 30.1989 14.8979C30.3491 14.7396 30.7882 13.9408 31.0575 13.0402C31.7734 10.6454 31.2119 8.32602 29.4329 6.33357C28.7451 5.56265 27.3829 4.72159 26.3975 4.45861C24.2958 3.89827 22.1876 4.10133 20.3029 5.0483C19.4411 5.48128 18.6985 6.12731 18.5254 6.36711Z"/>
</mask>
<path fill-rule="evenodd" clip-rule="evenodd" d="M23.3677 21.6172C21.1368 21.6172 18.9249 20.8856 16.9716 19.5007C12.4475 16.2941 11.5751 10.6987 14.8508 5.89316C15.3579 5.14974 15.9262 4.37414 16.1017 4.14778C16.1775 4.05014 16.2724 3.95656 16.3832 3.87075C18.8461 1.96608 21.4771 1 24.2016 1C26.1839 1 28.197 1.51879 30.1848 2.5411C30.3418 2.62185 30.4784 2.71764 30.5895 2.82466C30.8054 3.03351 31.4062 3.70863 32.0839 4.5047C34.9393 7.86096 35.3099 12.1816 33.098 16.3589C33.0385 16.4711 32.9703 16.5743 32.8952 16.6642C32.723 16.8692 32.0807 17.5647 31.4662 18.1598C29.1643 20.3895 26.2879 21.6172 23.3677 21.6172ZM18.5254 6.36711C18.4845 6.42345 18.4396 6.47905 18.3896 6.53231C15.4068 9.6833 15.9671 12.4899 16.5654 13.8815C17.6796 16.4709 20.6286 18.2789 23.7366 18.2789C26.282 18.2789 28.5668 17.0897 30.1989 14.8979C30.3491 14.7396 30.7882 13.9408 31.0575 13.0402C31.7734 10.6454 31.2119 8.32602 29.4329 6.33357C28.7451 5.56265 27.3829 4.72159 26.3975 4.45861C24.2958 3.89827 22.1876 4.10133 20.3029 5.0483C19.4411 5.48128 18.6985 6.12731 18.5254 6.36711Z" fill="#504FFF"/>
<path d="M16.9716 19.5007L17.55 18.6849L17.5499 18.6848L16.9716 19.5007ZM14.8508 5.89316L14.0247 5.32967L14.0246 5.32991L14.8508 5.89316ZM16.1017 4.14778L15.3119 3.53446L15.3115 3.53491L16.1017 4.14778ZM16.3832 3.87075L15.7714 3.0797L15.771 3.08003L16.3832 3.87075ZM30.1848 2.5411L29.7274 3.43038L29.7275 3.43044L30.1848 2.5411ZM30.5895 2.82466L31.2848 2.10595L31.2833 2.10449L30.5895 2.82466ZM32.0839 4.5047L32.8455 3.8567L32.8453 3.85646L32.0839 4.5047ZM33.098 16.3589L33.9813 16.8278L33.9818 16.8269L33.098 16.3589ZM32.8952 16.6642L33.6609 17.3074L33.6627 17.3053L32.8952 16.6642ZM31.4662 18.1598L30.7705 17.4415L30.7705 17.4415L31.4662 18.1598ZM18.3896 6.53231L19.1158 7.21978L19.1183 7.21715L18.3896 6.53231ZM18.5254 6.36711L19.3345 6.95486L19.3363 6.9524L18.5254 6.36711ZM16.5654 13.8815L15.6467 14.2765L15.6468 14.2767L16.5654 13.8815ZM30.1989 14.8979L29.4734 14.2097L29.4324 14.2529L29.3969 14.3006L30.1989 14.8979ZM31.0575 13.0402L32.0156 13.3266L32.0156 13.3266L31.0575 13.0402ZM29.4329 6.33357L28.6868 6.99932L28.687 6.99958L29.4329 6.33357ZM26.3975 4.45861L26.6553 3.49242L26.6551 3.49237L26.3975 4.45861ZM20.3029 5.0483L20.7518 5.94185L20.7518 5.94185L20.3029 5.0483ZM16.3933 20.3164C18.5026 21.812 20.9142 22.6172 23.3677 22.6172V20.6172C21.3594 20.6172 19.3472 19.9591 17.55 18.6849L16.3933 20.3164ZM14.0246 5.32991C12.26 7.9185 11.5807 10.7719 11.9982 13.4505C12.4164 16.1335 13.9242 18.5665 16.3934 20.3165L17.5499 18.6848C15.4949 17.2283 14.3044 15.2602 13.9743 13.1425C13.6436 11.0204 14.1659 8.67334 15.6771 6.45642L14.0246 5.32991ZM15.3115 3.53491C15.1204 3.78137 14.54 4.57422 14.0247 5.32967L15.677 6.45665C16.1758 5.72526 16.7319 4.9669 16.8919 4.76065L15.3115 3.53491ZM15.771 3.08003C15.6012 3.21147 15.4448 3.36336 15.3119 3.53446L16.8916 4.7611C16.9103 4.73691 16.9435 4.70165 16.9954 4.66148L15.771 3.08003ZM24.2016 0C21.2246 0 18.3833 1.05985 15.7714 3.0797L16.9949 4.6618C19.3089 2.87232 21.7295 2 24.2016 2V0ZM30.6421 1.65181C28.5312 0.566199 26.3625 0 24.2016 0V2C26.0054 2 27.8627 2.47139 29.7274 3.43038L30.6421 1.65181ZM31.2833 2.10449C31.093 1.92118 30.8739 1.77097 30.642 1.65175L29.7275 3.43044C29.8098 3.47273 29.8638 3.5141 29.8957 3.54483L31.2833 2.10449ZM32.8453 3.85646C32.176 3.07026 31.5423 2.35509 31.2848 2.10595L29.8942 3.54337C30.0684 3.71192 30.6363 4.347 31.3224 5.15293L32.8453 3.85646ZM33.9818 16.8269C36.3672 12.3218 35.9905 7.55329 32.8455 3.8567L31.3222 5.1527C33.8881 8.16863 34.2527 12.0414 32.2143 15.891L33.9818 16.8269ZM33.6627 17.3053C33.7874 17.156 33.8933 16.9937 33.9813 16.8278L32.2147 15.8901C32.1837 15.9486 32.1532 15.9926 32.1278 16.0231L33.6627 17.3053ZM32.1619 18.8781C32.7935 18.2664 33.4609 17.5456 33.6609 17.3074L32.1295 16.021C31.9851 16.1929 31.3678 16.8629 30.7705 17.4415L32.1619 18.8781ZM23.3677 22.6172C26.5739 22.6172 29.6933 21.2692 32.162 18.8781L30.7705 17.4415C28.6353 19.5097 26.0018 20.6172 23.3677 20.6172V22.6172ZM19.1183 7.21715C19.2018 7.12823 19.2732 7.03915 19.3345 6.95486L17.7164 5.77935C17.6958 5.80775 17.6774 5.82987 17.6609 5.84747L19.1183 7.21715ZM17.4841 13.4865C17.2352 12.9076 16.9964 12.0393 17.1269 10.9902C17.2559 9.95357 17.7554 8.65681 19.1158 7.21977L17.6634 5.84485C16.0409 7.5588 15.3292 9.24085 15.1422 10.7432C14.9568 12.2331 15.2973 13.4638 15.6467 14.2765L17.4841 13.4865ZM23.7366 17.2789C20.9755 17.2789 18.4204 15.6627 17.484 13.4863L15.6468 14.2767C16.9387 17.2792 20.2817 19.2789 23.7366 19.2789V17.2789ZM29.3969 14.3006C27.9389 16.2586 25.9424 17.2789 23.7366 17.2789V19.2789C26.6216 19.2789 29.1948 17.9208 31.001 15.4951L29.3969 14.3006ZM30.0994 12.7537C29.983 13.143 29.8276 13.5166 29.685 13.8085C29.614 13.9538 29.5499 14.0713 29.5003 14.1543C29.437 14.2601 29.429 14.2565 29.4734 14.2097L30.9244 15.5861C31.044 15.4601 31.1471 15.2973 31.2169 15.1806C31.3002 15.0412 31.3909 14.873 31.4821 14.6863C31.6639 14.3141 31.8627 13.838 32.0156 13.3266L30.0994 12.7537ZM28.687 6.99958C30.2537 8.75432 30.7079 10.7183 30.0994 12.7537L32.0156 13.3266C32.839 10.5725 32.17 7.89773 30.1789 5.66757L28.687 6.99958ZM26.1396 5.4248C26.5077 5.52303 27.0031 5.74868 27.5014 6.05643C27.9991 6.36385 28.4271 6.70826 28.6868 6.99932L30.1791 5.66782C29.751 5.18796 29.1539 4.72638 28.5523 4.3548C27.9512 3.98354 27.2727 3.65717 26.6553 3.49242L26.1396 5.4248ZM20.7518 5.94185C22.41 5.10869 24.2661 4.92528 26.1399 5.42486L26.6551 3.49237C24.3255 2.87126 21.9651 3.09397 19.8539 4.15475L20.7518 5.94185ZM19.3363 6.9524C19.3354 6.95353 19.4694 6.80379 19.7708 6.56877C20.0456 6.35452 20.3913 6.12299 20.7518 5.94185L19.8539 4.15474C19.3527 4.40659 18.8962 4.71457 18.541 4.99153C18.2124 5.24772 17.8885 5.54088 17.7146 5.78181L19.3363 6.9524Z" fill="#504FFF" mask="url(#path-1-outside-1_14_201)"/>
<path d="M45.0722 29.7148L45.0938 30.5286C45.1024 30.8519 45.1101 31.1736 45.1177 31.4945C45.1313 32.0644 45.1448 32.6315 45.1632 33.2001L45.1633 33.2008C45.1891 34.0333 45.2163 34.866 45.2436 35.6989C45.3583 39.2015 45.4731 42.7089 45.4802 46.2245L45.0722 29.7148ZM45.0722 29.7148L44.3561 30.102M45.0722 29.7148L44.3561 30.102M44.3561 30.102C44.3304 30.1159 44.306 30.1292 44.2821 30.1422C44.2385 30.1659 44.1966 30.1886 44.152 30.2125L44.1486 30.2143M44.3561 30.102L44.1486 30.2143M44.1486 30.2143C43.3172 30.6677 42.4792 31.1206 41.631 31.5366L41.3369 31.6809M44.1486 30.2143L41.3369 31.6809M41.3369 31.6809L41.3517 32.0082M41.3369 31.6809L41.3517 32.0082M41.3517 32.0082C41.4742 34.7094 41.5643 37.4111 41.6306 40.1152C41.6678 41.6566 41.6841 43.2004 41.6929 44.7457C40.0036 44.7503 38.3096 44.7721 36.6138 44.8483C36.5008 40.601 36.2903 35.4545 36.115 32.3245C36.0471 31.1068 35.0443 30.5164 34.1546 30.5149C33.7067 30.5142 33.2394 30.6567 32.8841 30.9762C32.5167 31.3067 32.3089 31.7918 32.3419 32.3804L32.3419 32.3805M41.3517 32.0082L32.3419 32.3805M32.3419 32.3805C32.5598 36.266 32.8335 43.2907 32.9037 47.7973C29.9353 47.7843 26.9668 47.7558 23.9967 47.7272L23.8808 47.7261C20.8679 47.6971 17.8534 47.6683 14.8385 47.656C14.8283 45.691 14.8075 43.2854 14.7868 40.8835C14.7601 37.7955 14.7335 34.7138 14.7295 32.5825C14.7284 31.9937 14.4937 31.5186 14.1199 31.1977C13.7564 30.8856 13.2888 30.7415 12.8398 30.7415C12.3909 30.7415 11.9233 30.8856 11.5603 31.1982C11.1869 31.5197 10.9538 31.9955 10.9549 32.5844V32.5845M32.3419 32.3805L10.9549 32.5845M10.9549 32.5845C10.9592 34.7399 10.9864 37.8773 11.0136 41.006C11.0218 41.9562 11.03 42.9056 11.0376 43.8264C9.125 43.9046 7.20913 43.9282 5.28861 43.9341C5.06073 38.9655 5.17601 34 5.29184 29.0109C5.31615 27.9638 5.34049 26.9156 5.36168 25.8662C5.86694 24.8765 6.62961 24.1701 7.67055 23.8133C11.5666 23.4051 15.4869 23.2369 19.4139 23.1794C22.8424 23.1296 26.271 23.1677 29.7064 23.2057C30.2401 23.2117 30.7741 23.2176 31.3082 23.2232C32.306 23.2337 33.314 23.2258 34.3166 23.2179C35.0176 23.2124 35.716 23.2069 36.4063 23.2078H36.4069C36.4944 23.2078 36.5814 23.2076 36.6683 23.2073C36.8797 23.2068 37.0901 23.2062 37.3032 23.209L38.2203 23.2208L37.7334 22.4436C37.3622 21.8511 36.7868 21.2745 36.2739 20.7606L36.2593 20.7459L36.2588 20.7454C35.9521 20.439 35.6505 20.1361 35.3884 19.8342L35.3884 19.8341L35.3856 19.8309C35.3316 19.7698 35.268 19.7028 35.2124 19.6441C35.1955 19.6263 35.1794 19.6093 35.1644 19.5934L35.0114 19.4309L34.7883 19.4363L34.7683 19.4368C34.0825 19.4533 33.4078 19.4696 32.7405 19.4632L32.7402 19.4632C31.7471 19.4542 30.736 19.443 29.7243 19.4318C28.6825 19.4203 27.6401 19.4087 26.6162 19.3996L26.6161 19.3996C22.5291 19.3639 18.4307 19.365 14.335 19.5491C12.0526 19.6517 9.76959 19.8098 7.49349 20.0503M10.9549 32.5845L7.49349 20.0503M7.49349 20.0503C7.26693 20.0322 7.02742 20.056 6.77889 20.132L7.49349 20.0503ZM1.75962 24.8786C1.79277 24.6744 1.85375 24.4727 1.9412 24.2791L1.75962 24.8786ZM1.75962 24.8786C1.6585 25.1017 1.59707 25.3547 1.59188 25.6376C1.56905 26.8004 1.54169 27.9643 1.51431 29.1291C1.38589 34.5921 1.25697 40.0762 1.59272 45.5613L1.59275 45.5618C1.63815 46.2935 2.03404 46.8171 2.54796 47.1042C2.84006 47.3592 3.22533 47.517 3.6907 47.517C6.14258 47.517 8.60245 47.5073 11.0631 47.4065C11.0671 48.0888 11.0699 48.724 11.0709 49.2868L11.0709 49.2872C11.0717 49.5988 11.1406 49.873 11.2563 50.1128C11.484 50.7276 12.0425 51.2261 12.8832 51.227L1.75962 24.8786ZM36.6905 48.748C36.9388 49.2495 36.95 49.8593 36.7331 50.3655C36.485 50.9444 35.935 51.3894 35.1406 51.3885C31.4284 51.3841 27.7169 51.3459 24.0082 51.3077L24.0072 51.3077C20.2974 51.2695 16.5903 51.2314 12.8833 51.227L36.6905 48.748ZM36.6905 48.748C36.6895 48.6431 36.6884 48.5361 36.6871 48.4274C38.6388 48.3397 40.5945 48.3247 42.5599 48.3247C42.9231 48.3247 43.2397 48.2281 43.5012 48.0633C43.9329 48.0831 44.3813 47.971 44.7474 47.7106C45.19 47.3958 45.4818 46.8841 45.4802 46.2248L36.6905 48.748ZM6.77871 20.132C4.67266 20.7751 2.86765 22.2269 1.9413 24.2789L6.77871 20.132Z" fill="#504FFF" stroke="#504FFF"/>
<mask id="path-4-outside-2_14_201" maskUnits="userSpaceOnUse" x="31.3101" y="4.07568" width="32" height="31" fill="black">
<rect fill="white" x="31.3101" y="4.07568" width="32" height="31"/>
<path fill-rule="evenodd" clip-rule="evenodd" d="M58.0521 14.82C58.5919 14.9569 59.1011 15.0861 59.5848 15.1782C60.0831 15.2731 60.4963 15.6224 60.6693 16.0959C60.804 16.4626 60.7788 16.8613 60.6167 17.2056C60.5679 17.3089 60.5097 17.4088 60.4358 17.4999C59.7189 18.3845 58.9438 19.2184 58.1939 20.0245C57.8758 20.3661 57.5589 20.7072 57.2473 21.051C57.157 21.1496 56.9467 21.3508 56.6763 21.6034C56.6628 21.6161 56.6484 21.6296 56.6332 21.6438C56.3134 21.9439 55.649 22.5671 55.3215 22.946C55.3342 23.0373 55.3498 23.1338 55.3654 23.23C55.3728 23.2757 55.3801 23.3214 55.3872 23.3664C55.4617 23.8454 55.5493 24.3441 55.6439 24.8699C56.0113 26.8983 56.427 29.1966 56.0483 31.1543C56.0025 31.3914 55.896 31.6011 55.7534 31.7784C55.4706 32.1276 55.0323 32.3392 54.5539 32.3205C54.5341 32.3191 54.5156 32.3154 54.497 32.3116C54.4792 32.308 54.4614 32.3043 54.4425 32.3028C53.5585 32.224 52.8048 31.8215 52.1975 31.4878C52.1756 31.4759 52.1538 31.4639 52.132 31.452C51.9671 31.3621 51.8041 31.2731 51.6422 31.1974C50.5791 30.6997 49.5142 30.2082 48.4499 29.7174L47.0588 29.0744C46.948 29.1284 46.8327 29.1879 46.7178 29.2473C46.6503 29.2821 46.5829 29.3169 46.5167 29.3505C46.4539 29.3822 46.3911 29.4139 46.3283 29.4455C46.022 29.6002 45.7147 29.7552 45.3936 29.922C45.1157 30.0666 44.8345 30.2114 44.5536 30.3554C43.6495 30.8179 42.7291 31.2687 41.7894 31.6506C41.5779 31.7377 41.3657 31.8203 41.1528 31.8986C40.7401 32.0501 40.3252 32.1884 39.9045 32.3037C39.7779 32.3381 39.6502 32.355 39.5226 32.355C39.1732 32.355 38.8314 32.2279 38.5635 31.9899C38.5085 31.9412 38.4638 31.8845 38.4191 31.8278C38.4134 31.8205 38.4076 31.8132 38.4019 31.806C38.1539 31.4948 38.035 31.0973 38.0962 30.6966L38.2089 29.9653C38.5213 27.9531 38.8663 25.6981 38.78 23.8406C38.78 23.8306 38.78 23.8196 38.7786 23.8093C38.7764 23.7661 38.7747 23.7227 38.7729 23.6792C38.7692 23.5872 38.7655 23.4952 38.7574 23.4068C38.7024 22.7825 37.9123 22.0291 37.2142 21.3636L37.2117 21.3612C37.0494 21.2072 36.893 21.0559 36.742 20.9066C36.608 20.7733 36.4785 20.6418 36.3601 20.5116C36.1727 20.3061 35.9395 20.0826 35.693 19.8464C35.6736 19.8278 35.6541 19.8091 35.6346 19.7904L35.6345 19.7903C34.7492 18.9424 33.745 17.9808 33.3769 16.862C33.3702 16.8408 33.3661 16.819 33.362 16.7971C33.3593 16.7826 33.3566 16.7681 33.3531 16.7538C33.2693 16.4101 33.3069 16.048 33.4746 15.7339C33.5634 15.5678 33.6837 15.4234 33.8264 15.305C33.9804 15.1767 34.1594 15.079 34.3567 15.0233C35.8329 14.6073 37.3267 14.4022 38.771 14.2041L39.3932 14.1184C39.489 14.1048 39.7039 14.0855 39.9843 14.0623C40.172 14.0476 40.5246 14.0182 40.892 13.9815C41.1963 13.9515 41.5113 13.9155 41.7516 13.8779C42.0272 13.3503 42.3037 12.7671 42.5926 12.158L42.6262 12.0871L42.6275 12.0844C43.5475 10.1472 44.5902 7.95173 46.0345 6.50032C46.3124 6.22206 46.6943 6.07017 47.085 6.07584C47.1613 6.07806 47.2359 6.09039 47.3104 6.10345C47.6184 6.15881 47.9039 6.30811 48.1187 6.54199C49.5175 8.06223 50.4878 10.0759 51.4266 12.0243L51.4273 12.0258L51.4719 12.1182C51.7458 12.6858 52.009 13.2311 52.2749 13.7425C52.5035 13.7783 52.732 13.8139 52.9603 13.8494C53.0197 13.8586 53.079 13.8679 53.1383 13.8771L53.1604 13.8806C54.1809 14.0398 55.2363 14.2044 56.2793 14.4049C56.8709 14.5192 57.4575 14.6685 58.0241 14.8129L58.0521 14.82Z"/>
</mask>
<path fill-rule="evenodd" clip-rule="evenodd" d="M58.0521 14.82C58.5919 14.9569 59.1011 15.0861 59.5848 15.1782C60.0831 15.2731 60.4963 15.6224 60.6693 16.0959C60.804 16.4626 60.7788 16.8613 60.6167 17.2056C60.5679 17.3089 60.5097 17.4088 60.4358 17.4999C59.7189 18.3845 58.9438 19.2184 58.1939 20.0245C57.8758 20.3661 57.5589 20.7072 57.2473 21.051C57.157 21.1496 56.9467 21.3508 56.6763 21.6034C56.6628 21.6161 56.6484 21.6296 56.6332 21.6438C56.3134 21.9439 55.649 22.5671 55.3215 22.946C55.3342 23.0373 55.3498 23.1338 55.3654 23.23C55.3728 23.2757 55.3801 23.3214 55.3872 23.3664C55.4617 23.8454 55.5493 24.3441 55.6439 24.8699C56.0113 26.8983 56.427 29.1966 56.0483 31.1543C56.0025 31.3914 55.896 31.6011 55.7534 31.7784C55.4706 32.1276 55.0323 32.3392 54.5539 32.3205C54.5341 32.3191 54.5156 32.3154 54.497 32.3116C54.4792 32.308 54.4614 32.3043 54.4425 32.3028C53.5585 32.224 52.8048 31.8215 52.1975 31.4878C52.1756 31.4759 52.1538 31.4639 52.132 31.452C51.9671 31.3621 51.8041 31.2731 51.6422 31.1974C50.5791 30.6997 49.5142 30.2082 48.4499 29.7174L47.0588 29.0744C46.948 29.1284 46.8327 29.1879 46.7178 29.2473C46.6503 29.2821 46.5829 29.3169 46.5167 29.3505C46.4539 29.3822 46.3911 29.4139 46.3283 29.4455C46.022 29.6002 45.7147 29.7552 45.3936 29.922C45.1157 30.0666 44.8345 30.2114 44.5536 30.3554C43.6495 30.8179 42.7291 31.2687 41.7894 31.6506C41.5779 31.7377 41.3657 31.8203 41.1528 31.8986C40.7401 32.0501 40.3252 32.1884 39.9045 32.3037C39.7779 32.3381 39.6502 32.355 39.5226 32.355C39.1732 32.355 38.8314 32.2279 38.5635 31.9899C38.5085 31.9412 38.4638 31.8845 38.4191 31.8278C38.4134 31.8205 38.4076 31.8132 38.4019 31.806C38.1539 31.4948 38.035 31.0973 38.0962 30.6966L38.2089 29.9653C38.5213 27.9531 38.8663 25.6981 38.78 23.8406C38.78 23.8306 38.78 23.8196 38.7786 23.8093C38.7764 23.7661 38.7747 23.7227 38.7729 23.6792C38.7692 23.5872 38.7655 23.4952 38.7574 23.4068C38.7024 22.7825 37.9123 22.0291 37.2142 21.3636L37.2117 21.3612C37.0494 21.2072 36.893 21.0559 36.742 20.9066C36.608 20.7733 36.4785 20.6418 36.3601 20.5116C36.1727 20.3061 35.9395 20.0826 35.693 19.8464C35.6736 19.8278 35.6541 19.8091 35.6346 19.7904L35.6345 19.7903C34.7492 18.9424 33.745 17.9808 33.3769 16.862C33.3702 16.8408 33.3661 16.819 33.362 16.7971C33.3593 16.7826 33.3566 16.7681 33.3531 16.7538C33.2693 16.4101 33.3069 16.048 33.4746 15.7339C33.5634 15.5678 33.6837 15.4234 33.8264 15.305C33.9804 15.1767 34.1594 15.079 34.3567 15.0233C35.8329 14.6073 37.3267 14.4022 38.771 14.2041L39.3932 14.1184C39.489 14.1048 39.7039 14.0855 39.9843 14.0623C40.172 14.0476 40.5246 14.0182 40.892 13.9815C41.1963 13.9515 41.5113 13.9155 41.7516 13.8779C42.0272 13.3503 42.3037 12.7671 42.5926 12.158L42.6262 12.0871L42.6275 12.0844C43.5475 10.1472 44.5902 7.95173 46.0345 6.50032C46.3124 6.22206 46.6943 6.07017 47.085 6.07584C47.1613 6.07806 47.2359 6.09039 47.3104 6.10345C47.6184 6.15881 47.9039 6.30811 48.1187 6.54199C49.5175 8.06223 50.4878 10.0759 51.4266 12.0243L51.4273 12.0258L51.4719 12.1182C51.7458 12.6858 52.009 13.2311 52.2749 13.7425C52.5035 13.7783 52.732 13.8139 52.9603 13.8494C53.0197 13.8586 53.079 13.8679 53.1383 13.8771L53.1604 13.8806C54.1809 14.0398 55.2363 14.2044 56.2793 14.4049C56.8709 14.5192 57.4575 14.6685 58.0241 14.8129L58.0521 14.82Z" fill="#504FFF"/>
<path d="M59.5848 15.1782L59.9591 13.2135L59.9589 13.2135L59.5848 15.1782ZM58.0521 14.82L57.5603 16.7586L57.5603 16.7586L58.0521 14.82ZM60.6693 16.0959L58.7909 16.7825L58.7919 16.7853L60.6693 16.0959ZM60.6167 17.2056L62.425 18.0601L62.4262 18.0576L60.6167 17.2056ZM60.4358 17.4999L58.8821 16.2406L58.8821 16.2407L60.4358 17.4999ZM58.1939 20.0245L59.6576 21.3873L59.6581 21.3868L58.1939 20.0245ZM57.2473 21.051L58.7228 22.4011L58.7289 22.3944L57.2473 21.051ZM56.6763 21.6034L55.3109 20.142L55.3076 20.1451L56.6763 21.6034ZM56.6332 21.6438L58.0015 23.1025L58.0016 23.1025L56.6332 21.6438ZM55.3215 22.946L53.8083 21.6383L53.2156 22.324L53.3406 23.2217L55.3215 22.946ZM55.3654 23.23L53.391 23.5493L53.391 23.5493L55.3654 23.23ZM55.3872 23.3664L57.3635 23.0592L57.3631 23.0565L55.3872 23.3664ZM55.6439 24.8699L53.6755 25.2239L53.6759 25.2264L55.6439 24.8699ZM56.0483 31.1543L54.0847 30.7744L54.0845 30.7754L56.0483 31.1543ZM55.7534 31.7784L57.3077 33.037L57.3116 33.0321L55.7534 31.7784ZM54.5539 32.3205L54.4205 34.316L54.4481 34.3178L54.4756 34.3189L54.5539 32.3205ZM54.497 32.3116L54.0977 34.2713L54.0979 34.2713L54.497 32.3116ZM54.4425 32.3028L54.2649 34.2949L54.2746 34.2958L54.2843 34.2966L54.4425 32.3028ZM52.1975 31.4878L53.1607 29.735L53.1539 29.7313L52.1975 31.4878ZM52.132 31.452L51.1739 33.2076L51.1739 33.2076L52.132 31.452ZM51.6422 31.1974L50.7942 33.0088L50.7954 33.0093L51.6422 31.1974ZM48.4499 29.7174L47.6109 31.5328L47.6123 31.5335L48.4499 29.7174ZM47.0588 29.0744L47.8978 27.2589L47.036 26.8606L46.1825 27.2766L47.0588 29.0744ZM46.7178 29.2473L47.6353 31.0244L47.6354 31.0244L46.7178 29.2473ZM46.5167 29.3505L47.4187 31.1355L47.4204 31.1346L46.5167 29.3505ZM46.3283 29.4455L45.4272 27.66L45.4272 27.66L46.3283 29.4455ZM45.3936 29.922L44.4717 28.1472L44.4704 28.1479L45.3936 29.922ZM44.5536 30.3554L45.4646 32.1358L45.4657 32.1352L44.5536 30.3554ZM41.7894 31.6506L41.0364 29.7978L41.0285 29.8011L41.7894 31.6506ZM41.1528 31.8986L41.8422 33.776L41.843 33.7757L41.1528 31.8986ZM39.9045 32.3037L40.4288 34.2337L40.4331 34.2326L39.9045 32.3037ZM38.5635 31.9899L39.8916 30.4946L39.8904 30.4934L38.5635 31.9899ZM38.4191 31.8278L36.8487 33.0662L36.8487 33.0662L38.4191 31.8278ZM38.4019 31.806L39.9686 30.5628L39.9661 30.5597L38.4019 31.806ZM38.0962 30.6966L36.1196 30.3921L36.1192 30.3943L38.0962 30.6966ZM38.2089 29.9653L36.2326 29.6584L36.2323 29.6607L38.2089 29.9653ZM38.78 23.8406H36.78V23.887L36.7821 23.9334L38.78 23.8406ZM38.7786 23.8093L36.7813 23.9117L36.7853 23.9906L36.7956 24.0689L38.7786 23.8093ZM38.7729 23.6792L36.7745 23.76L36.7745 23.76L38.7729 23.6792ZM38.7574 23.4068L36.7652 23.5824L36.7656 23.5878L38.7574 23.4068ZM37.2142 21.3636L35.8341 22.8112L35.8341 22.8112L37.2142 21.3636ZM37.2117 21.3612L38.5918 19.9136L38.5885 19.9105L37.2117 21.3612ZM36.742 20.9066L35.3317 22.3247L35.3354 22.3284L36.742 20.9066ZM36.3601 20.5116L37.84 19.1662L37.8378 19.1638L36.3601 20.5116ZM35.693 19.8464L37.0768 18.4024L37.0768 18.4024L35.693 19.8464ZM35.6346 19.7904L37.0189 18.3469L37.0139 18.3421L35.6346 19.7904ZM35.6345 19.7903L34.2512 21.2347L34.2552 21.2386L35.6345 19.7903ZM33.3769 16.862L31.4704 17.4665L31.4737 17.4768L31.4771 17.4871L33.3769 16.862ZM33.362 16.7971L31.396 17.1642L31.396 17.1642L33.362 16.7971ZM33.3531 16.7538L35.2965 16.2812L35.2962 16.2799L33.3531 16.7538ZM33.4746 15.7339L31.711 14.7907L31.7103 14.7919L33.4746 15.7339ZM33.8264 15.305L35.1029 16.8447L35.1069 16.8414L33.8264 15.305ZM34.3567 15.0233L33.8142 13.0983L33.813 13.0986L34.3567 15.0233ZM38.771 14.2041L39.0428 16.1855L39.0438 16.1854L38.771 14.2041ZM39.3932 14.1184L39.6661 16.0997L39.6736 16.0986L39.3932 14.1184ZM39.9843 14.0623L39.8285 12.0683L39.8195 12.0691L39.9843 14.0623ZM40.892 13.9815L40.6953 11.9912L40.6937 11.9914L40.892 13.9815ZM41.7516 13.8779L42.0608 15.8538L43.0573 15.6979L43.5243 14.8039L41.7516 13.8779ZM42.5926 12.158L40.7855 11.301L40.7855 11.301L42.5926 12.158ZM42.6262 12.0871L40.8193 11.2297L40.8191 11.2301L42.6262 12.0871ZM42.6275 12.0844L40.8209 11.2264L40.8206 11.227L42.6275 12.0844ZM46.0345 6.50032L44.6193 5.08704L44.6168 5.0896L46.0345 6.50032ZM47.085 6.07584L47.1432 4.07668L47.1286 4.07626L47.114 4.07605L47.085 6.07584ZM47.3104 6.10345L47.6642 4.13498L47.6561 4.13356L47.3104 6.10345ZM48.1187 6.54199L46.6456 7.89474L46.6469 7.89621L48.1187 6.54199ZM51.4266 12.0243L53.2289 11.1573L53.2284 11.1561L51.4266 12.0243ZM51.4273 12.0258L49.625 12.8928L49.6261 12.8951L51.4273 12.0258ZM51.4719 12.1182L53.2732 11.249L53.2731 11.2489L51.4719 12.1182ZM52.2749 13.7425L50.5006 14.6654L50.9669 15.5619L51.9654 15.7184L52.2749 13.7425ZM52.9603 13.8494L53.2679 11.8732L53.2679 11.8732L52.9603 13.8494ZM53.1383 13.8771L53.4466 11.901L53.4461 11.9009L53.1383 13.8771ZM53.1604 13.8806L52.8521 15.8566L52.8521 15.8567L53.1604 13.8806ZM56.2793 14.4049L56.6587 12.4412L56.6569 12.4409L56.2793 14.4049ZM58.0241 14.8129L57.5303 16.7509L57.5323 16.7515L58.0241 14.8129ZM59.9589 13.2135C59.5455 13.1347 59.0971 13.0217 58.5438 12.8814L57.5603 16.7586C58.0867 16.8921 58.6567 17.0374 59.2107 17.1429L59.9589 13.2135ZM62.5478 15.4093C62.1308 14.2686 61.1423 13.4389 59.9591 13.2135L59.2105 17.1428C59.024 17.1073 58.8617 16.9761 58.7909 16.7825L62.5478 15.4093ZM62.4262 18.0576C62.8069 17.2489 62.8732 16.2955 62.5468 15.4066L58.7919 16.7853C58.7348 16.6297 58.7507 16.4737 58.8072 16.3537L62.4262 18.0576ZM61.9896 18.7593C62.1896 18.5125 62.3275 18.2664 62.425 18.0601L58.8084 16.3511C58.8087 16.3507 58.8141 16.3392 58.8256 16.3202C58.8373 16.3009 58.8557 16.2731 58.8821 16.2406L61.9896 18.7593ZM59.6581 21.3868C60.4014 20.588 61.2229 19.7053 61.9896 18.7592L58.8821 16.2407C58.215 17.0637 57.4863 17.8489 56.7296 18.6621L59.6581 21.3868ZM58.7289 22.3944C59.0308 22.0614 59.3396 21.7289 59.6576 21.3873L56.7301 18.6616C56.4119 19.0033 56.0871 19.3531 55.7656 19.7075L58.7289 22.3944ZM58.0417 23.0648C58.2916 22.8313 58.5679 22.5704 58.7228 22.4011L55.7717 19.7009C55.7727 19.6998 55.7375 19.7368 55.6408 19.83C55.5542 19.9136 55.4427 20.0189 55.3109 20.142L58.0417 23.0648ZM58.0016 23.1025C58.0166 23.0884 58.0312 23.0746 58.045 23.0617L55.3076 20.1451C55.2943 20.1576 55.2802 20.1709 55.2649 20.1852L58.0016 23.1025ZM56.8347 24.2538C57.0768 23.9736 57.6469 23.4352 58.0015 23.1025L55.2649 20.1852C54.9798 20.4526 54.2211 21.1606 53.8083 21.6383L56.8347 24.2538ZM57.3397 22.9108C57.3234 22.8099 57.3115 22.7358 57.3024 22.6703L53.3406 23.2217C53.3569 23.3388 53.3762 23.4576 53.391 23.5493L57.3397 22.9108ZM57.3631 23.0565C57.3551 23.006 57.347 22.9556 57.3397 22.9107L53.391 23.5493C53.3985 23.5958 53.4052 23.6368 53.4114 23.6763L57.3631 23.0565ZM57.6123 24.5159C57.5182 23.9926 57.4341 23.5134 57.3635 23.0592L53.411 23.6737C53.4893 24.1774 53.5805 24.6956 53.6755 25.2239L57.6123 24.5159ZM58.0119 31.5342C58.4756 29.1371 57.9613 26.4427 57.6119 24.5135L53.6759 25.2264C54.0613 27.3538 54.3784 29.2561 54.0847 30.7744L58.0119 31.5342ZM57.3116 33.0321C57.6328 32.6329 57.8971 32.1289 58.0121 31.5331L54.0845 30.7754C54.108 30.6538 54.1592 30.5693 54.1951 30.5246L57.3116 33.0321ZM54.4756 34.3189C55.6016 34.363 56.6388 33.8631 57.3077 33.037L54.1991 30.5198C54.3023 30.3922 54.463 30.3154 54.6322 30.322L54.4756 34.3189ZM54.0979 34.2713C54.0989 34.2716 54.2459 34.3043 54.4205 34.316L54.6873 30.3249C54.7618 30.3299 54.8208 30.3386 54.8559 30.3445C54.8863 30.3496 54.9108 30.3548 54.8961 30.3518L54.0979 34.2713ZM54.2843 34.2966C54.2173 34.2912 54.1643 34.2831 54.133 34.2778C54.1059 34.2731 54.0841 34.2685 54.0977 34.2713L54.8962 30.3518C54.894 30.3514 54.7599 30.3217 54.6006 30.3091L54.2843 34.2966ZM51.2343 33.2405C51.8234 33.5642 52.9137 34.1745 54.2649 34.2949L54.62 30.3107C54.2033 30.2736 53.7863 30.0788 53.1607 29.735L51.2343 33.2405ZM51.1739 33.2076C51.1955 33.2194 51.2182 33.2318 51.2411 33.2443L53.1539 29.7313C53.1331 29.7199 53.1121 29.7085 53.0901 29.6965L51.1739 33.2076ZM50.7954 33.0093C50.8908 33.0539 50.9981 33.1117 51.1739 33.2076L53.0901 29.6965C52.9361 29.6124 52.7175 29.4923 52.4891 29.3856L50.7954 33.0093ZM47.6123 31.5335C48.6769 32.0245 49.737 32.5138 50.7942 33.0088L52.4902 29.3861C51.4213 28.8856 50.3514 28.3919 49.2875 27.9012L47.6123 31.5335ZM46.2197 30.8899L47.6109 31.5328L49.289 27.9019L47.8978 27.2589L46.2197 30.8899ZM47.6354 31.0244C47.7545 30.9629 47.8487 30.9143 47.935 30.8722L46.1825 27.2766C46.0473 27.3425 45.911 27.413 45.8002 27.4702L47.6354 31.0244ZM47.4204 31.1346C47.4948 31.0969 47.5691 31.0586 47.6353 31.0244L45.8002 27.4702C45.7315 27.5056 45.6711 27.5368 45.6129 27.5663L47.4204 31.1346ZM47.2295 31.231C47.2921 31.1994 47.3554 31.1675 47.4187 31.1355L45.6146 27.5654C45.5523 27.5969 45.4901 27.6283 45.4272 27.66L47.2295 31.231ZM46.3156 31.6969C46.6247 31.5363 46.9218 31.3863 47.2295 31.231L45.4272 27.66C45.1222 27.814 44.8048 27.9742 44.4717 28.1472L46.3156 31.6969ZM45.4657 32.1352C45.7486 31.9903 46.0339 31.8435 46.3169 31.6961L44.4704 28.1479C44.1976 28.2898 43.9205 28.4325 43.6414 28.5755L45.4657 32.1352ZM42.5425 33.5034C43.5633 33.0885 44.5446 32.6066 45.4646 32.1358L43.6426 28.5749C42.7544 29.0293 41.895 29.4488 41.0364 29.7978L42.5425 33.5034ZM41.843 33.7757C42.0797 33.6887 42.3154 33.5969 42.5504 33.5002L41.0285 29.8011C40.8403 29.8785 40.6517 29.9519 40.4626 30.0214L41.843 33.7757ZM40.4331 34.2326C40.9226 34.0984 41.3931 33.9409 41.8422 33.776L40.4634 30.0211C40.0872 30.1593 39.7277 30.2784 39.3759 30.3748L40.4331 34.2326ZM39.5226 34.355C39.8282 34.355 40.1322 34.3143 40.4288 34.2337L39.3802 30.3736C39.4236 30.3619 39.4721 30.355 39.5226 30.355V34.355ZM37.2354 33.4853C37.8723 34.051 38.6876 34.355 39.5226 34.355V30.355C39.6587 30.355 39.7905 30.4047 39.8916 30.4946L37.2354 33.4853ZM36.8487 33.0662C36.8761 33.101 37.0267 33.3003 37.2366 33.4864L39.8904 30.4934C39.9486 30.545 39.9864 30.5876 40.0007 30.6041C40.008 30.6126 40.0115 30.617 40.0092 30.6142C40.0061 30.6103 40.0019 30.605 39.9895 30.5893L36.8487 33.0662ZM36.8352 33.0491C36.8387 33.0536 36.8426 33.0585 36.8487 33.0662L39.9895 30.5893C39.9842 30.5825 39.9765 30.5728 39.9686 30.5628L36.8352 33.0491ZM36.1192 30.3943C35.9675 31.3862 36.2684 32.3377 36.8377 33.0523L39.9661 30.5597C40.0395 30.6518 40.1024 30.8084 40.0733 30.999L36.1192 30.3943ZM36.2323 29.6607L36.1196 30.3921L40.0729 31.0012L40.1856 30.2699L36.2323 29.6607ZM36.7821 23.9334C36.8573 25.5503 36.5533 27.5927 36.2326 29.6584L40.1852 30.2721C40.4893 28.3135 40.8753 25.8459 40.7778 23.7478L36.7821 23.9334ZM36.7956 24.0689C36.7849 23.9875 36.7819 23.9229 36.7809 23.8892C36.7798 23.8573 36.78 23.8309 36.78 23.8406H40.78C40.78 23.8404 40.7802 23.8034 40.7788 23.761C40.7774 23.7167 40.7737 23.6414 40.7617 23.5496L36.7956 24.0689ZM36.7745 23.76C36.7762 23.8016 36.7784 23.8559 36.7813 23.9117L40.776 23.7069C40.7744 23.6764 40.7731 23.6438 40.7713 23.5985L36.7745 23.76ZM36.7656 23.5878C36.7683 23.6174 36.7704 23.6582 36.7745 23.76L40.7713 23.5985C40.768 23.5161 40.7626 23.373 40.7492 23.2257L36.7656 23.5878ZM35.8341 22.8112C36.2032 23.163 36.4866 23.4366 36.6913 23.682C36.789 23.7991 36.829 23.8636 36.8383 23.8806C36.8516 23.9049 36.784 23.7959 36.7652 23.5824L40.7497 23.2311C40.664 22.2594 40.0832 21.5035 39.7626 21.1193C39.384 20.6656 38.9233 20.2298 38.5943 19.9161L35.8341 22.8112ZM35.8316 22.8087L35.8341 22.8112L38.5943 19.9161L38.5918 19.9136L35.8316 22.8087ZM35.3354 22.3284C35.4974 22.4886 35.6639 22.6496 35.8348 22.8118L38.5885 19.9105C38.4349 19.7648 38.2885 19.6232 38.1487 19.4849L35.3354 22.3284ZM34.8802 21.8569C35.0331 22.0251 35.1913 22.185 35.3318 22.3247L38.1523 19.4885C38.0248 19.3616 37.9238 19.2584 37.84 19.1662L34.8802 21.8569ZM34.3091 21.2903C34.5697 21.54 34.7496 21.7137 34.8825 21.8594L37.8378 19.1638C37.5958 18.8985 37.3092 18.6252 37.0768 18.4024L34.3091 21.2903ZM34.2502 21.2338C34.27 21.2528 34.2898 21.2717 34.3091 21.2903L37.0768 18.4024C37.0574 18.3838 37.0382 18.3654 37.0189 18.3469L34.2502 21.2338ZM34.2552 21.2386L34.2552 21.2386L37.0139 18.3421L37.0138 18.342L34.2552 21.2386ZM31.4771 17.4871C32.0321 19.1738 33.4697 20.4864 34.2512 21.2347L37.0178 18.3458C36.0286 17.3985 35.458 16.7878 35.2767 16.2369L31.4771 17.4871ZM31.396 17.1642C31.3964 17.1663 31.4205 17.309 31.4704 17.4665L35.2834 16.2576C35.3041 16.3228 35.3162 16.3748 35.3223 16.4025C35.3276 16.4267 35.331 16.446 35.328 16.43L31.396 17.1642ZM31.4097 17.2263C31.4032 17.1993 31.3989 17.1787 31.397 17.169C31.3953 17.1608 31.3942 17.1548 31.396 17.1642L35.328 16.43C35.327 16.4243 35.3148 16.3567 35.2965 16.2812L31.4097 17.2263ZM31.7103 14.7919C31.2963 15.5672 31.2172 16.4371 31.4101 17.2277L35.2962 16.2799C35.3213 16.383 35.3174 16.5287 35.2388 16.676L31.7103 14.7919ZM32.55 13.7653C32.2162 14.0421 31.9271 14.3865 31.711 14.7907L35.2381 16.6772C35.1998 16.749 35.1511 16.8047 35.1029 16.8447L32.55 13.7653ZM33.813 13.0986C33.3299 13.2351 32.9026 13.4714 32.5459 13.7687L35.1069 16.8414C35.0582 16.882 34.989 16.923 34.9004 16.948L33.813 13.0986ZM38.4992 12.2226C37.0748 12.418 35.445 12.6388 33.8142 13.0983L34.8991 16.9484C36.2208 16.5759 37.5785 16.3864 39.0428 16.1855L38.4992 12.2226ZM39.1204 12.1371L38.4982 12.2228L39.0438 16.1854L39.6661 16.0997L39.1204 12.1371ZM39.8195 12.0691C39.5641 12.0902 39.2801 12.1145 39.1129 12.1381L39.6736 16.0986C39.6695 16.0992 39.7047 16.0947 39.806 16.0852C39.8959 16.0768 40.0113 16.0669 40.1491 16.0555L39.8195 12.0691ZM40.6937 11.9914C40.344 12.0262 40.0061 12.0545 39.8285 12.0684L40.1401 16.0562C40.338 16.0407 40.7053 16.0101 41.0904 15.9717L40.6937 11.9914ZM41.4424 11.9019C41.2585 11.9307 40.9879 11.9623 40.6953 11.9912L41.0888 15.9718C41.4047 15.9406 41.7641 15.9002 42.0608 15.8538L41.4424 11.9019ZM40.7855 11.301C40.4927 11.9185 40.2332 12.4649 39.9789 12.9518L43.5243 14.8039C43.8212 14.2356 44.1148 13.6158 44.3997 13.0149L40.7855 11.301ZM40.8191 11.2301L40.7855 11.301L44.3997 13.0149L44.4333 12.9441L40.8191 11.2301ZM40.8206 11.227L40.8193 11.2297L44.4331 12.9445L44.4344 12.9418L40.8206 11.227ZM44.6168 5.0896C42.8828 6.83212 41.7001 9.37509 40.8209 11.2264L44.4341 12.9424C45.3949 10.9194 46.2976 9.07133 47.4522 7.91104L44.6168 5.0896ZM47.114 4.07605C46.1919 4.06266 45.2861 4.41941 44.6193 5.08704L47.4496 7.91359C47.3387 8.02471 47.1968 8.07767 47.056 8.07563L47.114 4.07605ZM47.6561 4.13356C47.5857 4.1212 47.381 4.0836 47.1432 4.07668L47.0269 8.07499C46.9775 8.07355 46.9437 8.06931 46.9344 8.06808C46.9295 8.06742 46.9287 8.06722 46.9341 8.0681C46.9399 8.06905 46.9485 8.07051 46.9647 8.07335L47.6561 4.13356ZM49.5918 5.18924C49.0629 4.61333 48.3751 4.26278 47.6642 4.135L46.9566 8.07191C46.8616 8.05484 46.7449 8.00289 46.6456 7.89474L49.5918 5.18924ZM53.2284 11.1561C52.3188 9.26855 51.2273 6.96667 49.5904 5.18776L46.6469 7.89621C47.8077 9.15778 48.6567 10.8832 49.6249 12.8925L53.2284 11.1561ZM53.2296 11.1588L53.2289 11.1573L49.6243 12.8913L49.625 12.8928L53.2296 11.1588ZM53.2731 11.2489L53.2286 11.1566L49.6261 12.8951L49.6707 12.9874L53.2731 11.2489ZM54.0493 12.8196C53.7997 12.3397 53.5498 11.8223 53.2732 11.249L49.6707 12.9874C49.9418 13.5492 50.2183 14.1226 50.5006 14.6654L54.0493 12.8196ZM53.2679 11.8732C53.0395 11.8376 52.8119 11.8022 52.5845 11.7666L51.9654 15.7184C52.1951 15.7544 52.4246 15.7901 52.6527 15.8256L53.2679 11.8732ZM53.4461 11.9009C53.3867 11.8917 53.3273 11.8824 53.2679 11.8732L52.6527 15.8256C52.712 15.8348 52.7713 15.8441 52.8306 15.8533L53.4461 11.9009ZM53.4687 11.9045L53.4466 11.901L52.83 15.8532L52.8521 15.8566L53.4687 11.9045ZM56.6569 12.4409C55.5736 12.2326 54.4835 12.0628 53.4687 11.9045L52.8521 15.8567C53.8783 16.0167 54.899 16.1762 55.9018 16.3689L56.6569 12.4409ZM58.5179 12.8748C57.96 12.7326 57.3172 12.5684 56.6587 12.4412L55.8999 16.3686C56.4246 16.47 56.9549 16.6044 57.5303 16.7509L58.5179 12.8748ZM58.5438 12.8814L58.5158 12.8743L57.5323 16.7515L57.5603 16.7586L58.5438 12.8814Z" fill="#EFF2F3" mask="url(#path-4-outside-2_14_201)"/>
</svg>
