<svg width="54" height="52" viewBox="0 0 54 52" fill="none" xmlns="http://www.w3.org/2000/svg">
<path fill-rule="evenodd" clip-rule="evenodd" d="M40.1611 38.542C40.0158 39.5047 39.3325 40.4294 38.1156 40.5647C30.5079 41.409 22.9075 40.9602 15.3014 40.5111C11.1252 40.2645 6.94734 40.0178 2.76554 39.985C2.5275 39.984 2.31715 39.9411 2.11923 39.882C0.981692 39.9474 -0.13237 39.2664 0.012799 37.8117C1.16948 26.2428 2.28878 14.6706 2.62037 3.04262C2.62709 2.83033 2.66378 2.64027 2.71529 2.46058C2.58026 1.28681 3.26873 0 4.79402 0C16.388 0.000569736 27.9811 0.0276892 39.5644 0.579421C41.4033 0.667161 42.0271 2.58033 41.4426 3.84002C41.4426 3.85184 41.444 3.86288 41.4453 3.87394C41.4467 3.88614 41.4482 3.89837 41.4479 3.91169C41.3244 8.30634 41.1281 12.6983 40.9318 17.0902C40.6232 23.9945 40.3147 30.8984 40.2889 37.8117C40.2884 38.0848 40.2356 38.322 40.1611 38.542Z" fill="#504FFF"/>
<path d="M51.3135 11.7998L51.2521 11.7915C51.1797 11.7816 51.108 11.7727 51.03 11.7727H44.8797C43.4638 11.7727 42.7238 12.8888 42.7238 13.9908C42.7238 15.0936 43.4644 16.2092 44.8797 16.2092H48.9781C47.2712 27.6517 46.4108 37.2749 46.2753 46.439C41.0342 46.6057 35.4158 46.6802 28.1142 46.6802C24.9876 46.6802 21.861 46.667 18.7344 46.6541C16.6358 46.6449 14.5376 46.6362 12.4396 46.6317C12.3886 45.8916 12.3005 45.2656 12.1665 44.6805C11.9495 43.731 11.0381 43.0424 10.0001 43.0424C9.80649 43.0424 9.61677 43.068 9.43423 43.1176C8.26889 43.4382 7.60116 44.6064 7.88204 45.8337C8.06686 46.6426 8.06515 47.6031 8.06253 48.5329L8.06196 48.8447C8.06196 49.4442 8.27117 49.9678 8.64867 50.3398L8.77014 50.4626C9.16212 50.8548 9.68434 51.0632 10.2803 51.0632C13.1734 51.0656 16.0674 51.0777 18.9599 51.091C22.1457 51.1042 25.3311 51.1187 28.5172 51.1187C36.5948 51.1187 42.7507 51.0226 48.4773 50.8069C49.8805 50.7543 50.5639 49.6502 50.6124 48.6347C50.6616 48.4392 50.6847 48.2616 50.6854 48.0787C50.7352 37.9431 51.6893 27.2876 53.6889 14.5479C53.7959 13.8634 53.616 13.2046 53.1821 12.6925C52.7195 12.1476 51.9921 11.8047 51.3135 11.7998Z" fill="#504FFF"/>
</svg>
