<svg width="24" height="24" viewBox="0 0 24 24" fill="none" xmlns="http://www.w3.org/2000/svg">
<path d="M12.7551 21C10.3573 21 8.09268 20.068 6.38758 18.3639C2.87081 14.8491 2.87081 9.15089 6.38758 5.63609C8.09268 3.93195 10.3306 3 12.7551 3C15.1795 3 17.4175 3.93195 19.1226 5.63609C19.3623 5.87574 19.3623 6.27515 19.1226 6.54142C18.8828 6.78107 18.4831 6.78107 18.2167 6.54142C16.7514 5.07692 14.8065 4.27811 12.7551 4.27811C10.7036 4.27811 8.75874 5.07692 7.29342 6.54142C4.28284 9.5503 4.28284 14.4497 7.29342 17.4586C8.75874 18.9231 10.7036 19.7219 12.7551 19.7219C14.8065 19.7219 16.7514 18.9231 18.2167 17.4586C18.3499 17.3254 18.4032 17.1657 18.4032 17.0059C18.4032 16.8462 18.3499 16.6864 18.2167 16.5533C17.9769 16.3136 17.5773 16.3136 17.3109 16.5533C16.0853 17.7781 14.4602 18.4438 12.7551 18.4438C11.0233 18.4438 9.39815 17.7781 8.19925 16.5533C5.69488 14.0503 5.69488 9.94971 8.19925 7.42012C9.42479 6.19527 11.05 5.52959 12.7551 5.52959C14.4868 5.52959 16.112 6.19527 17.3109 7.42012C17.6839 7.7929 17.8704 8.24556 17.8704 8.77811C17.8704 9.31065 17.6839 9.76331 17.3109 10.1361C16.5649 10.8817 15.366 10.8817 14.62 10.1361C13.581 9.09763 11.9025 9.09763 10.8901 10.1361C9.85107 11.1746 9.85107 12.8521 10.8901 13.8639C11.9292 14.9024 13.6076 14.9024 14.62 13.8639C14.7532 13.7308 14.8598 13.5976 14.9664 13.4379C15.1529 13.145 15.5525 13.0651 15.8456 13.2515C16.1386 13.4379 16.2186 13.8373 16.0321 14.1302C15.8989 14.3432 15.7124 14.5562 15.5259 14.7426C14.7799 15.4882 13.7941 15.8876 12.7551 15.8876C11.716 15.8876 10.7303 15.4882 9.98428 14.7426C8.46567 13.2249 8.46567 10.7485 9.98428 9.20414C11.5029 7.68639 13.9806 7.68639 15.5259 9.20414C15.7656 9.44379 16.1653 9.44379 16.4317 9.20414C16.5649 9.09763 16.6182 8.93787 16.6182 8.75148C16.6182 8.56509 16.5383 8.45858 16.4051 8.32544C15.4193 7.34024 14.1138 6.80769 12.7284 6.80769C11.343 6.80769 10.0376 7.34024 9.0518 8.32544C7.02699 10.3491 7.02699 13.6243 9.0518 15.6479C10.0376 16.6331 11.343 17.1657 12.7284 17.1657C14.1138 17.1657 15.4193 16.6331 16.4051 15.6479C17.151 14.9024 18.3499 14.9024 19.0959 15.6479C19.4689 16.0207 19.6554 16.4734 19.6554 17.0059C19.6554 17.5118 19.4689 17.9911 19.0959 18.3639C17.4175 20.0414 15.1529 21 12.7551 21Z" fill="#504fff"/>
</svg>
