<svg width="24" height="24" viewBox="0 0 24 24" fill="none" xmlns="http://www.w3.org/2000/svg">
<path d="M7 7V3.6C7 3.44087 7.06321 3.28826 7.17574 3.17574C7.28826 3.06321 7.44087 3 7.6 3H12H16.4C16.4788 3 16.5568 3.01552 16.6296 3.04567C16.7024 3.07583 16.7685 3.12002 16.8243 3.17574C16.88 3.23145 16.9242 3.29759 16.9543 3.37039C16.9845 3.44319 17 3.52121 17 3.6V7M10 3V7M19 20H5C4.46957 20 3.96086 19.7893 3.58579 19.4142C3.21071 19.0391 3 18.5304 3 18V9C3 8.46957 3.21071 7.96086 3.58579 7.58579C3.96086 7.21071 4.46957 7 5 7H12H19C19.5304 7 20.0391 7.21071 20.4142 7.58579C20.7893 7.96086 21 8.46957 21 9V18C21 18.5304 20.7893 19.0391 20.4142 19.4142C20.0391 19.7893 19.5304 20 19 20Z" stroke="#504fff" stroke-width="1.5"/>
<path d="M16.5 14C16.3674 14 16.2402 13.9473 16.1464 13.8536C16.0527 13.7598 16 13.6326 16 13.5C16 13.3674 16.0527 13.2402 16.1464 13.1464C16.2402 13.0527 16.3674 13 16.5 13C16.6326 13 16.7598 13.0527 16.8536 13.1464C16.9473 13.2402 17 13.3674 17 13.5C17 13.6326 16.9473 13.7598 16.8536 13.8536C16.7598 13.9473 16.6326 14 16.5 14Z" fill="#17285D" stroke="#504fff" stroke-width="1.5" stroke-linecap="round" stroke-linejoin="round"/>
</svg>
