<svg xmlns="http://www.w3.org/2000/svg" width="215" height="269" viewBox="0 0 215 269">
    <g fill="none" fill-rule="evenodd">
        <g fill="#504FFF">
            <g>
                <path d="M101.124 721.447c.056-.176.113-.37.155-.592.048-.26-.048-.558-.08-.704-.098-.475.108-1.106 0-1.64-.1-.513-.228-1.102-.31-1.602-.014-.404-.028-.805-.039-1.212-.138-.43-.527-.893-.584-1.406-.037-.332.212-.514.116-.938-.141-.62-.533-1.22-.584-1.835l.118-.469c-.09-.514-.476-1.9-.544-2.032-2.195-4.23-5.171-9.402-8.754-12.267.099-.009-.053-.21-.076-.233-.539-.477-.708-1.25-1.168-1.718-.894-.91-2.085-1.785-2.999-2.54-.465-.387-1.39-.558-1.71-1.134-.16-.07-.098 0-.078-.154-.418-.219-.697-.525-1.05-.783-.767-.564-1.342-.606-2.217-1.055-1.656-.854-3.549-1.036-5.174-1.76h-.079c-1.317-.435-3.34-.396-4.669-.741-.35.014-.7.025-1.049.04-.276-.225-1.16-.11-1.673-.197-.793-.135-1.746-.115-2.646-.098v-.02c-.378.042-.804-.07-.894-.084.036-.026.079-.054.118-.079-.333.082-.869.101-1.168-.154.161-.023.031.028.116-.118-.889.26-2.082-.07-3.227-.275-.404-.011-.807-.025-1.21-.04l.078-.114c-.14.072-.197.09-.35.078-.073-.146-.061-.011-.039-.157-.195.011-.39.028-.584.04-.03-.135.048-.051-.076-.116.13.331-1.27-.09-1.402-.16-.119-.059-.158-.062-.274-.04.153.04.119.018.198.119-.17-.05-.339-.101-.505-.152.036-.017.076-.03.115-.042-.053.011-.104.025-.155.042-.144-.056-.285-.106-.428-.16l.115-.039c-.228.025-.587-.003-.818-.118.028-.011.054-.022.08-.036h.233c-.113-.006-.18-.006-.234 0-.101.008-.141.028-.313.036.04-.036.082-.076.118-.115l-.623-.04c-.025-.134.037-.064-.116-.156-.042.075.003.075-.079.039-.242-.208-.871-.247-1.165-.508v.115c-.364-.247-1.388-.685-1.636-.935.175-.022.07.076.155-.078h-.036c-.223.306-2.263-1.044-2.647-1.288-.062.075.003.047-.155.039-.034-.13.026-.14-.115-.236.022.04.05.079.076.118-.488-.258-2.048-.845-2.062-1.095h-.156l.08.079c-.435-.087-1.657-1.066-1.792-1.21.05.012.104.026.155.037-.186-.149-.725-.57-1.168-.62.006-.188-.062-.2 0-.351-.273.087-.705-.163-.894-.396.02-.129.042-.042-.076-.115-.045.073 0 .073-.08.04-.126-.388-.301-.663-.623-1.017.082-.154.09-.064.04-.196-.026.053-.05.104-.08.157l-.075-.079c.025-.014.05-.025.076-.036-.234-.014-.765-.404-.931-.629.05-.025.102-.053.155-.075-.29-.25-.474-.245-.897-.55-.031-.22-.076-.25-.037-.427-.079.04-.158.076-.234.115.011-.174.096-.05-.04-.194-.391-.1-1.006-.985-1.283-1.406-.434-.662-.993-.946-1.439-1.602-.203-.295-.327-.632-.389-.898-.13-.127-.595-.444-.779-.82-.115-.236.037-.272-.078-.43-.012.04-.026.076-.04.118-.118-.662-.815-1.055-1.01-1.445-.166-.328-.158-1.013-.313-1.212-.223.067-.908-1.41-.894-1.485.101-.6-.782-1.125-.621-1.367v-.118c-.04-.02-.415-1.425-.392-1.445-.265-.295-.75-1.465-1.01-2.11-.127-.315.008-.887-.116-1.325-.18-.404-.364-.809-.544-1.213-.09-.311.248-.454.076-.895-.324-.845-.166-1.392-.35-2.074l-.194-.076c0-.701-.418-2.64-.402-4.095h.128c-.017-.275-.04-.56-.085-.85l.034-.326c-.065-.398-.11-1.018-.048-1.456.237-1.718.198-3.856.612-5.65.023-.241.045-.48.065-.718.198-.758.364-1.454.55-2.13.088-.326.051-.623.161-.901.119-.298.305-.61.42-.901l.017-.29c.096-.381.122-.765.243-1.206.09-.233.183-.463.274-.696.112-.416.225-.834.341-1.25.11-.226.28-.487.37-.737.203-.561.37-1.28.646-1.822.177-.252.355-.508.533-.76.13-.295.121-.553.26-.879.056-.134.22-.238.273-.367.234-.556.51-.92.807-1.373.282-.43.474-.943.728-1.392.2-.35.437-.69.646-1.047.107-.123.214-.247.324-.367.07-.157.138-.315.209-.469.158-.23.637-.612.745-.822.079-.155.11-.27.208-.39.082.008.161.016.243.022v-.022c-.08-.006-.217-.028-.243-.06.155-.482.576-.766.84-1.167.091-.14.134-.401.244-.51.048-.026.095-.046.146-.065.184-.225.313-.54.483-.778.172-.244.392-.376.58-.595.193-.219.325-.536.503-.777.276-.373.683-.626.937-1.022.378-.586.68-1.125 1.083-1.639.194-.252.333-.527.516-.8.155-.227.415-.356.564-.592.088-.132.116-.297.212-.412l.42-.427h.08c.183-.28.324-.623.535-.864.085-.06.17-.124.257-.183.073-.151.113-.342.226-.49.172-.225.499-.464.68-.739.093-.177.183-.354.273-.53.155-.208.384-.343.536-.553.192-.27.333-.6.533-.862.045-.028.096-.056.144-.081.226-.32.353-.727.581-1.044.333-.47.697-.898 1.036-1.376.15-.213.34-.314.468-.55.302-.575.581-1.103.903-1.639.163-.275.426-.454.58-.738.404-.738.695-1.68 1.214-2.27l-.034-.104c.155-.27.282-.564.437-.862.361-.685.533-1.473.875-2.15l.321-.471c.124-.227.147-.564.226-.84.127-.443.386-.917.519-1.352.048-.16.217-.789.209-.797.234-.36.307-.834.516-1.249.06-.093.119-.18.178-.267.04-.129.011-.342.034-.471.079-.298.16-.6.242-.901.054-.188.014-.36.048-.533.133-.657.398-1.496.598-2.19.02-.24.043-.48.065-.718.042-.196.141-.516.192-.696.082-.289-.014-.544.05-.878.277-1.468.345-2.953.613-4.306.056-.283-.048-.578-.017-.836.056-.455-.034-.898 0-1.274.028-.247.054-.5.082-.755.02-.256.022-.952.022-.952.006-.544.07-1.021.243-1.335-.05-.026-.102-.051-.152-.079.132-.264-.22-.702.036-1.246.198.04.113-.735.234-.862.065-.014.13-.028.195-.04l.04-.153c-.153-.382.505-1.022.389-1.72.05.01.104.024.155.038-.05-.151 0-.078-.118-.157.062-.188.008-.154.158-.157l-.08-.194c.054.026.105.051.159.08.01-.105.022-.209.036-.315-.082-.062-.166-.062-.115-.152.036-.236.079-.474.115-.704.074.028.014.03.08 0 .039-.028.075-.054.115-.079h-.155c.025-.014.05-.025.079-.04.036-.041.076-.078.115-.117.085.132.012.059.156 0-.074-.168-.178-.272.036-.469.09-.076 0-.003.119 0 .042-.37.056-.283.194-.547l-.118.04c.09-.242.2-.281.313-.194.014-.264.042-.222.158-.351-.121-.185-.15-.14-.158-.432.068-.118.13-.23.195-.351-.026.12-.054.233-.077.35.023-.01.051-.025.077-.039.014-.078.025-.157.04-.233l.075.076c-.079-.18-.152-.182-.192-.426.023.039.051.075.077.115-.034-.43.03-.868 0-1.131h.04c.07.078 0 .025.115.075 0-.118.008-.075.04-.233-.054.043-.105.079-.156.118v-.039c.113-.166.229-.261.31-.35-.11-.093-.056.036-.115-.122.152-.036.115-.014.194-.115l-.118.079c.031-.225.82-3.02.897-3.084.068-.099.251-.155.35-.354-.107-.028-.093.034-.08-.076l-.039-.081c.74-.309.565-1.148 1.132-1.524-.116-.107-.09-.037-.119-.155.04.012.076.026.119.04-.046-.127-.062-.16.036-.272.057-.124.043-.031.155 0-.087-.278-.02-.497.156-.705v.115c.25-.112.15-.306.313-.466-.04-.056-.076-.106-.119-.16.203-.084.4-.553.627-.82-.017.043-.029.08-.043.119.054-.012.107-.026.158-.04-.014-.022-.028-.05-.04-.078.066-.084-.025-.174.195-.233.051.042.057.04.116-.118-.09-.101-.037.006-.037-.157.21-.07.254-.065.195-.309.141.02.118.023.231-.042.012-.177.076-.2-.04-.427.052-.067.105-.132.159-.196l.076.118c.014-.166.006-.14.118-.275-.152-.056-.138-.031-.04-.157.111-.41.275-.3.545-.702-.04-.011-.079-.025-.115-.04.457-.03.584-.687 1.05-.858-.11-.112-.063-.073-.12-.197.305-.238.472-.423.664-.665-.096-.073-.014-.02-.116-.04.037-.064.076-.128.116-.193.03.138-.051.06.076.118.02-.157.025-.146.079-.236l-.155.04c.05-.026.104-.048.155-.079.099-.213.183-.185.313-.314-.054.017-.107.028-.158.042l.116-.157c.146.045.042.087.158 0-.105-.017-.023.039-.116-.037.062-.04.127-.078.192-.118.14.121.392-.275.392-.275.03-.112.073-.03 0-.115-.042.011-.08.026-.119.04.04-.04.077-.082.119-.121h.307c-.045-.104.105-.152.158-.427.085.062.19.037.39-.118v-.036c-.068.011-.133.025-.195.036.011-.025.025-.05.04-.078.064-.04.13-.079.191-.118.048.098-.022.04.08.079.013-.116.075-.315.194-.43-.065.028-.13.053-.195.079.068-.169.325-.365.43-.548.143.04.03.076.154 0-.042-.157-.07-.039.04-.193h.132c.017-.003.037-.003.06 0-.023-.003-.043-.003-.06 0h-.03c-.01-.003-.006-.011.013-.042.223-.21.44-.22.703-.312h-.158c.025-.04.053-.076.079-.115.13-.067.26-.129.39-.196-.04.05-.077.103-.12.157.043.011.08.025.12.04.064-.13.092-.113.194-.197-.04-.026-.082-.05-.119-.079.277-.011.43-.093.469-.194l-.119-.042c.474.031.491-.148.818-.233.057-.205.08-.213.116-.311.243.053.231-.096.508-.076-.014-.177-.085-.095.076-.236-.014.05-.026.104-.037.155.085-.082.07-.054.116-.197.457-.151.564-.553.934-.777-.04.062-.08.126-.116.193.065-.014.127-.025.195-.042l.115-.311c.04.028.076.05.116.081-.025-.04-.05-.081-.076-.12.629-.13.905-.472 1.557-.78l-.042-.194c.211-.006.572-.183.507-.351.446.056.474-.191.7-.351.02.12-.045.022.04.115.09-.115.18-.236.27-.35v.114c.565-.221.565-.496.897-.662.235-.118.322.048.505-.154l-.076-.04c.093.006 1.041-.336 1.01-.353.35-.152 1.177-.228 1.244-.197.627-.331 1.278-.525 2.22-.856.756-.272 1.256-.036 2.023-.236.076-.02.209-.061.231.037.11-.194 2.802-.71 2.841-.702v-.039c-.025-.04-.05-.079-.076-.115.198-.003.223-.048.39.036.02-.174-.08-.078.076-.154.186.093.868-.382.897-.39.725-.067 1.45-.132 2.177-.197.491.04 1.07.029 1.673.02v.082c.206-.026.206-.087.443-.101.494.24.948-.051 1.459.039 1.453.252 3.258-.076 4.5.202 0 0 1.201-.037 1.283-.02.446.082.934.247 1.385.303.138-.014.28-.025.42-.039.728.07 1.49.2 2.077.44.194.08.88.034.987.062.42.104 1.072.354 1.506.483.141-.011.283-.025.42-.04.509.133.943.335 1.411.464.4.11.74.107 1.185.241.725.22 1.357.671 2.2.825v.101c.528.054 1.081.419 1.408.666.285.213 1.134.42 1.557.603.271.118.542.373.793.466.55.208 1.239.404 1.73.662.169.093.191.23.346.326.074.005.147.011.22.02.204.09.424.283.618.381.138.07.35.065.395.101.15.13.3.256.446.385.24.09.502.106.694.241.03.073.065.146.099.219.304.177.671.188.962.365l.321.3c.787.517 1.549.994 2.325 1.513l.197-.04c.06.405 1.732 1.241 1.653 1.51.522-.008 2.139 1.839 2.525 1.833.062.13 1.041.648 1.233.77.262.16.508.468.742.664.014.009.087.09.025.099.584.317 1.098.637 1.634.99.13.124.26.25.392.38.245.15.564.3.767.482.41.373 1.089.78 1.408 1.15.147.172.254.371.446.503.58.396 1.235.693 1.853 1.109.152.103.152.289.27.423.3.337 1.203.696 1.631.969.127.078.195.322.274.381.471.362 1.058.629 1.532.988.132.18.265.365.398.545l.27.059c.187.103.325.32.494.443.138.101.336.12.471.222.533.401 1.129.937 1.73 1.268.005-.005.014-.01.022-.02v-.14h.099c.175.166.197.404.372.587l.322.12c.4.228.668.47 1.111.705.034.059.068.12.099.182.245.203.632.287.914.46l.248.265c.124.028.246.053.37.078.82.469 1.571.988 2.474 1.412.13.064.248.233.37.283.081.031.236-.02.346.04.04.061.082.12.122.182l.79.522c.756.37 1.46.797 2.25 1.089.243.09.762.28.743.505.524-.003.598.253.866.44.121.088.364.093.468.144.158.073.322.253.471.342.229.068.46.135.691.202.048.054.1.104.147.16.773.357 2.088.68 3.041.93l.124.14c.175.078.488.05.717.137.118.048.304.177.468.222.19.022.378.042.57.062.189.075.446.227.691.283.832.197 1.803.25 2.57.483l.296-.02c.54.118 2.818.592 3.264.444 1.416.401 3.103.238 4.522.524.446.087 1.067-.087 1.433-.022.725.132 1.735.225 2.446.283.02-.014.037-.02.06-.025v.025c.324-.02.626-.03.871-.064.06.008.122.025.18.04.277.044.731-.012.954-.04.33.008.663.025.996.04.858-.113 1.718-.096 2.63-.211.217-.006.437-.009.657-.012.6-.098 1.388-.14 1.924-.21.189-.003.378-.008.567-.014.764-.196 1.613-.163 2.539-.334.45-.084.86-.241 1.314-.348.624-.146 1.219-.118 1.879-.236.415-.073.804-.275 1.202-.376.192-.048.423-.042.634-.112.161-.053.39-.169.567-.208l.339-.042c.96-.34 1.862-.724 2.742-1.097.48-.208 1.024-.298 1.52-.489 1.168-.454 2.37-.864 3.58-1.336.037-.044.074-.092.113-.14.251-.151.793-.435 1.086-.542.632-.224 1.247-.474 1.814-.738.144-.067.367-.087.5-.165.412-.242.792-.505 1.27-.71.665-.287 1.404-.45 2.104-.708.544-.202.843-.57 1.314-.808.285-.143.686-.208.954-.362.787-.455 1.543-.876 2.426-1.28.082-.073.166-.14.248-.21.277-.174.59-.323.883-.486.152-.087.135-.157.274-.224.632-.303 1.182-.719 1.788-.985.62-.275 1.374-.489 1.86-.837.49-.356 1.077-.65 1.54-1.016.338-.266.637-.553 1.018-.791.099-.023.197-.048.296-.07.344-.135.564-.416.838-.6l.544-.262v-.087c.102-.084.32-.143.41-.236v-.081c.13-.076.31-.104.45-.166.303-.14.52-.387.748-.572.15-.124.48-.2.658-.306.39-.236.739-.533 1.179-.741.248-.112.528-.154.793-.261.38-.152.775-.365 1.156-.516.237-.093.565-.14.748-.264.175-.118.302-.152.519-.25l.341-.25c.186-.067.452-.115.635-.224.099-.082.195-.166.293-.25.472-.16 1.08-.244 1.521-.446.22-.099.4-.256.61-.36.564-.283 1.342-.435 2.061-.611.175-.045.387-.177.545-.239.113-.017.226-.036.338-.056.364-.118.703-.298 1.09-.401.282-.079.487-.062.792-.127l.522-.182c.638-.2 1.436-.351 2.107-.486.508-.1 1.061-.168 1.518-.264l.793-.123c.262-.126.513-.126.886-.21.634-.144 1.37-.253 2.04-.349.795-.112 1.602-.067 2.4-.182.632-.087 1.221-.115 1.882-.19.234-.023.468-.04.702-.06.426.054 1.162-.104 1.72-.081.734.022 1.397.056 2.156.056v-.059c.468.152.832.32 1.168.418.477.146 1.51-.415 2.167-.275.806.169 1.492.45 2.592.275v.143c.195-.213 1.574.315 1.84.421.242-.176 1.537.346 2.073.278 1.165-.14 2.612.62 3.676.983.313.016.629.03.942.044.217.146.417.337.708.514.364.225 1.676.446 1.647.842.452-.188 1.947.415 2.407.651.392-.02 1.91 1.342 2.494 1.684.316.104.629.216.945.323.668.687 1.26 1.417 2.118 1.866.443.093.88.188 1.323.28.706.385 1.58 1.014 2.07 1.68.063-.082-.008-.068.097-.043.234.124.471.247.705.373v.093c.333.278.875 1.485 1.461 1.538-.048.048-.096.095-.143.137.31.101 3.196 3.22 3.255 3.688-.068 0 .034.034.045.048.423.578 1.724 1.187 2.122 2.147.15.365.27 1.111.47 1.356.404.496.689.595.895 1.12.31.774.654 2.43 1.182 3.03.63.727 1.645 2.089 1.552 3.175.23-.031.033.022.33.095-.093.244.008.21-.187.188l.139.368v-.185h.048l.519 1.4c.053.194.135 1.044 0 1.168.166.207.293.449.375.749-.014.182-.031.37-.048.558.045-.17 0-.095.099-.188-.077.393.18 1.087.045 1.356v.045h.093c.017-.031.03-.062.048-.093-.023.533.042.486-.048.887.135-.053.07-.042.192-.048.13 1.151.372 2.254.375 4.014l.045-.14h.096c-.07.583.113 2.517.282 2.938.017-.076.031-.152.048-.233.017.469.031.935.048 1.4-.048.264-.096.528-.141.795l.045-.14c.056.109.085.24.102.375h-.074c.017.14.062.14.074.295-.17.329.033.629-.031.966-.178.965.053 2.163-.141 2.986 0 0 .025.797.014.85-.06.298-.175.62-.212.92.009.093.02.186.028.276-.053.485-.14.993-.313 1.378-.056.129-.022.586-.042.657-.07.277-.248.712-.342.999l.032.28c-.096.334-.237.626-.328.935-.076.267-.073.491-.172.786-.152.48-.47.898-.578 1.46h-.073c-.037.347-.294.715-.466.934-.15.188-.296.75-.426 1.033-.082.176-.26.359-.327.522-.144.367-.285.822-.468 1.15-.063.112-.161.124-.226.228-.006.047-.009.098-.014.146-.062.134-.2.28-.268.412-.048.087-.045.23-.074.264-.09.095-.177.194-.268.292-.064.157-.076.33-.172.457-.05.025-.101.045-.155.07-.121.2-.132.447-.254.637-.07.07-.14.144-.211.211-.364.525-.7 1.027-1.067 1.544l.031.131c-.287.04-.874 1.146-1.063 1.098.005.342-1.295 1.414-1.292 1.67-.09.045-.454.69-.539.82-.113.176-.33.336-.468.493-.006.009-.065.06-.07.017-.224.387-.447.727-.695 1.08l-.27.262c-.105.162-.21.376-.34.51-.259.27-.546.722-.809.932-.118.098-.262.169-.352.298-.28.384-.488.82-.782 1.229-.07.098-.2.101-.296.18-.237.199-.488.797-.68 1.08-.056.087-.228.13-.27.183-.257.311-.444.701-.695 1.015l-.383.261-.043.18c-.073.126-.225.216-.31.328-.073.096-.087.225-.158.315-.282.353-.657.746-.891 1.145.002.006.008.011.01.017h.102v.064c-.118.113-.285.132-.411.247l-.085.21c-.16.267-.33.447-.497.742l-.127.064c-.146.163-.203.418-.327.606-.062.057-.124.11-.183.166l-.06.247c-.327.542-.69 1.038-.99 1.636-.045.087-.163.166-.197.25-.025.05.011.154-.031.227l-.127.082-.367.525c-.262.5-.561.968-.767 1.493-.062.157-.198.5-.353.49.003.349-.177.394-.313.573-.062.082-.065.245-.099.312-.053.107-.177.21-.242.309-.045.157-.093.308-.141.46-.037.034-.074.067-.113.1-.251.512-.477 1.385-.652 2.016-.034.028-.067.053-.098.084-.057.115-.037.323-.102.475-.031.078-.121.199-.155.311l-.043.376c-.053.126-.157.295-.2.46-.138.55-.175 1.196-.338 1.704.005.065.008.132.014.194-.085.359-.418 1.872-.313 2.166-.282.94-.167 2.057-.367 2.998-.062.297.06.707.014.951-.093.483-.155 1.15-.197 1.622.008.014.01.026.016.04-.008.014-.01.025-.016.039.033.471.087 1.14.169 1.622.04.244-.068.654-.014.952.172.94.076 2.057.318 2.997-.09.295.192 1.807.266 2.167l-.012.193c.141.508.172 1.154.29 1.704.038.165.125.334.17.46l.04.376c.028.112.104.233.132.312.054.151.037.359.085.474.028.03.056.056.085.084.152.632.347 1.505.558 2.015.034.034.065.068.099.101.04.152.082.303.121.46.054.099.16.203.206.31.028.067.031.23.085.31.115.18.27.225.268.573.135-.008.25.334.304.492.175.524.432.993.658 1.493l.313.524c.036.029.073.057.11.082.037.073.005.177.025.227.028.084.133.163.17.25.256.598.57 1.095.851 1.636l.048.247.158.166c.108.188.156.443.28.606l.11.065c.14.294.287.474.423.74.025.068.05.138.073.21.11.116.254.136.353.248v.064h-.085l-.011.017c.2.399.525.792.767 1.145.06.09.07.22.133.315.073.112.203.202.268.328.008.056.022.12.034.18l.327.26c.217.315.378.705.595 1.017.04.053.184.095.231.182.167.284.381.881.584 1.08.082.08.195.082.257.18.251.41.429.845.669 1.23.079.129.2.199.302.297.225.21.47.662.694.932.11.135.2.348.29.51l.231.262c.215.353.404.693.596 1.08.005-.042.053.009.062.017.118.157.302.317.4.494.074.129.384.775.463.82-.003.255 1.109 1.324 1.103 1.67.166-.051.669 1.057.914 1.097l-.025.132c.316.513.6 1.018.914 1.54.059.07.118.144.18.214.105.19.113.435.22.637l.133.067c.079.126.09.3.144.46l.231.292c.025.034.02.174.062.264.06.13.178.278.231.413l.012.143c.056.106.14.118.194.23.158.328.277.783.4 1.15.057.163.21.346.28.523.11.283.237.844.367 1.032.147.217.367.584.4.935h.06c.093.561.367.98.5 1.46.08.294.078.519.143.785.079.309.2.6.28.935-.01.093-.015.188-.023.28.076.287.228.722.293 1 .014.07-.014.525.034.656.147.385.223.893.268 1.376l-.025.277c.033.3.132.624.183.921.008.053-.011.85-.011.85.166.823-.034 2.021.12 2.984.055.34-.12.64.026.968-.008.154-.05.154-.062.295h.062c-.177.544-.378.968-.496 1.355-.17.556.49 1.754.327 2.518-.197.934-.527 1.729-.327 3.008h-.164c.248.225-.37 1.827-.493 2.133.208.284-.404 1.788-.328 2.406.164 1.355-.728 3.034-1.148 4.268-.02.365-.04.73-.056 1.092-.17.253-.392.483-.601.822-.265.424-.522 1.945-.988 1.915.218.522-.488 2.262-.764 2.79.025.454-1.569 2.216-1.972 2.896-.124.364-.254.732-.384 1.097-.8.775-1.658 1.465-2.186 2.459-.11.513-.22 1.021-.327 1.535-.452.82-1.19 1.832-1.972 2.405.099.076.082-.011.054.11-.144.272-.291.547-.438.819h-.11c-.327.387-1.74 1.016-1.802 1.695-.057-.053-.113-.107-.164-.166-.113.36-3.772 3.71-4.325 3.778 0-.076-.036.042-.056.056-.674.489-1.39 1.996-2.516 2.462-.426.174-1.3.314-1.589.547-.584.466-.7.794-1.314 1.035-.909.357-2.85.758-3.558 1.37-.849.733-2.445 1.911-3.718 1.805.037.27-.025.039-.113.381-.287-.106-.248.012-.217-.219-.147.057-.29.11-.437.166h.22v.053c-.547.202-1.097.402-1.645.601-.228.065-1.221.157-1.365 0-.248.194-.528.345-.877.44-.218-.019-.438-.036-.658-.058.2.053.113 0 .22.112-.46-.084-1.275.208-1.588.053h-.056v.113c.04.016.076.033.11.053-.624-.028-.57.048-1.038-.053.062.151.047.075.053.218-1.351.152-2.64.435-4.705.435.053.017.11.04.163.057v.11c-.68-.082-2.95.131-3.447.325.09.02.183.039.274.056-.548.02-1.095.036-1.642.056-.31-.056-.62-.112-.931-.166.053.017.11.037.166.054-.132.064-.285.1-.44.118v-.023c-.017.006-.034.011-.05.023-.593-.051-1.434-.118-2.037-.228-.308-.053-.824.087-1.197.02-1.179-.23-2.586-.098-3.766-.424-.372.12-2.27-.255-2.72-.354l-.247.017c-.638-.185-1.448-.23-2.142-.384-.205-.048-.417-.166-.578-.228-.158-.016-.313-.03-.474-.047-.135-.04-.29-.14-.39-.18-.19-.07-.45-.05-.597-.112l-.105-.112c-.795-.2-1.887-.458-2.53-.741-.042-.045-.085-.087-.124-.13-.195-.056-.384-.106-.578-.16-.125-.072-.26-.216-.39-.274-.087-.04-.29-.043-.392-.113-.223-.154-.285-.356-.72-.353.015-.18-.417-.334-.62-.405-.657-.232-1.244-.575-1.873-.872-.22-.138-.44-.278-.66-.419-.034-.05-.068-.095-.102-.143-.09-.045-.22-.008-.287-.033-.102-.04-.2-.177-.31-.228-.751-.34-1.377-.752-2.06-1.128l-.31-.062c-.068-.073-.136-.14-.206-.21-.235-.14-.556-.208-.762-.37-.028-.051-.054-.099-.082-.147-.367-.188-.592-.381-.925-.564-.09-.03-.18-.064-.268-.095-.147-.143-.167-.337-.31-.469h-.082v.115c-.009.003-.014.006-.02.011-.502-.263-.996-.693-1.442-1.013-.112-.081-.276-.095-.392-.176-.14-.099-.256-.273-.412-.354l-.225-.05-.33-.436c-.398-.286-.886-.496-1.278-.788-.065-.048-.122-.242-.226-.309-.358-.216-1.111-.502-1.36-.772-.098-.106-.098-.255-.225-.337-.517-.334-1.061-.57-1.546-.89-.161-.103-.249-.263-.373-.4-.262-.298-.832-.624-1.173-.918-.167-.15-.435-.267-.638-.388-.11-.104-.22-.205-.327-.308-.449-.281-.875-.536-1.36-.789.051-.008-.011-.07-.022-.079-.195-.16-.398-.404-.618-.533-.16-.098-.976-.51-1.03-.612-.321.003-1.667-1.476-2.101-1.47.064-.214-1.33-.882-1.377-1.204-.057.008-.113.016-.167.028-.646-.416-1.28-.797-1.935-1.207l-.268-.241c-.242-.144-.55-.152-.804-.292-.028-.06-.053-.118-.082-.174-.158-.11-.38-.121-.575-.197-.124-.1-.248-.205-.372-.306-.04-.033-.218-.025-.33-.081-.164-.079-.348-.233-.517-.306l-.183-.017c-.127-.073-.147-.185-.288-.255-.412-.21-.982-.365-1.441-.534-.21-.075-.438-.277-.66-.373-.353-.143-1.061-.311-1.298-.483-.274-.196-.734-.488-1.174-.53v-.079c-.702-.126-1.23-.488-1.833-.665-.37-.106-.655-.104-.988-.19-.39-.104-.753-.267-1.173-.371l-.353.03c-.364-.1-.906-.302-1.255-.386-.088-.023-.66.016-.824-.048-.488-.194-1.123-.295-1.73-.354-.118.011-.234.023-.35.031-.377-.042-.78-.174-1.153-.241-.068-.011-1.072.017-1.072.017-1.033-.222-2.536.042-3.746-.163-.426-.07-.804.16-1.216-.031-.198.011-.198.062-.37.079v-.045c-.014-.006-.028-.012-.042-.02-.186-.056-.846.073-.962.03-.167-.008-.333-.013-.497-.019-.07.006-.14.011-.214.02l-.118-.031c-.198.025-.542.062-.804.03-.161-.022-.658-.05-.79-.03-.356.053-.68.112-1.044.152-.3.03-.677.084-.962.137l-.175-.017c-.073.02-.226.025-.336.06-.22.07-.69.243-.962.3-.15.033-.302.022-.454.084-.079.03-.18.1-.296.129l-.347.039c-.234.059-.443.118-.657.194-.054.002-.105.008-.158.01-.29.085-.632.164-.937.223-.133.02-.27-.012-.403.036-.04.028-.08.056-.119.081-.163.06-.35.029-.51.09-.356.14-.737.275-1.072.433-.113.058-.218.025-.333.072-.08.031-.144.113-.215.138-.056.006-.115.008-.172.011-.053.028-.082.104-.135.132l-.2.031c-.057.022-.088.079-.133.101-.088.023-.17.048-.257.07-.197.09-.36.233-.6.303-.023.04-.015.012 0 .048-.23-.006-.407.227-.59.303-.155.062-.302.065-.44.14-.325.172-.65.346-.98.514-.242.126-.33.37-.64.435l-.014.059h-.067c-.257.138-.44.3-.64.483-.054.028-.11.05-.164.081-.054.065-.057.126-.133.171-.468.275-.942.62-1.312.893.014.008.028.017.04.022l-.158.05v.082c-.223.11-.522.306-.672.472-.02.03-.042.067-.067.1-.2.121-.42.203-.613.332-.098.067-.14.233-.214.283-.09.056-.28.202-.361.242-.07.03-.144.008-.203.039-.105.062-.144.149-.2.219-.077.104-.223.126-.308.205-.096.087-.18.21-.293.28-.347.217-.694.441-1.072.635-.223.115-.455.384-.655.533-.254.185-.564.317-.843.483-.06.036-.116.129-.147.151-.05.037-.135.037-.189.07-.04.029-.028.09-.068.121-.05.02-.104.042-.158.062l-.053.09c-.147.084-.359.143-.455.26-.318.385-.8.68-1.286.966-.158.096-.164.244-.268.334-.04.009-.079.017-.121.028-.048.028-.074.096-.093.112-.088.048-.178.096-.268.14-.218.133-.347.385-.694.425.017.028 0 .01.025.028-.556.205-.94.502-1.416.746-.119.06-.375.216-.415.233-.053.017-.118-.011-.175.02l-.028.008c-.006.025-.008.054-.011.082-.04.042-.133.03-.19.059l-.335.263-.211.02c-.085.036-.144.126-.229.163-.206.087-.412.146-.575.241-.026.011-.012.067-.015.07-.053.014-.104.034-.158.05-.05.051-.101.107-.149.16h-.107c-.099.029-.234.138-.265.15-.06.025-.215.016-.325.05-.15.048-.426.107-.561.182-.068.04-.175.118-.28.152-.076.011-.152.017-.228.028l-.133.093c-.335.12-.663.199-1.018.342-.099.037-.2.124-.293.16-.113.011-.223.028-.336.042-.056.014-.099.062-.147.079-.319.095-.592.062-.908.182-.09.048-.18.101-.268.149-.398.081-.892.135-1.258.303-.04-.022-.488.093-.522.112-.034-.03-.203-.022-.268 0-.358.107-.773.09-1.165.188-.19.05-.494.023-.748.085-.542.126-1.247.168-1.794.25-.429.064-1.052.01-1.459.092-.158.028-.31-.014-.414 0-.288.03-.51.022-.765.067-.13.026-.279-.053-.395-.014v-.44c-.302.036-.643-.056-.716-.065l.096-.064c-.265.064-.697.08-.937-.124.13-.017.028.022.096-.093-.71.208-1.667-.059-2.584-.218-.322-.012-.646-.02-.968-.031l.065-.096c-.113.06-.158.07-.282.062-.056-.115-.05-.006-.03-.124-.156.009-.311.02-.466.031-.026-.11.033-.039-.062-.092.101.266-1.016-.07-1.123-.127-.096-.05-.124-.053-.217-.03.12.03.093.01.155.092-.133-.042-.268-.081-.404-.123.031-.009.062-.02.093-.031-.042.011-.081.022-.124.03l-.344-.123c.034-.011.062-.022.096-.03-.186.019-.468-.006-.654-.096l.062-.031h.186c-.09-.006-.144-.003-.186 0-.082.006-.113.022-.251.03.033-.03.064-.064.095-.095-.166-.008-.332-.02-.499-.028-.02-.109.028-.053-.093-.126-.034.06.003.06-.062.031-.195-.168-.697-.2-.931-.407v.093c-.29-.2-1.111-.548-1.309-.747.138-.02.054.06.124-.064h-.03c-.181.244-1.81-.837-2.12-1.03-.047.058.006.039-.124.03-.025-.103.02-.112-.093-.188.02.031.043.062.062.093-.389-.208-1.639-.676-1.65-.873h-.124c.023.02.042.042.062.06-.347-.068-1.32-.851-1.43-.966.042.01.084.022.124.028-.15-.121-.581-.455-.934-.497.003-.149-.05-.157 0-.284-.22.076-.564-.129-.716-.311.017-.104.033-.034-.062-.093-.034.06 0 .06-.063.031-.101-.308-.24-.527-.499-.814.068-.126.073-.047.031-.154-.02.04-.04.081-.06.126-.022-.02-.041-.045-.061-.064l.062-.034c-.192-.008-.615-.317-.748-.497l.124-.064c-.234-.2-.378-.194-.716-.435-.023-.177-.062-.2-.031-.343-.062.031-.124.06-.186.093.011-.14.079-.042-.031-.16-.316-.076-.807-.786-1.027-1.123-.347-.527-.796-.757-1.151-1.282-.164-.233-.263-.505-.313-.716-.102-.104-.477-.356-.624-.657-.09-.188.031-.216-.062-.345-.008.031-.02.062-.03.096-.094-.53-.652-.845-.81-1.157-.13-.26-.125-.81-.249-.968-.18.053-.728-1.128-.716-1.187.082-.483-.624-.904-.497-1.095v-.095c-.03-.02-.333-1.142-.313-1.156-.211-.236-.6-1.174-.81-1.687-.101-.253.009-.71-.093-1.061-.144-.326-.29-.648-.434-.971-.07-.25.197-.365.062-.719-.26-.673-.133-1.108-.28-1.656-.053-.02-.104-.039-.154-.061-.003-.562-.336-2.114-.322-3.276" transform="translate(-57 -2477) translate(0 1958) rotate(90 164.766 653.038)"/>
            </g>
        </g>
    </g>
</svg>
