<svg xmlns="http://www.w3.org/2000/svg" width="80" height="64" viewBox="0 0 80 64">
    <path fill="#504FFF" fill-rule="evenodd" d="M58.998 11.541c-.018.053-.034.11-.047.177-.014.077.015.167.024.21.03.143-.032.332 0 .49.03.155.068.33.092.48l.012.362c.042.13.158.267.175.421.01.1-.064.155-.035.28.042.186.158.366.174.55l-.035.14c.027.153.141.567.163.607.654 1.265 1.542 2.812 2.613 3.67-.03 0 .016.062.022.069.161.143.212.373.349.514.267.272.622.533.895.76.138.115.415.165.51.338.048.021.03 0 .024.046.125.065.208.157.313.235.23.168.401.18.662.315.494.255 1.059.31 1.545.526h.023c.393.13.997.119 1.394.222l.313-.012c.083.067.346.033.5.058.236.041.52.035.79.03v.006c.112-.012.24.021.266.025l-.035.024c.1-.024.26-.03.349.046-.048.008-.01-.007-.035.035.265-.078.621.021.963.083l.36.01-.022.036c.041-.022.059-.026.104-.024.022.043.019.004.012.047l.175-.011c.009.04-.015.014.022.034-.038-.098.38.027.418.047.036.018.048.02.082.013-.046-.013-.035-.005-.058-.036l.15.046c-.01.005-.022.008-.034.012l.046-.012.128.047-.034.012c.068-.007.174.001.243.035l-.023.012h-.07.07c.03-.003.042-.009.093-.012l-.035.035.186.012c.008.04-.01.019.035.047.013-.023 0-.023.023-.012.073.063.26.074.348.152v-.035c.109.074.414.205.488.28-.051.007-.02-.022-.046.023h.011c.067-.091.675.314.79.386.019-.023-.001-.015.047-.012.009.04-.008.042.034.07l-.023-.035c.145.077.612.253.616.328h.046l-.023-.024c.13.027.493.319.534.362l-.046-.011c.056.045.217.17.349.186-.002.056.018.058 0 .105.081-.026.21.049.267.118-.007.038-.013.012.022.035.013-.024 0-.023.024-.013.038.116.09.198.185.304-.024.047-.026.02-.01.059.007-.016.014-.031.023-.047l.023.023-.023.012c.07.004.228.12.278.187l-.047.023c.087.076.141.073.267.164.01.065.024.075.012.128l.07-.034c-.004.052-.03.015.012.058.117.029.3.293.383.42.13.197.296.283.43.48.06.087.097.188.116.268.038.038.177.133.232.245.035.07-.01.081.023.128l.012-.034c.035.197.244.316.302.431.05.099.046.303.093.363.067-.02.27.421.267.443-.03.18.234.338.186.41v.035c.011.006.123.426.116.432.079.088.225.438.302.63.038.096-.002.267.035.398l.162.362c.027.093-.074.137-.023.268.097.253.05.416.105.62.02.008.039.015.057.024.001.209.126.79.121 1.224h-.038c.005.081.011.167.024.254l-.01.097c.02.12.034.305.015.436-.07.513-.059 1.153-.183 1.69l-.02.214c-.058.226-.108.434-.163.637-.027.098-.015.187-.049.27-.035.089-.09.181-.125.27l-.005.085c-.028.114-.037.23-.072.362l-.082.208c-.033.124-.067.25-.102.373-.033.07-.083.146-.11.221-.06.168-.11.383-.193.545l-.159.226c-.039.09-.036.167-.077.264-.017.04-.066.071-.082.11-.07.166-.153.275-.242.411-.083.128-.14.281-.216.417-.06.104-.13.205-.194.312l-.096.11-.063.14c-.046.069-.19.182-.222.246-.023.046-.032.08-.063.116-.023-.002-.048-.005-.072-.005v.005c.024.001.065.009.072.018-.046.144-.171.23-.25.35-.028.041-.04.12-.072.152l-.044.02c-.055.066-.093.16-.145.232-.05.072-.117.111-.173.178-.057.065-.096.16-.15.232-.082.112-.203.187-.279.307-.113.174-.204.335-.323.49-.06.075-.1.157-.155.238-.046.068-.123.107-.169.178-.025.04-.034.087-.062.122l-.125.13H75.5c-.055.081-.096.185-.16.256-.025.018-.05.037-.077.055-.02.045-.033.103-.067.147-.05.067-.148.139-.202.221l-.083.16c-.045.062-.113.102-.159.164-.057.081-.1.18-.159.258l-.043.024c-.067.095-.106.217-.173.312-.1.14-.21.269-.31.41-.045.065-.101.095-.14.167-.09.172-.173.329-.269.49-.05.081-.128.135-.174.22-.12.22-.206.503-.361.68l.01.03c-.046.08-.084.169-.131.258-.107.204-.159.44-.26.643l-.097.14c-.038.069-.044.169-.068.252-.037.132-.114.273-.154.403-.014.049-.065.237-.062.24-.071.107-.092.249-.154.373l-.053.08c-.012.038-.004.102-.01.14l-.073.27c-.016.056-.004.108-.014.16-.04.196-.119.447-.179.655-.006.072-.012.143-.02.214-.013.059-.042.155-.056.208-.025.087.004.163-.016.264-.082.437-.102.882-.182 1.287-.017.084.014.173.005.25-.017.135.01.268 0 .38l-.025.227c-.006.075-.006.284-.006.284-.002.163-.021.305-.073.4l.046.022c-.04.08.064.211-.012.375-.06-.013-.034.218-.07.257l-.057.011c-.005.015-.009.031-.012.047.045.113-.15.305-.116.514-.016-.003-.031-.008-.047-.012.016.045 0 .025.035.047-.018.056-.002.046-.046.047l.023.058-.047-.023c-.003.03-.008.062-.01.094.023.018.049.018.034.046l-.035.21c-.022-.009-.004-.009-.024 0l-.034.023h.046l-.023.012-.035.035c-.025-.038-.003-.017-.047 0 .022.05.053.08-.01.14-.027.023 0 .001-.035 0-.013.11-.018.084-.06.164l.036-.012c-.026.072-.059.085-.094.058-.003.08-.011.067-.046.106.036.055.045.041.046.128l-.057.105.023-.105-.023.012c-.004.024-.007.047-.012.07l-.022-.023c.023.054.045.055.057.129l-.023-.036c.01.129-.01.26 0 .34h-.012c-.02-.025 0-.01-.035-.024 0 .036-.002.023-.01.07l.045-.036v.012c-.033.05-.068.078-.093.105.034.028.018-.01.035.035-.045.012-.035.005-.058.035l.035-.023c-.009.066-.244.902-.267.923-.021.029-.075.045-.105.105.032.008.028-.01.024.023.003.008.008.016.01.024-.219.092-.167.343-.336.456.035.032.026.012.035.046l-.035-.012c.013.038.019.048-.01.083-.018.036-.014.008-.048 0 .027.082.007.147-.046.21v-.035c-.074.034-.044.09-.093.14l.035.046c-.06.026-.12.167-.187.245.005-.011.009-.022.012-.035l-.046.013.012.022c-.02.026.007.053-.058.071-.016-.013-.017-.011-.035.034.026.031.011-.001.011.048-.062.02-.076.02-.058.093-.042-.006-.035-.007-.07.012-.003.054-.023.059.013.128l-.048.058-.022-.035c-.004.049-.003.041-.036.082.045.017.042.009.012.047-.033.123-.082.09-.162.21l.034.012c-.137.01-.174.207-.313.257.033.033.018.022.034.059-.09.071-.14.126-.197.198.029.022.005.006.035.012l-.035.058c-.009-.04.016-.017-.023-.035-.005.047-.008.044-.023.07l.046-.012-.046.024c-.03.064-.056.056-.093.093l.047-.011c-.013.015-.024.03-.035.047-.044-.014-.012-.026-.047 0 .03.005.007-.012.035.01l-.058.036c-.043-.035-.117.082-.117.082-.009.034-.022.008 0 .034l.035-.01-.035.035h-.092c.014.032-.03.045-.047.127-.025-.018-.056-.011-.116.036v.011l.058-.011c-.003.007-.007.016-.012.023l-.057.035c-.014-.03.007-.011-.023-.023-.005.033-.023.094-.059.128l.059-.023c-.021.05-.098.109-.128.164-.043-.011-.01-.023-.047 0 .012.046.021.012-.012.057H67.974 68.002c.002.001.002.004-.004.012-.067.064-.131.066-.21.094h.047l-.023.035-.116.058.035-.047-.035-.01c-.02.038-.028.033-.058.057l.034.023c-.082.004-.128.029-.139.059.011.004.024.007.035.012-.141-.008-.146.045-.244.07-.017.061-.023.064-.035.093-.072-.016-.068.029-.15.024.003.052.024.027-.024.07l.011-.047c-.025.025-.021.016-.035.059-.136.045-.168.165-.278.233l.035-.058-.058.011-.035.094-.035-.024.023.035c-.188.04-.27.141-.465.234l.013.058c-.064.002-.17.055-.152.105-.133-.017-.141.057-.21.105-.004-.036.015-.007-.01-.034l-.082.105v-.035c-.168.066-.168.15-.267.198-.07.035-.096-.014-.151.047l.023.012c-.028-.002-.31.1-.301.105-.106.045-.352.068-.372.058-.187.1-.382.157-.663.258-.225.08-.374.01-.603.07-.023.005-.063.018-.07-.013-.032.06-.835.215-.848.211v.012l.024.035c-.06 0-.067.014-.117-.012-.006.052.024.024-.022.047-.057-.029-.26.114-.268.116l-.65.059c-.147-.012-.32-.008-.5-.005v-.025c-.061.006-.061.027-.133.03-.147-.071-.282.015-.434-.012-.434-.076-.973.023-1.343-.06 0 0-.36.01-.384.006-.133-.025-.278-.074-.413-.091l-.126.013c-.217-.023-.444-.06-.62-.134-.057-.023-.262-.01-.294-.017-.126-.032-.32-.106-.45-.145l-.126.012c-.15-.04-.28-.1-.42-.139-.12-.032-.222-.031-.355-.072-.216-.065-.404-.2-.656-.247v-.03c-.157-.016-.322-.125-.42-.199-.085-.063-.338-.126-.465-.18-.08-.035-.162-.11-.236-.14-.165-.062-.37-.12-.517-.198-.05-.027-.057-.07-.103-.097l-.067-.006c-.06-.027-.125-.085-.184-.114-.04-.02-.104-.018-.117-.03l-.134-.114c-.07-.029-.15-.033-.206-.073l-.03-.067c-.09-.052-.2-.055-.288-.108l-.095-.09c-.235-.154-.462-.297-.694-.452l-.06.012c-.017-.122-.516-.371-.493-.452-.155.003-.638-.55-.753-.549-.019-.038-.31-.192-.368-.229-.08-.049-.152-.14-.222-.198-.004-.003-.026-.028-.007-.03-.174-.095-.328-.19-.488-.296l-.118-.114c-.072-.045-.167-.09-.228-.145-.122-.11-.325-.233-.42-.343-.045-.052-.076-.112-.133-.15-.174-.119-.369-.208-.554-.332-.045-.031-.046-.087-.08-.127-.09-.1-.36-.208-.488-.29-.037-.023-.058-.096-.081-.114-.14-.109-.315-.188-.458-.295l-.118-.163-.08-.018c-.056-.03-.098-.096-.148-.132-.041-.031-.1-.036-.14-.066-.16-.12-.337-.282-.517-.38l-.007.006v.042h-.03c-.051-.05-.059-.12-.11-.175l-.096-.037c-.12-.068-.2-.14-.333-.21l-.028-.055c-.073-.061-.189-.085-.274-.138l-.073-.078-.11-.025c-.246-.139-.47-.294-.739-.421-.039-.018-.075-.07-.11-.085-.025-.01-.072.006-.104-.012l-.037-.054-.236-.156c-.225-.111-.436-.239-.67-.326-.073-.027-.228-.084-.222-.151-.157.002-.179-.075-.259-.133-.036-.026-.109-.027-.14-.042-.047-.021-.096-.075-.14-.102l-.207-.06-.043-.048c-.231-.106-.624-.202-.908-.277l-.037-.043c-.052-.023-.146-.015-.214-.042-.036-.013-.091-.052-.14-.066l-.17-.018c-.056-.023-.133-.067-.206-.085-.25-.058-.54-.074-.768-.144l-.088.006c-.162-.036-.841-.177-.974-.133-.423-.12-.927-.071-1.35-.157-.133-.027-.318.027-.428.007-.216-.04-.518-.067-.73-.085-.006.004-.012.006-.018.008v-.008c-.097.005-.187.01-.26.02l-.054-.012c-.082-.014-.218.003-.284.012l-.298-.012c-.257.032-.513.028-.785.062l-.196.004c-.18.03-.414.042-.575.063l-.168.004c-.23.059-.482.048-.758.1-.135.025-.257.072-.393.104-.187.044-.364.035-.561.07-.123.022-.24.083-.358.113-.057.014-.127.013-.19.033-.048.017-.116.051-.169.063l-.101.012c-.287.101-.556.217-.82.329-.142.06-.304.088-.452.146-.349.136-.708.257-1.069.4l-.034.041c-.075.045-.236.13-.325.162-.188.068-.372.142-.54.22-.044.021-.11.027-.15.05-.122.073-.237.151-.378.213-.2.085-.42.134-.63.212-.161.06-.25.17-.392.241-.084.043-.204.062-.284.108-.235.136-.461.261-.724.383l-.074.062c-.082.052-.177.097-.264.146-.045.025-.04.047-.081.066-.189.092-.353.217-.534.296-.185.081-.41.145-.555.25-.147.106-.322.195-.46.304-.1.079-.19.166-.305.237l-.087.02c-.103.04-.169.125-.25.18l-.163.078v.026c-.03.025-.095.044-.122.07v.025c-.039.023-.093.03-.135.05-.09.042-.155.115-.223.17-.045.038-.143.06-.196.092-.116.07-.22.16-.352.221-.074.034-.158.047-.237.079-.113.045-.232.11-.345.154-.07.028-.168.042-.223.08-.052.035-.09.045-.156.074l-.101.075c-.056.02-.135.034-.19.067l-.088.075c-.14.047-.322.073-.453.133-.066.03-.12.076-.182.107-.168.085-.402.13-.616.183-.052.014-.115.053-.162.072-.034.005-.068.01-.102.017-.108.034-.209.089-.325.12-.083.023-.145.018-.236.037l-.155.055c-.19.059-.43.105-.63.145-.151.03-.316.051-.453.08l-.237.037c-.078.036-.152.037-.264.062-.19.044-.409.075-.608.104-.239.034-.479.02-.718.054-.189.027-.364.034-.56.058l-.21.017c-.128-.015-.347.03-.515.025-.218-.007-.416-.017-.642-.017v.017c-.14-.045-.249-.095-.35-.125-.142-.044-.45.125-.647.083-.24-.05-.444-.135-.774-.083v-.043c-.057.064-.469-.093-.548-.125-.072.053-.46-.104-.619-.084-.348.042-.78-.185-1.097-.292l-.282-.015c-.064-.043-.124-.1-.21-.154-.11-.067-.5-.133-.493-.251-.134.055-.581-.125-.718-.195-.117.006-.57-.4-.745-.503-.093-.031-.187-.065-.281-.098-.2-.205-.377-.423-.633-.557l-.395-.084c-.211-.115-.471-.304-.618-.503-.02.025.003.022-.028.014l-.212-.112v-.028c-.098-.084-.26-.444-.435-.46l.042-.042c-.092-.028-.953-.961-.97-1.102.02 0-.011-.01-.015-.014-.127-.173-.515-.355-.633-.643-.045-.108-.08-.33-.141-.404-.12-.149-.205-.178-.267-.335-.092-.232-.195-.727-.352-.908-.188-.216-.491-.623-.464-.948-.068.01-.01-.007-.098-.029.028-.073-.003-.063.056-.055l-.042-.112v.057H.649l-.155-.42c-.016-.058-.04-.311 0-.348-.05-.063-.088-.135-.113-.224.006-.055.01-.111.015-.168-.013.052 0 .029-.029.057.022-.118-.054-.325-.013-.405v-.014H.325l-.013.028c.006-.16-.013-.146.013-.266-.04.016-.02.013-.056.015-.04-.345-.112-.674-.112-1.2l-.015.041H.115c.02-.173-.035-.753-.085-.878l-.014.068-.014-.418.042-.238-.014.043c-.017-.034-.026-.072-.03-.113h.022c-.005-.04-.02-.04-.022-.088.05-.098-.01-.188.008-.29.054-.287-.015-.646.043-.892 0 0-.007-.238-.004-.254.018-.089.052-.185.063-.275l-.008-.083c.016-.145.042-.296.093-.412.017-.04.007-.175.013-.196.021-.083.074-.212.102-.299L.3 45.39c.028-.1.07-.186.098-.278.023-.08.022-.148.05-.236.047-.144.141-.269.174-.437h.021c.012-.104.088-.214.14-.28.045-.055.089-.223.127-.307.025-.054.078-.109.098-.157.043-.11.084-.246.139-.344.02-.034.049-.037.068-.068l.004-.044c.019-.04.06-.084.08-.123.015-.027.014-.07.021-.078l.081-.089c.02-.047.023-.1.052-.137l.045-.02c.037-.06.04-.133.077-.19l.063-.065c.109-.156.208-.306.317-.46l-.008-.04c.086-.012.261-.343.317-.328-.001-.103.386-.423.385-.5.028-.013.136-.207.162-.245.034-.053.098-.1.139-.147.002-.003.02-.018.02-.005.068-.116.134-.218.209-.324l.08-.078c.032-.048.063-.112.102-.152.077-.08.163-.216.242-.28.035-.028.077-.05.105-.088.082-.115.145-.245.232-.368.022-.03.06-.03.09-.053.07-.06.145-.239.202-.324.017-.025.069-.038.081-.054.076-.093.132-.21.207-.304l.114-.078c.005-.018.01-.036.013-.055.022-.036.068-.063.093-.097.022-.028.025-.067.047-.094.085-.106.197-.223.266-.342l-.004-.005h-.03v-.02c.035-.034.086-.04.124-.074l.025-.063c.048-.08.098-.133.148-.221l.038-.02c.043-.048.06-.124.098-.18l.054-.05.017-.073c.099-.163.207-.312.297-.49.012-.027.049-.05.059-.074.007-.016-.004-.047.009-.07l.038-.023c.036-.053.072-.105.11-.157.077-.15.167-.29.228-.446.019-.049.058-.151.106-.148-.001-.104.053-.118.093-.171.019-.024.02-.073.03-.093.015-.032.053-.064.071-.093l.043-.137.034-.03c.074-.153.142-.413.194-.603l.03-.024c.017-.036.01-.098.03-.143.01-.024.036-.06.046-.092l.013-.114c.016-.037.047-.088.059-.137.041-.165.053-.358.102-.51L7.11 33.8c.025-.106.123-.559.092-.647.085-.28.05-.615.11-.896.02-.09-.018-.213-.004-.285.028-.144.047-.344.06-.485l-.006-.012h.001l.004-.011c-.01-.141-.027-.341-.05-.485-.012-.073.02-.196.003-.285-.051-.281-.022-.615-.094-.896.027-.089-.058-.541-.08-.648l.004-.058c-.042-.152-.051-.345-.087-.51-.01-.05-.038-.1-.051-.137l-.01-.114c-.01-.033-.032-.069-.04-.092-.017-.045-.012-.108-.026-.143l-.026-.024c-.045-.19-.103-.45-.167-.603l-.028-.03c-.013-.045-.025-.09-.036-.137-.016-.03-.05-.061-.063-.093-.008-.02-.009-.069-.024-.093-.035-.053-.081-.067-.08-.171-.04.003-.075-.1-.091-.148-.052-.156-.13-.296-.196-.446l-.095-.157-.032-.024c-.01-.022-.001-.053-.007-.069-.01-.024-.04-.047-.052-.074-.076-.179-.169-.327-.253-.49l-.014-.073-.048-.05c-.032-.056-.046-.132-.083-.18-.01-.008-.022-.014-.033-.02-.042-.088-.086-.141-.127-.22l-.022-.065c-.032-.034-.075-.04-.105-.073v-.02h.026l.003-.005c-.06-.119-.156-.237-.229-.342-.017-.027-.02-.067-.04-.094-.021-.034-.06-.06-.08-.098l-.01-.054-.098-.078c-.065-.094-.112-.211-.178-.304-.01-.016-.054-.03-.069-.055-.048-.084-.113-.264-.173-.323-.024-.023-.058-.023-.077-.054-.075-.122-.129-.252-.2-.367-.023-.039-.06-.06-.09-.088-.067-.064-.14-.2-.207-.28-.033-.04-.06-.104-.087-.153l-.07-.078c-.062-.105-.12-.207-.177-.323 0 .013-.016-.002-.018-.005-.035-.047-.09-.095-.12-.147-.021-.038-.114-.232-.137-.245 0-.077-.332-.398-.33-.5-.05.015-.2-.316-.272-.328l.007-.04c-.094-.153-.18-.304-.273-.46l-.053-.064c-.032-.058-.035-.131-.066-.192l-.04-.019c-.023-.038-.027-.09-.044-.138l-.069-.088c-.006-.009-.005-.05-.017-.078-.018-.04-.053-.083-.07-.123l-.003-.044c-.017-.03-.042-.034-.058-.068-.047-.098-.082-.234-.12-.344-.017-.049-.063-.103-.084-.157-.032-.084-.07-.252-.108-.308-.045-.065-.11-.175-.12-.28h-.017c-.03-.167-.11-.292-.15-.436-.024-.088-.023-.156-.043-.236-.024-.092-.06-.179-.084-.278l.008-.084c-.024-.087-.07-.216-.088-.3-.004-.02.005-.156-.01-.196-.044-.115-.066-.266-.08-.41l.007-.084c-.01-.09-.04-.186-.054-.275-.003-.016.003-.255.003-.255-.05-.245.01-.604-.036-.892-.016-.101.036-.191-.007-.29.002-.046.014-.046.018-.087h-.018c.053-.163.112-.29.147-.407.05-.165-.147-.523-.098-.752.06-.28.158-.518.098-.9h.05c-.075-.067.11-.546.147-.637-.062-.085.12-.535.098-.72-.05-.405.216-.907.342-1.276l.016-.328c.051-.074.118-.144.18-.245.079-.127.156-.582.295-.572-.064-.156.146-.677.229-.835-.008-.136.468-.663.587-.867l.115-.327c.24-.232.495-.437.653-.736l.098-.458c.135-.245.355-.548.589-.72-.03-.021-.026.004-.016-.032l.13-.245h.033c.098-.116.52-.304.538-.507.017.015.033.032.049.048.034-.107 1.126-1.109 1.291-1.129 0 .024.01-.012.017-.016.201-.147.414-.598.751-.736.127-.053.388-.094.474-.164.174-.14.209-.239.392-.31.272-.107.851-.227 1.062-.41.254-.219.73-.571 1.11-.54-.01-.08.008-.011.034-.113.086.031.074-.004.065.065l.13-.05h-.065V.756l.49-.18c.068-.02.365-.048.408 0 .073-.058.158-.103.262-.132l.196.017c-.06-.015-.033 0-.065-.034.137.026.38-.062.473-.015h.017V.38l-.032-.017c.186.008.17-.015.31.017-.019-.047-.015-.025-.017-.067.404-.045.789-.13 1.405-.13l-.049-.017V.133c.203.024.881-.04 1.029-.098L14.94.018l.49-.016c.092.016.184.033.278.048l-.05-.015c.04-.02.085-.03.131-.035v.006L15.804 0c.177.014.428.035.609.068.09.016.245-.027.357-.005.352.068.772.028 1.124.125.111-.035.678.077.812.107.024-.002.048-.005.074-.005.19.055.432.068.639.115.06.014.124.05.172.068l.141.014c.041.012.088.042.117.053.057.02.134.015.179.034l.03.034c.237.06.564.136.756.221l.037.039.172.048c.037.022.078.064.117.082.026.012.087.013.117.034.067.046.084.107.215.105-.004.054.124.1.184.122.197.069.373.171.56.26l.197.124.03.044c.028.014.066.002.087.01.029.012.06.052.092.068.224.102.41.225.615.337l.092.019.061.063c.07.042.167.061.228.11l.025.044c.11.057.177.115.276.17.026.008.053.018.08.028.043.043.05.1.092.14h.025V2.64c.002 0 .004-.002.006-.004.15.08.297.208.43.304.034.024.083.029.117.053.042.03.077.081.123.106l.068.014.098.13c.118.087.265.15.38.237.021.014.038.072.069.091.107.066.332.151.406.232.03.032.03.077.067.101.154.1.317.17.462.265.047.032.074.08.11.12.08.089.248.187.351.275.05.045.13.08.19.117l.098.09c.133.085.261.16.406.237-.015.002.003.021.007.025.058.046.119.12.183.158.05.03.293.153.309.183.095 0 .497.442.626.44-.018.064.398.264.412.36l.05-.01c.192.126.382.24.577.363l.08.072c.073.042.164.045.24.087l.025.053c.047.032.113.035.172.058l.11.091c.012.01.065.008.098.025.05.023.104.07.154.091l.055.005c.039.021.045.056.087.077.122.063.293.11.43.16.062.022.13.082.197.11.106.043.317.093.388.145.08.059.219.146.35.159v.024c.21.037.366.145.547.197.11.033.195.032.295.058.116.031.224.08.35.111l.105-.01c.108.032.271.091.375.117.027.005.197-.005.245.014.146.058.336.088.518.106l.104-.01c.112.013.233.052.344.073.02.003.32-.005.32-.005.309.066.757-.013 1.119.047.127.022.24-.047.363.01.059-.002.059-.018.11-.024v.014c.004.002.008.005.013.006.055.017.252-.022.287-.009.049.003.098.004.148.006l.063-.006.036.01c.058-.008.162-.02.24-.01.048.006.196.015.236.01.106-.017.203-.034.312-.046.089-.01.202-.025.287-.042l.052.006c.022-.006.067-.008.1-.019.066-.02.207-.071.287-.09.045-.01.09-.005.136-.024.023-.008.054-.03.088-.038l.104-.013c.07-.017.132-.035.195-.057l.048-.003c.086-.026.188-.05.28-.066.039-.007.08.003.12-.012l.036-.024c.049-.018.104-.008.152-.027.106-.042.22-.082.32-.13.034-.016.065-.007.1-.02.023-.01.042-.034.063-.043l.052-.003c.016-.009.024-.03.04-.039l.06-.01c.016-.005.026-.023.04-.03l.075-.02c.06-.027.11-.07.18-.09.007-.012.005-.004 0-.015.068.001.122-.068.177-.09.045-.02.09-.021.131-.043.097-.052.194-.102.292-.153.073-.039.099-.111.191-.13l.005-.018h.019c.077-.041.132-.09.192-.145l.048-.024c.016-.02.018-.038.04-.051.14-.083.282-.186.391-.268l-.012-.006.048-.015v-.024c.067-.034.155-.092.2-.141l.02-.03c.06-.036.126-.062.184-.1.03-.02.042-.07.064-.084.027-.018.083-.06.107-.072.022-.01.043-.003.06-.012.032-.019.044-.044.06-.066.023-.03.067-.038.093-.06.028-.027.054-.064.087-.085.104-.065.207-.132.32-.19.067-.034.136-.114.196-.159.075-.055.168-.095.251-.144.017-.011.035-.039.044-.046.015-.01.04-.01.056-.02.012-.009.009-.027.02-.037l.048-.018.016-.027c.044-.026.107-.043.136-.078.095-.115.239-.202.383-.289.048-.028.049-.073.08-.1l.036-.009c.015-.008.023-.028.028-.033l.08-.042c.065-.04.104-.114.208-.126-.005-.01 0-.004-.009-.01.167-.06.28-.149.424-.222.034-.018.112-.066.124-.069.015-.006.034.003.052-.007l.008-.002.004-.024c.011-.014.04-.01.055-.018l.1-.079.064-.006c.025-.01.043-.037.069-.048.061-.026.122-.045.171-.073.008-.003.004-.02.004-.02l.048-.016.044-.048h.032c.03-.008.07-.04.08-.045.016-.006.064-.004.096-.014.045-.015.127-.031.167-.055.02-.012.053-.035.084-.045l.069-.01.04-.026c.099-.036.196-.06.302-.103.03-.011.061-.037.089-.047.033-.005.066-.009.1-.012.016-.005.03-.02.044-.025.095-.029.177-.018.27-.054l.08-.045c.12-.024.267-.04.376-.09.011.006.146-.029.156-.034.01.009.06.006.08 0 .106-.032.231-.027.348-.057.056-.014.147-.006.223-.024.162-.038.372-.05.536-.075.128-.02.314-.003.435-.028.047-.008.093.005.124 0 .086-.009.152-.006.227-.02.04-.007.085.016.12.004v.132c.09-.01.191.017.212.02l-.028.018c.08-.019.207-.024.28.038-.04.005-.009-.006-.029.027.212-.062.498.018.772.066l.288.01-.019.028c.034-.018.047-.021.083-.02.018.036.016.003.01.038.047-.002.093-.007.14-.01.007.033-.011.013.018.029-.031-.08.303.02.334.037.029.015.038.016.066.01-.036-.01-.029-.004-.047-.028l.121.037-.028.01.037-.01.103.037c-.01.003-.02.006-.028.01.054-.007.14 0 .195.028l-.019.01h-.056.056c.025-.003.034-.008.074-.01l-.027.028.149.01c.006.031-.01.014.027.036.01-.017 0-.017.019-.009.058.05.208.059.278.122v-.029c.087.06.332.166.39.224-.04.006-.015-.017-.036.02h.009c.054-.074.54.25.632.308.015-.018-.001-.012.037-.01.007.031-.006.034.027.057l-.017-.028c.116.061.488.201.491.261h.037l-.018-.018c.104.02.395.255.428.29l-.037-.01c.044.037.173.137.278.15 0 .044.016.046 0 .083.066-.02.169.039.214.094-.005.031-.01.01.019.028.01-.019-.001-.018.018-.01.03.093.072.158.149.243-.02.038-.021.016-.01.047l.019-.038.018.02-.018.009c.056.003.183.096.223.15l-.037.018c.07.06.113.059.214.13.007.054.018.061.01.104l.055-.028c-.004.041-.024.012.009.047.094.023.24.235.306.336.104.158.237.227.344.384.049.07.078.15.093.214.03.03.142.106.186.196.028.056-.009.065.018.103l.01-.028c.028.158.195.252.241.346.04.078.038.242.075.29.054-.017.217.337.213.354-.023.145.187.27.15.328v.028c.009.005.099.34.092.346.064.07.18.35.242.504.03.077-.003.214.028.318l.13.29c.021.075-.059.11-.019.214.078.202.04.332.084.496l.046.019c0 .167.1.632.096.98"/>
</svg>
