<?xml version="1.0" encoding="UTF-8"?>
<svg width="21px" height="16px" viewBox="0 0 21 16" version="1.1" xmlns="http://www.w3.org/2000/svg" xmlns:xlink="http://www.w3.org/1999/xlink">
    <title>mail-envelope-back-hand-drawn-outline</title>
    <g id="Page-1" stroke="none" stroke-width="1" fill="none" fill-rule="evenodd">
        <g id="sprite" transform="translate(-8.000000, -165.000000)" fill="#ffffff" fill-rule="nonzero">
            <g id="mail-envelope-back-hand-drawn-outline" transform="translate(8.000000, 165.000000)">
                <path d="M20.4421453,0.729608939 C20.429676,0.372603352 20.1950391,0.0326256983 19.7335866,0.0479553073 C13.3238883,0.258815642 6.90002235,-0.436826816 0.53077095,0.564826816 C-0.00983240223,0.649921788 -0.101139665,1.15763128 0.094122905,1.54431285 C0.0959553073,1.5513743 0.0979664804,1.55825698 0.0999329609,1.56531844 C0.0622569832,1.65689385 0.0429497207,1.76312849 0.0518435754,1.8873743 C0.368536313,6.31039106 0.846167598,10.7186592 1.2781676,15.1311732 C1.28281564,15.1784134 1.29322905,15.2219441 1.30471508,15.2646257 C1.29702793,15.6383911 1.53224581,16.0080894 2.01394413,15.9894972 C7.98234637,15.757095 13.9655419,15.9622793 19.9177207,15.3762682 C19.9687598,15.3713073 20.0159553,15.3604022 20.0618101,15.3476648 C20.4143017,15.3283575 20.7603575,15.0938994 20.776,14.6404916 C20.9344358,10.0574749 20.6609609,5.4836648 20.469676,0.906100559 C20.4668603,0.843083799 20.4566704,0.784402235 20.4421453,0.729608939 Z M19.3230838,9.50739665 C18.3267486,8.07374302 17.2001788,6.7372514 16.0171173,5.44509497 C17.0846927,4.72330726 18.1138771,3.94498324 19.0938547,3.09675978 C19.1887374,5.23360894 19.2810726,7.37010056 19.3230838,9.50739665 Z M18.622257,1.54297207 C16.2901006,3.65894972 13.6677542,5.34176536 10.8458547,6.73680447 C8.00715084,5.32312849 5.43244693,3.48089385 2.78802235,1.74538547 C8.0406257,1.18395531 13.3450279,1.63217877 18.622257,1.54297207 Z M1.58940782,2.71678212 C3.00330726,3.63365363 4.39128492,4.59070391 5.8042905,5.50574302 C4.62189944,7.46556425 3.32974302,9.36442458 2.38176536,11.4342346 C2.09300559,8.53063687 1.81032402,5.62668156 1.58940782,2.71678212 Z M19.3203575,13.9546816 C13.8166257,14.4494302 8.28746369,14.3123575 2.7692067,14.4950615 C2.82842458,14.4217207 2.87651397,14.3323352 2.90753073,14.2231955 C3.72853631,11.3066369 5.49519553,8.85242458 7.04813408,6.29246927 C8.09993296,6.9415419 9.17246927,7.55669274 10.2879106,8.10239106 C10.3009609,8.10851397 10.3136536,8.11119553 10.3264804,8.11664804 C10.5370726,8.29707263 10.837676,8.37671508 11.1531173,8.22516201 C12.395933,7.62784358 13.5998659,6.97081564 14.7634413,6.25367598 C16.4614525,8.09126257 18.0433073,10.006257 19.2821899,12.1915084 C19.3010503,12.2248939 19.3230391,12.2512179 19.3444022,12.2793743 C19.3410056,12.8378994 19.3346145,13.3963799 19.3203575,13.9546816 Z" id="Shape"></path>
            </g>
        </g>
    </g>
</svg>