<svg width="203" height="45" viewBox="0 0 203 45" fill="none" xmlns="http://www.w3.org/2000/svg">
<path fill-rule="evenodd" clip-rule="evenodd" d="M60.2226 26.2399C59.5241 23.9499 58.9998 21.8246 58.6504 19.8643C58.6504 19.8837 58.612 20.2233 58.5341 20.883C58.4563 21.543 58.3498 22.3921 58.2138 23.4305C58.0779 24.4687 57.9516 25.4149 57.8354 26.269L56.8166 33.3146H52.7988L56.176 12.6733H59.9026L62.7845 22.2805C63.2891 23.9887 63.7838 26.0458 64.2695 28.4524C64.832 25.6768 65.3076 23.6196 65.6957 22.2805L68.4616 12.6733H72.1879L75.5651 33.3146H71.4895L70.4995 26.298C70.2279 24.5318 69.9557 22.3874 69.6841 19.8643C69.6841 19.8837 69.6066 20.2283 69.4516 20.8977C69.296 21.5674 69.0876 22.4212 68.8254 23.4599C68.5635 24.498 68.316 25.4349 68.0829 26.269L65.987 33.3146H62.3188L60.2226 26.2399Z" fill="white"/>
<path fill-rule="evenodd" clip-rule="evenodd" d="M88.4887 24.4055C88.4887 24.3284 88.4744 24.2212 88.4453 24.0855C88.4159 23.9496 88.3187 23.7024 88.1537 23.3434C87.9891 22.9837 87.7853 22.6734 87.5428 22.4112C87.3 22.1493 86.9409 21.9068 86.4653 21.6837C85.99 21.4602 85.4416 21.3487 84.8203 21.3487C84.1803 21.3487 83.6172 21.4559 83.1322 21.6687C82.6466 21.8824 82.2875 22.1346 82.055 22.4259C81.8222 22.7171 81.6278 23.013 81.4725 23.3143C81.3175 23.6146 81.2203 23.8721 81.1816 24.0855L81.1525 24.4055H88.4887ZM91.6912 31.043C91.6331 31.1212 91.5506 31.213 91.4438 31.3202C91.3372 31.4271 91.0897 31.6302 90.7016 31.9312C90.3131 32.2324 89.8959 32.4943 89.4494 32.7174C89.0031 32.9405 88.4112 33.1443 87.6737 33.3287C86.9362 33.5134 86.1597 33.6052 85.3444 33.6052C82.7437 33.6052 80.7303 32.9162 79.3038 31.538C77.8772 30.1602 77.1641 28.2677 77.1641 25.8615C77.1641 23.5905 77.8869 21.7368 79.3328 20.3005C80.7788 18.8646 82.6081 18.1465 84.8203 18.1465C87.2272 18.1465 89.1097 18.908 90.4684 20.4315C91.8272 21.9552 92.5063 24.0077 92.5063 26.5887V27.2587H81.1525C81.1909 27.5305 81.2688 27.8168 81.3853 28.1177C81.5016 28.4187 81.7006 28.753 81.9822 29.1221C82.2634 29.4909 82.7003 29.7962 83.2922 30.039C83.8844 30.2821 84.5878 30.403 85.4028 30.403C86.1791 30.403 86.9166 30.2521 87.6153 29.9518C88.3141 29.6509 88.8087 29.3549 89.1003 29.0637L89.5659 28.598L91.6912 31.043Z" fill="white"/>
<path fill-rule="evenodd" clip-rule="evenodd" d="M99.4034 29.0498C100.122 29.8554 101.092 30.2579 102.314 30.2579C103.596 30.2579 104.605 29.8648 105.342 29.0788C106.08 28.2926 106.449 27.2204 106.449 25.8623C106.449 24.542 106.065 23.4841 105.299 22.6885C104.532 21.8929 103.527 21.4948 102.285 21.4948C101.082 21.4948 100.122 21.8976 99.4034 22.7029C98.6853 23.5091 98.3262 24.562 98.3262 25.8623C98.3262 27.1813 98.6853 28.2445 99.4034 29.0498V29.0498ZM110.204 33.3148H106.361V31.452C106.322 31.5098 106.264 31.5876 106.187 31.6848C106.109 31.7816 105.934 31.947 105.663 32.1791C105.391 32.4123 105.09 32.621 104.76 32.8054C104.43 32.9898 103.988 33.1598 103.436 33.3148C102.882 33.4704 102.295 33.5482 101.674 33.5482C99.5781 33.5482 97.8556 32.9073 96.5065 31.626C95.1581 30.3454 94.4834 28.4529 94.4834 25.9491C94.4834 23.582 95.1771 21.6938 96.565 20.2866C97.9528 18.8795 99.6556 18.176 101.674 18.176C102.664 18.176 103.547 18.341 104.324 18.671C105.1 19.001 105.634 19.331 105.925 19.6607L106.361 20.1557V12.6738H110.204V33.3148Z" fill="white"/>
<path fill-rule="evenodd" clip-rule="evenodd" d="M113.811 33.3149H117.625V18.4671H113.811V33.3149ZM113.942 12.5864C114.417 12.1205 115.005 11.8877 115.703 11.8877C116.402 11.8877 116.994 12.1205 117.48 12.5864C117.965 13.0524 118.207 13.6343 118.207 14.333C118.207 15.0124 117.965 15.5849 117.48 16.0508C116.994 16.5168 116.402 16.7496 115.703 16.7496C115.024 16.7496 114.442 16.5168 113.957 16.0508C113.471 15.5849 113.229 15.0124 113.229 14.333C113.229 13.6343 113.467 13.0524 113.942 12.5864V12.5864Z" fill="white"/>
<path fill-rule="evenodd" clip-rule="evenodd" d="M125.383 29.0497C126.091 29.8553 127.066 30.2578 128.308 30.2578C129.57 30.2578 130.569 29.8697 131.307 29.0937C132.044 28.3172 132.413 27.2494 132.413 25.8912C132.413 24.5519 132.035 23.4941 131.278 22.7175C130.521 21.9412 129.512 21.5534 128.25 21.5534C127.047 21.5534 126.091 21.9509 125.383 22.7469C124.674 23.5428 124.32 24.5906 124.32 25.8912C124.32 27.1916 124.674 28.2444 125.383 29.0497V29.0497ZM136.169 33.3147H132.325V31.4519C132.287 31.5097 132.234 31.5875 132.165 31.6847C132.097 31.7816 131.923 31.9469 131.641 32.1791C131.36 32.4122 131.059 32.6209 130.739 32.8053C130.419 32.9897 129.977 33.1597 129.415 33.3147C128.852 33.4703 128.26 33.5481 127.639 33.5481C125.562 33.5481 123.85 32.9119 122.5 31.6409C121.152 30.3697 120.477 28.4916 120.477 26.0075C120.477 23.6397 121.171 21.7519 122.559 20.3453C123.946 18.9381 125.64 18.2344 127.639 18.2344C128.629 18.2344 129.512 18.3994 130.288 18.7291C131.064 19.0591 131.598 19.3891 131.889 19.7191L132.325 20.2141V18.4963H136.169V33.3147Z" fill="white"/>
<path fill-rule="evenodd" clip-rule="evenodd" d="M138.466 18.467H140.475V17.0695C140.475 15.4005 140.834 14.1923 141.552 13.4455C142.27 12.6977 143.357 12.3242 144.813 12.3242C145.278 12.3242 145.739 12.3486 146.195 12.397C146.651 12.4455 146.996 12.4892 147.229 12.528L147.549 12.5864V15.5267C146.909 15.4295 146.336 15.3811 145.832 15.3811C145.288 15.3811 144.905 15.512 144.682 15.7742C144.459 16.0361 144.347 16.5167 144.347 17.2152V18.467H147.2V21.4077H144.347V33.3148H140.475V21.4077H138.466V18.467Z" fill="white"/>
<path fill-rule="evenodd" clip-rule="evenodd" d="M153.313 29.1371C154.05 29.9617 155.031 30.3742 156.253 30.3742C157.496 30.3742 158.481 29.9617 159.209 29.1371C159.936 28.3121 160.3 27.2202 160.3 25.8621C160.3 24.5227 159.936 23.4455 159.209 22.6302C158.481 21.8149 157.496 21.4077 156.253 21.4077C155.031 21.4077 154.05 21.8149 153.313 22.6302C152.576 23.4455 152.207 24.5227 152.207 25.8621C152.207 27.2202 152.576 28.3121 153.313 29.1371M150.591 20.2864C152.076 18.8408 153.953 18.1177 156.224 18.1177C158.554 18.1177 160.455 18.8358 161.93 20.2721C163.406 21.7083 164.143 23.5714 164.143 25.8621C164.143 28.1324 163.396 30.0005 161.901 31.4658C160.407 32.9311 158.515 33.6636 156.224 33.6636C153.934 33.6636 152.051 32.9458 150.577 31.5096C149.102 30.0733 148.364 28.1911 148.364 25.8621C148.364 23.5908 149.107 21.7327 150.591 20.2864" fill="white"/>
<path fill-rule="evenodd" clip-rule="evenodd" d="M174.883 22.4845C172.224 22.2517 170.894 23.5517 170.894 26.3857V33.3145H167.051V18.467H170.894V21.087C170.914 21.0095 170.952 20.9026 171.011 20.767C171.069 20.6307 171.214 20.3935 171.447 20.0535C171.68 19.7139 171.942 19.4132 172.233 19.151C172.524 18.8892 172.937 18.6614 173.47 18.467C174.004 18.2726 174.582 18.1854 175.203 18.2048L174.883 22.4845Z" fill="white"/>
<path fill-rule="evenodd" clip-rule="evenodd" d="M176.657 18.4965H178.753V15.0903L182.595 14.1006V18.4965H185.332V21.3784H182.595V28.5987C182.595 29.2387 182.688 29.6906 182.872 29.9525C183.056 30.2146 183.391 30.3456 183.877 30.3456C184.323 30.3456 184.847 30.2581 185.449 30.0837V33.0821C184.42 33.4312 183.391 33.6062 182.363 33.6062C179.956 33.6062 178.753 32.325 178.753 29.7631V21.3784H176.657V18.4965Z" fill="white"/>
<path fill-rule="evenodd" clip-rule="evenodd" d="M192.101 29.0497C192.809 29.8553 193.784 30.2578 195.026 30.2578C196.288 30.2578 197.287 29.8697 198.025 29.0937C198.762 28.3172 199.132 27.2494 199.132 25.8912C199.132 24.5519 198.753 23.4941 197.996 22.7175C197.239 21.9412 196.23 21.5534 194.968 21.5534C193.765 21.5534 192.809 21.9509 192.101 22.7469C191.392 23.5428 191.038 24.5906 191.038 25.8912C191.038 27.1916 191.392 28.2444 192.101 29.0497V29.0497ZM202.887 33.3147H199.044V31.4519C199.006 31.5097 198.952 31.5875 198.884 31.6847C198.816 31.7816 198.642 31.9469 198.36 32.1791C198.078 32.4122 197.778 32.6209 197.458 32.8053C197.137 32.9897 196.696 33.1597 196.133 33.3147C195.57 33.4703 194.978 33.5481 194.357 33.5481C192.28 33.5481 190.568 32.9119 189.218 31.6409C187.869 30.3697 187.195 28.4916 187.195 26.0075C187.195 23.6397 187.889 21.7519 189.277 20.3453C190.665 18.9381 192.358 18.2344 194.357 18.2344C195.347 18.2344 196.23 18.3994 197.006 18.7291C197.783 19.0591 198.317 19.3891 198.608 19.7191L199.044 20.2141V18.4963H202.887V33.3147Z" fill="white"/>
<path fill-rule="evenodd" clip-rule="evenodd" d="M44.9263 22.1506C44.9263 34.0388 33.4141 44.9263 21.5256 44.9263C9.6375 44.9263 0 34.6638 0 22.7756C0 10.8875 10.8875 0 22.7756 0C34.6641 0 44.9263 10.2625 44.9263 22.1506" fill="#504FFF"/>
<path fill-rule="evenodd" clip-rule="evenodd" d="M10.8067 13.7833C12.0105 12.6086 13.4842 12.0127 15.1861 12.0127C16.8883 12.0127 18.362 12.6086 19.5658 13.7833C20.7723 14.9599 21.3842 16.4208 21.3842 18.1264C21.3842 19.423 20.9955 20.603 20.2289 21.6349C19.5148 22.5958 18.6083 23.2961 17.5308 23.7202V33.2043C17.5308 33.3543 17.4308 33.4858 17.2861 33.5261C17.2564 33.5346 17.2261 33.5386 17.1964 33.5386C17.0814 33.5386 16.9717 33.4789 16.9098 33.3768L11.5333 24.9168C9.64047 21.763 8.98828 19.5421 8.98828 18.1264C8.98828 16.4211 9.60016 14.9602 10.8067 13.7833ZM29.1988 12.0127C30.9025 12.0127 32.3629 12.6096 33.5397 13.7864C34.7163 14.963 35.3129 16.4233 35.3129 18.1268C35.3129 19.4199 34.9394 20.5986 34.2035 21.6299C33.5147 22.5939 32.62 23.2964 31.5416 23.7208L31.4594 33.2071C31.4582 33.3561 31.3582 33.4864 31.2144 33.5264C31.1844 33.5346 31.1547 33.5386 31.125 33.5386C31.0104 33.5386 30.9013 33.4796 30.8397 33.378L25.4629 25.0018C23.6266 22.018 23.001 19.7686 23.001 18.1268C23.001 16.4211 23.6129 14.9599 24.8194 13.7833C26.0232 12.6086 27.4969 12.0127 29.1988 12.0127Z" fill="white"/>
</svg>
