<svg xmlns="http://www.w3.org/2000/svg" xmlns:xlink="http://www.w3.org/1999/xlink" width="203" height="45" viewBox="0 0 203 45">
    <defs>
        <path id="a" d="M0 44.926h202.887V0H0z"/>
    </defs>
    <g fill="none" fill-rule="evenodd">
        <path fill="#14325A" d="M60.223 26.24c-.699-2.29-1.223-4.415-1.573-6.376 0 .02-.038.36-.116 1.02-.078.66-.184 1.508-.32 2.547a566.893 566.893 0 0 1-.379 2.838l-1.018 7.046h-4.018l3.377-20.642h3.727l2.882 9.608c.504 1.708.999 3.765 1.484 6.172.563-2.776 1.039-4.833 1.427-6.172l2.766-9.608h3.726l3.377 20.642H71.49l-.99-7.017a146.24 146.24 0 0 1-.816-6.434c0 .02-.077.364-.232 1.034-.156.67-.364 1.523-.627 2.562-.261 1.038-.509 1.975-.742 2.81l-2.096 7.045h-3.668l-2.096-7.075zM88.488 24.406a1.63 1.63 0 0 0-.043-.32c-.03-.136-.127-.383-.292-.742a3.513 3.513 0 0 0-.61-.932c-.243-.262-.602-.505-1.078-.728-.475-.223-1.024-.335-1.645-.335-.64 0-1.203.107-1.688.32-.486.214-.845.466-1.077.757a5.362 5.362 0 0 0-.583.889c-.155.3-.252.557-.29.77l-.03.32h7.336zm3.203 6.637c-.058.079-.14.17-.248.278-.106.106-.354.31-.742.61a7.525 7.525 0 0 1-1.252.787c-.446.223-1.038.427-1.776.611a9.558 9.558 0 0 1-2.329.277c-2.6 0-4.614-.69-6.04-2.068-1.427-1.377-2.14-3.27-2.14-5.676 0-2.271.723-4.125 2.169-5.561 1.445-1.436 3.275-2.154 5.487-2.154 2.407 0 4.29.761 5.648 2.285 1.359 1.524 2.038 3.576 2.038 6.157v.67H81.152a3.9 3.9 0 0 0 .233.86c.116.3.315.634.597 1.003.281.37.718.675 1.31.917.592.243 1.296.364 2.11.364.777 0 1.514-.15 2.213-.45.699-.302 1.193-.598 1.485-.889l.466-.466 2.125 2.445zM99.403 29.05c.718.805 1.689 1.208 2.911 1.208 1.281 0 2.29-.394 3.028-1.18.738-.786 1.107-1.858 1.107-3.216 0-1.32-.384-2.378-1.15-3.174-.767-.795-1.772-1.194-3.014-1.194-1.203 0-2.164.403-2.882 1.209s-1.077 1.859-1.077 3.159c0 1.319.36 2.382 1.077 3.187zm10.801 4.264h-3.843v-1.862a3.832 3.832 0 0 1-.174.232c-.078.097-.253.263-.524.495a5.5 5.5 0 0 1-.904.626c-.33.184-.77.354-1.324.51a6.477 6.477 0 0 1-1.76.233c-2.097 0-3.82-.641-5.169-1.922-1.348-1.28-2.023-3.173-2.023-5.677 0-2.367.694-4.255 2.082-5.663 1.388-1.407 3.09-2.11 5.11-2.11.989 0 1.871.165 2.649.495.775.33 1.31.66 1.6.99l.437.494v-7.481h3.843v20.64z"/>
        <mask id="b" fill="#fff">
            <use xlink:href="#a"/>
        </mask>
        <path fill="#14325A" d="M113.81 33.315h3.815V18.467h-3.814v14.848zm.132-20.729c.476-.466 1.063-.699 1.761-.699.7 0 1.291.233 1.777.7.485.465.727 1.047.727 1.746a2.29 2.29 0 0 1-.727 1.718c-.486.466-1.078.698-1.777.698-.679 0-1.26-.232-1.746-.698a2.287 2.287 0 0 1-.728-1.718c0-.699.238-1.28.713-1.747zM125.382 29.05c.709.805 1.684 1.208 2.926 1.208 1.262 0 2.26-.389 2.999-1.164.737-.777 1.106-1.845 1.106-3.203 0-1.34-.379-2.397-1.135-3.174-.757-.776-1.766-1.164-3.028-1.164-1.204 0-2.16.398-2.868 1.194-.708.796-1.062 1.843-1.062 3.144 0 1.3.354 2.353 1.062 3.158zm10.787 4.264h-3.844v-1.862c-.038.057-.092.135-.16.232s-.242.263-.524.495a6.481 6.481 0 0 1-.902.626c-.32.184-.762.354-1.324.51a6.636 6.636 0 0 1-1.776.233c-2.078 0-3.79-.636-5.14-1.907-1.348-1.272-2.022-3.15-2.022-5.634 0-2.368.694-4.255 2.082-5.662 1.387-1.407 3.08-2.11 5.08-2.11.99 0 1.873.164 2.649.494.776.33 1.31.66 1.6.99l.437.495v-1.718h3.844v14.818zM138.466 18.467h2.009v-1.398c0-1.669.359-2.877 1.077-3.624.718-.748 1.805-1.12 3.261-1.12.465 0 .926.023 1.382.072.456.048.801.092 1.034.13l.32.06v2.94a11.566 11.566 0 0 0-1.717-.146c-.544 0-.927.13-1.15.393-.223.262-.335.743-.335 1.441v1.252h2.853v2.94h-2.853v11.908h-3.872V21.408h-2.009v-2.941zM153.313 29.137c.737.825 1.717 1.237 2.94 1.237 1.243 0 2.228-.412 2.956-1.237.727-.825 1.09-1.917 1.09-3.275 0-1.34-.363-2.417-1.09-3.232-.728-.815-1.713-1.222-2.956-1.222-1.223 0-2.203.407-2.94 1.222-.738.815-1.106 1.893-1.106 3.232 0 1.358.368 2.45 1.106 3.275m-2.722-8.85c1.485-1.446 3.362-2.17 5.633-2.17 2.33 0 4.231.719 5.706 2.155 1.475 1.436 2.213 3.3 2.213 5.59 0 2.27-.748 4.138-2.242 5.604-1.494 1.465-3.386 2.198-5.677 2.198-2.29 0-4.173-.718-5.647-2.154-1.476-1.437-2.213-3.319-2.213-5.648 0-2.271.742-4.13 2.227-5.576M174.882 22.485c-2.658-.233-3.988 1.067-3.988 3.9v6.93h-3.843V18.467h3.843v2.62c.02-.077.058-.184.117-.32.058-.136.203-.373.436-.713.233-.34.495-.64.786-.903.291-.262.704-.49 1.237-.684a4.6 4.6 0 0 1 1.732-.262l-.32 4.28zM176.657 18.496h2.096V15.09l3.843-.99v4.396h2.736v2.882h-2.736v7.22c0 .64.092 1.092.276 1.354.184.262.52.393 1.005.393.446 0 .97-.087 1.572-.262v2.999a9.556 9.556 0 0 1-3.086.524c-2.407 0-3.61-1.281-3.61-3.843v-8.385h-2.096v-2.882zM192.1 29.05c.709.805 1.684 1.208 2.926 1.208 1.262 0 2.261-.389 3-1.164.736-.777 1.105-1.845 1.105-3.203 0-1.34-.378-2.397-1.135-3.174-.757-.776-1.766-1.164-3.028-1.164-1.203 0-2.159.398-2.867 1.194-.709.796-1.063 1.843-1.063 3.144 0 1.3.354 2.353 1.063 3.158zm10.787 4.264h-3.843v-1.862a12.35 12.35 0 0 1-.16.232c-.068.097-.243.263-.524.495a6.481 6.481 0 0 1-.903.626c-.32.184-.761.354-1.324.51a6.636 6.636 0 0 1-1.776.233c-2.077 0-3.79-.636-5.139-1.907-1.349-1.272-2.023-3.15-2.023-5.634 0-2.368.694-4.255 2.081-5.662 1.389-1.407 3.082-2.11 5.081-2.11.99 0 1.873.164 2.65.494.775.33 1.31.66 1.6.99l.437.495v-1.718h3.843v14.818z" mask="url(#b)"/>
        <path fill="#EB323C" d="M44.926 22.15c0 11.889-11.512 22.776-23.4 22.776C9.637 44.926 0 34.664 0 22.776 0 10.888 10.887 0 22.776 0c11.888 0 22.15 10.263 22.15 22.15" mask="url(#b)"/>
        <path fill="#FFF" d="M33.54 13.786c-1.177-1.176-2.637-1.773-4.341-1.773-1.702 0-3.176.596-4.38 1.77-1.206 1.177-1.818 2.638-1.818 4.344 0 1.642.626 3.891 2.462 6.875l5.377 8.376a.333.333 0 0 0 .62-.171l.082-9.486a5.867 5.867 0 0 0 2.661-2.091 5.912 5.912 0 0 0 1.11-3.503c0-1.704-.597-3.164-1.773-4.34M15.186 12.013c-1.702 0-3.176.596-4.38 1.77-1.206 1.177-1.818 2.638-1.818 4.343 0 1.416.652 3.637 2.545 6.79l5.377 8.46a.335.335 0 0 0 .62-.172V23.72a6.111 6.111 0 0 0 2.699-2.085 5.76 5.76 0 0 0 1.155-3.509c0-1.705-.612-3.166-1.818-4.343-1.204-1.174-2.678-1.77-4.38-1.77" mask="url(#b)"/>
    </g>
</svg>
