<svg width="203" height="45" viewBox="0 0 203 45" fill="none" xmlns="http://www.w3.org/2000/svg">
<path fill-rule="evenodd" clip-rule="evenodd" d="M60.2226 26.2399C59.5241 23.9499 58.9998 21.8246 58.6504 19.8643C58.6504 19.8837 58.612 20.2233 58.5341 20.883C58.4563 21.543 58.3498 22.3921 58.2138 23.4305C58.0779 24.4687 57.9516 25.4149 57.8354 26.269L56.8166 33.3146H52.7988L56.176 12.6733H59.9026L62.7845 22.2805C63.2891 23.9887 63.7838 26.0458 64.2695 28.4524C64.832 25.6768 65.3076 23.6196 65.6957 22.2805L68.4616 12.6733H72.1879L75.5651 33.3146H71.4895L70.4995 26.298C70.2279 24.5318 69.9557 22.3874 69.6841 19.8643C69.6841 19.8837 69.6066 20.2283 69.4516 20.8977C69.296 21.5674 69.0876 22.4212 68.8254 23.4599C68.5635 24.498 68.316 25.4349 68.0829 26.269L65.987 33.3146H62.3188L60.2226 26.2399Z" fill="#17285D"/>
<path fill-rule="evenodd" clip-rule="evenodd" d="M88.4887 24.4058C88.4887 24.3286 88.4744 24.2214 88.4453 24.0858C88.4159 23.9499 88.3187 23.7027 88.1537 23.3436C87.9891 22.9839 87.7853 22.6736 87.5428 22.4114C87.3 22.1495 86.9409 21.907 86.4653 21.6839C85.99 21.4605 85.4416 21.3489 84.8203 21.3489C84.1803 21.3489 83.6172 21.4561 83.1322 21.6689C82.6466 21.8827 82.2875 22.1349 82.055 22.4261C81.8222 22.7174 81.6278 23.0133 81.4725 23.3145C81.3175 23.6149 81.2203 23.8724 81.1816 24.0858L81.1525 24.4058H88.4887ZM91.6912 31.0433C91.6331 31.1214 91.5506 31.2133 91.4438 31.3205C91.3372 31.4274 91.0897 31.6305 90.7016 31.9314C90.3131 32.2327 89.8959 32.4945 89.4494 32.7177C89.0031 32.9408 88.4112 33.1445 87.6737 33.3289C86.9362 33.5136 86.1597 33.6055 85.3444 33.6055C82.7437 33.6055 80.7303 32.9164 79.3038 31.5383C77.8772 30.1605 77.1641 28.268 77.1641 25.8617C77.1641 23.5908 77.8869 21.737 79.3328 20.3008C80.7788 18.8649 82.6081 18.1467 84.8203 18.1467C87.2272 18.1467 89.1097 18.9083 90.4684 20.4317C91.8272 21.9555 92.5063 24.008 92.5063 26.5889V27.2589H81.1525C81.1909 27.5308 81.2688 27.817 81.3853 28.118C81.5016 28.4189 81.7006 28.7533 81.9822 29.1224C82.2634 29.4911 82.7003 29.7964 83.2922 30.0392C83.8844 30.2824 84.5878 30.4033 85.4028 30.4033C86.1791 30.4033 86.9166 30.2524 87.6153 29.952C88.3141 29.6511 88.8087 29.3552 89.1003 29.0639L89.5659 28.5983L91.6912 31.0433Z" fill="#17285D"/>
<path fill-rule="evenodd" clip-rule="evenodd" d="M99.4034 29.0495C100.122 29.8551 101.092 30.2576 102.314 30.2576C103.596 30.2576 104.605 29.8645 105.342 29.0786C106.08 28.2923 106.449 27.2201 106.449 25.862C106.449 24.5417 106.065 23.4839 105.299 22.6883C104.532 21.8926 103.527 21.4945 102.285 21.4945C101.082 21.4945 100.122 21.8973 99.4034 22.7026C98.6853 23.5089 98.3262 24.5617 98.3262 25.862C98.3262 27.1811 98.6853 28.2442 99.4034 29.0495V29.0495ZM110.204 33.3145H106.361V31.4517C106.322 31.5095 106.264 31.5873 106.187 31.6845C106.109 31.7814 105.934 31.9467 105.663 32.1789C105.391 32.412 105.09 32.6208 104.76 32.8051C104.43 32.9895 103.988 33.1595 103.436 33.3145C102.882 33.4701 102.295 33.548 101.674 33.548C99.5781 33.548 97.8556 32.907 96.5065 31.6258C95.1581 30.3451 94.4834 28.4526 94.4834 25.9489C94.4834 23.5817 95.1771 21.6936 96.565 20.2864C97.9528 18.8792 99.6556 18.1758 101.674 18.1758C102.664 18.1758 103.547 18.3408 104.324 18.6708C105.1 19.0008 105.634 19.3308 105.925 19.6605L106.361 20.1555V12.6736H110.204V33.3145Z" fill="#17285D"/>
<path fill-rule="evenodd" clip-rule="evenodd" d="M113.811 33.3146H117.625V18.4668H113.811V33.3146ZM113.942 12.5862C114.417 12.1203 115.005 11.8875 115.703 11.8875C116.402 11.8875 116.994 12.1203 117.48 12.5862C117.965 13.0521 118.207 13.634 118.207 14.3328C118.207 15.0121 117.965 15.5846 117.48 16.0506C116.994 16.5165 116.402 16.7493 115.703 16.7493C115.024 16.7493 114.442 16.5165 113.957 16.0506C113.471 15.5846 113.229 15.0121 113.229 14.3328C113.229 13.634 113.467 13.0521 113.942 12.5862V12.5862Z" fill="#17285D"/>
<path fill-rule="evenodd" clip-rule="evenodd" d="M125.383 29.0494C126.091 29.8551 127.066 30.2576 128.308 30.2576C129.57 30.2576 130.569 29.8694 131.307 29.0935C132.044 28.3169 132.413 27.2491 132.413 25.891C132.413 24.5516 132.035 23.4938 131.278 22.7173C130.521 21.941 129.512 21.5532 128.25 21.5532C127.047 21.5532 126.091 21.9507 125.383 22.7466C124.674 23.5426 124.32 24.5904 124.32 25.891C124.32 27.1913 124.674 28.2441 125.383 29.0494V29.0494ZM136.169 33.3144H132.325V31.4516C132.287 31.5094 132.234 31.5873 132.165 31.6844C132.097 31.7813 131.923 31.9466 131.641 32.1788C131.36 32.4119 131.059 32.6207 130.739 32.8051C130.419 32.9894 129.977 33.1594 129.415 33.3144C128.852 33.4701 128.26 33.5479 127.639 33.5479C125.562 33.5479 123.85 32.9116 122.5 31.6407C121.152 30.3694 120.477 28.4913 120.477 26.0073C120.477 23.6394 121.171 21.7516 122.559 20.3451C123.946 18.9379 125.64 18.2341 127.639 18.2341C128.629 18.2341 129.512 18.3991 130.288 18.7288C131.064 19.0588 131.598 19.3888 131.889 19.7188L132.325 20.2138V18.496H136.169V33.3144Z" fill="#17285D"/>
<path fill-rule="evenodd" clip-rule="evenodd" d="M138.466 18.4668H140.475V17.0693C140.475 15.4002 140.834 14.1921 141.552 13.4452C142.27 12.6974 143.357 12.324 144.813 12.324C145.278 12.324 145.739 12.3483 146.195 12.3968C146.651 12.4452 146.996 12.489 147.229 12.5277L147.549 12.5862V15.5265C146.909 15.4293 146.336 15.3808 145.832 15.3808C145.288 15.3808 144.905 15.5118 144.682 15.774C144.459 16.0358 144.347 16.5165 144.347 17.2149V18.4668H147.2V21.4074H144.347V33.3146H140.475V21.4074H138.466V18.4668Z" fill="#17285D"/>
<path fill-rule="evenodd" clip-rule="evenodd" d="M153.313 29.1371C154.05 29.9617 155.031 30.3742 156.253 30.3742C157.496 30.3742 158.481 29.9617 159.209 29.1371C159.936 28.3121 160.3 27.2202 160.3 25.8621C160.3 24.5227 159.936 23.4455 159.209 22.6302C158.481 21.8149 157.496 21.4077 156.253 21.4077C155.031 21.4077 154.05 21.8149 153.313 22.6302C152.576 23.4455 152.207 24.5227 152.207 25.8621C152.207 27.2202 152.576 28.3121 153.313 29.1371M150.591 20.2864C152.076 18.8408 153.953 18.1177 156.224 18.1177C158.554 18.1177 160.455 18.8358 161.93 20.2721C163.406 21.7083 164.143 23.5714 164.143 25.8621C164.143 28.1324 163.396 30.0005 161.901 31.4658C160.407 32.9311 158.515 33.6636 156.224 33.6636C153.934 33.6636 152.051 32.9458 150.577 31.5096C149.102 30.0733 148.364 28.1911 148.364 25.8621C148.364 23.5908 149.107 21.7327 150.591 20.2864" fill="#17285D"/>
<path fill-rule="evenodd" clip-rule="evenodd" d="M174.883 22.4845C172.224 22.2517 170.894 23.5517 170.894 26.3857V33.3145H167.051V18.467H170.894V21.087C170.914 21.0095 170.952 20.9026 171.011 20.767C171.069 20.6307 171.214 20.3935 171.447 20.0535C171.68 19.7139 171.942 19.4132 172.233 19.151C172.524 18.8892 172.937 18.6614 173.47 18.467C174.004 18.2726 174.582 18.1854 175.203 18.2048L174.883 22.4845Z" fill="#17285D"/>
<path fill-rule="evenodd" clip-rule="evenodd" d="M176.657 18.4963H178.753V15.09L182.595 14.1003V18.4963H185.332V21.3782H182.595V28.5985C182.595 29.2385 182.688 29.6903 182.872 29.9522C183.056 30.2144 183.391 30.3453 183.877 30.3453C184.323 30.3453 184.847 30.2578 185.449 30.0835V33.0819C184.42 33.431 183.391 33.606 182.363 33.606C179.956 33.606 178.753 32.3247 178.753 29.7628V21.3782H176.657V18.4963Z" fill="#17285D"/>
<path fill-rule="evenodd" clip-rule="evenodd" d="M192.101 29.0494C192.809 29.8551 193.784 30.2576 195.026 30.2576C196.288 30.2576 197.287 29.8694 198.025 29.0935C198.762 28.3169 199.132 27.2491 199.132 25.891C199.132 24.5516 198.753 23.4938 197.996 22.7173C197.239 21.941 196.23 21.5532 194.968 21.5532C193.765 21.5532 192.809 21.9507 192.101 22.7466C191.392 23.5426 191.038 24.5904 191.038 25.891C191.038 27.1913 191.392 28.2441 192.101 29.0494V29.0494ZM202.887 33.3144H199.044V31.4516C199.006 31.5094 198.952 31.5873 198.884 31.6844C198.816 31.7813 198.642 31.9466 198.36 32.1788C198.078 32.4119 197.778 32.6207 197.458 32.8051C197.137 32.9894 196.696 33.1594 196.133 33.3144C195.57 33.4701 194.978 33.5479 194.357 33.5479C192.28 33.5479 190.568 32.9116 189.218 31.6407C187.869 30.3694 187.195 28.4913 187.195 26.0073C187.195 23.6394 187.889 21.7516 189.277 20.3451C190.665 18.9379 192.358 18.2341 194.357 18.2341C195.347 18.2341 196.23 18.3991 197.006 18.7288C197.783 19.0588 198.317 19.3888 198.608 19.7188L199.044 20.2138V18.496H202.887V33.3144Z" fill="#17285D"/>
<path fill-rule="evenodd" clip-rule="evenodd" d="M44.9263 22.1506C44.9263 34.0388 33.4141 44.9263 21.5256 44.9263C9.6375 44.9263 0 34.6638 0 22.7756C0 10.8875 10.8875 0 22.7756 0C34.6641 0 44.9263 10.2625 44.9263 22.1506" fill="#504FFF"/>
<path fill-rule="evenodd" clip-rule="evenodd" d="M10.8067 13.7833C12.0105 12.6086 13.4842 12.0127 15.1861 12.0127C16.8883 12.0127 18.362 12.6086 19.5658 13.7833C20.7723 14.9599 21.3842 16.4208 21.3842 18.1264C21.3842 19.423 20.9955 20.603 20.2289 21.6349C19.5148 22.5958 18.6083 23.2961 17.5308 23.7202V33.2043C17.5308 33.3543 17.4308 33.4858 17.2861 33.5261C17.2564 33.5346 17.2261 33.5386 17.1964 33.5386C17.0814 33.5386 16.9717 33.4789 16.9098 33.3768L11.5333 24.9168C9.64047 21.763 8.98828 19.5421 8.98828 18.1264C8.98828 16.4211 9.60016 14.9602 10.8067 13.7833ZM29.1988 12.0127C30.9025 12.0127 32.3629 12.6096 33.5397 13.7864C34.7163 14.963 35.3129 16.4233 35.3129 18.1268C35.3129 19.4199 34.9394 20.5986 34.2035 21.6299C33.5147 22.5939 32.62 23.2964 31.5416 23.7208L31.4594 33.2071C31.4582 33.3561 31.3582 33.4864 31.2144 33.5264C31.1844 33.5346 31.1547 33.5386 31.125 33.5386C31.0104 33.5386 30.9013 33.4796 30.8397 33.378L25.4629 25.0018C23.6266 22.018 23.001 19.7686 23.001 18.1268C23.001 16.4211 23.6129 14.9599 24.8194 13.7833C26.0232 12.6086 27.4969 12.0127 29.1988 12.0127Z" fill="white"/>
</svg>
