<svg xmlns="http://www.w3.org/2000/svg" xmlns:xlink="http://www.w3.org/1999/xlink" width="190" height="42" viewBox="0 0 190 42">
    <defs>
        <path id="a" d="M0 41.931h189.361V0H0z"/>
    </defs>
    <g fill="none" fill-rule="evenodd">
        <path fill="#FFF" d="M56.208 24.49c-.652-2.137-1.142-4.12-1.468-5.95 0 .018-.035.335-.108.95-.073.617-.172 1.41-.3 2.379a529.1 529.1 0 0 1-.352 2.649l-.951 6.576h-3.75l3.152-19.265h3.478l2.69 8.966c.47 1.595.933 3.515 1.386 5.76.525-2.59.969-4.51 1.331-5.76l2.582-8.966h3.477l3.152 19.265h-3.803l-.924-6.55c-.254-1.648-.508-3.649-.761-6.004 0 .018-.073.34-.217.965-.146.625-.34 1.422-.585 2.391-.244.969-.475 1.843-.693 2.622l-1.956 6.576h-3.424l-1.956-6.603zM82.59 22.779c0-.072-.014-.172-.041-.299-.028-.127-.118-.357-.272-.693a3.28 3.28 0 0 0-.57-.87c-.227-.244-.562-.47-1.006-.679-.444-.208-.956-.312-1.536-.312-.597 0-1.123.1-1.575.298-.453.2-.789.435-1.006.707a5.005 5.005 0 0 0-.543.83c-.145.28-.236.52-.272.72l-.027.298h6.847zm2.988 6.195a2.499 2.499 0 0 1-.23.259c-.1.1-.331.289-.693.57a7.023 7.023 0 0 1-1.17.734c-.416.208-.968.398-1.656.57a8.92 8.92 0 0 1-2.175.258c-2.427 0-4.306-.643-5.637-1.93-1.332-1.285-1.997-3.051-1.997-5.297 0-2.12.674-3.85 2.024-5.19 1.35-1.34 3.057-2.01 5.121-2.01 2.247 0 4.004.71 5.272 2.132 1.268 1.422 1.902 3.338 1.902 5.746v.626H75.742c.036.254.109.52.217.802.109.28.295.593.557.937.263.344.67.63 1.223.856.553.227 1.21.34 1.97.34.725 0 1.413-.141 2.065-.422.652-.28 1.114-.557 1.386-.829l.435-.434 1.983 2.282zM92.776 27.113c.67.752 1.577 1.127 2.717 1.127 1.196 0 2.138-.366 2.826-1.1.689-.734 1.033-1.735 1.033-3.002 0-1.232-.358-2.22-1.073-2.962-.716-.743-1.654-1.114-2.813-1.114-1.123 0-2.02.375-2.69 1.127-.67.753-1.005 1.735-1.005 2.949 0 1.231.335 2.223 1.005 2.975zm10.081 3.98H99.27v-1.738c-.036.054-.09.126-.162.217-.073.09-.236.245-.49.462a5.134 5.134 0 0 1-.842.584c-.308.172-.72.33-1.236.476a6.046 6.046 0 0 1-1.644.217c-1.957 0-3.564-.598-4.823-1.794-1.259-1.195-1.889-2.961-1.889-5.298 0-2.21.648-3.972 1.943-5.285 1.295-1.313 2.885-1.97 4.769-1.97.923 0 1.747.154 2.473.462.724.308 1.222.616 1.494.924l.407.462v-6.983h3.587v19.265z"/>
        <mask id="b" fill="#fff">
            <use xlink:href="#a"/>
        </mask>
        <path fill="#FFF" d="M106.224 31.094h3.559V17.236h-3.56v13.858zm.122-19.347c.444-.435.992-.652 1.644-.652.652 0 1.205.217 1.658.652.452.435.679.978.679 1.63 0 .634-.227 1.169-.68 1.604-.452.434-1.005.652-1.657.652a2.27 2.27 0 0 1-1.63-.652 2.134 2.134 0 0 1-.68-1.604c0-.652.223-1.195.666-1.63zM117.024 27.113c.66.752 1.57 1.127 2.73 1.127 1.178 0 2.11-.362 2.799-1.086.688-.725 1.032-1.721 1.032-2.989 0-1.25-.353-2.237-1.06-2.962-.706-.725-1.647-1.087-2.825-1.087-1.123 0-2.016.371-2.676 1.114-.662.743-.992 1.721-.992 2.935s.33 2.196.992 2.948zm10.067 3.98h-3.587v-1.738c-.036.054-.086.126-.15.217-.063.09-.226.245-.489.462a6.05 6.05 0 0 1-.842.584c-.299.172-.711.33-1.236.476a6.193 6.193 0 0 1-1.658.217c-1.938 0-3.536-.593-4.796-1.78-1.258-1.186-1.888-2.94-1.888-5.258 0-2.21.647-3.971 1.943-5.284 1.295-1.314 2.875-1.97 4.741-1.97.924 0 1.749.154 2.473.461.724.308 1.223.616 1.494.924l.408.462v-1.603h3.587v13.83zM129.235 17.236h1.875V15.93c0-1.557.335-2.685 1.005-3.382.67-.698 1.685-1.047 3.044-1.047.434 0 .864.023 1.29.068.425.046.747.086.965.123l.298.054v2.744a10.795 10.795 0 0 0-1.602-.135c-.508 0-.865.122-1.074.366-.208.245-.312.693-.312 1.345v1.169h2.663v2.744h-2.663v11.114h-3.614V19.98h-1.875v-2.744zM143.092 27.195c.688.77 1.603 1.154 2.744 1.154 1.16 0 2.08-.385 2.759-1.154.678-.77 1.018-1.79 1.018-3.057 0-1.25-.34-2.256-1.018-3.017-.68-.76-1.599-1.14-2.759-1.14-1.14 0-2.056.38-2.744 1.14-.688.761-1.032 1.767-1.032 3.017 0 1.267.344 2.287 1.032 3.057m-2.54-8.261c1.385-1.35 3.138-2.024 5.257-2.024 2.175 0 3.95.67 5.326 2.01 1.377 1.341 2.065 3.08 2.065 5.218 0 2.119-.698 3.862-2.092 5.23-1.395 1.368-3.16 2.051-5.299 2.051-2.137 0-3.895-.67-5.27-2.01-1.378-1.34-2.066-3.097-2.066-5.271 0-2.12.693-3.854 2.078-5.204M163.224 20.986c-2.482-.218-3.723.996-3.723 3.64v6.468h-3.587V17.236h3.587v2.445c.019-.072.054-.172.109-.298.054-.128.19-.349.407-.666.218-.317.462-.598.734-.843.272-.244.657-.457 1.155-.638a4.293 4.293 0 0 1 1.616-.245l-.298 3.995zM164.88 17.263h1.956v-3.18l3.587-.923v4.103h2.554v2.69h-2.554v6.739c0 .597.086 1.019.258 1.263.172.245.484.367.937.367.417 0 .906-.081 1.468-.244v2.798c-.96.326-1.92.49-2.88.49-2.247 0-3.37-1.196-3.37-3.587v-7.826h-1.956v-2.69zM179.294 27.113c.661.752 1.571 1.127 2.73 1.127 1.178 0 2.11-.362 2.8-1.086.688-.725 1.032-1.721 1.032-2.989 0-1.25-.353-2.237-1.06-2.962-.706-.725-1.648-1.087-2.826-1.087-1.123 0-2.015.371-2.676 1.114-.661.743-.992 1.721-.992 2.935s.33 2.196.992 2.948zm10.067 3.98h-3.587v-1.738c-.036.054-.086.126-.15.217-.063.09-.225.245-.488.462a6.05 6.05 0 0 1-.842.584c-.3.172-.712.33-1.237.476a6.193 6.193 0 0 1-1.657.217c-1.939 0-3.537-.593-4.796-1.78-1.26-1.186-1.888-2.94-1.888-5.258 0-2.21.647-3.971 1.942-5.284 1.296-1.314 2.876-1.97 4.742-1.97.924 0 1.748.154 2.472.461.725.308 1.223.616 1.495.924l.407.462v-1.603h3.587v13.83z" mask="url(#b)"/>
        <path fill="#EB323C" d="M41.931 20.674c0 11.096-10.745 21.257-21.84 21.257C8.994 41.931 0 32.353 0 21.257 0 10.162 10.162 0 21.257 0c11.096 0 20.674 9.578 20.674 20.674" mask="url(#b)"/>
        <path fill="#FFF" d="M31.304 12.867c-1.099-1.098-2.462-1.655-4.052-1.655-1.588 0-2.964.556-4.087 1.652-1.126 1.099-1.697 2.462-1.697 4.054 0 1.533.583 3.632 2.297 6.417l5.019 7.818a.311.311 0 0 0 .578-.16l.077-8.854a5.475 5.475 0 0 0 2.484-1.951 5.518 5.518 0 0 0 1.036-3.27c0-1.59-.557-2.953-1.655-4.05M14.174 11.212c-1.589 0-2.964.556-4.088 1.652-1.126 1.099-1.697 2.462-1.697 4.054 0 1.321.609 3.394 2.375 6.338l5.018 7.896a.313.313 0 0 0 .58-.161v-8.852a5.704 5.704 0 0 0 2.518-1.946 5.377 5.377 0 0 0 1.079-3.275c0-1.592-.572-2.955-1.698-4.054-1.123-1.096-2.499-1.652-4.087-1.652" mask="url(#b)"/>
    </g>
</svg>
