<?xml version="1.0" encoding="UTF-8"?>
<svg width="316px" height="45px" viewBox="0 0 316 45" version="1.1" xmlns="http://www.w3.org/2000/svg" xmlns:xlink="http://www.w3.org/1999/xlink">
    <title>Top Nav</title>
    <g id="Page-1" stroke="none" stroke-width="1" fill="none" fill-rule="evenodd">
        <g id="Top-Nav">
            <path d="M60.223,26.2399 C59.524,23.9499 59,21.8246 58.651,19.8643 C58.651,19.8837 58.612,20.2233 58.534,20.883 C58.457,21.543 58.35,22.3921 58.214,23.4305 C58.078,24.4687 57.952,25.4149 57.836,26.269 L56.817,33.3146 L52.799,33.3146 L56.176,12.6733 L59.903,12.6733 L62.785,22.2805 C63.289,23.9887 63.784,26.0458 64.27,28.4524 C64.832,25.6768 65.308,23.6196 65.696,22.2805 L68.462,12.6733 L72.188,12.6733 L75.565,33.3146 L71.49,33.3146 L70.5,26.298 C70.228,24.5318 69.956,22.3874 69.684,19.8643 C69.684,19.8837 69.607,20.2283 69.452,20.8977 C69.296,21.5674 69.088,22.4212 68.826,23.4599 C68.564,24.498 68.316,25.4349 68.083,26.269 L65.987,33.3146 L62.319,33.3146 L60.223,26.2399 Z" id="Path" fill="#272E45"></path>
            <path d="M88.489,24.4055 C88.489,24.3284 88.474,24.2212 88.445,24.0855 C88.416,23.9496 88.319,23.7024 88.154,23.3434 C87.989,22.9837 87.785,22.6734 87.543,22.4112 C87.3,22.1493 86.941,21.9068 86.465,21.6837 C85.99,21.4602 85.441,21.3487 84.82,21.3487 C84.18,21.3487 83.617,21.4559 83.132,21.6687 C82.646,21.8824 82.287,22.1346 82.055,22.4259 C81.822,22.7171 81.628,23.013 81.472,23.3143 C81.317,23.6146 81.22,23.8721 81.181,24.0855 L81.152,24.4055 L88.489,24.4055 Z M91.691,31.043 C91.633,31.1212 91.55,31.213 91.444,31.3202 C91.337,31.4271 91.089,31.6302 90.701,31.9312 C90.313,32.2324 89.896,32.4943 89.449,32.7174 C89.003,32.9405 88.411,33.1443 87.674,33.3287 C86.936,33.5134 86.159,33.6052 85.344,33.6052 C82.744,33.6052 80.73,32.9162 79.304,31.538 C77.877,30.1602 77.164,28.2677 77.164,25.8615 C77.164,23.5905 77.887,21.7368 79.333,20.3005 C80.779,18.8646 82.608,18.1465 84.82,18.1465 C87.227,18.1465 89.109,18.908 90.468,20.4315 C91.827,21.9552 92.506,24.0077 92.506,26.5887 L92.506,27.2587 L81.152,27.2587 C81.191,27.5305 81.269,27.8168 81.385,28.1177 C81.501,28.4187 81.7,28.753 81.982,29.1221 C82.263,29.4909 82.7,29.7962 83.292,30.039 C83.884,30.2821 84.588,30.403 85.403,30.403 C86.179,30.403 86.916,30.2521 87.615,29.9518 C88.314,29.6509 88.809,29.3549 89.1,29.0637 L89.566,28.598 L91.691,31.043 Z" id="Shape" fill="#272E45"></path>
            <path d="M99.403,29.0498 C100.122,29.8554 101.092,30.2579 102.314,30.2579 C103.596,30.2579 104.605,29.8648 105.342,29.0788 C106.08,28.2926 106.449,27.2204 106.449,25.8623 C106.449,24.542 106.065,23.4841 105.299,22.6885 C104.532,21.8929 103.527,21.4948 102.285,21.4948 C101.082,21.4948 100.122,21.8976 99.403,22.7029 C98.685,23.5091 98.326,24.562 98.326,25.8623 C98.326,27.1813 98.685,28.2445 99.403,29.0498 Z M110.204,33.3148 L106.361,33.3148 L106.361,31.452 C106.322,31.5098 106.264,31.5876 106.187,31.6848 C106.109,31.7816 105.934,31.947 105.663,32.1791 C105.391,32.4123 105.09,32.621 104.76,32.8054 C104.43,32.9898 103.988,33.1598 103.436,33.3148 C102.882,33.4704 102.295,33.5482 101.674,33.5482 C99.578,33.5482 97.856,32.9073 96.507,31.626 C95.158,30.3454 94.483,28.4529 94.483,25.9491 C94.483,23.582 95.177,21.6938 96.565,20.2866 C97.953,18.8795 99.656,18.176 101.674,18.176 C102.664,18.176 103.547,18.341 104.324,18.671 C105.1,19.001 105.634,19.331 105.925,19.6607 L106.361,20.1557 L106.361,12.6738 L110.204,12.6738 L110.204,33.3148 Z" id="Shape" fill="#272E45"></path>
            <path d="M113.811,33.3149 L117.625,33.3149 L117.625,18.4671 L113.811,18.4671 L113.811,33.3149 Z M113.942,12.5864 C114.418,12.1205 115.005,11.8877 115.704,11.8877 C116.402,11.8877 116.995,12.1205 117.48,12.5864 C117.965,13.0524 118.208,13.6343 118.208,14.333 C118.208,15.0124 117.965,15.5849 117.48,16.0508 C116.995,16.5168 116.402,16.7496 115.704,16.7496 C115.025,16.7496 114.442,16.5168 113.957,16.0508 C113.471,15.5849 113.229,15.0124 113.229,14.333 C113.229,13.6343 113.467,13.0524 113.942,12.5864 Z" id="Shape" fill="#272E45"></path>
            <path d="M125.382,29.0497 C126.091,29.8553 127.066,30.2578 128.308,30.2578 C129.57,30.2578 130.569,29.8697 131.307,29.0938 C132.044,28.3172 132.413,27.2494 132.413,25.8912 C132.413,24.5519 132.034,23.4941 131.278,22.7175 C130.521,21.9412 129.512,21.5534 128.25,21.5534 C127.046,21.5534 126.091,21.9509 125.382,22.7469 C124.674,23.5428 124.32,24.5906 124.32,25.8912 C124.32,27.1916 124.674,28.2444 125.382,29.0497 Z M136.169,33.3147 L132.325,33.3147 L132.325,31.4519 C132.287,31.5097 132.233,31.5875 132.165,31.6847 C132.097,31.7816 131.923,31.9469 131.641,32.1791 C131.36,32.4122 131.059,32.6209 130.739,32.8053 C130.419,32.9897 129.977,33.1597 129.415,33.3147 C128.852,33.4703 128.26,33.5481 127.639,33.5481 C125.561,33.5481 123.849,32.9119 122.5,31.6409 C121.151,30.3697 120.477,28.4916 120.477,26.0075 C120.477,23.6397 121.171,21.7519 122.559,20.3453 C123.946,18.9381 125.639,18.2344 127.639,18.2344 C128.629,18.2344 129.512,18.3994 130.288,18.7291 C131.064,19.0591 131.598,19.3891 131.889,19.7191 L132.325,20.2141 L132.325,18.4963 L136.169,18.4963 L136.169,33.3147 Z" id="Shape" fill="#272E45"></path>
            <path d="M138.466,18.467 L140.475,18.467 L140.475,17.0695 C140.475,15.4005 140.834,14.1923 141.552,13.4455 C142.27,12.6977 143.357,12.3242 144.813,12.3242 C145.278,12.3242 145.739,12.3486 146.195,12.397 C146.651,12.4455 146.996,12.4892 147.229,12.528 L147.549,12.5864 L147.549,15.5267 C146.909,15.4295 146.336,15.3811 145.832,15.3811 C145.288,15.3811 144.905,15.512 144.682,15.7742 C144.459,16.0361 144.347,16.5167 144.347,17.2152 L144.347,18.467 L147.2,18.467 L147.2,21.4077 L144.347,21.4077 L144.347,33.3148 L140.475,33.3148 L140.475,21.4077 L138.466,21.4077 L138.466,18.467 Z" id="Path" fill="#272E45"></path>
            <path d="M153.313,29.1371 C154.05,29.9617 155.031,30.3742 156.253,30.3742 C157.496,30.3742 158.481,29.9617 159.209,29.1371 C159.936,28.3121 160.3,27.2202 160.3,25.8621 C160.3,24.5227 159.936,23.4455 159.209,22.6302 C158.481,21.8149 157.496,21.4077 156.253,21.4077 C155.031,21.4077 154.05,21.8149 153.313,22.6302 C152.576,23.4455 152.207,24.5227 152.207,25.8621 C152.207,27.2202 152.576,28.3121 153.313,29.1371 Z M150.591,20.2864 C152.076,18.8408 153.953,18.1177 156.224,18.1177 C158.554,18.1177 160.455,18.8358 161.93,20.2721 C163.406,21.7083 164.143,23.5714 164.143,25.8621 C164.143,28.1324 163.396,30.0005 161.901,31.4658 C160.407,32.9311 158.515,33.6636 156.224,33.6636 C153.934,33.6636 152.051,32.9458 150.577,31.5096 C149.102,30.0733 148.364,28.1911 148.364,25.8621 C148.364,23.5908 149.107,21.7327 150.591,20.2864 Z" id="Shape" fill="#272E45"></path>
            <path d="M174.883,22.4845 C172.224,22.2517 170.894,23.5517 170.894,26.3857 L170.894,33.3145 L167.051,33.3145 L167.051,18.467 L170.894,18.467 L170.894,21.087 C170.914,21.0095 170.952,20.9026 171.011,20.767 C171.069,20.6307 171.214,20.3935 171.447,20.0535 C171.68,19.7139 171.942,19.4132 172.233,19.151 C172.524,18.8892 172.937,18.6614 173.47,18.467 C174.004,18.2726 174.582,18.1854 175.203,18.2048 L174.883,22.4845 Z" id="Path" fill="#272E45"></path>
            <path d="M176.657,18.4965 L178.753,18.4965 L178.753,15.0903 L182.596,14.1006 L182.596,18.4965 L185.332,18.4965 L185.332,21.3784 L182.596,21.3784 L182.596,28.5987 C182.596,29.2387 182.688,29.6906 182.873,29.9525 C183.057,30.2146 183.392,30.3456 183.877,30.3456 C184.323,30.3456 184.847,30.2581 185.449,30.0837 L185.449,33.0821 C184.42,33.4312 183.392,33.6062 182.363,33.6062 C179.956,33.6062 178.753,32.325 178.753,29.7631 L178.753,21.3784 L176.657,21.3784 L176.657,18.4965 Z" id="Path" fill="#272E45"></path>
            <path d="M192.101,29.0497 C192.809,29.8553 193.784,30.2578 195.026,30.2578 C196.288,30.2578 197.288,29.8697 198.025,29.0938 C198.762,28.3172 199.132,27.2494 199.132,25.8912 C199.132,24.5519 198.753,23.4941 197.996,22.7175 C197.239,21.9412 196.23,21.5534 194.968,21.5534 C193.765,21.5534 192.809,21.9509 192.101,22.7469 C191.392,23.5428 191.038,24.5906 191.038,25.8912 C191.038,27.1916 191.392,28.2444 192.101,29.0497 Z M202.887,33.3147 L199.044,33.3147 L199.044,31.4519 C199.006,31.5097 198.952,31.5875 198.884,31.6847 C198.816,31.7816 198.642,31.9469 198.36,32.1791 C198.078,32.4122 197.778,32.6209 197.458,32.8053 C197.137,32.9897 196.696,33.1597 196.133,33.3147 C195.57,33.4703 194.978,33.5481 194.357,33.5481 C192.28,33.5481 190.568,32.9119 189.218,31.6409 C187.869,30.3697 187.195,28.4916 187.195,26.0075 C187.195,23.6397 187.889,21.7519 189.277,20.3453 C190.665,18.9381 192.358,18.2344 194.357,18.2344 C195.347,18.2344 196.23,18.3994 197.006,18.7291 C197.783,19.0591 198.317,19.3891 198.608,19.7191 L199.044,20.2141 L199.044,18.4963 L202.887,18.4963 L202.887,33.3147 Z" id="Shape" fill="#272E45"></path>
            <path d="M44.926,22.1506 C44.926,34.0387 33.414,44.9263 21.526,44.9263 C9.6375,44.9263 0,34.6637 0,22.7756 C0,10.8875 10.8875,0 22.776,0 C34.664,0 44.926,10.2625 44.926,22.1506 Z" id="Path" fill="#EB323C"></path>
            <path d="M33.54,13.7864 C32.363,12.6096 30.903,12.0127 29.199,12.0127 C27.497,12.0127 26.023,12.6086 24.819,13.7833 C23.613,14.9599 23.001,16.4211 23.001,18.1268 C23.001,19.7686 23.627,22.018 25.463,25.0018 L30.84,33.378 C30.901,33.4796 31.01,33.5386 31.125,33.5386 C31.155,33.5386 31.184,33.5346 31.214,33.5264 C31.358,33.4864 31.458,33.3561 31.459,33.2071 L31.542,23.7208 C32.62,23.2964 33.515,22.5939 34.203,21.6299 C34.939,20.5986 35.313,19.4199 35.313,18.1268 C35.313,16.4233 34.716,14.963 33.54,13.7864 Z" id="Path" fill="#FFFFFF"></path>
            <path d="M15.186,12.0127 C13.484,12.0127 12.01,12.6086 10.8067,13.7833 C9.6002,14.9602 8.9883,16.4211 8.9883,18.1264 C8.9883,19.5421 9.6405,21.763 11.5333,24.9168 L16.91,33.3768 C16.972,33.4789 17.081,33.5386 17.196,33.5386 C17.226,33.5386 17.256,33.5346 17.286,33.5261 C17.431,33.4858 17.531,33.3543 17.531,33.2043 L17.531,23.7202 C18.608,23.2961 19.515,22.5958 20.229,21.6349 C20.995,20.603 21.384,19.423 21.384,18.1264 C21.384,16.4208 20.772,14.9599 19.566,13.7833 C18.362,12.6086 16.888,12.0127 15.186,12.0127 Z" id="Path" fill="#FFFFFF"></path>
            <path d="M220.4,38.94 L222.23,38.94 L222.23,30.21 L222.44,30.54 C222.56,30.75 222.77,30.99 223.07,31.29 C223.37,31.59 223.76,31.89 224.18,32.19 C224.6,32.49 225.17,32.73 225.89,32.94 C226.58,33.15 227.33,33.24 228.17,33.24 C230.39,33.24 232.19,32.58 233.6,31.2 C235.01,29.82 235.73,27.96 235.73,25.59 C235.73,23.34 235.04,21.48 233.66,20.04 C232.28,18.6 230.48,17.88 228.29,17.88 C227.45,17.88 226.7,18 225.98,18.24 C225.26,18.48 224.69,18.72 224.27,18.99 C223.85,19.29 223.46,19.59 223.1,19.95 C222.74,20.31 222.53,20.58 222.44,20.73 C222.32,20.88 222.26,21 222.23,21.06 L222.23,18.15 L220.4,18.15 L220.4,38.94 Z M233.93,25.59 C233.9,27.39 233.36,28.86 232.31,30 C231.26,31.14 229.88,31.68 228.17,31.68 C226.37,31.68 224.93,31.14 223.82,30 C222.71,28.89 222.17,27.42 222.17,25.56 C222.17,23.76 222.71,22.32 223.85,21.18 C224.96,20.04 226.4,19.47 228.14,19.47 C229.85,19.47 231.23,20.07 232.31,21.21 C233.39,22.35 233.93,23.82 233.93,25.59 Z M253.659,26.31 C253.659,25.53 253.539,24.69 253.329,23.82 C253.089,22.95 252.729,22.05 252.219,21.09 C251.709,20.13 250.929,19.35 249.879,18.75 C248.799,18.15 247.539,17.82 246.099,17.82 C243.939,17.82 242.169,18.54 240.759,19.98 C239.349,21.42 238.659,23.28 238.659,25.53 C238.659,27.93 239.349,29.82 240.789,31.23 C242.229,32.64 244.179,33.33 246.669,33.33 C247.449,33.33 248.199,33.24 248.919,33.06 C249.639,32.88 250.209,32.67 250.629,32.43 C251.049,32.22 251.469,31.95 251.859,31.65 C252.219,31.35 252.459,31.14 252.579,31.02 C252.669,30.9 252.759,30.81 252.819,30.75 L251.679,29.58 L251.169,30.12 C250.839,30.48 250.269,30.84 249.459,31.2 C248.619,31.56 247.719,31.74 246.729,31.74 C244.809,31.74 243.339,31.26 242.289,30.27 C241.209,29.28 240.639,27.96 240.519,26.31 L253.659,26.31 Z M246.099,19.41 C247.089,19.41 247.959,19.62 248.739,20.01 C249.489,20.43 250.059,20.94 250.479,21.57 C250.869,22.2 251.169,22.77 251.379,23.28 C251.559,23.79 251.709,24.27 251.769,24.72 L240.519,24.72 C240.669,23.13 241.239,21.84 242.259,20.88 C243.249,19.92 244.539,19.41 246.099,19.41 Z M256.472,25.53 C256.472,27.81 257.192,29.7 258.692,31.14 C260.162,32.61 261.992,33.33 264.182,33.33 C266.342,33.33 268.142,32.61 269.642,31.14 C271.112,29.67 271.862,27.81 271.862,25.53 C271.862,23.28 271.112,21.42 269.672,19.98 C268.202,18.54 266.372,17.82 264.182,17.82 C261.992,17.82 260.162,18.57 258.692,20.01 C257.192,21.45 256.472,23.31 256.472,25.53 Z M258.302,25.53 C258.302,23.73 258.842,22.26 259.952,21.12 C261.032,19.98 262.442,19.41 264.182,19.41 C265.892,19.41 267.302,19.98 268.382,21.12 C269.462,22.26 270.032,23.73 270.032,25.53 C270.032,27.36 269.462,28.86 268.382,30 C267.272,31.17 265.862,31.74 264.182,31.74 C262.442,31.74 261.032,31.17 259.952,30 C258.842,28.86 258.302,27.36 258.302,25.53 Z M275.771,38.94 L277.601,38.94 L277.601,30.21 L277.811,30.54 C277.931,30.75 278.141,30.99 278.441,31.29 C278.741,31.59 279.131,31.89 279.551,32.19 C279.971,32.49 280.541,32.73 281.261,32.94 C281.951,33.15 282.701,33.24 283.541,33.24 C285.761,33.24 287.561,32.58 288.971,31.2 C290.381,29.82 291.101,27.96 291.101,25.59 C291.101,23.34 290.411,21.48 289.031,20.04 C287.651,18.6 285.851,17.88 283.661,17.88 C282.821,17.88 282.071,18 281.351,18.24 C280.631,18.48 280.061,18.72 279.641,18.99 C279.221,19.29 278.831,19.59 278.471,19.95 C278.111,20.31 277.901,20.58 277.811,20.73 C277.691,20.88 277.631,21 277.601,21.06 L277.601,18.15 L275.771,18.15 L275.771,38.94 Z M289.301,25.59 C289.271,27.39 288.731,28.86 287.681,30 C286.631,31.14 285.251,31.68 283.541,31.68 C281.741,31.68 280.301,31.14 279.191,30 C278.081,28.89 277.541,27.42 277.541,25.56 C277.541,23.76 278.081,22.32 279.221,21.18 C280.331,20.04 281.771,19.47 283.511,19.47 C285.221,19.47 286.601,20.07 287.681,21.21 C288.761,22.35 289.301,23.82 289.301,25.59 Z M296.791,11.73 L294.961,11.73 L294.961,33 L296.791,33 L296.791,11.73 Z M315.652,26.31 C315.652,25.53 315.532,24.69 315.322,23.82 C315.082,22.95 314.722,22.05 314.212,21.09 C313.702,20.13 312.922,19.35 311.872,18.75 C310.792,18.15 309.532,17.82 308.092,17.82 C305.932,17.82 304.162,18.54 302.752,19.98 C301.342,21.42 300.652,23.28 300.652,25.53 C300.652,27.93 301.342,29.82 302.782,31.23 C304.222,32.64 306.172,33.33 308.662,33.33 C309.442,33.33 310.192,33.24 310.912,33.06 C311.632,32.88 312.202,32.67 312.622,32.43 C313.042,32.22 313.462,31.95 313.852,31.65 C314.212,31.35 314.452,31.14 314.572,31.02 C314.662,30.9 314.752,30.81 314.812,30.75 L313.672,29.58 L313.162,30.12 C312.832,30.48 312.262,30.84 311.452,31.2 C310.612,31.56 309.712,31.74 308.722,31.74 C306.802,31.74 305.332,31.26 304.282,30.27 C303.202,29.28 302.632,27.96 302.512,26.31 L315.652,26.31 Z M308.092,19.41 C309.082,19.41 309.952,19.62 310.732,20.01 C311.482,20.43 312.052,20.94 312.472,21.57 C312.862,22.2 313.162,22.77 313.372,23.28 C313.552,23.79 313.702,24.27 313.762,24.72 L302.512,24.72 C302.662,23.13 303.232,21.84 304.252,20.88 C305.242,19.92 306.532,19.41 308.092,19.41 Z" id="Shape" fill="#17285D" fill-rule="nonzero"></path>
        </g>
    </g>
</svg>