<svg xmlns="http://www.w3.org/2000/svg" width="279" height="224" viewBox="0 0 279 224">
    <path fill="#504FFF" fill-rule="evenodd" d="M205.754 41.041c-.062.184-.117.383-.161.617-.05.27.05.582.082.734.103.495-.112 1.156 0 1.708.106.536.238 1.15.323 1.67.015.421.026.843.041 1.26.144.454.55.93.608 1.469.038.345-.223.538-.12.977.146.646.552 1.272.604 1.912l-.12.489c.094.535.493 1.977.567 2.117 2.282 4.408 5.38 9.798 9.113 12.784-.103.005.056.219.08.242.56.498.736 1.302 1.215 1.79.931.948 2.17 1.86 3.122 2.647.481.404 1.448.579 1.78 1.181.167.074.102 0 .082.161.434.226.725.544 1.092.816.8.588 1.398.632 2.309 1.1 1.724.889 3.691 1.08 5.386 1.834h.082c1.372.453 3.477.412 4.86.772.365-.015.729-.027 1.093-.041.288.23 1.207.114 1.742.202.825.143 1.817.122 2.754.105v.02c.394-.044.837.073.931.088-.038.026-.082.056-.123.082.346-.082.904-.105 1.216.16-.168.027-.033-.025-.12.124.924-.272 2.167.073 3.359.286.42.012.84.027 1.257.038l-.08.123c.145-.076.206-.09.365-.082.076.15.064.012.041.164.2-.015.405-.03.608-.04.032.14-.05.049.08.119-.136-.342 1.32.094 1.456.164.126.064.167.07.285.044-.159-.044-.12-.018-.203-.123.176.052.353.105.526.16-.038.015-.08.027-.12.042l.16-.041.447.163c-.04.015-.079.027-.12.041.238-.026.608.003.849.123-.027.012-.053.027-.08.041h-.243c.117.003.188.003.243 0 .106-.012.147-.032.323-.04-.04.04-.082.078-.12.12.214.01.432.028.646.04.03.14-.035.067.123.164.044-.08-.002-.08.08-.041.255.22.91.257 1.216.53v-.124c.378.26 1.442.717 1.7.977-.18.024-.07-.076-.162.082h.042c.232-.319 2.352 1.091 2.754 1.342.065-.078-.006-.05.162-.04.032.137-.027.146.12.245-.023-.044-.053-.082-.079-.123.505.27 2.132.88 2.147 1.141h.161l-.082-.082c.452.094 1.721 1.111 1.865 1.26-.056-.011-.109-.026-.162-.037.194.157.755.593 1.216.649-.006.193.065.202 0 .365.285-.09.735.17.931.41-.023.134-.044.044.08.123.044-.082 0-.08.082-.044.132.403.314.69.646 1.058-.085.164-.091.068-.038.205.026-.055.053-.108.082-.164l.08.082c-.027.015-.057.027-.08.041.244.012.796.416.97.652-.054.027-.11.053-.162.08.302.263.49.254.93.57.033.228.083.263.042.447l.243-.12c-.014.182-.102.053.042.202.408.102 1.045 1.024 1.336 1.465.452.688 1.034.986 1.498 1.67.211.307.34.658.405.936.135.132.62.462.81.854.12.246-.038.284.08.448l.044-.12c.12.687.849 1.1 1.051 1.503.173.342.162 1.056.323 1.263.235-.067.946 1.468.931 1.544-.103.63.817 1.176.65 1.428v.123c.04.02.43 1.485.405 1.506.276.307.784 1.526 1.054 2.196.132.333-.009.927.12 1.383.188.422.376.843.567 1.264.094.324-.258.477-.082.933.34.88.173 1.447.367 2.158.067.03.135.056.2.085.003.728.437 2.752.421 4.264h-.134c.018.284.042.585.086.886-.012.114-.021.228-.033.34.068.415.115 1.061.05 1.517-.246 1.787-.205 4.019-.64 5.89-.02.249-.044.498-.068.746-.202.787-.375 1.512-.57 2.22-.093.34-.052.65-.17.939-.12.31-.314.631-.434.938l-.018.299c-.1.398-.13.801-.252 1.26-.094.243-.191.483-.285.726-.118.432-.235.868-.356 1.301-.117.24-.29.506-.384.77-.212.584-.385 1.333-.673 1.897l-.555.79c-.135.313-.126.579-.27.918-.059.138-.23.249-.285.383-.247.58-.532.96-.843 1.433-.29.445-.49.98-.755 1.451-.208.366-.455.716-.675 1.088-.112.129-.223.257-.335.383l-.22.491c-.162.237-.661.632-.773.854-.082.161-.114.278-.22.404-.082-.006-.167-.015-.252-.018v.018c.085.006.226.032.252.064-.161.503-.599.799-.872 1.217-.097.146-.138.418-.253.532-.05.024-.102.047-.152.067-.191.231-.326.559-.506.81-.176.252-.408.39-.605.62-.196.229-.334.562-.52.81-.287.39-.71.653-.974 1.068-.394.608-.711 1.17-1.128 1.708-.206.26-.347.547-.54.83-.16.238-.43.372-.588.62-.088.138-.12.305-.217.425l-.438.45h-.085c-.19.287-.335.647-.555.895l-.27.193c-.074.155-.118.357-.235.512-.176.234-.517.482-.705.77-.097.183-.19.368-.288.555-.158.216-.396.357-.555.573-.2.284-.346.626-.555.898l-.15.085c-.235.33-.37.757-.605 1.088-.346.488-.728.935-1.077 1.43-.16.225-.356.33-.488.579-.314.6-.608 1.146-.94 1.705-.173.286-.446.474-.608.769-.42.77-.72 1.752-1.26 2.369.012.035.02.07.033.105-.159.28-.291.588-.456.898-.372.714-.552 1.535-.907 2.24l-.335.492c-.132.236-.155.585-.238.874-.129.462-.4.953-.537 1.407-.05.17-.226.825-.217.833-.247.375-.32.869-.538 1.302l-.185.278c-.041.131-.012.356-.035.49l-.253.94c-.056.196-.014.374-.05.555-.138.685-.414 1.56-.622 2.284-.02.25-.044.498-.068.746-.047.205-.15.538-.2.726-.085.3.015.567-.052.918-.288 1.524-.359 3.074-.638 4.483-.058.296.05.603.018.872-.059.47.035.933 0 1.325-.03.263-.056.526-.085.79-.02.262-.024.99-.024.99-.006.568-.073 1.062-.252 1.393l.158.079c-.138.278.226.734-.04 1.304-.206-.044-.118.76-.242.895-.067.015-.135.026-.202.041-.015.053-.03.108-.041.164.155.392-.526 1.061-.406 1.79-.055-.012-.108-.027-.161-.041.053.155 0 .085.12.163-.061.196-.006.161-.161.164l.082.202c-.056-.026-.109-.056-.165-.082-.011.108-.026.217-.038.328.085.064.174.064.12.16-.04.246-.082.489-.12.732-.076-.03-.014-.03-.082 0-.041.026-.08.055-.12.082h.161c-.026.014-.056.029-.082.04-.038.041-.08.082-.12.123-.089-.134-.012-.061-.165 0 .076.176.185.281-.038.489-.091.079 0 .003-.12 0-.045.383-.062.292-.206.57l.123-.04c-.09.25-.205.295-.326.2-.011.276-.04.232-.161.37.126.19.155.143.161.447-.067.123-.132.243-.2.365l.08-.365c-.027.012-.053.026-.08.04-.014.083-.026.165-.04.244l-.08-.08c.082.188.159.19.2.448-.027-.044-.053-.085-.08-.123.036.448-.035.904 0 1.182h-.04c-.074-.085-.003-.032-.124-.082.003.126-.006.082-.038.243l.161-.123v.04c-.117.173-.237.273-.326.366.118.097.062-.035.124.123-.159.041-.124.018-.203.123.041-.026.08-.053.12-.082-.029.231-.851 3.144-.93 3.217-.074.1-.262.155-.365.366.11.026.097-.032.083.079.011.029.026.055.038.084-.767.322-.585 1.197-1.175 1.589.12.11.091.04.12.16-.038-.011-.076-.026-.12-.04.044.131.065.166-.038.286-.059.126-.044.03-.165 0 .094.287.024.515-.161.731v-.12c-.258.117-.153.316-.323.486l.12.164c-.208.09-.417.579-.649.854.018-.041.03-.08.041-.123l-.161.044c.015.026.03.052.041.079-.068.09.026.184-.203.245-.055-.044-.058-.038-.12.12.091.108.038-.006.038.167-.217.07-.264.067-.203.322-.146-.021-.123-.024-.243.043-.01.188-.08.205.044.445-.053.07-.109.137-.165.205l-.079-.123c-.015.17-.009.143-.123.286.155.059.144.03.04.164-.114.427-.284.313-.566.731.041.012.082.027.12.041-.478.032-.608.72-1.092.895.114.114.064.076.12.205-.314.249-.487.442-.687.69.1.08.015.024.12.044-.038.067-.079.135-.12.202-.032-.143.053-.062-.082-.123-.018.164-.027.152-.08.243.053-.012.106-.027.162-.041-.056.029-.109.055-.161.085-.103.222-.194.193-.326.324.055-.014.111-.026.164-.04-.044.052-.082.107-.12.163-.156-.047-.044-.09-.165 0 .106.018.024-.04.12.038-.064.041-.135.082-.2.123-.149-.123-.407.287-.407.287-.033.116-.077.029 0 .12l.12-.039c-.038.038-.076.08-.12.123h-.32c.047.111-.11.158-.165.445-.088-.065-.197-.041-.405.123v.04c.067-.014.138-.026.202-.04-.011.026-.026.055-.04.081l-.2.12c-.05-.102.023-.038-.083-.079-.014.117-.079.328-.202.448l.202-.082c-.073.175-.34.38-.446.57-.15-.038-.032-.079-.162 0 .042.161.074.044-.04.202H237.121c-.014.003-.035.003-.061 0 .026.003.047.003.061 0h.033c.008.003.008.012-.012.041-.232.222-.458.228-.731.328h.164c-.03.04-.056.079-.082.122l-.405.202c.04-.055.079-.108.123-.164-.044-.011-.082-.026-.123-.038-.07.135-.097.117-.203.202.041.027.082.056.12.08-.285.014-.446.099-.484.204.038.015.082.026.12.044-.49-.03-.508.155-.849.24-.061.216-.082.225-.123.327-.25-.055-.238.1-.526.082.015.181.089.094-.079.243.012-.053.024-.108.038-.161-.088.085-.076.055-.123.205-.473.158-.584.576-.97.813l.121-.205c-.067.015-.135.026-.202.04-.042.11-.08.217-.12.328-.042-.029-.083-.055-.124-.084.03.04.053.084.082.122-.655.138-.943.492-1.621.816.015.068.026.135.044.202-.223.006-.596.19-.529.366-.467-.059-.493.199-.73.365-.019-.125.049-.023-.04-.12-.093.12-.187.246-.284.366v-.12c-.587.228-.587.52-.93.69-.245.12-.336-.05-.53.164.03.012.056.026.083.041-.1-.009-1.084.348-1.052.366-.367.158-1.227.237-1.298.201-.649.348-1.33.547-2.311.898-.784.281-1.304.035-2.103.243-.08.02-.22.064-.244-.04-.111.204-2.913.745-2.957.733v.041c.03.041.056.082.082.123-.205 0-.232.047-.405-.041-.02.178.082.082-.08.16-.196-.099-.904.399-.933.407-.758.07-1.513.138-2.267.205-.511-.04-1.116-.03-1.742-.017v-.088c-.214.023-.214.093-.464.105-.514-.249-.984.053-1.515-.04-1.513-.267-3.392.078-4.685-.211 0 0-1.25.038-1.336.02-.464-.088-.972-.257-1.442-.316l-.438.044c-.757-.079-1.55-.21-2.161-.465-.203-.082-.916-.032-1.028-.061-.437-.109-1.116-.369-1.568-.503l-.44.04c-.526-.137-.979-.347-1.466-.482-.417-.114-.773-.111-1.237-.252-.754-.228-1.41-.699-2.287-.862v-.103c-.55-.055-1.125-.435-1.469-.693-.293-.222-1.177-.438-1.618-.629-.282-.122-.567-.386-.825-.485-.576-.216-1.29-.421-1.8-.693-.177-.094-.2-.24-.362-.337-.076-.005-.152-.011-.232-.02-.208-.094-.437-.295-.643-.398-.14-.073-.361-.064-.408-.105l-.467-.398c-.247-.1-.52-.114-.72-.254-.032-.076-.067-.152-.102-.231-.318-.182-.7-.193-1.005-.377l-.332-.313c-.819-.539-1.612-1.036-2.42-1.577l-.208.041c-.059-.424-1.8-1.293-1.721-1.573-.54.009-2.223-1.916-2.626-1.913-.064-.132-1.083-.67-1.283-.798-.276-.17-.529-.489-.775-.69-.012-.012-.088-.097-.024-.106-.608-.33-1.142-.66-1.7-1.03l-.411-.397c-.253-.158-.585-.313-.796-.506-.426-.386-1.134-.81-1.466-1.196-.155-.179-.264-.39-.464-.524-.605-.412-1.286-.722-1.932-1.155-.156-.108-.159-.301-.28-.441-.31-.351-1.253-.726-1.7-1.01-.129-.081-.202-.336-.284-.397-.488-.38-1.099-.655-1.595-1.03-.138-.187-.273-.377-.411-.567l-.282-.061c-.194-.109-.341-.337-.514-.463-.144-.108-.35-.125-.49-.23-.556-.419-1.175-.98-1.801-1.323-.009.006-.018.012-.026.021v.146h-.103c-.18-.175-.206-.42-.385-.611-.112-.041-.226-.082-.335-.126-.417-.237-.696-.488-1.16-.734l-.1-.19c-.255-.213-.657-.298-.954-.483l-.256-.272-.384-.084c-.858-.486-1.636-1.027-2.576-1.468-.135-.065-.261-.243-.385-.296-.085-.035-.25.02-.36-.04l-.13-.19-.822-.545c-.787-.386-1.522-.83-2.341-1.135-.253-.093-.793-.292-.772-.526-.547.006-.623-.263-.902-.462-.126-.09-.379-.097-.488-.146-.164-.076-.334-.264-.49-.357l-.72-.21-.152-.167c-.805-.369-2.173-.705-3.166-.966-.041-.05-.085-.096-.13-.149-.181-.079-.507-.052-.745-.146-.124-.047-.317-.181-.488-.231l-.593-.061c-.197-.08-.464-.234-.72-.296-.869-.204-1.88-.26-2.675-.503-.103.006-.206.015-.308.02-.564-.125-2.934-.616-3.398-.461-1.475-.419-3.234-.249-4.708-.547-.464-.094-1.11.093-1.492.023-.755-.14-1.806-.234-2.55-.295-.017.011-.037.02-.058.026v-.026c-.338.017-.652.032-.907.07l-.188-.044c-.288-.047-.76.012-.993.044l-1.037-.044c-.895.114-1.788.1-2.737.216-.226.006-.455.012-.684.015-.629.102-1.445.146-2.006.22-.197.005-.39.011-.587.014-.8.205-1.68.167-2.643.348-.47.088-.896.252-1.369.363-.652.152-1.272.123-1.959.245-.429.076-.834.287-1.248.392-.2.05-.44.044-.66.114-.168.059-.406.179-.591.22l-.352.044c-1.002.35-1.939.754-2.858 1.143-.496.214-1.063.307-1.58.509-1.216.474-2.467.898-3.727 1.392-.038.047-.08.097-.117.146-.262.158-.826.454-1.134.565-.655.237-1.298.494-1.885.769-.153.07-.382.09-.52.172-.429.252-.828.527-1.322.74-.693.299-1.462.468-2.194.74-.563.208-.875.594-1.368.84-.294.149-.714.216-.99.377-.82.474-1.61.91-2.526 1.334-.085.073-.173.146-.258.216-.288.181-.617.34-.92.509-.158.088-.143.164-.284.23-.658.32-1.23.755-1.862 1.03-.646.284-1.43.506-1.935.872-.511.368-1.122.678-1.604 1.059-.352.274-.664.579-1.063.824-.1.027-.203.05-.305.073-.359.138-.588.433-.873.626-.19.09-.379.182-.567.272v.09c-.105.089-.331.153-.425.247v.084c-.135.08-.323.106-.47.176-.314.146-.54.398-.778.594-.156.128-.5.204-.685.318-.405.246-.77.559-1.227.77-.259.116-.55.163-.826.274-.396.158-.81.38-1.204.536-.246.099-.587.146-.778.277-.182.123-.314.158-.543.26l-.353.261c-.196.07-.47.12-.66.234-.103.085-.206.173-.309.26-.49.167-1.125.255-1.58.465-.229.103-.417.266-.634.375-.588.295-1.401.453-2.15.637-.182.047-.4.184-.564.249-.12.017-.238.038-.355.058-.376.12-.729.31-1.134.418-.29.082-.505.065-.822.132-.182.062-.364.126-.543.19-.664.205-1.498.366-2.194.506-.529.105-1.105.179-1.583.275l-.825.132c-.274.125-.532.128-.92.216-.663.152-1.427.263-2.123.363-.831.117-1.668.07-2.502.187-.658.094-1.269.12-1.956.205l-.731.058c-.447-.053-1.21.105-1.795.088-.76-.026-1.45-.062-2.24-.062v.062c-.488-.158-.867-.334-1.216-.439-.5-.152-1.575.436-2.259.293-.837-.179-1.55-.471-2.699-.293v-.149c-.2.222-1.636-.325-1.912-.436-.252.185-1.603-.36-2.158-.292-1.213.146-2.72-.644-3.827-1.018-.326-.018-.655-.035-.984-.05-.223-.152-.431-.35-.734-.538-.379-.234-1.744-.462-1.718-.874-.467.193-2.026-.436-2.502-.679-.408.02-1.988-1.395-2.6-1.752-.325-.11-.651-.228-.98-.342-.696-.713-1.313-1.474-2.206-1.942-.46-.096-.919-.196-1.377-.292-.737-.4-1.645-1.059-2.156-1.752-.067.088.01.076-.1.047-.243-.129-.49-.258-.737-.39v-.096c-.343-.292-.907-1.547-1.518-1.602.047-.05.097-.1.147-.147-.32-.099-3.325-3.351-3.386-3.84.07 0-.036-.035-.05-.05-.44-.602-1.795-1.236-2.206-2.24-.158-.377-.282-1.152-.493-1.41-.417-.517-.714-.62-.931-1.166-.32-.807-.682-2.533-1.228-3.162-.655-.754-1.712-2.173-1.618-3.304-.238.032-.032-.024-.34-.1.096-.257-.012-.222.193-.193-.047-.128-.097-.257-.147-.389v.196h-.047c-.182-.485-.36-.974-.54-1.46-.056-.204-.141-1.087 0-1.216-.173-.22-.308-.468-.394-.778.018-.193.033-.389.05-.585-.044.179.003.1-.1.196.077-.41-.188-1.132-.047-1.41v-.05h-.1c-.014.033-.029.065-.046.097.023-.555-.044-.508.047-.924-.138.056-.07.044-.197.05-.135-1.202-.39-2.348-.39-4.182-.015.047-.036.096-.05.146H.398c.074-.605-.12-2.623-.293-3.062-.018.079-.036.158-.05.24-.018-.486-.035-.971-.05-1.457.05-.277.1-.552.147-.83-.015.05-.033.1-.047.149-.059-.117-.091-.252-.106-.392h.076c-.017-.143-.067-.143-.076-.307.176-.342-.035-.655.03-1.01.187-1.002-.053-2.251.146-3.108 0 0-.023-.83-.012-.886.062-.31.183-.646.22-.96-.008-.096-.02-.19-.029-.289.056-.503.147-1.03.323-1.433.062-.137.027-.611.047-.684.074-.29.259-.74.356-1.041-.012-.097-.02-.196-.033-.293.097-.348.244-.65.341-.97.08-.279.076-.516.176-.823.162-.5.49-.935.605-1.52h.074c.04-.363.305-.746.487-.974.156-.196.309-.781.444-1.074.085-.187.27-.377.34-.547.15-.383.294-.856.485-1.199.068-.117.17-.128.238-.237.003-.052.009-.102.015-.152.064-.14.205-.292.279-.43.05-.093.047-.24.073-.271l.282-.308c.067-.163.08-.348.179-.48.053-.02.106-.043.159-.066.129-.211.138-.465.267-.667l.22-.223c.379-.544.726-1.067 1.107-1.605-.008-.047-.017-.09-.03-.138.3-.04.911-1.196 1.108-1.143-.006-.357 1.345-1.474 1.342-1.743.097-.044.473-.72.564-.854.118-.181.344-.348.485-.512.009-.009.067-.061.073-.017.235-.404.464-.758.726-1.126.094-.091.185-.182.279-.272.111-.17.22-.392.355-.533.27-.28.57-.751.843-.974.123-.1.27-.172.367-.307.288-.4.508-.854.81-1.28.077-.106.212-.106.312-.188.246-.205.508-.83.707-1.126.06-.088.238-.134.282-.19.265-.325.459-.731.723-1.059.132-.09.264-.18.396-.272.018-.064.033-.125.044-.19.077-.128.238-.222.326-.339.077-.096.089-.234.165-.327.294-.369.684-.778.928-1.194l-.015-.017h-.103v-.068c.12-.12.297-.137.43-.257l.087-.222c.168-.278.344-.462.517-.77.044-.02.088-.043.132-.067.15-.17.212-.435.341-.631l.19-.173.06-.254c.343-.568.722-1.085 1.033-1.708.044-.094.17-.173.206-.258.026-.055-.012-.163.032-.24l.132-.084c.127-.185.253-.366.382-.547.27-.52.585-1.01.796-1.553.068-.17.206-.527.37-.515-.003-.363.185-.412.326-.596.065-.085.068-.255.103-.325.053-.111.185-.222.25-.325l.15-.476c.038-.036.076-.07.117-.106.258-.532.496-1.439.678-2.1l.103-.084c.059-.123.038-.34.103-.498.035-.081.129-.207.164-.321l.044-.395c.056-.132.165-.307.206-.477.144-.576.185-1.249.355-1.778-.006-.067-.011-.137-.014-.205.088-.371.431-1.947.323-2.255.296-.98.176-2.143.384-3.123.065-.31-.064-.74-.014-.991.097-.503.161-1.2.205-1.69-.009-.015-.012-.027-.017-.042h.003c.005-.014.005-.026.014-.04-.038-.492-.094-1.188-.176-1.691-.041-.252.068-.682.012-.992-.18-.98-.077-2.143-.33-3.123.095-.307-.202-1.883-.278-2.255l.015-.205c-.147-.529-.18-1.202-.303-1.778-.038-.17-.132-.345-.18-.476-.01-.132-.023-.264-.037-.395-.03-.114-.109-.24-.138-.322-.059-.158-.041-.374-.088-.497l-.091-.085c-.156-.661-.359-1.568-.582-2.1l-.1-.105c-.044-.158-.085-.316-.126-.477-.056-.102-.17-.213-.217-.324-.03-.07-.033-.24-.086-.325-.12-.184-.282-.234-.279-.597-.14.012-.261-.345-.317-.514-.182-.544-.452-1.033-.684-1.553-.109-.182-.217-.363-.329-.547-.038-.03-.076-.059-.112-.085-.038-.076-.005-.184-.026-.24-.032-.085-.138-.164-.18-.257-.266-.623-.59-1.14-.883-1.708-.018-.085-.032-.17-.05-.255-.056-.058-.112-.114-.165-.172-.111-.196-.161-.462-.29-.632-.038-.023-.077-.047-.115-.067-.147-.307-.3-.492-.443-.77-.024-.073-.05-.146-.077-.222-.111-.12-.261-.137-.367-.257v-.067h.091l.012-.018c-.208-.415-.546-.825-.799-1.193-.061-.094-.073-.231-.138-.328-.076-.117-.214-.21-.279-.339l-.038-.19-.34-.272c-.227-.328-.391-.734-.62-1.059-.038-.055-.191-.102-.241-.19-.17-.295-.397-.921-.605-1.126-.085-.082-.203-.082-.267-.187-.262-.427-.45-.88-.696-1.28-.083-.135-.209-.209-.318-.308-.232-.222-.487-.693-.72-.974-.117-.14-.208-.363-.305-.532-.079-.09-.158-.181-.24-.272-.22-.369-.42-.722-.62-1.126-.003.044-.056-.009-.062-.018-.123-.163-.317-.33-.417-.511-.076-.135-.4-.81-.481-.854.003-.27-1.157-1.387-1.152-1.743-.17.052-.693-1.103-.948-1.144l.026-.137c-.329-.536-.628-1.062-.951-1.606l-.188-.222c-.112-.202-.12-.457-.23-.667-.046-.024-.09-.047-.137-.067-.083-.132-.094-.316-.153-.48l-.24-.307c-.024-.032-.021-.178-.063-.272-.061-.138-.185-.29-.24-.43-.003-.05-.01-.1-.012-.152-.059-.108-.147-.12-.203-.237-.164-.342-.288-.816-.417-1.199-.061-.17-.22-.36-.293-.547-.115-.292-.244-.877-.38-1.073-.155-.228-.384-.612-.416-.974h-.062c-.1-.585-.382-1.02-.52-1.52-.085-.308-.082-.545-.153-.823-.082-.321-.208-.623-.29-.97l.026-.293c-.082-.301-.24-.752-.305-1.041-.015-.073.014-.547-.036-.685-.152-.403-.232-.93-.281-1.433l.026-.29c-.032-.312-.138-.649-.188-.959-.012-.055.012-.886.012-.886-.174-.857.032-2.105-.127-3.109-.055-.353.127-.666-.026-1.009.009-.163.05-.163.065-.307H3.67c.185-.567.394-1.009.514-1.415.176-.576-.511-1.825-.34-2.62.205-.974.548-1.805.34-3.136h.173c-.261-.234.382-1.904.514-2.222-.217-.296.42-1.863.34-2.507-.17-1.412.756-3.161 1.196-4.448l.056-1.14c.176-.26.411-.504.628-.855.274-.441.544-2.026 1.028-1.994-.226-.544.508-2.357.796-2.907-.026-.477 1.633-2.31 2.05-3.021.132-.38.267-.76.4-1.14.837-.808 1.726-1.525 2.276-2.566.117-.532.229-1.064.343-1.597.47-.854 1.24-1.91 2.053-2.506-.103-.076-.088.012-.056-.114.15-.284.3-.57.455-.854h.115c.34-.404 1.812-1.059 1.877-1.766.058.055.114.114.17.17.117-.375 3.926-3.864 4.502-3.934-.003.081.038-.044.059-.059.702-.509 1.445-2.082 2.62-2.562.443-.184 1.353-.327 1.653-.573.608-.486.728-.83 1.368-1.08.946-.374 2.967-.792 3.7-1.426.888-.764 2.55-1.992 3.875-1.881-.039-.28.026-.04.117-.398.3.111.258-.011.226.228l.455-.172h-.229v-.056c.57-.207 1.14-.418 1.71-.626.237-.067 1.274-.166 1.424 0 .255-.201.55-.36.913-.459.226.02.455.041.685.059-.209-.053-.118.003-.23-.117.48.09 1.325-.217 1.65-.053h.06v-.114c-.039-.02-.077-.038-.112-.058.65.029.593-.05 1.08.058-.064-.164-.05-.085-.058-.231 1.41-.158 2.752-.453 4.902-.456-.06-.018-.115-.038-.17-.056V1.29c.707.085 3.071-.137 3.585-.34l-.282-.06c.57-.018 1.14-.039 1.71-.056.32.055.643.117.969.17-.06-.018-.118-.038-.174-.053.138-.07.297-.105.459-.123v.02c.017-.005.035-.011.05-.02.62.05 1.494.123 2.123.237.317.056.857-.094 1.245-.018 1.228.237 2.693.1 3.92.436.388-.123 2.365.27 2.832.372.085-.006.17-.015.258-.018.664.193 1.507.237 2.23.4.21.05.434.173.598.238.165.014.33.032.494.05.144.04.305.146.408.184.197.073.467.052.623.12l.105.116c.828.208 1.968.477 2.638.773.044.043.088.09.129.134l.599.167c.13.076.27.225.408.286.091.041.303.044.408.117.232.161.294.375.75.369-.015.187.43.348.642.424.685.24 1.298.597 1.953.904.227.146.459.292.688.435.032.053.07.103.105.153.094.05.23.005.3.032.103.044.208.184.323.24.781.353 1.43.783 2.144 1.172.106.024.211.047.32.068l.214.219c.247.146.582.213.793.386l.088.152c.382.196.617.398.964.588l.279.1c.15.151.173.347.32.488h.088v-.12c.006-.003.015-.009.02-.015.523.278 1.037.723 1.501 1.059.118.085.288.1.408.184.147.102.268.284.43.369.078.017.155.035.234.05l.344.453c.41.3.922.52 1.327.824.07.05.13.252.238.32.373.227 1.157.526 1.416.806.102.111.102.27.235.354.537.345 1.104.594 1.609.921.164.112.258.278.385.422.276.307.866.649 1.224.956.174.155.45.278.664.406.115.103.226.211.34.316.465.296.911.559 1.416.825-.053.006.012.073.024.085.202.16.414.418.64.553.17.102 1.019.532 1.075.637.332-.003 1.735 1.538 2.185 1.53-.065.225 1.386.921 1.436 1.26l.173-.035c.673.436 1.334.83 2.015 1.26.09.085.185.167.279.252.252.146.57.158.834.304l.088.185c.164.11.394.122.6.201.128.106.258.21.387.32.038.031.223.025.34.084.17.082.362.243.538.319l.19.017c.136.073.156.193.303.266.426.22 1.022.384 1.501.556.214.079.455.29.687.386.367.152 1.104.325 1.351.506.282.205.764.509 1.222.553v.085c.731.128 1.277.506 1.909.687.385.114.678.111 1.028.202.405.108.78.275 1.221.386.12-.012.244-.024.365-.032.378.108.945.315 1.306.403.094.02.688-.017.858.05.508.202 1.169.307 1.803.368.12-.011.244-.023.364-.032.391.044.814.182 1.202.252.07.011 1.113-.018 1.113-.018 1.077.231 2.643-.044 3.903.167.443.076.837-.164 1.265.035.206-.009.206-.064.385-.085v.05c.015.006.03.015.044.02.194.059.881-.076 1.002-.032.17.009.343.015.517.02.073-.005.146-.011.22-.02.044.012.085.02.126.032.203-.026.564-.067.837-.032.168.02.684.053.822.032.37-.055.708-.117 1.087-.158.311-.032.705-.087 1.002-.146.061.006.12.015.182.02.076-.02.232-.026.346-.064.232-.07.723-.248 1.005-.313.155-.035.314-.02.472-.084.08-.03.188-.106.306-.135l.364-.044c.244-.058.461-.123.681-.199l.168-.008c.3-.091.655-.176.975-.232.135-.023.282.01.42-.043.04-.027.082-.056.123-.082.17-.062.364-.03.532-.094.37-.146.766-.286 1.113-.453.12-.056.229-.024.35-.073.081-.032.149-.117.222-.147.06-.002.12-.005.18-.011.055-.03.085-.105.14-.135.068-.011.139-.02.209-.032.056-.02.091-.085.138-.105.088-.024.176-.05.264-.073.209-.094.38-.243.629-.313.023-.041.014-.015 0-.053.235.006.423-.237.614-.316.158-.067.314-.07.458-.146.337-.181.675-.357 1.019-.535.252-.135.343-.386.666-.453.006-.018.01-.041.015-.062h.068c.267-.143.46-.316.67-.503.055-.03.11-.055.167-.085.056-.067.061-.131.138-.178.49-.29.984-.646 1.365-.933l-.04-.02c.055-.018.11-.036.167-.053v-.085c.232-.117.54-.322.699-.491.02-.035.044-.07.067-.106.212-.125.44-.213.64-.348.103-.067.147-.24.224-.292.094-.062.29-.21.376-.252.073-.032.15-.008.208-.04.112-.065.153-.153.209-.232.079-.105.234-.131.323-.21.1-.09.188-.22.305-.293.361-.228.722-.459 1.113-.66.235-.12.476-.401.684-.556.265-.193.588-.33.878-.503.06-.038.12-.135.153-.158.053-.038.138-.038.194-.073.044-.03.032-.094.07-.126.056-.023.112-.044.168-.064l.056-.094c.152-.09.373-.15.473-.272.331-.4.834-.705 1.336-1.006.167-.1.17-.255.282-.348.04-.009.082-.02.123-.032.053-.027.08-.097.097-.114l.279-.147c.23-.14.364-.397.725-.441-.017-.032 0-.012-.029-.032.582-.21.978-.52 1.477-.775.12-.062.39-.228.432-.24.053-.02.12.009.182-.024l.03-.008c.002-.03.005-.059.011-.085.041-.047.138-.032.194-.062.117-.093.232-.18.35-.274l.223-.021c.085-.038.15-.129.238-.167.214-.09.425-.158.599-.254.026-.012.011-.07.011-.07.056-.018.112-.035.168-.056.053-.055.103-.111.155-.167h.112c.103-.029.244-.143.276-.157.059-.021.223-.015.335-.05.159-.053.443-.108.584-.19.07-.041.185-.123.294-.158.08-.012.159-.02.238-.032.047-.03.09-.062.138-.094.346-.126.687-.208 1.057-.357.106-.04.212-.128.309-.166.114-.015.232-.03.346-.041.059-.018.106-.07.156-.085.332-.103.616-.065.945-.19.094-.053.185-.106.28-.155.414-.085.927-.14 1.31-.316.037.023.507-.1.543-.117.035.03.211.02.279 0 .37-.111.804-.094 1.212-.2.194-.049.514-.02.779-.084.564-.131 1.298-.175 1.868-.26.446-.067 1.095-.012 1.518-.097.164-.029.323.015.432 0 .3-.032.528-.023.793-.073.138-.023.293.059.414.015v.462c.314-.035.67.058.743.067l-.097.065c.276-.065.722-.082.975.131-.138.018-.03-.02-.1.097.74-.217 1.736.061 2.69.228.335.011.673.023 1.004.032l-.064.1c.117-.062.164-.074.29-.068.062.123.056.009.036.132.161-.01.323-.024.484-.032.027.11-.038.04.065.096-.109-.278 1.057.073 1.166.132.1.05.132.055.229.032-.126-.032-.1-.012-.164-.097l.422.129c-.032.012-.064.02-.096.032.04-.012.085-.02.126-.032.12.044.238.085.361.129-.035.011-.068.023-.1.035.191-.024.488.003.682.096l-.065.035h-.197c.097.003.153.003.197 0 .085-.008.117-.026.258-.035-.032.035-.064.065-.097.1.174.009.347.02.52.032.02.111-.032.053.094.129.038-.062 0-.062.068-.033.202.176.725.205.969.424v-.099c.302.21 1.157.576 1.363.78-.144.021-.056-.06-.13.068h.033c.188-.257 1.882.872 2.205 1.073.05-.06-.006-.04.127-.032.026.109-.021.117.096.196-.02-.035-.04-.064-.061-.096.405.213 1.703.702 1.715.91h.13l-.065-.065c.36.073 1.377.889 1.491 1.009-.044-.012-.088-.023-.129-.032.156.128.605.476.972.52-.003.155.053.164 0 .293.23-.073.588.134.746.327-.017.109-.035.035.065.097.035-.064-.003-.062.064-.032.103.321.25.55.517.845-.067.132-.073.055-.032.164.02-.044.044-.085.065-.132.02.023.044.047.064.067-.02.012-.044.02-.064.033.196.008.637.333.778.52-.044.023-.085.044-.13.064.244.211.394.205.747.457.023.184.064.21.032.36.065-.036.13-.065.194-.1-.012.146-.082.044.032.164.329.082.837.819 1.07 1.173.36.55.824.79 1.197 1.336.17.246.273.524.326.746.106.108.494.371.646.684.097.196-.029.225.065.36l.035-.1c.097.553.679.88.84 1.205.138.272.132.846.262 1.01.188-.056.754 1.175.743 1.236-.083.504.652.942.52 1.141v.1c.032.017.346 1.187.322 1.204.224.246.629 1.223.843 1.758.106.266-.008.743.1 1.106.15.339.3.672.452 1.009.074.263-.205.383-.064.748.27.705.138 1.158.29 1.729.056.02.11.04.162.064.003.585.35 2.202.335 3.413"/>
</svg>
