<svg xmlns="http://www.w3.org/2000/svg" width="349" height="279" viewBox="0 0 349 279">
    <path fill="#EB323C" fill-rule="evenodd" d="M257.377 50.311c-.077.231-.147.48-.202.773-.062.336.062.728.103.918.128.618-.14 1.445 0 2.137.132.67.297 1.438.404 2.09.018.526.033 1.053.051 1.576.18.567.687 1.164.76 1.837.049.432-.278.673-.15 1.222.184.809.69 1.592.757 2.393l-.15.611c.117.67.617 2.474.708 2.65 2.855 5.513 6.73 12.257 11.4 15.993-.129.007.07.274.099.304.702.622.922 1.628 1.52 2.239 1.165 1.185 2.716 2.327 3.906 3.311.602.505 1.811.725 2.226 1.478.21.092.129 0 .103.202.544.281.907.68 1.367 1.02.999.736 1.748.79 2.887 1.376 2.157 1.113 4.618 1.35 6.738 2.295h.103c1.715.567 4.35.516 6.08.966.455-.019.91-.033 1.366-.052.36.29 1.51.143 2.179.253 1.032.18 2.274.153 3.445.132v.025c.493-.055 1.047.092 1.165.11-.048.033-.103.07-.154.102.433-.102 1.131-.131 1.52.202-.209.033-.04-.033-.15.153 1.157-.34 2.711.092 4.203.359.525.015 1.05.033 1.572.047l-.1.154a.696.696 0 0 1 .456-.102c.096.186.081.014.052.205.25-.019.507-.037.76-.052.04.176-.062.063.1.15-.17-.428 1.653.117 1.822.205.157.08.209.088.356.055-.199-.055-.15-.022-.254-.154.22.066.441.132.658.202-.048.018-.1.033-.15.051.07-.018.135-.033.201-.051l.559.205-.15.05c.297-.032.76.005 1.06.155a1.278 1.278 0 0 0-.098.05h-.305c.147.004.235.004.305 0 .132-.014.183-.04.404-.05-.052.05-.103.098-.15.15.267.014.54.036.807.05.037.176-.044.085.155.206.055-.1-.004-.1.099-.052.32.275 1.139.322 1.52.663v-.154c.475.326 1.804.897 2.128 1.222-.224.03-.088-.095-.202.103h.051c.29-.4 2.943 1.364 3.446 1.68.08-.1-.007-.063.202-.052.04.172-.033.183.15.307-.029-.055-.065-.102-.098-.153.631.336 2.667 1.1 2.685 1.427h.202l-.103-.103c.566.117 2.153 1.39 2.333 1.577-.07-.014-.136-.033-.202-.047.242.197.944.742 1.52.812-.007.241.082.252 0 .457.357-.113.92.213 1.165.513-.029.168-.055.054.1.153.055-.102 0-.099.102-.055.166.505.393.864.809 1.325-.107.205-.114.084-.048.256.033-.07.066-.135.103-.205l.099.103c-.033.018-.07.033-.1.05.306.015.996.52 1.213.817l-.202.099c.378.329.613.318 1.165.713.04.285.102.33.051.56l.305-.15c-.018.227-.129.066.051.252.51.128 1.308 1.281 1.672 1.834.566.86 1.293 1.233 1.873 2.089.265.384.427.823.507 1.17.17.165.776.579 1.014 1.07.15.307-.047.354.1.559.018-.051.036-.102.055-.15.15.86 1.061 1.376 1.315 1.88.217.429.202 1.322.404 1.581.294-.084 1.183 1.837 1.164 1.932-.128.787 1.022 1.471.812 1.786v.154c.052.025.54 1.858.507 1.884.346.384.981 1.91 1.32 2.748.164.417-.012 1.16.15 1.73.235.528.47 1.054.709 1.581.117.406-.324.597-.103 1.168.426 1.1.217 1.81.46 2.7.084.037.168.07.249.106.004.911.547 3.443.527 5.335h-.167c.022.355.051.732.106 1.109-.014.142-.025.285-.04.424.085.52.143 1.328.062 1.899-.308 2.236-.257 5.028-.8 7.37-.026.31-.055.621-.085.932-.253.985-.47 1.892-.713 2.778-.117.424-.066.812-.213 1.174-.15.388-.393.79-.543 1.175l-.022.373c-.125.497-.162 1.002-.316 1.577-.118.304-.24.604-.357.907-.147.542-.294 1.087-.444 1.629-.147.3-.364.633-.481.962-.265.732-.482 1.668-.842 2.375l-.694.988c-.169.391-.158.724-.338 1.148-.073.172-.287.311-.356.48-.309.724-.665 1.2-1.055 1.793-.363.556-.613 1.225-.944 1.815-.26.457-.57.896-.845 1.36-.14.162-.279.323-.419.48l-.275.615c-.202.296-.827.79-.966 1.068-.103.201-.144.348-.276.505-.103-.007-.21-.018-.316-.022v.022c.107.007.283.04.316.08-.202.63-.75 1-1.09 1.523-.122.183-.174.523-.317.666-.062.029-.128.058-.19.084-.24.289-.409.699-.633 1.013-.22.315-.51.487-.756.776-.247.286-.42.703-.65 1.014-.36.486-.89.816-1.22 1.335-.493.761-.89 1.464-1.411 2.137-.257.326-.434.684-.676 1.04-.198.296-.536.464-.735.775-.11.172-.15.38-.272.53l-.547.564h-.106c-.24.359-.42.809-.695 1.12-.114.08-.224.16-.338.241-.092.194-.147.447-.294.64-.22.293-.646.604-.881.963-.122.23-.24.46-.36.695-.199.27-.496.446-.695.717-.25.355-.433.783-.694 1.124l-.187.106c-.294.413-.463.947-.757 1.36-.434.612-.911 1.172-1.348 1.79-.199.282-.445.414-.61.725-.393.75-.76 1.434-1.176 2.133-.217.358-.558.593-.76.962-.526.962-.9 2.192-1.576 2.964.014.044.025.088.04.132-.198.35-.364.735-.57 1.123-.466.893-.69 1.92-1.134 2.803l-.42.614c-.165.297-.194.732-.297 1.095-.161.578-.5 1.192-.672 1.76-.063.212-.283 1.031-.272 1.042-.309.469-.4 1.087-.672 1.629-.077.117-.154.23-.232.347-.051.165-.014.447-.044.615l-.316 1.174c-.07.246-.018.469-.062.696-.173.856-.518 1.95-.779 2.857-.026.311-.055.622-.084.933-.06.257-.188.674-.25.908-.107.377.018.71-.066 1.149-.36 1.906-.449 3.845-.798 5.609-.073.37.063.754.022 1.09-.073.59.045 1.168 0 1.658l-.106.988c-.026.33-.03 1.24-.03 1.24-.007.71-.091 1.329-.315 1.742l.198.099c-.173.347.283.918-.051 1.632-.258-.055-.147.951-.302 1.12-.084.018-.169.032-.253.05a3.34 3.34 0 0 0-.052.205c.195.49-.657 1.329-.507 2.24a3.255 3.255 0 0 1-.202-.051c.067.194 0 .106.151.204-.077.246-.007.202-.202.205l.103.253c-.07-.033-.136-.07-.206-.103-.015.136-.033.271-.048.41.107.08.217.08.151.201-.051.308-.103.612-.15.915-.096-.036-.019-.036-.104 0-.05.033-.099.07-.15.103h.202c-.033.018-.07.036-.103.05-.048.052-.1.103-.15.155-.11-.169-.015-.077-.206 0 .095.22.231.35-.048.61-.114.1 0 .004-.15 0-.056.48-.078.367-.258.714.055-.018.103-.033.154-.051-.113.315-.257.37-.407.252-.015.344-.052.29-.202.461.158.238.194.18.202.56l-.25.458.1-.458c-.034.015-.067.033-.1.051-.018.103-.033.205-.052.304l-.099-.099c.103.235.199.238.25.56a2.81 2.81 0 0 0-.1-.153c.045.56-.043 1.13 0 1.478h-.05c-.092-.106-.004-.04-.155-.103.004.158-.007.103-.048.304l.202-.154v.052c-.146.215-.297.34-.407.457.147.12.077-.044.154.154-.198.05-.154.022-.254.153.052-.033.1-.066.151-.102-.037.289-1.065 3.933-1.164 4.025-.092.124-.327.194-.456.457.136.033.121-.04.103.099.015.037.033.07.048.106-.96.403-.731 1.497-1.47 1.987.15.139.114.051.15.201-.047-.014-.095-.033-.15-.051.055.165.081.208-.048.359-.073.157-.055.036-.205 0 .117.358.03.643-.202.914v-.15c-.324.147-.191.395-.404.608l.15.205c-.26.113-.521.724-.812 1.068.022-.051.037-.099.052-.154l-.202.055c.018.033.036.066.051.099-.084.113.033.23-.253.307-.07-.055-.074-.047-.151.15.114.136.048-.007.048.209-.272.088-.33.084-.254.402-.183-.025-.154-.029-.305.055-.01.234-.099.256.055.556-.066.088-.135.172-.205.257l-.1-.154c-.018.212-.01.18-.154.358.195.074.18.037.052.205-.144.535-.357.392-.71.915.052.015.104.033.151.051-.599.04-.76.9-1.366 1.12.143.143.08.095.15.256-.393.311-.61.553-.86.864.126.098.019.029.151.055-.047.084-.099.168-.15.252-.04-.18.066-.077-.103-.154-.022.205-.033.19-.1.304.067-.015.133-.033.203-.051-.07.036-.136.07-.202.106-.129.278-.243.241-.408.406.07-.018.14-.033.206-.051-.056.066-.103.135-.151.205-.195-.059-.055-.114-.206 0 .132.022.03-.051.15.047-.08.052-.168.103-.249.154-.187-.154-.51.359-.51.359-.041.146-.096.036 0 .15.054-.019.102-.033.15-.048l-.15.154h-.401c.059.139-.136.197-.206.556-.11-.08-.246-.051-.507.154v.05c.085-.017.173-.032.254-.05-.015.033-.033.07-.052.102-.084.051-.169.103-.25.15-.062-.128.03-.047-.102-.099-.019.147-.1.41-.254.56l.254-.102c-.092.22-.426.475-.559.713-.187-.047-.04-.099-.202 0 .052.201.092.055-.051.253H296.616h.04c.01.003.01.014-.015.05-.29.279-.573.286-.915.41h.206c-.037.052-.07.1-.103.154l-.507.253c.052-.07.1-.136.155-.205-.056-.015-.103-.033-.155-.048-.088.169-.12.147-.253.253.051.033.103.07.15.099-.356.018-.558.124-.606.256.048.018.103.033.15.055-.613-.037-.635.194-1.06.3-.078.27-.104.281-.155.41-.312-.07-.298.124-.658.102.019.227.11.117-.099.304.015-.066.03-.136.048-.202-.11.107-.096.07-.154.257-.592.197-.731.72-1.213 1.017.048-.084.1-.169.15-.256-.084.018-.168.033-.253.05-.051.136-.099.272-.15.41-.052-.036-.103-.069-.154-.105.036.05.066.106.102.153-.819.172-1.179.615-2.027 1.021.018.084.033.168.055.253-.28.007-.746.237-.662.457-.584-.073-.617.249-.914.457-.022-.157.062-.029-.048-.15-.118.15-.235.308-.356.458v-.15c-.735.285-.735.65-1.165.863-.305.15-.419-.062-.661.205.036.015.07.033.103.051-.125-.01-1.356.436-1.316.458-.459.197-1.535.296-1.623.252-.812.436-1.665.684-2.892 1.123-.98.352-1.63.044-2.63.304-.1.026-.275.08-.305-.051-.14.256-3.644.933-3.7.918v.052c.038.05.07.102.104.153-.257 0-.29.059-.507-.051-.026.223.103.102-.1.201-.246-.124-1.131.498-1.168.509-.947.088-1.892.172-2.836.256-.639-.051-1.396-.037-2.178-.022v-.11c-.268.03-.268.117-.58.132-.644-.311-1.231.066-1.896-.051-1.892-.333-4.243.099-5.86-.264 0 0-1.565.048-1.671.026-.58-.11-1.216-.322-1.804-.395l-.547.055c-.948-.1-1.94-.264-2.704-.582-.254-.103-1.146-.04-1.286-.077-.547-.135-1.396-.461-1.962-.63-.183.019-.367.034-.55.052-.658-.172-1.224-.436-1.834-.604-.522-.143-.966-.139-1.547-.315-.944-.285-1.763-.874-2.861-1.079v-.128c-.687-.07-1.407-.545-1.837-.867-.368-.278-1.473-.549-2.024-.787-.353-.154-.71-.483-1.033-.607-.72-.271-1.612-.527-2.252-.867-.22-.118-.25-.3-.452-.421-.095-.008-.19-.015-.29-.026-.26-.117-.547-.37-.804-.497-.177-.092-.452-.081-.51-.132l-.585-.498c-.309-.124-.65-.143-.9-.318-.04-.095-.085-.19-.129-.29-.396-.226-.874-.24-1.256-.471l-.415-.392c-1.025-.673-2.017-1.295-3.027-1.972l-.261.051c-.074-.53-2.252-1.617-2.153-1.968-.676.01-2.78-2.397-3.284-2.393-.081-.165-1.356-.838-1.606-1-.345-.211-.66-.61-.97-.863-.014-.014-.11-.12-.029-.131a28.23 28.23 0 0 1-2.127-1.288c-.169-.165-.341-.333-.514-.498-.316-.198-.731-.392-.996-.633-.532-.483-1.418-1.014-1.833-1.497-.195-.223-.33-.486-.58-.655-.757-.515-1.61-.903-2.418-1.445-.194-.135-.198-.377-.349-.552-.389-.44-1.568-.908-2.127-1.263-.161-.102-.253-.42-.356-.497-.61-.476-1.374-.82-1.995-1.288-.172-.235-.341-.472-.514-.71l-.353-.077c-.242-.135-.426-.42-.643-.578-.18-.136-.437-.157-.613-.29-.694-.522-1.47-1.225-2.252-1.653-.011.007-.022.015-.033.026v.182h-.129c-.224-.22-.257-.526-.481-.764-.14-.051-.283-.103-.419-.158-.521-.296-.87-.61-1.45-.918-.041-.077-.085-.157-.126-.238-.32-.267-.823-.373-1.194-.604l-.32-.34-.48-.106c-1.073-.607-2.047-1.284-3.222-1.837-.17-.08-.327-.304-.482-.37-.106-.043-.312.026-.452-.05l-.161-.238-1.029-.681c-.984-.483-1.903-1.04-2.928-1.42-.316-.117-.992-.366-.966-.658-.683.007-.779-.33-1.128-.578-.158-.114-.474-.121-.61-.183-.205-.096-.418-.33-.613-.447l-.9-.263-.191-.209c-1.007-.46-2.719-.882-3.96-1.207-.052-.062-.107-.121-.162-.187-.228-.099-.635-.066-.933-.183-.154-.058-.397-.227-.61-.289l-.742-.077c-.246-.099-.58-.292-.9-.37-1.087-.255-2.351-.325-3.347-.629-.128.008-.257.019-.385.026-.706-.157-3.67-.772-4.25-.578-1.845-.523-4.046-.311-5.89-.684-.58-.118-1.388.117-1.866.029-.944-.176-2.26-.293-3.189-.37a.266.266 0 0 1-.073.033v-.033c-.423.022-.816.04-1.135.088l-.235-.055c-.36-.058-.952.015-1.242.055l-1.297-.055c-1.12.143-2.237.125-3.424.271-.283.007-.57.015-.856.018-.786.128-1.807.183-2.509.275-.246.007-.489.014-.735.018-.999.256-2.101.209-3.306.435-.588.11-1.12.315-1.712.454-.815.19-1.59.154-2.45.308-.537.095-1.044.358-1.562.49-.25.062-.55.055-.826.143-.21.073-.507.223-.739.274l-.44.055c-1.253.439-2.425.944-3.575 1.43-.62.268-1.33.385-1.976.637-1.521.593-3.086 1.123-4.662 1.742-.048.058-.1.12-.147.183-.327.197-1.032.567-1.418.706-.82.296-1.624.618-2.359.962-.19.088-.477.114-.65.216-.536.315-1.036.659-1.653.926-.867.373-1.83.585-2.744.926-.706.26-1.095.742-1.712 1.05-.368.186-.893.27-1.238.472-1.025.593-2.013 1.138-3.16 1.668-.106.092-.216.183-.323.271-.36.227-.771.425-1.15.637-.198.11-.18.205-.356.289-.823.399-1.54.944-2.33 1.288-.807.355-1.788.633-2.42 1.09-.64.461-1.403.85-2.006 1.325-.44.344-.83.724-1.33 1.032-.125.033-.253.062-.382.091-.448.172-.735.542-1.09.783l-.71.34v.114c-.132.11-.415.19-.533.307v.106c-.169.1-.404.132-.587.22-.393.183-.676.497-.974.743-.195.16-.624.256-.856.398-.507.308-.962.7-1.535.963-.324.146-.687.205-1.033.344-.496.197-1.014.475-1.506.67-.309.124-.735.182-.973.347-.228.154-.394.198-.68.326-.147.11-.294.215-.441.325-.246.088-.588.15-.827.293-.128.106-.257.216-.385.326-.614.208-1.407.318-1.977.581-.286.128-.521.333-.793.469-.735.37-1.753.567-2.69.797-.227.059-.499.23-.705.311-.15.022-.297.048-.444.074-.47.15-.911.387-1.418.523-.364.102-.632.08-1.029.164a37.03 37.03 0 0 0-.68.238c-.83.256-1.873.458-2.744.633-.661.132-1.381.224-1.98.344l-1.032.165c-.342.157-.665.16-1.15.27-.83.191-1.785.33-2.656.454-1.04.147-2.087.088-3.13.235-.823.117-1.587.15-2.447.256-.305.025-.61.047-.914.073-.559-.066-1.514.132-2.245.11-.951-.033-1.815-.077-2.803-.077v.077c-.61-.198-1.084-.417-1.52-.55-.625-.19-1.97.546-2.826.367-1.047-.223-1.94-.59-3.376-.366v-.187c-.25.278-2.046-.406-2.392-.545-.316.23-2.005-.45-2.7-.366-1.517.183-3.402-.805-4.787-1.273-.407-.022-.819-.044-1.23-.062-.28-.19-.54-.44-.919-.674-.474-.292-2.182-.578-2.149-1.094-.584.242-2.535-.545-3.13-.849-.51.026-2.487-1.745-3.25-2.191-.409-.14-.816-.286-1.228-.428-.87-.893-1.642-1.845-2.759-2.43-.577-.12-1.15-.245-1.723-.366-.922-.501-2.057-1.325-2.696-2.192-.085.11.01.095-.125.059-.305-.161-.614-.322-.922-.487v-.12c-.43-.366-1.135-1.936-1.9-2.006.06-.062.122-.124.184-.183-.4-.124-4.158-4.193-4.236-4.804.089 0-.044-.044-.062-.062-.551-.754-2.245-1.548-2.759-2.803-.198-.472-.353-1.442-.617-1.764-.522-.647-.893-.775-1.165-1.46-.4-1.01-.852-3.168-1.535-3.955-.82-.944-2.142-2.719-2.024-4.135-.298.04-.04-.029-.427-.124.122-.322-.014-.278.243-.242-.059-.16-.121-.322-.184-.486v.245h-.059c-.227-.607-.451-1.218-.676-1.826-.07-.256-.176-1.361 0-1.522a2.677 2.677 0 0 1-.492-.973c.022-.242.04-.487.063-.732-.055.223.003.124-.125.245.095-.512-.235-1.416-.06-1.764v-.062h-.124a1.82 1.82 0 0 1-.059.12c.03-.694-.055-.636.059-1.155-.173.07-.088.055-.246.062-.17-1.504-.489-2.938-.489-5.233-.018.059-.044.121-.062.183H.5c.091-.757-.151-3.282-.368-3.83-.022.098-.044.197-.062.3-.022-.608-.044-1.215-.063-1.823.063-.347.125-.691.184-1.039-.018.062-.04.125-.059.187a1.424 1.424 0 0 1-.132-.49h.096c-.023-.18-.085-.18-.096-.385.22-.428-.044-.82.037-1.262.235-1.255-.066-2.818.183-3.89 0 0-.029-1.039-.014-1.108.077-.388.227-.809.275-1.2-.01-.121-.025-.238-.036-.363.07-.63.183-1.288.404-1.793.077-.172.033-.764.058-.856.092-.362.324-.926.445-1.302-.015-.121-.026-.246-.04-.366.12-.436.304-.813.426-1.215.099-.348.095-.644.22-1.028.202-.626.614-1.171.757-1.903h.092c.051-.454.382-.933.61-1.218.194-.246.385-.977.554-1.343.107-.235.338-.472.426-.685.188-.479.368-1.072.607-1.5.084-.146.213-.16.297-.296.004-.066.011-.128.018-.19.081-.176.258-.366.35-.538.062-.117.058-.3.091-.34l.353-.385c.084-.205.1-.435.224-.6.066-.025.132-.055.198-.084.162-.263.173-.582.335-.834.092-.092.183-.187.275-.278.474-.68.908-1.336 1.385-2.01a2.87 2.87 0 0 0-.036-.171c.374-.051 1.138-1.497 1.384-1.43-.007-.447 1.683-1.845 1.68-2.182.12-.054.59-.9.705-1.068.147-.227.43-.435.606-.64.01-.011.084-.077.092-.022.294-.505.58-.948.907-1.409.118-.113.232-.227.35-.34.139-.213.275-.49.444-.666.338-.352.712-.94 1.054-1.219.154-.124.338-.216.46-.384.36-.501.635-1.068 1.013-1.603.096-.131.265-.131.39-.234.308-.256.635-1.039.885-1.408.073-.11.297-.169.353-.238.33-.406.573-.915.903-1.325l.496-.34c.022-.08.04-.157.055-.238.096-.161.298-.278.408-.424.096-.121.11-.293.206-.41.367-.461.856-.974 1.16-1.493-.007-.007-.01-.015-.018-.022H21.9v-.084c.15-.15.37-.172.536-.322l.11-.278c.21-.348.43-.578.647-.963.055-.025.11-.055.165-.084.188-.212.265-.545.426-.79l.24-.216c.025-.106.047-.212.073-.318.43-.71.903-1.358 1.293-2.137.055-.117.213-.216.257-.322.033-.07-.015-.205.04-.3.052-.033.107-.07.166-.106.158-.23.316-.458.477-.685.338-.65.731-1.262.996-1.943.084-.212.257-.658.463-.644-.004-.453.231-.515.407-.746.081-.106.085-.318.129-.406.066-.14.231-.278.312-.406l.188-.597c.047-.044.095-.087.147-.131.323-.666.62-1.8.848-2.628l.129-.106c.073-.153.047-.424.128-.622.044-.102.162-.26.206-.402l.055-.494c.07-.165.206-.384.257-.597.18-.72.232-1.562.445-2.224a5.999 5.999 0 0 1-.019-.256c.11-.465.54-2.437.405-2.822.37-1.225.22-2.682.48-3.907.082-.388-.08-.926-.018-1.24.122-.63.202-1.5.258-2.116-.011-.018-.015-.033-.022-.05h.003c.008-.02.008-.034.019-.052-.048-.615-.118-1.486-.22-2.115-.052-.315.084-.853.014-1.24-.224-1.226-.096-2.682-.412-3.908.118-.384-.253-2.357-.349-2.821l.019-.256c-.184-.663-.224-1.504-.379-2.225-.047-.212-.165-.432-.224-.597-.014-.164-.03-.329-.047-.494-.037-.142-.136-.3-.173-.402-.074-.198-.052-.468-.11-.622l-.114-.106c-.195-.827-.448-1.961-.728-2.627-.04-.044-.084-.088-.125-.132a28.273 28.273 0 0 1-.157-.597c-.07-.128-.214-.267-.272-.406-.037-.087-.04-.3-.107-.406-.15-.23-.353-.293-.349-.746-.176.014-.327-.432-.397-.644-.227-.68-.565-1.292-.856-1.943-.136-.227-.271-.454-.411-.684a14.832 14.832 0 0 0-.14-.107c-.047-.095-.007-.23-.033-.3-.04-.106-.172-.204-.224-.322-.334-.779-.738-1.427-1.106-2.136-.022-.107-.04-.213-.062-.319-.07-.073-.14-.142-.206-.216-.14-.245-.202-.578-.363-.79-.048-.03-.096-.059-.144-.084-.183-.384-.374-.615-.554-.962-.03-.092-.063-.183-.096-.279-.14-.15-.327-.172-.46-.322v-.084h.115l.014-.022c-.26-.52-.683-1.032-.999-1.493-.077-.117-.092-.289-.172-.41-.096-.146-.269-.263-.35-.424l-.047-.238-.426-.34c-.283-.41-.489-.918-.776-1.324-.047-.07-.238-.129-.3-.238-.214-.37-.497-1.153-.758-1.409-.106-.102-.253-.102-.334-.234-.327-.534-.562-1.102-.87-1.603-.103-.168-.261-.26-.397-.384-.29-.278-.61-.867-.9-1.219-.147-.175-.261-.453-.382-.665-.1-.114-.199-.227-.302-.34a19.727 19.727 0 0 1-.775-1.41c-.003.055-.07-.01-.077-.021-.154-.205-.397-.414-.522-.64-.095-.17-.5-1.014-.602-1.07.004-.336-1.447-1.734-1.44-2.18-.213.066-.867-1.38-1.187-1.43l.033-.173c-.411-.67-.786-1.328-1.19-2.008l-.235-.278c-.14-.253-.15-.571-.287-.835-.058-.029-.113-.058-.172-.084-.103-.165-.118-.395-.191-.6-.1-.128-.199-.256-.302-.384-.029-.04-.025-.223-.077-.34-.077-.172-.231-.363-.3-.538-.005-.063-.012-.125-.016-.19-.073-.136-.183-.15-.253-.297-.206-.428-.36-1.02-.522-1.5-.077-.212-.275-.45-.367-.684-.143-.366-.305-1.098-.474-1.343-.195-.286-.481-.765-.522-1.219h-.077c-.125-.732-.477-1.277-.65-1.902-.107-.385-.103-.681-.191-1.029-.103-.402-.26-.779-.364-1.214l.033-.366c-.103-.377-.301-.94-.382-1.303-.018-.091.019-.684-.044-.856-.19-.505-.29-1.164-.353-1.793l.034-.362c-.04-.392-.173-.813-.236-1.2-.014-.07.015-1.11.015-1.11-.217-1.071.04-2.634-.158-3.889-.07-.442.158-.834-.033-1.262.011-.205.063-.205.08-.384h-.08c.232-.71.492-1.263.643-1.771.22-.721-.64-2.283-.426-3.279.257-1.218.687-2.257.426-3.922h.217c-.327-.293.477-2.382.643-2.781-.272-.37.525-2.33.426-3.136-.213-1.767.944-3.955 1.495-5.565.022-.476.048-.951.07-1.427.22-.326.514-.63.786-1.069.342-.552.68-2.535 1.286-2.495-.283-.68.635-2.95.995-3.637-.033-.596 2.043-2.89 2.564-3.78.166-.476.335-.951.5-1.427 1.047-1.01 2.16-1.906 2.847-3.209.147-.666.287-1.332.43-1.998.588-1.068 1.55-2.389 2.568-3.135-.129-.096-.11.014-.07-.143.187-.355.375-.714.57-1.069h.143c.426-.504 2.266-1.324 2.347-2.21.074.07.144.143.213.213.147-.469 4.912-4.834 5.632-4.922-.004.103.048-.055.074-.073.878-.637 1.807-2.605 3.276-3.205.555-.23 1.694-.41 2.069-.717.76-.608.91-1.04 1.712-1.35 1.183-.469 3.71-.992 4.628-1.786 1.11-.955 3.19-2.492 4.846-2.353-.048-.351.033-.051.147-.498.375.14.323-.014.283.286l.57-.216h-.287v-.07c.712-.26 1.425-.523 2.138-.783.297-.084 1.594-.208 1.782 0 .32-.252.686-.45 1.142-.574.283.026.57.051.856.073-.26-.066-.147.004-.287-.146.6.113 1.657-.271 2.065-.066h.074V1.65c-.048-.025-.096-.047-.14-.073.812.037.742-.062 1.352.073-.081-.205-.063-.106-.074-.289 1.764-.197 3.443-.567 6.132-.57-.074-.023-.144-.048-.213-.07V.578c.885.106 3.842-.172 4.485-.424-.114-.026-.235-.052-.352-.077.712-.022 1.425-.048 2.138-.07.4.07.804.147 1.212.213-.074-.022-.147-.048-.217-.066A1.66 1.66 0 0 1 68.881 0v.026A.319.319 0 0 0 68.944 0c.775.062 1.87.154 2.656.296.396.07 1.072-.117 1.557-.022 1.536.297 3.37.125 4.905.546.485-.154 2.957.336 3.541.464.107-.007.213-.018.323-.022.83.242 1.885.297 2.789.502.264.062.543.216.75.296.205.018.41.04.616.062.18.051.382.183.511.23.246.092.584.067.779.15.044.048.088.096.132.147 1.036.26 2.461.597 3.299.966.055.055.11.114.162.168l.75.209c.16.095.337.282.51.359.114.05.378.054.51.146.29.201.368.468.937.461-.018.234.54.435.805.53.856.3 1.623.747 2.443 1.131.283.183.573.366.86.545.04.066.087.128.132.19.117.063.286.008.374.04.129.056.261.231.404.3.978.444 1.79.982 2.682 1.468.132.03.265.059.4.084l.269.275c.308.183.727.267.992.483l.11.19c.477.245.771.498 1.205.735.114.04.231.085.349.125.187.19.217.435.4.61h.11v-.15a.112.112 0 0 0 .026-.017c.654.347 1.297.903 1.877 1.324.147.106.36.125.511.23.184.129.334.356.536.462.1.022.195.044.294.062l.43.567c.514.377 1.154.651 1.66 1.032.089.062.162.315.298.399.467.285 1.448.658 1.77 1.01.13.139.13.336.295.442.672.432 1.381.743 2.013 1.153.206.139.323.348.481.527.346.384 1.084.812 1.532 1.196.217.194.562.348.83.509.144.128.283.263.426.395.58.37 1.14.699 1.771 1.032-.066.007.015.091.03.106.253.201.518.523.8.692.214.128 1.275.666 1.345.797.415-.003 2.171 1.925 2.733 1.914-.08.282 1.734 1.153 1.797 1.577l.216-.044c.842.545 1.668 1.04 2.52 1.577.114.106.232.209.35.315.315.183.712.197 1.043.38l.11.23c.206.14.492.155.75.253.161.132.323.264.484.4.048.04.28.032.427.105.213.103.451.304.672.4.08.006.161.014.239.021.169.092.194.242.378.333.533.275 1.278.48 1.877.695.268.1.57.363.86.483.46.19 1.381.406 1.69.633.352.256.955.637 1.528.692v.106c.915.161 1.598.633 2.388.86.481.143.849.139 1.286.252.507.136.977.344 1.528.483.15-.014.305-.029.455-.04.474.135 1.183.395 1.635.505.118.026.86-.022 1.073.062.635.253 1.462.384 2.256.461.15-.014.304-.03.455-.04.489.055 1.018.227 1.503.315.088.014 1.392-.022 1.392-.022 1.348.289 3.306-.055 4.882.208.555.095 1.047-.205 1.584.044.257-.01.257-.08.48-.106v.062c.02.008.038.019.056.026.242.073 1.102-.095 1.253-.04.213.01.43.018.646.025.092-.007.184-.014.276-.025.055.014.106.025.158.04.253-.033.705-.084 1.047-.04.21.025.856.065 1.028.04.463-.07.886-.146 1.36-.198.389-.04.881-.11 1.252-.183.077.008.151.019.228.026.096-.026.29-.033.434-.08.29-.088.903-.312 1.256-.392.195-.044.393-.026.591-.106.1-.037.236-.132.383-.168l.455-.055c.305-.074.577-.154.852-.25l.21-.01c.374-.114.819-.22 1.22-.29.168-.029.352.012.525-.054l.154-.103c.213-.076.456-.036.665-.117.463-.183.959-.358 1.392-.567.15-.07.287-.03.437-.091.103-.04.188-.147.28-.183.073-.004.15-.008.224-.015.07-.036.106-.132.176-.168.085-.015.173-.026.26-.04.07-.026.115-.107.174-.132l.33-.092c.261-.117.474-.303.786-.391.03-.051.019-.018 0-.066.294.007.53-.296.768-.395.199-.084.393-.088.573-.183.423-.227.845-.447 1.275-.67.316-.168.43-.483.834-.567.007-.022.011-.051.018-.077h.085c.334-.179.577-.395.837-.63l.21-.105c.07-.084.077-.165.172-.223a19.35 19.35 0 0 0 1.709-1.168c-.015-.007-.033-.014-.052-.025l.21-.066v-.106c.29-.147.676-.403.874-.615.026-.044.055-.088.085-.132.264-.157.55-.267.8-.435.129-.084.184-.3.28-.366.117-.077.363-.263.47-.315.092-.04.187-.01.26-.05.14-.081.192-.191.261-.29.1-.132.294-.165.405-.263.124-.114.235-.275.382-.366.451-.286.903-.575 1.392-.827.294-.15.595-.501.856-.695.33-.242.735-.414 1.098-.63.074-.047.15-.168.191-.197.066-.048.173-.048.243-.092.055-.036.04-.117.088-.157.07-.03.14-.055.21-.08l.07-.118c.19-.113.466-.186.59-.34.416-.501 1.044-.882 1.672-1.259.21-.124.213-.318.353-.435.051-.011.103-.026.154-.04.066-.033.1-.121.121-.143.118-.062.235-.125.35-.183.286-.176.455-.498.907-.553-.022-.04 0-.014-.037-.04.727-.263 1.223-.651 1.848-.97.15-.076.488-.285.54-.3.066-.025.15.011.228-.029l.036-.01a.924.924 0 0 1 .015-.107c.052-.058.173-.04.243-.077.147-.117.29-.227.437-.344l.279-.025c.106-.048.187-.161.297-.209.269-.113.533-.197.75-.318.033-.015.015-.088.015-.088.07-.022.14-.044.209-.07l.195-.208h.14c.128-.037.304-.18.345-.198.073-.025.279-.018.418-.062.199-.066.555-.135.732-.238.088-.05.23-.153.367-.197.1-.015.198-.026.297-.04.06-.037.114-.077.173-.118.434-.157.86-.26 1.323-.446.132-.051.264-.161.385-.209.144-.018.29-.036.434-.05.073-.023.132-.089.195-.107.415-.128.771-.08 1.182-.238.118-.066.232-.131.35-.194.517-.106 1.16-.175 1.638-.395.048.03.635-.124.68-.146.044.036.264.025.349 0 .462-.14 1.006-.117 1.517-.249.242-.062.643-.026.973-.106.706-.165 1.624-.22 2.337-.326.558-.084 1.37-.014 1.899-.12.206-.037.404.018.54 0 .375-.04.661-.03.992-.092.173-.03.367.073.518.018v.578c.393-.044.838.074.93.085l-.122.08c.345-.08.904-.102 1.22.165-.173.022-.037-.026-.125.12.926-.27 2.171.077 3.365.286.419.014.841.03 1.256.04l-.08.125a.566.566 0 0 1 .363-.085c.077.154.07.011.044.165.202-.011.404-.03.606-.04.034.139-.047.051.081.12-.136-.347 1.323.092 1.459.165.125.062.165.07.286.04-.158-.04-.125-.014-.205-.12l.529.16c-.04.015-.081.026-.122.04.052-.014.107-.025.158-.04.15.056.298.107.452.162-.044.014-.084.029-.125.044.24-.03.61.003.853.12-.03.015-.056.03-.081.044h-.246c.12.004.19.004.246 0 .106-.01.147-.033.323-.044-.04.044-.08.08-.121.125.217.01.433.025.65.04.026.139-.04.066.118.161.047-.077 0-.077.084-.04.254.22.907.256 1.212.53v-.124c.379.263 1.448.72 1.705.977-.18.025-.07-.077-.162.084h.04c.236-.322 2.356 1.09 2.76 1.343.062-.077-.008-.051.158-.04.033.135-.026.146.12.245-.025-.044-.05-.08-.076-.121.507.267 2.13.878 2.145 1.138h.162l-.081-.08c.452.09 1.723 1.112 1.866 1.262a3.473 3.473 0 0 0-.161-.04c.194.16.756.596 1.216.65-.004.195.066.206 0 .367.286-.092.734.168.933.41-.022.135-.044.043.08.12.045-.08-.003-.077.081-.04.129.403.313.688.647 1.058-.085.164-.092.07-.04.204.025-.054.055-.106.08-.164.026.03.055.058.081.084-.026.015-.055.026-.08.04.245.011.796.417.973.651-.055.03-.107.055-.162.081.305.263.492.256.933.57.03.231.081.264.04.45.081-.043.162-.08.243-.124-.015.183-.103.055.04.205.412.103 1.048 1.025 1.338 1.468.452.688 1.032.988 1.499 1.672.213.307.341.655.407.933.133.135.618.465.809.856.12.245-.037.282.08.45l.044-.124c.122.691.85 1.101 1.051 1.507.173.34.165 1.058.327 1.263.235-.07.944 1.47.93 1.547-.103.63.815 1.179.65 1.427v.125c.04.022.433 1.485.404 1.507.28.308.786 1.53 1.054 2.2.132.332-.01.929.125 1.382.187.425.375.842.566 1.263.092.33-.257.48-.081.937.338.881.173 1.448.364 2.162.07.026.136.051.202.08.003.732.437 2.756.419 4.27"/>
</svg>
