<svg xmlns="http://www.w3.org/2000/svg" width="256" height="205" viewBox="0 0 256 205">
    <path fill="#16CC94" fill-rule="evenodd" d="M67.208 168.033c.056-.17.107-.352.148-.567.046-.248-.046-.536-.076-.675-.094-.455.103-1.062 0-1.57-.097-.492-.218-1.057-.296-1.536-.013-.387-.024-.774-.038-1.158-.132-.417-.504-.855-.558-1.35-.035-.317.205-.495.111-.898-.135-.594-.507-1.17-.555-1.758l.11-.45c-.086-.491-.452-1.817-.52-1.946-2.094-4.051-4.936-9.006-8.361-11.751.094-.006-.052-.202-.073-.223-.515-.457-.677-1.197-1.116-1.646-.854-.87-1.991-1.71-2.864-2.433-.442-.37-1.329-.532-1.633-1.086-.154-.067-.095 0-.076-.148-.399-.207-.665-.5-1.002-.75-.733-.54-1.283-.58-2.118-1.01-1.582-.818-3.388-.993-4.942-1.687h-.076c-1.258-.416-3.19-.379-4.46-.71-.334.014-.668.025-1.002.038-.264-.212-1.108-.105-1.598-.185-.757-.132-1.668-.113-2.528-.097v-.019c-.36.04-.768-.067-.854-.08.035-.025.076-.052.113-.076-.318.076-.83.097-1.115-.148.153-.024.03.025.11-.113-.849.25-1.989-.067-3.083-.263-.385-.01-.77-.024-1.153-.035l.073-.113c-.132.07-.189.083-.334.075-.07-.137-.06-.01-.038-.15-.183.013-.372.027-.558.037-.03-.129.046-.045-.073-.11.124.315-1.212-.086-1.336-.15-.116-.06-.154-.065-.262-.04.146.04.11.015.186.112-.161-.048-.323-.097-.482-.148.035-.013.073-.024.11-.037l-.148.037-.41-.15.111-.038c-.218.024-.558-.002-.779-.113.025-.01.049-.024.073-.037h.224c-.108-.003-.173-.003-.224 0-.097.01-.135.03-.296.037.037-.037.075-.072.11-.11-.197-.01-.396-.027-.593-.038-.027-.129.033-.061-.113-.15-.04.072.003.072-.073.037-.234-.201-.835-.236-1.115-.486v.113c-.348-.24-1.323-.659-1.56-.898.164-.022.064.07.148-.075h-.038c-.213.293-2.158-1.003-2.528-1.234-.059.072.006.045-.148.037-.03-.126.024-.134-.11-.226.021.04.048.076.072.113-.463-.247-1.956-.809-1.97-1.048h-.148l.076.075c-.415-.086-1.58-1.022-1.711-1.159l.148.035c-.178-.145-.693-.546-1.116-.597.006-.177-.059-.185 0-.336-.261.084-.673-.156-.854-.376.022-.124.04-.04-.073-.113-.04.075 0 .073-.075.04-.121-.37-.288-.634-.593-.973.078-.15.084-.062.035-.188-.024.05-.048.1-.075.15l-.073-.075c.024-.013.051-.024.073-.038-.224-.01-.73-.381-.89-.6.049-.023.1-.047.149-.072-.278-.242-.45-.234-.855-.524-.03-.21-.075-.242-.037-.411-.076.037-.149.072-.224.11.013-.167.094-.048-.038-.186-.374-.094-.96-.94-1.226-1.346-.415-.632-.948-.907-1.374-1.536-.194-.282-.313-.605-.372-.86-.124-.121-.569-.425-.744-.785-.11-.226.035-.26-.073-.411l-.04.11c-.11-.632-.779-1.011-.965-1.382-.159-.315-.148-.97-.296-1.161-.216.061-.868-1.35-.854-1.42.094-.578-.75-1.08-.596-1.312v-.113c-.038-.019-.396-1.366-.372-1.385-.253-.282-.72-1.403-.967-2.019-.121-.306.008-.852-.11-1.271l-.52-1.162c-.087-.298.236-.438.075-.857-.313-.81-.16-1.331-.337-1.984l-.183-.078c-.003-.67-.402-2.53-.387-3.92h.123c-.017-.261-.038-.538-.079-.815l.03-.312c-.062-.382-.105-.976-.046-1.395.227-1.643.189-3.694.588-5.415.019-.228.04-.457.062-.685.186-.724.345-1.39.522-2.041.087-.312.049-.597.157-.863.11-.285.288-.58.399-.863l.016-.274c.091-.366.118-.737.231-1.159.087-.223.176-.444.262-.667.108-.398.215-.798.326-1.196.108-.22.267-.465.353-.707.194-.538.353-1.226.617-1.745l.51-.726c.123-.288.115-.532.247-.844.054-.127.21-.229.262-.352.226-.533.487-.882.773-1.318.267-.408.45-.9.693-1.333.19-.336.417-.659.62-1 .102-.119.204-.237.307-.353l.202-.451c.148-.218.606-.581.708-.785.076-.148.105-.256.202-.371.076.005.154.013.232.016v-.016c-.078-.006-.207-.03-.232-.06.149-.462.55-.733.8-1.118.09-.134.127-.384.233-.49l.14-.061c.175-.212.299-.514.463-.745.162-.231.375-.357.555-.57.18-.21.307-.516.477-.744.264-.358.652-.6.895-.982.361-.559.652-1.075 1.035-1.57.188-.24.318-.503.495-.763.146-.218.394-.342.54-.57.08-.127.11-.28.199-.39.135-.14.27-.277.401-.414h.079c.175-.264.307-.594.509-.823l.248-.177c.067-.143.108-.328.215-.47.162-.216.475-.445.647-.708l.264-.51c.146-.2.364-.329.51-.528.183-.26.317-.575.509-.825l.137-.078c.216-.304.34-.696.555-1 .318-.45.669-.86.99-1.315.145-.207.325-.304.447-.532.288-.551.557-1.054.862-1.568.159-.263.41-.435.558-.707.385-.707.66-1.61 1.156-2.177l-.03-.097c.146-.258.267-.54.418-.826.342-.656.506-1.411.832-2.059l.308-.452c.12-.217.142-.537.218-.804.118-.424.366-.876.493-1.293.046-.156.208-.758.2-.766.226-.344.293-.798.493-1.196l.17-.256c.037-.12.01-.328.032-.451.078-.288.153-.576.231-.863.052-.18.014-.345.046-.511.127-.63.38-1.433.572-2.1.018-.229.04-.457.061-.686.044-.188.138-.494.184-.666.078-.277-.014-.522.048-.845.264-1.4.329-2.825.585-4.121.054-.272-.046-.554-.016-.801.054-.433-.033-.858 0-1.218l.078-.726c.019-.242.022-.911.022-.911.005-.522.067-.976.231-1.28l-.145-.073c.126-.255-.208-.675.037-1.199.19.04.108-.699.221-.823l.186-.037c.014-.049.027-.1.038-.15-.143-.361.482-.977.372-1.646.051.01.1.024.148.038-.048-.143 0-.078-.11-.151.056-.18.005-.148.148-.15l-.076-.186c.052.024.1.051.151.075.011-.1.025-.199.035-.3-.078-.06-.159-.06-.11-.149.038-.226.075-.449.11-.672.07.027.014.027.076 0 .038-.024.073-.051.11-.075h-.148c.024-.014.051-.027.076-.038l.11-.113c.08.124.01.057.151 0-.07-.161-.17-.258.035-.449.084-.072 0-.002.11 0 .04-.352.057-.269.19-.524-.041.013-.076.024-.114.038.083-.232.189-.272.3-.186.01-.253.037-.212.147-.339-.116-.174-.143-.131-.148-.411l.183-.336-.072.336c.024-.01.048-.024.072-.038.014-.075.025-.15.038-.223l.073.073c-.076-.172-.146-.175-.183-.412.024.04.048.078.072.113-.032-.411.033-.83 0-1.086h.038c.067.078.003.03.113.076-.002-.116.006-.076.035-.224-.048.038-.097.076-.148.113v-.037c.108-.159.218-.25.3-.336-.109-.09-.057.032-.114-.113.145-.038.113-.016.186-.113-.038.024-.073.048-.11.075.026-.212.78-2.89.854-2.957.067-.092.24-.143.334-.336-.1-.025-.09.03-.076-.073-.01-.027-.024-.051-.035-.078.704-.296.537-1.1 1.078-1.46-.11-.102-.083-.037-.11-.148.035.011.07.024.11.038-.04-.121-.06-.153.035-.264.054-.115.04-.026.151 0-.086-.263-.021-.473.148-.672v.11c.237-.107.14-.29.297-.446-.038-.05-.073-.1-.11-.15.19-.084.382-.533.595-.785-.016.037-.027.072-.038.113l.148-.04c-.013-.025-.027-.05-.037-.073.062-.084-.025-.17.185-.226.052.04.054.035.111-.11-.084-.1-.035.005-.035-.154.2-.064.242-.062.186-.295.135.018.113.021.224-.04.008-.173.072-.189-.04-.41.048-.064.099-.126.15-.188l.073.113c.013-.156.008-.131.113-.263-.143-.054-.132-.027-.038-.15.105-.393.262-.288.52-.673-.037-.01-.075-.024-.11-.037.44-.03.558-.662 1.002-.823-.105-.105-.059-.07-.11-.188.288-.229.447-.406.63-.635-.091-.072-.013-.021-.11-.04.035-.062.073-.124.11-.186.03.132-.048.057.076.113.016-.15.024-.14.073-.223-.049.01-.097.024-.149.038.052-.027.1-.051.149-.078.094-.205.177-.178.299-.299l-.151.038c.04-.048.075-.1.11-.15.143.042.04.083.151 0-.097-.017-.021.037-.11-.036l.183-.112c.137.112.374-.264.374-.264.03-.107.07-.027 0-.11l-.11.035.11-.113h.294c-.043-.102.1-.145.151-.409.081.06.18.038.372-.113V9.43c-.062.013-.127.024-.186.037.01-.024.024-.05.038-.075l.183-.11c.046.094-.022.035.075.072.014-.107.073-.3.186-.411l-.186.075c.068-.161.313-.35.41-.524.138.035.03.073.148 0-.037-.148-.067-.04.038-.185h.13c.013-.003.032-.003.056 0-.024-.003-.043-.003-.057 0h-.03c-.007-.003-.007-.011.011-.038.213-.204.42-.21.671-.301h-.15c.027-.038.05-.073.075-.113l.372-.186c-.038.051-.073.1-.113.15.04.012.075.025.113.036.065-.124.089-.108.186-.186l-.11-.072c.26-.014.409-.092.444-.188-.035-.014-.075-.025-.11-.04.45.026.466-.143.778-.221.057-.2.076-.207.113-.301.23.05.219-.092.483-.076-.014-.166-.081-.086.073-.223-.011.049-.022.1-.035.148.08-.078.07-.051.113-.188.434-.145.536-.53.889-.747l-.11.188c.061-.014.123-.024.185-.038.038-.1.073-.199.11-.301l.114.078c-.027-.038-.048-.078-.075-.113.6-.126.865-.452 1.487-.75-.013-.062-.024-.124-.04-.186.204-.005.547-.174.485-.336.428.054.452-.182.67-.336.017.116-.045.022.036.11.086-.11.172-.225.261-.336v.11c.54-.209.54-.478.854-.634.224-.11.308.046.485-.15-.027-.011-.05-.025-.075-.038.092.008.994-.32.965-.336.337-.145 1.126-.218 1.19-.186.596-.32 1.221-.502 2.122-.825.719-.258 1.196-.032 1.929-.223.073-.019.202-.06.224.038.102-.189 2.673-.686 2.713-.675V.785c-.027-.038-.051-.075-.075-.113.188 0 .213-.043.372.038.018-.164-.076-.076.072-.148.18.091.83-.366.857-.374.696-.064 1.388-.126 2.08-.188.47.038 1.025.027 1.599.016v.08c.196-.02.196-.085.425-.096.472.229.903-.048 1.39.038 1.389.244 3.113-.073 4.299.193 0 0 1.148-.035 1.226-.019.426.081.892.237 1.323.29l.402-.04c.695.073 1.422.194 1.983.428.186.075.84.03.943.056.402.1 1.024.34 1.44.463.134-.014.269-.024.403-.038.483.127.898.32 1.345.444.383.105.709.102 1.134.231.693.21 1.294.643 2.1.793v.094c.504.051 1.032.4 1.347.637.27.205 1.08.404 1.485.578.258.113.52.355.757.447.528.199 1.183.387 1.652.637.162.086.183.22.331.309.07.005.14.01.213.019.192.086.402.271.59.366.13.067.332.059.375.096l.428.366c.227.091.477.105.66.234.03.07.063.14.095.212.29.167.641.178.921.347l.305.288c.752.494 1.48.951 2.22 1.449l.192-.038c.054.39 1.652 1.189 1.579 1.447.496-.008 2.04 1.76 2.409 1.758.06.12.994.616 1.178.734.253.156.485.449.71.634.012.011.082.09.023.097.557.304 1.048.608 1.56.947.124.12.25.244.377.365.232.145.536.288.73.465.391.355 1.04.745 1.345 1.1.143.164.242.357.426.481.555.38 1.18.664 1.773 1.062.143.1.145.277.256.406.285.323 1.15.667 1.56.928.119.075.186.309.261.365.448.35 1.008.602 1.464.947.126.172.25.346.377.521l.259.057c.178.1.312.309.471.424.132.1.32.116.45.213.51.384 1.078.9 1.652 1.215.008-.005.016-.01.024-.019v-.134h.095c.164.161.188.387.353.562.102.037.207.075.307.115.383.218.639.45 1.064.675l.092.175c.234.196.604.274.876.443l.234.25.353.078c.787.447 1.501.944 2.363 1.35.124.06.24.223.353.272.079.032.23-.02.332.037l.118.175.755.5c.722.355 1.396.764 2.148 1.043.231.086.727.27.708.484.502-.005.572.242.828.425.116.083.347.089.447.134.15.07.307.242.45.328l.66.194.14.153c.739.339 1.994.648 2.905.887.038.046.078.09.119.138.167.072.466.048.684.134.113.043.291.167.448.212.18.02.363.038.544.057.18.072.426.215.66.271.798.189 1.725.24 2.455.463.094-.006.189-.014.283-.019.517.116 2.692.567 3.118.425 1.353.384 2.967.228 4.32.503.425.086 1.018-.087 1.368-.022.693.13 1.658.215 2.34.272.016-.011.034-.02.053-.025v.025c.31-.017.598-.03.833-.065l.172.04c.264.043.698-.01.911-.04l.951.04c.822-.104 1.642-.091 2.512-.199.207-.005.418-.01.628-.013.576-.094 1.326-.134 1.84-.202.18-.005.359-.01.54-.013.732-.188 1.54-.153 2.424-.32.432-.08.822-.231 1.256-.333.598-.14 1.167-.113 1.798-.226.393-.07.765-.264 1.145-.36.183-.046.404-.04.606-.105.154-.054.372-.164.542-.202l.323-.04c.92-.323 1.779-.694 2.622-1.052.456-.196.976-.282 1.45-.467 1.116-.436 2.263-.826 3.42-1.28.035-.043.072-.089.107-.135.24-.145.758-.416 1.04-.518.601-.218 1.192-.455 1.73-.707.14-.065.35-.084.477-.16.394-.23.76-.483 1.213-.68.636-.274 1.342-.43 2.013-.68.517-.19.803-.545 1.256-.771.27-.137.655-.2.908-.347.752-.435 1.477-.836 2.317-1.226l.237-.199c.265-.167.566-.312.844-.468.145-.08.132-.15.261-.212.604-.293 1.13-.694 1.709-.946.593-.261 1.312-.466 1.776-.802.468-.338 1.029-.623 1.47-.973.324-.253.61-.532.976-.758.092-.024.186-.046.28-.067.33-.127.54-.398.801-.576.175-.083.348-.166.52-.25v-.083c.097-.08.305-.14.39-.226v-.078c.125-.072.297-.097.432-.161.288-.134.496-.366.714-.546.143-.118.458-.188.628-.293.372-.226.706-.513 1.126-.707.237-.107.504-.15.758-.253.363-.145.743-.35 1.104-.492.227-.091.54-.134.714-.255.168-.113.289-.145.499-.24.108-.08.216-.158.323-.239.18-.064.432-.11.607-.215.094-.078.188-.158.283-.239.45-.153 1.032-.234 1.45-.427.21-.095.382-.245.581-.345.54-.271 1.286-.416 1.973-.586.167-.043.366-.17.517-.228.11-.016.219-.035.326-.054.345-.11.669-.285 1.04-.384.267-.076.464-.06.755-.121.167-.057.334-.116.499-.175.609-.188 1.374-.336 2.013-.465.485-.097 1.013-.164 1.452-.253l.757-.121c.25-.116.488-.118.844-.199.609-.14 1.31-.242 1.948-.333.763-.108 1.53-.065 2.296-.172.604-.086 1.164-.11 1.795-.189l.67-.053c.41.048 1.11-.097 1.647-.081.698.024 1.331.056 2.056.056v-.056c.447.145.795.306 1.116.403.458.14 1.444-.4 2.072-.269.768.164 1.423.433 2.476.27v.136c.184-.204 1.501.299 1.755.401.231-.17 1.471.33 1.98.269 1.113-.135 2.496.591 3.512.935.299.017.6.033.902.046.205.14.396.323.674.495.348.215 1.6.425 1.576.804.429-.178 1.86.4 2.296.623.375-.018 1.825 1.283 2.385 1.61.3.103.598.21.9.315.639.656 1.205 1.355 2.024 1.786.423.088.843.18 1.264.268.676.369 1.509.974 1.978 1.61.062-.08-.008-.069.091-.042.224.118.45.236.677.357v.09c.315.268.832 1.421 1.393 1.472-.043.046-.09.092-.135.135.294.091 3.05 3.08 3.107 3.53-.065 0 .032.032.046.046.404.553 1.646 1.137 2.024 2.059.145.347.258 1.06.452 1.296.383.476.655.57.855 1.073.293.742.625 2.328 1.126 2.906.6.694 1.571 1.997 1.485 3.038.218-.03.03.021.312.091-.089.237.011.205-.177.178.043.118.088.236.134.357v-.18h.043c.167.447.332.896.496 1.342.051.188.13 1 0 1.118.16.202.283.43.361.715l-.046.538c.04-.164-.002-.091.092-.18-.07.376.173 1.04.043 1.296v.046h.092c.013-.03.027-.06.043-.09-.022.512.04.469-.043.85.126-.05.065-.04.18-.045.124 1.105.359 2.159.359 3.844.013-.043.032-.088.046-.134h.089c-.068.556.11 2.411.269 2.815.016-.073.032-.145.046-.22.016.446.032.892.046 1.338-.046.256-.092.508-.135.764.013-.046.03-.092.043-.137.054.107.084.23.097.36h-.07c.016.132.062.132.07.282-.162.315.032.602-.027.928-.172.922.049 2.07-.135 2.858 0 0 .022.763.011.814-.056.285-.167.594-.202.882.008.089.019.175.027.266-.051.463-.135.947-.296 1.318-.057.126-.025.561-.044.629-.067.266-.237.68-.326.957.011.089.02.18.03.269-.089.32-.224.597-.313.892-.072.256-.07.473-.161.756-.148.46-.45.86-.555 1.398h-.068c-.037.333-.28.685-.447.895-.143.18-.283.718-.407.987-.078.172-.248.347-.313.502-.137.353-.27.788-.444 1.103-.062.107-.157.118-.218.218-.003.048-.009.094-.014.14-.06.128-.189.268-.256.395-.046.086-.043.22-.067.25l-.259.282c-.062.15-.073.32-.164.44-.049.02-.097.041-.146.063-.118.193-.127.427-.245.613-.068.067-.135.137-.202.204-.348.5-.666.981-1.016 1.476.008.043.016.083.027.126-.275.038-.836 1.1-1.016 1.052.005.328-1.234 1.355-1.232 1.602-.089.04-.433.661-.517.785-.108.167-.315.32-.445.47-.008.008-.062.057-.067.017-.216.37-.426.696-.666 1.035l-.256.25c-.102.156-.202.36-.326.489-.248.258-.522.69-.773.895-.113.092-.248.159-.337.283-.264.368-.466.785-.744 1.177-.07.097-.194.097-.285.172-.227.188-.466.764-.65 1.035-.054.08-.218.124-.258.175-.243.298-.42.672-.663.973l-.364.25c-.016.06-.03.116-.04.175-.07.118-.219.204-.3.312-.07.089-.08.215-.15.301-.27.339-.628.715-.852 1.097l.013.016h.095v.062c-.11.11-.272.126-.394.237l-.08.204c-.154.255-.316.425-.475.707-.04.019-.08.04-.121.062-.137.156-.194.4-.313.58l-.175.16c-.019.077-.035.155-.054.233-.315.522-.663.997-.948 1.57-.04.086-.157.159-.189.237-.024.05.01.15-.03.22l-.12.078c-.117.17-.233.336-.351.503-.248.478-.536.927-.73 1.427-.062.156-.189.484-.34.474.003.333-.17.379-.299.548-.06.078-.062.234-.094.299-.049.102-.17.204-.23.298-.045.148-.091.293-.137.438-.035.032-.07.065-.108.097-.237.49-.455 1.323-.622 1.93l-.094.078c-.054.113-.035.312-.095.457-.032.076-.118.191-.15.296l-.041.363c-.051.121-.15.282-.189.438-.132.53-.17 1.148-.326 1.635.006.062.011.126.014.188-.081.342-.396 1.79-.297 2.073-.272.9-.161 1.97-.353 2.871-.059.285.06.68.014.912-.09.462-.148 1.102-.189 1.554.008.013.011.024.016.037h-.002c-.006.014-.006.025-.014.038.035.452.086 1.092.162 1.554.038.231-.062.626-.01.911.163.901.07 1.971.3 2.872-.085.282.187 1.731.257 2.073l-.014.188c.135.486.165 1.105.278 1.634.035.156.121.318.164.439.011.12.022.242.035.363.027.104.1.22.127.295.054.145.038.344.08.457l.084.078c.143.608.33 1.441.534 1.93l.092.097c.04.146.078.29.115.439.052.094.157.196.2.298.027.065.03.22.078.299.11.169.259.215.256.548.13-.01.24.317.291.473.167.5.415.95.628 1.428l.302.503.102.077c.035.07.006.17.024.221.03.078.127.15.165.237.245.572.541 1.048.81 1.57.017.078.03.156.047.234.05.053.102.104.15.158.103.18.149.425.267.58.035.022.07.044.105.063.135.282.275.451.407.707l.07.204c.103.11.24.126.337.237v.062h-.083l-.011.016c.191.381.501.758.733 1.097.056.086.067.212.127.3.07.108.196.194.256.313l.035.174c.102.084.207.167.312.25.208.301.359.675.569.974.035.05.175.094.22.174.157.272.365.847.556 1.035.078.076.186.076.245.173.24.392.412.809.639 1.177.075.124.191.191.29.282.214.205.448.638.66.896.109.129.192.333.281.489.073.083.146.167.221.25.202.339.386.664.569 1.035.002-.04.051.008.056.016.114.15.291.304.383.47.07.124.366.745.442.786-.003.247 1.062 1.274 1.056 1.602.157-.048.636 1.014.87 1.051l-.024.127c.302.492.577.976.873 1.476l.173.204c.102.186.11.42.21.613.043.022.084.043.127.062.075.12.086.29.14.44.073.095.145.189.22.283.022.03.02.164.057.25.057.126.17.266.221.395.003.046.009.092.011.14.054.1.135.11.186.218.151.314.264.75.383 1.102.056.156.202.33.27.503.104.269.223.806.347.987.143.21.353.562.383.895h.056c.092.538.35.938.477 1.398.078.282.076.5.14.755.076.296.192.573.267.893l-.024.269c.075.277.22.69.28.957.013.067-.013.503.032.63.14.37.213.854.259 1.316l-.024.267c.03.287.126.596.172.881.011.052-.01.815-.01.815.158.788-.03 1.936.115 2.858.052.325-.116.613.025.928-.008.15-.046.15-.06.282h.06c-.17.521-.361.927-.472 1.301-.162.53.469 1.678.313 2.409-.189.895-.504 1.659-.313 2.882h-.159c.24.215-.35 1.75-.472 2.043.2.272-.385 1.713-.312 2.304.156 1.299-.693 2.907-1.097 4.09-.016.35-.035.699-.051 1.048-.162.24-.377.463-.577.785-.25.406-.498 1.863-.943 1.834.208.5-.466 2.167-.73 2.672.024.438-1.498 2.124-1.881 2.777-.121.35-.245.7-.367 1.049-.768.742-1.584 1.4-2.088 2.358-.108.49-.21.978-.315 1.468-.431.785-1.137 1.755-1.884 2.304.094.07.081-.01.051.105-.137.26-.275.524-.417.785h-.105c-.313.37-1.663.973-1.722 1.624-.054-.051-.105-.105-.157-.156-.107.344-3.603 3.551-4.13 3.616.002-.076-.036.04-.055.053-.644.468-1.325 1.915-2.403 2.356-.407.169-1.243.3-1.517.527-.558.446-.669.763-1.256.992-.868.344-2.722.728-3.396 1.312-.813.701-2.339 1.83-3.554 1.728.035.258-.024.038-.108.366-.274-.102-.237.01-.207-.21l-.418.159h.21v.051c-.522.19-1.045.384-1.568.575-.218.062-1.17.154-1.307 0-.234.186-.504.331-.838.422-.207-.018-.418-.037-.628-.053.192.048.108-.003.21.107-.439-.083-1.215.2-1.514.049h-.054v.104c.035.02.07.035.102.054-.595-.027-.544.046-.991-.054.06.151.046.078.054.213-1.294.145-2.525.417-4.498.42.054.015.105.034.156.05v.105c-.649-.078-2.818.127-3.29.312l.259.057-1.568.05c-.294-.05-.59-.107-.89-.155.054.016.108.035.16.048-.127.065-.273.097-.421.113v-.019c-.016.006-.032.01-.046.019-.568-.046-1.371-.113-1.948-.218-.291-.05-.787.086-1.143.016-1.126-.217-2.47-.091-3.597-.4-.356.113-2.17-.248-2.598-.342-.078.006-.156.014-.237.016-.609-.177-1.382-.217-2.045-.368-.194-.046-.4-.158-.55-.218-.15-.013-.302-.03-.453-.045-.132-.038-.28-.135-.374-.17-.18-.067-.429-.048-.572-.11l-.097-.107c-.76-.191-1.805-.439-2.42-.71-.04-.04-.08-.084-.118-.124l-.55-.153c-.118-.07-.248-.207-.374-.264-.084-.037-.278-.04-.375-.107-.213-.148-.27-.344-.687-.339.013-.172-.396-.32-.59-.39-.628-.22-1.191-.548-1.792-.83-.208-.135-.42-.27-.63-.401-.03-.049-.065-.094-.098-.14-.086-.046-.21-.005-.275-.03-.094-.04-.19-.169-.296-.22-.717-.325-1.312-.72-1.967-1.078-.097-.022-.194-.043-.294-.062l-.197-.202c-.226-.134-.533-.196-.727-.354l-.081-.14c-.35-.18-.566-.366-.884-.54l-.256-.092c-.137-.14-.159-.32-.294-.449h-.08v.11c-.006.003-.014.008-.02.014-.479-.256-.95-.664-1.376-.974-.108-.078-.264-.091-.375-.169-.135-.094-.245-.26-.393-.339-.073-.016-.143-.032-.216-.045-.105-.14-.21-.28-.315-.417-.377-.277-.846-.479-1.218-.758-.065-.046-.119-.232-.218-.293-.343-.21-1.062-.484-1.3-.742-.094-.103-.094-.248-.215-.326-.493-.317-1.013-.545-1.477-.847-.15-.102-.237-.255-.353-.387-.253-.282-.795-.597-1.123-.879-.16-.142-.413-.255-.61-.374-.104-.094-.207-.193-.312-.29-.426-.271-.835-.513-1.299-.758.049-.005-.01-.067-.021-.078-.186-.148-.38-.385-.588-.508-.156-.094-.935-.49-.986-.586-.305.002-1.593-1.414-2.005-1.406.06-.207-1.272-.847-1.318-1.16l-.159.033c-.617-.4-1.223-.763-1.848-1.159-.084-.078-.17-.153-.256-.23-.232-.135-.523-.146-.766-.28l-.08-.17c-.151-.102-.361-.113-.55-.185l-.356-.293c-.035-.03-.205-.025-.312-.078-.157-.076-.332-.224-.494-.293l-.175-.017c-.124-.067-.143-.177-.277-.244-.391-.202-.938-.352-1.377-.511-.197-.073-.418-.266-.63-.355-.338-.14-1.014-.298-1.24-.465-.26-.188-.701-.468-1.121-.508v-.078c-.671-.118-1.173-.465-1.752-.632-.353-.105-.622-.102-.943-.185-.372-.1-.717-.253-1.121-.355l-.334.03c-.348-.1-.868-.291-1.2-.372-.086-.019-.63.016-.786-.045-.466-.186-1.073-.283-1.655-.34-.11.012-.223.022-.334.03-.358-.04-.746-.166-1.102-.23-.065-.012-1.021.015-1.021.015-.99-.212-2.426.04-3.582-.153-.407-.07-.768.15-1.161-.032-.189.008-.189.059-.353.078v-.046c-.014-.005-.027-.013-.04-.019-.178-.054-.809.07-.92.03-.156-.008-.315-.014-.474-.019-.067.005-.134.01-.202.019-.04-.011-.078-.019-.116-.03-.186.024-.517.062-.768.03-.153-.019-.628-.049-.754-.03-.34.051-.65.108-.997.145-.286.03-.647.081-.92.135-.056-.006-.11-.014-.166-.019-.07.019-.213.024-.318.06-.213.064-.663.228-.922.287-.143.032-.288.019-.434.078-.072.027-.172.097-.28.123l-.334.04c-.224.055-.423.114-.625.184l-.154.008c-.275.083-.6.161-.894.212-.124.022-.26-.008-.386.04l-.113.076c-.156.056-.334.027-.488.086-.34.134-.703.263-1.021.416-.11.051-.21.022-.32.068-.076.03-.138.107-.206.134-.053.003-.11.005-.164.01-.051.028-.078.098-.13.124-.061.011-.126.02-.19.03-.052.019-.084.078-.127.097-.081.021-.162.046-.243.067-.191.086-.347.223-.576.288-.022.037-.014.013 0 .048-.216-.005-.388.218-.564.29-.145.062-.288.065-.42.135-.31.167-.62.328-.935.492-.232.124-.315.355-.612.417-.005.016-.008.037-.013.056h-.062c-.245.132-.423.29-.615.463-.05.026-.102.05-.153.077-.051.062-.057.121-.127.164-.45.267-.903.595-1.253.858.01.005.024.01.038.019l-.154.048v.078c-.213.108-.496.296-.641.452-.019.032-.04.064-.062.097-.194.115-.404.196-.588.32-.094.062-.134.22-.204.269-.087.056-.267.193-.345.23-.068.03-.138.009-.192.038-.102.06-.14.14-.19.213-.074.097-.217.12-.297.193-.092.084-.173.202-.28.27-.332.209-.664.421-1.022.607-.215.11-.436.368-.628.51-.242.178-.539.304-.806.463-.053.035-.11.124-.14.145-.048.035-.126.035-.177.067-.04.027-.03.086-.065.116-.051.022-.103.04-.154.06l-.051.085c-.14.084-.342.137-.434.25-.304.369-.765.648-1.226.925-.154.092-.156.234-.259.32-.037.008-.075.019-.113.03-.048.024-.073.088-.089.104-.086.046-.172.092-.256.135-.21.129-.334.366-.665.406.016.03 0 .01.027.03-.534.193-.898.478-1.356.712-.11.056-.358.21-.396.22-.048.02-.11-.008-.167.022l-.027.008c-.003.027-.005.054-.01.078-.038.043-.127.03-.179.056-.107.086-.212.167-.32.253l-.205.019c-.078.035-.137.118-.218.153-.197.084-.391.145-.55.234-.024.01-.01.065-.01.065-.052.016-.103.032-.154.05l-.143.154h-.103c-.094.027-.223.132-.253.145-.054.019-.205.014-.307.046-.146.048-.407.1-.536.175-.065.037-.17.112-.27.145l-.218.03c-.043.026-.084.056-.127.085-.318.116-.63.191-.97.328-.097.038-.194.119-.283.154-.105.013-.213.026-.318.037-.054.016-.097.065-.143.078-.304.094-.566.06-.867.175-.087.048-.17.097-.256.142-.38.078-.852.13-1.202.29-.035-.02-.466.092-.499.108-.032-.027-.194-.018-.256 0-.34.103-.738.086-1.113.183-.177.046-.471.019-.714.078-.517.121-1.19.161-1.714.24-.41.061-1.005.01-1.393.088-.15.027-.296-.013-.396 0-.275.03-.485.022-.727.067-.127.022-.27-.053-.38-.013v-.425c-.289.032-.615-.054-.682-.062l.089-.059c-.254.06-.663.075-.895-.12.127-.017.027.018.092-.09-.68.2-1.593-.056-2.469-.21l-.921-.029.06-.091c-.109.056-.152.067-.268.062-.056-.113-.05-.008-.032-.121-.148.008-.296.021-.445.03-.024-.103.035-.038-.059-.09.1.256-.97-.067-1.07-.12-.091-.046-.121-.052-.21-.03.116.03.092.01.15.089l-.387-.119c.03-.01.06-.019.089-.03-.038.011-.078.02-.116.03l-.331-.118c.032-.01.061-.021.091-.032-.175.021-.447-.003-.625-.089.022-.01.04-.021.06-.032h.18c-.09-.003-.14-.003-.18 0-.079.008-.109.024-.238.032l.089-.091c-.159-.008-.318-.02-.477-.03-.019-.102.03-.048-.086-.118-.035.056 0 .056-.062.03-.186-.162-.666-.189-.89-.39v.09c-.277-.193-1.061-.529-1.25-.717.132-.019.051.057.119-.062h-.03c-.172.237-1.727-.801-2.024-.986-.045.056.006.037-.115.03-.025-.1.018-.108-.09-.181l.057.089c-.372-.197-1.563-.646-1.573-.836h-.12l.06.059c-.331-.067-1.264-.818-1.369-.928.04.01.081.022.119.03-.143-.119-.555-.438-.892-.479.003-.142-.049-.15 0-.269-.21.068-.539-.123-.685-.3.017-.1.033-.033-.059-.09-.032.06.003.057-.06.03-.093-.296-.228-.505-.473-.777.062-.12.067-.051.03-.15-.02.04-.041.078-.06.12-.019-.021-.04-.042-.06-.061l.06-.03c-.18-.008-.585-.306-.714-.478.04-.022.078-.04.118-.06-.223-.193-.36-.188-.684-.419-.022-.17-.06-.194-.03-.33-.059.032-.118.058-.178.09.011-.134.076-.04-.03-.15-.301-.075-.767-.753-.98-1.078-.331-.505-.757-.726-1.1-1.229-.156-.225-.25-.48-.299-.685-.097-.1-.452-.342-.592-.63-.09-.18.027-.206-.06-.33l-.032.091c-.089-.508-.623-.809-.77-1.107-.127-.25-.122-.777-.24-.928-.173.051-.693-1.08-.682-1.137.075-.462-.599-.866-.477-1.049v-.091c-.03-.016-.318-1.091-.297-1.108-.205-.225-.576-1.123-.773-1.615-.097-.245.008-.683-.092-1.017-.137-.312-.275-.618-.415-.927-.067-.242.189-.352.06-.688-.248-.648-.127-1.065-.267-1.59-.051-.018-.1-.037-.148-.059-.003-.537-.321-2.024-.308-3.137"/>
</svg>
