<?xml version="1.0" encoding="UTF-8"?>
<svg width="877px" height="766px" viewBox="0 0 877 766" version="1.1" xmlns="http://www.w3.org/2000/svg" xmlns:xlink="http://www.w3.org/1999/xlink">
    <title>Group 13</title>
    <g id="Page-1" stroke="none" stroke-width="1" fill="none" fill-rule="evenodd">
        <g id="32---Mediaforta-2019---Waarom-MF---Contentcreators" transform="translate(-293.000000, -1257.000000)">
            <g id="Group-9" transform="translate(0.000000, 965.000000)">
                <g id="Group-11" transform="translate(293.000000, 294.000000)">
                    <g id="Group-13">
                        <g id="Group-10" transform="translate(352.000000, 0.000000)">
                            <path d="M75,8 C75,81.4986948 150,81.4986948 150,154.9969 C150,228.496084 0,228.496084 0,301.995269 C0,375.496411 150,375.496411 150,448.997063 C150,522.498205 0,522.498205 0,595.998858 C0,669.5 75,669.5 75,743.001142" id="Stroke-1" stroke="#0D0FFF" stroke-width="2" transform="translate(75.000000, 375.500571) rotate(-180.000000) translate(-75.000000, -375.500571) "></path>
                            <path d="M83.9533094,7.56777422 C83.9717701,7.42524941 83.997246,7.22992395 83.9482635,7.01392132 C83.9026039,6.81293426 83.8039005,6.6821019 83.730919,6.60271631 C83.7289499,6.58363916 83.7272269,6.56406969 83.725627,6.54782334 C83.7226732,6.51545371 83.7194734,6.48086868 83.715412,6.44529901 L83.7369496,6.31028198 C83.7591024,6.17477264 83.7354727,6.03569402 83.6697525,5.91532333 C83.6231083,5.83015306 83.5594803,5.74473663 83.4857604,5.64578158 C83.4664382,5.61981203 83.4452699,5.59138092 83.4250861,5.56368827 C83.4200402,5.4756872 83.4152404,5.38768613 83.4103176,5.29980814 L83.3980104,5.07666696 C83.3937029,4.99851216 83.3743807,4.92208046 83.3413975,4.85118729 C83.2367866,4.62706148 83.1194994,4.42016665 83.0060274,4.22004114 C82.89354,4.02188488 82.7873292,3.83455952 82.709671,3.65720352 C82.6866566,3.60489519 82.668442,3.55430995 82.6507197,3.5055709 C82.5938606,3.35073824 82.5230945,3.15787436 82.3697473,2.96857974 C82.0775753,2.60709842 81.5701512,2.19158566 81.1977365,1.94087492 C81.1490002,1.9078899 81.0845107,1.871951 80.9730078,1.83896599 C80.8698738,1.7299185 80.7443408,1.60708624 80.5922243,1.51588513 C80.5497646,1.47760774 80.5021359,1.44499196 80.4500766,1.41951472 C80.1927339,1.29348242 79.5059945,0.952185954 79.2316679,0.797476377 C79.1484715,0.7317525 79.0508757,0.689413523 78.9483571,0.672921014 C78.8757449,0.651997682 78.7134134,0.598212412 78.667877,0.578519864 C78.4369947,0.47353397 78.2099276,0.426148778 77.9903679,0.380486683 C77.8286518,0.346640117 77.6612744,0.311808924 77.4724826,0.251131262 C76.3820683,-0.0992730062 75.7199432,-0.041179991 74.5913767,0.17088413 L74.1986553,0.187130482 C74.1445038,0.189222815 74.0908446,0.198699854 74.0391545,0.215069284 C73.8742386,0.267131456 73.7403367,0.295316415 73.5853895,0.328055275 C73.3594301,0.375686625 73.1033181,0.429594974 72.7504719,0.562888905 C72.4299935,0.683998072 72.2226178,0.87920045 72.0713629,1.02172526 C72.0335799,1.05717185 71.9971507,1.09212612 71.9601061,1.12264957 C71.9442299,1.13421894 71.8906938,1.15834231 71.8514339,1.17594253 C71.7642992,1.21532762 71.6558732,1.26418975 71.5432627,1.34234455 C71.5228328,1.35649857 71.5032644,1.37188337 71.4848037,1.3882528 L70.9263048,1.88524347 L70.8053254,1.93435176 C70.7466203,1.95822898 70.6920996,1.99121399 70.6433632,2.03182987 C70.4732783,2.17398545 70.3354381,2.35700306 70.2246737,2.50408178 C70.1947673,2.54395919 70.16683,2.58125195 70.1413542,2.61251387 C70.0838798,2.68328396 70.0427739,2.76586958 70.0211133,2.85411681 C69.3694492,3.5460637 68.7663984,4.56773768 68.4060448,5.32528537 C68.3792152,5.38190144 68.3610006,5.44220987 68.3523856,5.5042414 C68.3315865,5.65230474 68.3107874,5.80012192 68.2896191,5.94806219 C68.1939925,6.21452697 68.1711011,6.48111483 68.1507943,6.71902542 C68.1371334,6.87890429 68.1240878,7.02979844 68.0913507,7.16284621 C68.0770744,7.22081615 68.0714132,7.28038611 68.0742438,7.33995606 L68.0754745,7.36469483 C68.0795359,7.44801892 68.0835972,7.53121993 68.0880278,7.61454402 C67.9426803,8.30156777 67.9936319,8.85923611 68.1226109,9.46318192 L68.1162112,9.54416752 C68.1084577,9.64139948 68.1008273,9.73863143 68.093566,9.83574031 C68.0879047,9.91254124 68.0966428,9.98971141 68.1194111,10.0633123 C68.1697474,10.2261451 68.2577435,10.331254 68.3202639,10.3945163 C68.3637082,10.5073793 68.3954606,10.6844891 68.4240133,10.842891 C68.4646269,11.0694784 68.5068404,11.3039428 68.5992672,11.5128069 C68.6716333,11.6768704 68.7630755,11.7942872 68.8365492,11.8886884 C68.8871316,11.9534276 68.918638,11.9949051 68.9309451,12.0278901 C68.9666359,12.1247528 69.0259564,12.2104154 69.1028761,12.2777393 C69.3125901,12.6342975 69.5715327,12.8707311 69.7808775,13.0618719 C69.862474,13.1362113 69.9401322,13.2071044 70.0053601,13.2762745 L70.1799987,13.5395393 C70.2165509,13.5941861 70.2617182,13.6428021 70.3136544,13.6831718 C70.3861436,13.7396648 70.4619557,13.7763421 70.531245,13.8020655 C70.5440444,13.823235 70.5583207,13.843543 70.5738278,13.8631124 C70.6306868,13.9349902 70.6960379,13.9917294 70.9293816,14.1843471 C70.9927635,14.2366554 71.052207,14.2855176 71.0834672,14.3133333 C71.1307267,14.3554261 71.1840167,14.3898881 71.2416142,14.4156115 L71.2878891,14.4364117 C71.3507787,14.5596132 71.4556357,14.7246614 71.6477505,14.8410936 C72.3160292,15.2462677 73.1007336,15.5139633 73.7930113,15.7501508 C73.8958992,15.7852282 73.997064,15.8196901 74.0958905,15.854029 C74.4573518,15.9796921 74.8113056,15.9505225 75.095601,15.9270145 C75.1801512,15.9201221 75.3054381,15.9102758 75.3555282,15.9143374 C75.5557657,15.9798151 75.7347118,16 75.8921203,16 C76.035868,16 76.1616471,15.9831383 76.2685963,15.9687381 C76.3765301,15.9543379 76.4603419,15.9431378 76.5488303,15.9469532 C76.6941779,15.9939692 76.8533094,15.9852306 76.9942264,15.9207375 C77.0510855,15.8946449 77.0998218,15.8647368 77.1416662,15.8342134 C77.198033,15.8276902 77.2550151,15.8155054 77.3119973,15.797536 C77.3358731,15.7899051 77.3591337,15.7816589 77.3817788,15.7725511 C77.6314911,15.7540893 77.9093867,15.6498419 78.2498028,15.5223326 C78.4478249,15.4481164 78.7189517,15.3464536 78.82787,15.3342688 C78.9410959,15.3214687 79.0486604,15.2775297 79.1383796,15.2072519 L79.1525329,15.1967902 C79.1757934,15.1799285 79.1973309,15.1623283 79.2173916,15.1441127 C79.4256287,15.0641117 79.603098,14.9671259 79.6059286,14.9654028 C79.6712796,14.9258946 79.728631,14.8744478 79.775152,14.8137702 L79.8461643,14.7214614 C80.5437341,14.3957958 81.0468508,14.0969614 81.6100264,13.5502471 C81.7398669,13.4239686 82.3437792,12.8169458 82.4455594,12.3536787 C82.5309711,12.1866612 82.6700419,11.9925666 82.8157587,11.7889949 C82.96246,11.5844385 83.1140842,11.3727436 83.2436786,11.1460332 C83.3231829,11.007693 83.4397317,10.7761825 83.4914217,10.5316257 C83.5871714,10.3726084 83.6268005,10.1857753 83.6427998,10.0437428 C83.8607596,9.61604532 83.8730667,9.20348645 83.8841432,8.83523581 C83.8921428,8.57012489 83.8996502,8.3196603 83.9770622,8.04384156 C84.0164451,7.90353216 84.0045072,7.75546882 83.9459251,7.62537492 C83.9481404,7.60642085 83.950848,7.58562059 83.9533094,7.56777422 Z" id="Fill-1-Copy-2" stroke="#0D0FFF" stroke-width="4" fill="#FFFFFF" transform="translate(76.000000, 8.000000) rotate(-90.000000) translate(-76.000000, -8.000000) "></path>
                            <path d="M83.9474731,751.513746 C83.9682414,751.353406 83.9969017,751.133664 83.9417964,750.890661 C83.8904294,750.664551 83.7793881,750.517365 83.6972839,750.428056 C83.6950686,750.406594 83.6931303,750.384578 83.6913303,750.366301 C83.6880074,750.329885 83.6844076,750.290977 83.6798385,750.250961 L83.7040682,750.099067 C83.7289902,749.946619 83.7024068,749.790156 83.6284715,749.654739 C83.5759969,749.558922 83.5044154,749.462829 83.4214805,749.351504 C83.399743,749.322289 83.3759286,749.290304 83.3532219,749.259149 C83.3475452,749.160148 83.3421455,749.061147 83.3366072,748.962284 L83.3227617,748.71125 C83.3179158,748.623326 83.2961782,748.537341 83.2590721,748.457586 C83.1413849,748.205444 83.0094368,747.972687 82.8817808,747.747546 C82.7552324,747.52462 82.6357453,747.313879 82.5483799,747.114354 C82.5224887,747.055507 82.5019973,746.998599 82.4820597,746.943767 C82.4180932,746.769581 82.3384813,746.552609 82.1659657,746.339652 C81.8372722,745.932986 81.2664201,745.465534 80.8474536,745.183484 C80.7926252,745.146376 80.7200745,745.105945 80.5946338,745.068837 C80.478608,744.946158 80.3373834,744.807972 80.1662524,744.705371 C80.1184852,744.662309 80.0649029,744.625616 80.0063362,744.596954 C79.7168257,744.455168 78.9442438,744.071209 78.6356264,743.897161 C78.5420304,743.823222 78.4322352,743.77559 78.3169017,743.757036 C78.235213,743.733497 78.0525901,743.672989 78.0013616,743.650835 C77.741619,743.532726 77.4861685,743.479417 77.2391638,743.428048 C77.0572333,743.38997 76.8689337,743.350785 76.6565429,743.282523 C75.4298269,742.888318 74.6849361,742.953673 73.4152988,743.192245 L72.9734872,743.210522 C72.9125667,743.212876 72.8522001,743.223537 72.7940488,743.241953 C72.6085184,743.300523 72.4578788,743.332231 72.2835632,743.369062 C72.0293589,743.422647 71.7412329,743.483294 71.3442809,743.63325 C70.9837427,743.769498 70.7504451,743.989101 70.5802832,744.149441 C70.5377774,744.189318 70.4967945,744.228642 70.4551194,744.262981 C70.4372586,744.275996 70.3770305,744.303135 70.3328632,744.322935 C70.2348367,744.367244 70.1128573,744.422213 69.9861705,744.510138 C69.9631869,744.526061 69.9411725,744.543369 69.9204041,744.561784 L69.2920929,745.120899 L69.1559911,745.176146 C69.0899478,745.203008 69.028612,745.240116 68.9737836,745.285809 C68.7824381,745.445734 68.6273679,745.651628 68.5027579,745.817092 C68.4691132,745.861954 68.4376838,745.903908 68.4090235,745.939078 C68.3443647,746.018694 68.2981206,746.111603 68.2737524,746.210881 C67.5406303,746.989322 66.8621982,748.138705 66.4568004,748.990946 C66.4266171,749.054639 66.4061257,749.122486 66.3964338,749.192272 C66.3730348,749.358843 66.3496358,749.525137 66.3258215,749.69157 C66.2182415,749.991343 66.1924888,750.291254 66.1696436,750.558904 C66.1542751,750.738767 66.1395988,750.908523 66.1027696,751.058202 C66.0867088,751.123418 66.0803398,751.190434 66.0835243,751.257451 L66.0849088,751.285282 C66.0894779,751.379021 66.0940469,751.472622 66.0990313,751.566362 C65.9355153,752.339264 65.9928359,752.966641 66.1379373,753.64608 L66.1307376,753.737188 C66.1220149,753.846574 66.1134307,753.95596 66.1052618,754.065208 C66.0988928,754.151609 66.1087232,754.238425 66.1343375,754.321226 C66.1909658,754.504413 66.2899615,754.622661 66.3602969,754.693831 C66.4091717,754.820802 66.4448932,755.02005 66.4770149,755.198252 C66.5227052,755.453163 66.5701955,755.716936 66.6741756,755.951908 C66.7555875,756.136479 66.8584599,756.268573 66.9411179,756.374774 C66.9980231,756.447606 67.0334677,756.494268 67.0473133,756.531376 C67.0874654,756.640347 67.1542009,756.736717 67.2407357,756.812457 C67.4766639,757.213585 67.7679743,757.479573 68.0034872,757.694606 C68.0952832,757.778238 68.1826487,757.857993 68.2560301,757.935809 L68.4524985,758.231982 C68.4936198,758.293459 68.544433,758.348152 68.6028612,758.393568 C68.6844115,758.457123 68.7697002,758.498385 68.8476506,758.527324 C68.86205,758.551139 68.8781108,758.573986 68.8955562,758.596001 C68.9595227,758.676864 69.0330426,758.740696 69.2955543,758.957391 C69.3668589,759.016237 69.4337329,759.071207 69.4689006,759.1025 C69.5220675,759.149854 69.5820188,759.188624 69.646816,759.217563 L69.6988753,759.240963 C69.769626,759.379565 69.8875902,759.565244 70.1037193,759.69623 C70.8555328,760.152051 71.7383253,760.453209 72.5171377,760.71892 C72.6328866,760.758382 72.746697,760.797151 72.8578768,760.835783 C73.2645207,760.977154 73.6627188,760.944338 73.9825511,760.917891 C74.0776701,760.910137 74.2186178,760.89906 74.2749692,760.90363 C74.5002364,760.977292 74.7015507,761 74.8786354,761 C75.0403514,761 75.181853,760.981031 75.3021709,760.96483 C75.4235964,760.94863 75.5178846,760.93603 75.6174341,760.940322 C75.7809501,760.993215 75.9599731,760.983384 76.1185047,760.91083 C76.1824712,760.881475 76.2372996,760.847829 76.2843744,760.81349 C76.3477871,760.806151 76.411892,760.792444 76.4759969,760.772228 C76.5028573,760.763643 76.5290254,760.754366 76.5545012,760.74412 C76.8354275,760.72335 77.1480601,760.606072 77.5310281,760.462624 C77.7538031,760.379131 78.0588206,760.26476 78.1813538,760.251052 C78.3087329,760.236652 78.429743,760.187221 78.5306771,760.108158 L78.5465995,760.096389 C78.5727676,760.07742 78.5969973,760.057619 78.6195655,760.037127 C78.8538323,759.947126 79.0534852,759.838017 79.0566697,759.836078 C79.1301896,759.791631 79.1947098,759.733754 79.247046,759.665491 L79.3269349,759.561644 C80.1117009,759.19527 80.6777071,758.859082 81.3112796,758.244028 C81.4573502,758.101965 82.1367516,757.419064 82.2512543,756.897888 C82.3473424,756.709994 82.5037972,756.491637 82.6677285,756.262619 C82.8327675,756.032493 83.0033448,755.794337 83.1491385,755.539287 C83.2385807,755.383655 83.3696981,755.123205 83.4278494,754.848079 C83.5355679,754.669184 83.5801505,754.458997 83.5981498,754.299211 C83.8433545,753.818051 83.8572001,753.353922 83.8696611,752.93964 C83.8786607,752.641391 83.8871065,752.359618 83.974195,752.049322 C84.0185008,751.891474 84.0050706,751.724902 83.9391657,751.578547 C83.9416579,751.557223 83.944704,751.533823 83.9474731,751.513746 Z" id="Fill-1-Copy-4" stroke="#FFFFFF" stroke-width="6" fill="#0D0FFF" transform="translate(75.000000, 752.000000) rotate(-90.000000) translate(-75.000000, -752.000000) "></path>
                        </g>
                        <g id="Group-7" transform="translate(442.000000, 103.000000)">
                            <g id="Group-3" transform="translate(119.000000, 0.000000)"></g>
                            <g id="Group-17">
                                <circle id="Oval-Copy-9" stroke="#0DF394" stroke-width="10" fill="#FFFFFF" cx="42" cy="42" r="47"></circle>
                                <text id="30%-slaagt" font-family="Helvetica" font-size="28" font-weight="normal" line-spacing="18" fill="#313D5A">
                                    <tspan x="3" y="49.8">30%</tspan>
                                    <tspan x="16.5112305" y="79.0158203" font-size="18">slaagt</tspan>
                                </text>
                            </g>
                        </g>
                        <g id="Group-7-Copy-2" transform="translate(442.000000, 411.000000)">
                            <g id="Group-17">
                                <circle id="Oval-Copy-9" stroke="#0DF394" stroke-width="10" fill="#FFFFFF" cx="42" cy="42" r="47"></circle>
                                <text id="8%-slaagt" font-family="Helvetica" font-size="28" font-weight="normal" line-spacing="18" fill="#3F4F73">
                                    <tspan x="3" y="52">8%</tspan>
                                    <tspan x="8.72509766" y="81.2158203" font-size="18">slaagt</tspan>
                                </text>
                            </g>
                        </g>
                        <g id="Group-7-Copy" transform="translate(328.000000, 257.000000)">
                            <g id="Group-17">
                                <circle id="Oval-Copy-9" stroke="#0DF394" stroke-width="10" fill="#FFFFFF" cx="42" cy="42" r="47"></circle>
                                <text id="12%-slaagt" font-family="Helvetica" font-size="28" font-weight="normal" line-spacing="18" fill="#384566">
                                    <tspan x="3" y="52">12%</tspan>
                                    <tspan x="16.5112305" y="81.2158203" font-size="18">slaagt</tspan>
                                </text>
                            </g>
                        </g>
                    </g>
                </g>
            </g>
        </g>
    </g>
</svg>