<svg xmlns="http://www.w3.org/2000/svg" width="175" height="248" viewBox="0 0 175 248">
    <path fill="#EFF2F3" fill-rule="evenodd" d="M171.711 1.017c-2.131-.025-4.261-.053-6.394-.081-4.824.52-9.841-.595-15.814-.166l-9.85.496-5.704-.33c-6.55.516-14.404.267-19.963.33-3.405.038-5.884-.185-9.072-.578-1.59-.195-3.773.51-5.532.248-2.616-.392-5.796-.487-8.468-.081C89.762.825 88.61.797 87.456.77c-3.542.11-7.087.222-10.63.33C75.25.45 70.218.884 68.098.77 61.77.436 54.001 0 47.62.77 44.796.662 41.973.55 39.15.44c-2.664.154-6.745.342-10.457-.084h-4.58c-1.079-.172-2.738-.445-3.976-.329C13.806.63 7.287 1.032.857.615c.01.222.006.446.018.67.291 5.014-.486 8.775.26 13.649-.117 2.356-.231 4.715-.348 7.069.424 3.333.91 8.602.52 11.51-.23 1.73-.52 3.775-.259 5.92.844 6.94-.694 14.626-.521 21.624.15 6.02.565 14.21 0 20.226.089 1.508.173 3.013.26 4.52-.607 6.54-.157 13.2.52 19.65.126 1.176-.164 2.757-.345 3.783v4.358c-.448 3.531-.25 7.41-.087 9.947-.115 2.687-.233 5.372-.348 8.058.812 6.072.352 13.462 0 19.485-.117 2.015.34 6.803-.347 8.304.116 3.37.233 6.741.347 10.112-.028 1.096-.057 2.194-.088 3.29.429 2.542.326 5.566-.085 8.056-.274 1.673.467 3.75.262 5.262-.416 3.036-.65 5.393-.61 8.632.068 5.29-.197 12.761.348 18.993l-.347 5.426.52 9.374c.453 5.681-.72 10.453-.173 15.046l-.058 3.961c2.959-.198 5.897-.373 8.728-.31 6.325.141 14.935.533 21.257 0 1.584.082 3.167.161 4.754.246 6.874-.577 13.871-.148 20.653.496 1.237.117 2.898-.157 3.975-.33h4.58c3.708-.425 7.788-.238 10.456-.083l8.467-.33c6.383.771 14.153.335 20.483 0 2.12-.112 7.152.323 8.725-.33l10.63.33c1.153-.026 2.307-.054 3.457-.083 2.673.406 5.85.31 8.469-.082 1.757-.262 3.94.444 5.53.248 3.19-.393 5.667-.615 9.075-.578 5.56.062 13.411-.187 19.96.33 1.457-.083 2.908-.17 4.364-.254l.043-3.231c-.544-4.593.627-9.365.174-15.046l-.52-9.374c.117-1.808.232-3.617.346-5.426-.542-6.232-.28-13.703-.346-18.993-.04-3.24.194-5.596.61-8.632.205-1.512-.538-3.59-.264-5.262.41-2.49.513-5.514.088-8.056.03-1.096.06-2.194.086-3.29-.114-3.37-.23-6.741-.347-10.112.686-1.501.23-6.289.347-8.304.353-6.023.813-13.413 0-19.485.118-2.686.234-5.371.348-8.058-.163-2.536-.36-6.416.086-9.947v-4.358c.183-1.026.472-2.607.348-3.783-.678-6.45-1.13-13.11-.52-19.65-.09-1.507-.172-3.012-.262-4.52.564-6.016.152-14.206 0-20.226-.174-6.998 1.364-14.683.522-21.624-.26-2.145.029-4.19.26-5.92.388-2.908-.098-8.177-.52-11.51l.347-7.07c-.746-4.873.03-8.634-.261-13.648-.005-.067-.002-.135-.006-.201-.883.008-1.777 0-2.707-.067z"/>
</svg>
