<?xml version="1.0" encoding="UTF-8"?>
<svg width="24px" height="76px" viewBox="0 0 24 76" version="1.1" xmlns="http://www.w3.org/2000/svg" xmlns:xlink="http://www.w3.org/1999/xlink">
    <title>Group 9</title>
    <g id="Page-1" stroke="none" stroke-width="1" fill="none" fill-rule="evenodd">
        <g id="01---Mediaforta-2019---Home-1" transform="translate(-708.000000, -4596.000000)" fill="#0DF394" stroke="#FFFFFF" stroke-width="6">
            <g id="Group-24" transform="translate(-7.000000, 1275.000000)">
                <g id="Group-9" transform="translate(718.000000, 3324.000000)">
                    <path d="M17.9474731,8.513746 C17.9682414,8.35340559 17.9969017,8.13366445 17.9417964,7.89066149 C17.8904294,7.66455104 17.7793881,7.51736463 17.6972839,7.42805585 C17.6950686,7.40659405 17.6931303,7.3845784 17.6913303,7.36630125 C17.6880074,7.32988543 17.6844076,7.29097726 17.6798385,7.25096139 L17.7040682,7.09906723 C17.7289902,6.94661922 17.7024068,6.79015578 17.6284715,6.65473874 C17.5759969,6.55892219 17.5044154,6.46282871 17.4214805,6.35150428 C17.399743,6.32228854 17.3759286,6.29030353 17.3532219,6.25914931 C17.3475452,6.1601481 17.3421455,6.0611469 17.3366072,5.96228415 L17.3227617,5.71125033 C17.3179158,5.62332618 17.2961782,5.53734052 17.2590721,5.4575857 C17.1413849,5.20544417 17.0094368,4.97268749 16.8817808,4.74754628 C16.7552324,4.52462049 16.6357453,4.31387946 16.5483799,4.11435395 C16.5224887,4.05550708 16.5019973,3.9985987 16.4820597,3.94376726 C16.4180932,3.76958052 16.3384813,3.55260865 16.1659657,3.33965221 C15.8372722,2.93298572 15.2664201,2.46553387 14.8474536,2.18348428 C14.7926252,2.14637614 14.7200745,2.10594488 14.5946338,2.06883673 C14.478608,1.94615832 14.3373834,1.80797202 14.1662524,1.70537077 C14.1184852,1.66230871 14.0649029,1.62561595 14.0063362,1.59695406 C13.7168257,1.45516772 12.9442438,1.0712092 12.6356264,0.897160925 C12.5420304,0.823221562 12.4322352,0.775590213 12.3169017,0.757036141 C12.235213,0.733497393 12.0525901,0.672988963 12.0013616,0.650834847 C11.741619,0.532725717 11.4861685,0.479417375 11.2391638,0.428047519 C11.0572333,0.389970132 10.8689337,0.350785039 10.6565429,0.282522669 C9.42982687,-0.111682132 8.68493608,-0.0463274898 7.4152988,0.192244647 L6.97348718,0.210521792 C6.91256675,0.212875667 6.85220013,0.223537335 6.79404881,0.241952944 C6.60851839,0.300522889 6.45787876,0.332230967 6.28356324,0.369062185 C6.02935887,0.422647453 5.7412329,0.483294345 5.34428087,0.633250018 C4.98374265,0.769497831 4.75044507,0.989100506 4.58028322,1.14944092 C4.53777737,1.18931833 4.49679453,1.22864188 4.45511941,1.26298076 C4.43725865,1.27599631 4.37703049,1.3031351 4.33286317,1.32293534 C4.23483665,1.36724357 4.11285732,1.42221347 3.98617051,1.51013762 C3.96318689,1.52606089 3.94117246,1.5433688 3.92040413,1.5617844 L3.2920929,2.12089891 L3.1559911,2.17614573 C3.08994781,2.2030076 3.02861201,2.24011574 2.97378362,2.28580861 C2.78243806,2.44573363 2.62736786,2.65162845 2.50275788,2.817092 C2.46911318,2.86195409 2.43768378,2.90390844 2.40902348,2.9390781 C2.34436474,3.01869446 2.29812059,3.11160328 2.27375242,3.21088141 C1.54063035,3.98932166 0.862198215,5.13870489 0.456800402,5.99094604 C0.426617095,6.05463913 0.406125675,6.12248611 0.396433787,6.19227157 C0.373034802,6.35884283 0.349635816,6.52513716 0.325821463,6.69156996 C0.218241511,6.99134284 0.192488781,7.29125419 0.169643617,7.5589036 C0.154275052,7.73876733 0.139598765,7.90852324 0.102769593,8.05820199 C0.0867087502,8.12341817 0.0803397955,8.19043437 0.0835242728,8.25745057 L0.0849088282,8.28528168 C0.0894778609,8.37902128 0.0940468937,8.47262242 0.099031293,8.56636202 C-0.0644846967,9.33926375 -0.00716410421,9.96664062 0.137937299,10.6460797 L0.130737611,10.7371885 C0.122014912,10.8465744 0.113430669,10.9559604 0.105261792,11.0652078 C0.0988928375,11.1516089 0.108723181,11.2384253 0.134337455,11.3212263 C0.19096577,11.5044132 0.289961479,11.6226608 0.360296892,11.6938309 C0.409171697,11.8208017 0.444893226,12.0200502 0.47701491,12.1982524 C0.522705238,12.4531632 0.570195487,12.7169357 0.674175596,12.9519077 C0.755587452,13.1364792 0.858459916,13.2685731 0.941117872,13.3747744 C0.998023098,13.4476061 1.03346772,13.4942682 1.04731327,13.5313763 C1.08746537,13.6403469 1.15420094,13.7367173 1.24073565,13.8124567 C1.47666389,14.2135847 1.76797434,14.4795725 2.00348721,14.6946059 C2.09528323,14.7782377 2.18264868,14.8579925 2.25603011,14.9358088 L2.45249852,15.2319817 C2.49361981,15.2934593 2.544433,15.3481523 2.60286123,15.3935683 C2.68441154,15.4571229 2.76970015,15.4983849 2.84765062,15.5273237 C2.86205,15.5511394 2.87811084,15.5739858 2.89555624,15.5960015 C2.9595227,15.676864 3.03304259,15.7406956 3.29555429,15.9573905 C3.36685889,16.0162374 3.43373291,16.0712073 3.46890062,16.1025 C3.52206755,16.1498544 3.58201879,16.1886241 3.64681598,16.2175629 L3.69887527,16.2409632 C3.76962605,16.3795649 3.88759016,16.5652441 4.10371926,16.6962303 C4.85553283,17.1520512 5.73832533,17.4532087 6.51713773,17.7189197 C6.63288656,17.7583817 6.74669701,17.7971514 6.85787681,17.8357826 C7.26452072,17.9771536 7.66271885,17.9443378 7.98255114,17.9178913 C8.07767009,17.9101374 8.21861783,17.8990603 8.27496923,17.9036296 C8.50023639,17.977292 8.70155075,18 8.87863538,18 C9.04035145,18 9.18185301,17.9810305 9.30217087,17.9648303 C9.42359637,17.9486301 9.51788459,17.93603 9.61743413,17.9403224 C9.78095012,17.9932153 9.95997313,17.9833844 10.1185047,17.9108297 C10.1824712,17.8814755 10.2372996,17.8478289 10.2843744,17.81349 C10.3477871,17.8061515 10.411892,17.7924436 10.4759969,17.772228 C10.5028573,17.7636433 10.5290254,17.7543662 10.5545012,17.74412 C10.8354275,17.7233505 11.1480601,17.6060721 11.5310281,17.4626242 C11.7538031,17.3791309 12.0588206,17.2647603 12.1813538,17.2510524 C12.3087329,17.2366522 12.429743,17.1872209 12.5306771,17.1081584 L12.5465995,17.096389 C12.5727676,17.0774195 12.5969973,17.0576193 12.6195655,17.0371267 C12.8538323,16.9471256 13.0534852,16.8380166 13.0566697,16.8360781 C13.1301896,16.7916314 13.1947098,16.7337538 13.247046,16.6654914 L13.3269349,16.561644 C14.1117009,16.1952703 14.6777071,15.8590816 15.3112796,15.244028 C15.4573502,15.1019647 16.1367516,14.4190641 16.2512543,13.8978885 C16.3473424,13.7099939 16.5037972,13.4916374 16.6677285,13.2626192 C16.8327675,13.0324933 17.0033448,12.7943366 17.1491385,12.5392873 C17.2385807,12.3836547 17.3696981,12.1232053 17.4278494,11.8480789 C17.5355679,11.6691844 17.5801505,11.4589973 17.5981498,11.2992107 C17.8433545,10.818051 17.8572001,10.3539223 17.8696611,9.93964029 C17.8786607,9.6413905 17.8871065,9.35961784 17.974195,9.04932175 C18.0185008,8.89147368 18.0050706,8.72490242 17.9391657,8.57854679 C17.9416579,8.55722345 17.944704,8.53382317 17.9474731,8.513746 Z" id="Fill-1-Copy-7" transform="translate(9.000000, 9.000000) rotate(-90.000000) translate(-9.000000, -9.000000) "></path>
                    <path d="M17.9474731,34.513746 C17.9682414,34.3534056 17.9969017,34.1336644 17.9417964,33.8906615 C17.8904294,33.664551 17.7793881,33.5173646 17.6972839,33.4280559 C17.6950686,33.4065941 17.6931303,33.3845784 17.6913303,33.3663013 C17.6880074,33.3298854 17.6844076,33.2909773 17.6798385,33.2509614 L17.7040682,33.0990672 C17.7289902,32.9466192 17.7024068,32.7901558 17.6284715,32.6547387 C17.5759969,32.5589222 17.5044154,32.4628287 17.4214805,32.3515043 C17.399743,32.3222885 17.3759286,32.2903035 17.3532219,32.2591493 C17.3475452,32.1601481 17.3421455,32.0611469 17.3366072,31.9622842 L17.3227617,31.7112503 C17.3179158,31.6233262 17.2961782,31.5373405 17.2590721,31.4575857 C17.1413849,31.2054442 17.0094368,30.9726875 16.8817808,30.7475463 C16.7552324,30.5246205 16.6357453,30.3138795 16.5483799,30.114354 C16.5224887,30.0555071 16.5019973,29.9985987 16.4820597,29.9437673 C16.4180932,29.7695805 16.3384813,29.5526087 16.1659657,29.3396522 C15.8372722,28.9329857 15.2664201,28.4655339 14.8474536,28.1834843 C14.7926252,28.1463761 14.7200745,28.1059449 14.5946338,28.0688367 C14.478608,27.9461583 14.3373834,27.807972 14.1662524,27.7053708 C14.1184852,27.6623087 14.0649029,27.625616 14.0063362,27.5969541 C13.7168257,27.4551677 12.9442438,27.0712092 12.6356264,26.8971609 C12.5420304,26.8232216 12.4322352,26.7755902 12.3169017,26.7570361 C12.235213,26.7334974 12.0525901,26.672989 12.0013616,26.6508348 C11.741619,26.5327257 11.4861685,26.4794174 11.2391638,26.4280475 C11.0572333,26.3899701 10.8689337,26.350785 10.6565429,26.2825227 C9.42982687,25.8883179 8.68493608,25.9536725 7.4152988,26.1922446 L6.97348718,26.2105218 C6.91256675,26.2128757 6.85220013,26.2235373 6.79404881,26.2419529 C6.60851839,26.3005229 6.45787876,26.332231 6.28356324,26.3690622 C6.02935887,26.4226475 5.7412329,26.4832943 5.34428087,26.63325 C4.98374265,26.7694978 4.75044507,26.9891005 4.58028322,27.1494409 C4.53777737,27.1893183 4.49679453,27.2286419 4.45511941,27.2629808 C4.43725865,27.2759963 4.37703049,27.3031351 4.33286317,27.3229353 C4.23483665,27.3672436 4.11285732,27.4222135 3.98617051,27.5101376 C3.96318689,27.5260609 3.94117246,27.5433688 3.92040413,27.5617844 L3.2920929,28.1208989 L3.1559911,28.1761457 C3.08994781,28.2030076 3.02861201,28.2401157 2.97378362,28.2858086 C2.78243806,28.4457336 2.62736786,28.6516284 2.50275788,28.817092 C2.46911318,28.8619541 2.43768378,28.9039084 2.40902348,28.9390781 C2.34436474,29.0186945 2.29812059,29.1116033 2.27375242,29.2108814 C1.54063035,29.9893217 0.862198215,31.1387049 0.456800402,31.990946 C0.426617095,32.0546391 0.406125675,32.1224861 0.396433787,32.1922716 C0.373034802,32.3588428 0.349635816,32.5251372 0.325821463,32.69157 C0.218241511,32.9913428 0.192488781,33.2912542 0.169643617,33.5589036 C0.154275052,33.7387673 0.139598765,33.9085232 0.102769593,34.058202 C0.0867087502,34.1234182 0.0803397955,34.1904344 0.0835242728,34.2574506 L0.0849088282,34.2852817 C0.0894778609,34.3790213 0.0940468937,34.4726224 0.099031293,34.566362 C-0.0644846967,35.3392637 -0.00716410421,35.9666406 0.137937299,36.6460797 L0.130737611,36.7371885 C0.122014912,36.8465744 0.113430669,36.9559604 0.105261792,37.0652078 C0.0988928375,37.1516089 0.108723181,37.2384253 0.134337455,37.3212263 C0.19096577,37.5044132 0.289961479,37.6226608 0.360296892,37.6938309 C0.409171697,37.8208017 0.444893226,38.0200502 0.47701491,38.1982524 C0.522705238,38.4531632 0.570195487,38.7169357 0.674175596,38.9519077 C0.755587452,39.1364792 0.858459916,39.2685731 0.941117872,39.3747744 C0.998023098,39.4476061 1.03346772,39.4942682 1.04731327,39.5313763 C1.08746537,39.6403469 1.15420094,39.7367173 1.24073565,39.8124567 C1.47666389,40.2135847 1.76797434,40.4795725 2.00348721,40.6946059 C2.09528323,40.7782377 2.18264868,40.8579925 2.25603011,40.9358088 L2.45249852,41.2319817 C2.49361981,41.2934593 2.544433,41.3481523 2.60286123,41.3935683 C2.68441154,41.4571229 2.76970015,41.4983849 2.84765062,41.5273237 C2.86205,41.5511394 2.87811084,41.5739858 2.89555624,41.5960015 C2.9595227,41.676864 3.03304259,41.7406956 3.29555429,41.9573905 C3.36685889,42.0162374 3.43373291,42.0712073 3.46890062,42.1025 C3.52206755,42.1498544 3.58201879,42.1886241 3.64681598,42.2175629 L3.69887527,42.2409632 C3.76962605,42.3795649 3.88759016,42.5652441 4.10371926,42.6962303 C4.85553283,43.1520512 5.73832533,43.4532087 6.51713773,43.7189197 C6.63288656,43.7583817 6.74669701,43.7971514 6.85787681,43.8357826 C7.26452072,43.9771536 7.66271885,43.9443378 7.98255114,43.9178913 C8.07767009,43.9101374 8.21861783,43.8990603 8.27496923,43.9036296 C8.50023639,43.977292 8.70155075,44 8.87863538,44 C9.04035145,44 9.18185301,43.9810305 9.30217087,43.9648303 C9.42359637,43.9486301 9.51788459,43.93603 9.61743413,43.9403224 C9.78095012,43.9932153 9.95997313,43.9833844 10.1185047,43.9108297 C10.1824712,43.8814755 10.2372996,43.8478289 10.2843744,43.81349 C10.3477871,43.8061515 10.411892,43.7924436 10.4759969,43.772228 C10.5028573,43.7636433 10.5290254,43.7543662 10.5545012,43.74412 C10.8354275,43.7233505 11.1480601,43.6060721 11.5310281,43.4626242 C11.7538031,43.3791309 12.0588206,43.2647603 12.1813538,43.2510524 C12.3087329,43.2366522 12.429743,43.1872209 12.5306771,43.1081584 L12.5465995,43.096389 C12.5727676,43.0774195 12.5969973,43.0576193 12.6195655,43.0371267 C12.8538323,42.9471256 13.0534852,42.8380166 13.0566697,42.8360781 C13.1301896,42.7916314 13.1947098,42.7337538 13.247046,42.6654914 L13.3269349,42.561644 C14.1117009,42.1952703 14.6777071,41.8590816 15.3112796,41.244028 C15.4573502,41.1019647 16.1367516,40.4190641 16.2512543,39.8978885 C16.3473424,39.7099939 16.5037972,39.4916374 16.6677285,39.2626192 C16.8327675,39.0324933 17.0033448,38.7943366 17.1491385,38.5392873 C17.2385807,38.3836547 17.3696981,38.1232053 17.4278494,37.8480789 C17.5355679,37.6691844 17.5801505,37.4589973 17.5981498,37.2992107 C17.8433545,36.818051 17.8572001,36.3539223 17.8696611,35.9396403 C17.8786607,35.6413905 17.8871065,35.3596178 17.974195,35.0493218 C18.0185008,34.8914737 18.0050706,34.7249024 17.9391657,34.5785468 C17.9416579,34.5572235 17.944704,34.5338232 17.9474731,34.513746 Z" id="Fill-1-Copy-8" transform="translate(9.000000, 35.000000) rotate(-90.000000) translate(-9.000000, -35.000000) "></path>
                    <path d="M17.9474731,60.513746 C17.9682414,60.3534056 17.9969017,60.1336644 17.9417964,59.8906615 C17.8904294,59.664551 17.7793881,59.5173646 17.6972839,59.4280559 C17.6950686,59.4065941 17.6931303,59.3845784 17.6913303,59.3663013 C17.6880074,59.3298854 17.6844076,59.2909773 17.6798385,59.2509614 L17.7040682,59.0990672 C17.7289902,58.9466192 17.7024068,58.7901558 17.6284715,58.6547387 C17.5759969,58.5589222 17.5044154,58.4628287 17.4214805,58.3515043 C17.399743,58.3222885 17.3759286,58.2903035 17.3532219,58.2591493 C17.3475452,58.1601481 17.3421455,58.0611469 17.3366072,57.9622842 L17.3227617,57.7112503 C17.3179158,57.6233262 17.2961782,57.5373405 17.2590721,57.4575857 C17.1413849,57.2054442 17.0094368,56.9726875 16.8817808,56.7475463 C16.7552324,56.5246205 16.6357453,56.3138795 16.5483799,56.114354 C16.5224887,56.0555071 16.5019973,55.9985987 16.4820597,55.9437673 C16.4180932,55.7695805 16.3384813,55.5526087 16.1659657,55.3396522 C15.8372722,54.9329857 15.2664201,54.4655339 14.8474536,54.1834843 C14.7926252,54.1463761 14.7200745,54.1059449 14.5946338,54.0688367 C14.478608,53.9461583 14.3373834,53.807972 14.1662524,53.7053708 C14.1184852,53.6623087 14.0649029,53.625616 14.0063362,53.5969541 C13.7168257,53.4551677 12.9442438,53.0712092 12.6356264,52.8971609 C12.5420304,52.8232216 12.4322352,52.7755902 12.3169017,52.7570361 C12.235213,52.7334974 12.0525901,52.672989 12.0013616,52.6508348 C11.741619,52.5327257 11.4861685,52.4794174 11.2391638,52.4280475 C11.0572333,52.3899701 10.8689337,52.350785 10.6565429,52.2825227 C9.42982687,51.8883179 8.68493608,51.9536725 7.4152988,52.1922446 L6.97348718,52.2105218 C6.91256675,52.2128757 6.85220013,52.2235373 6.79404881,52.2419529 C6.60851839,52.3005229 6.45787876,52.332231 6.28356324,52.3690622 C6.02935887,52.4226475 5.7412329,52.4832943 5.34428087,52.63325 C4.98374265,52.7694978 4.75044507,52.9891005 4.58028322,53.1494409 C4.53777737,53.1893183 4.49679453,53.2286419 4.45511941,53.2629808 C4.43725865,53.2759963 4.37703049,53.3031351 4.33286317,53.3229353 C4.23483665,53.3672436 4.11285732,53.4222135 3.98617051,53.5101376 C3.96318689,53.5260609 3.94117246,53.5433688 3.92040413,53.5617844 L3.2920929,54.1208989 L3.1559911,54.1761457 C3.08994781,54.2030076 3.02861201,54.2401157 2.97378362,54.2858086 C2.78243806,54.4457336 2.62736786,54.6516284 2.50275788,54.817092 C2.46911318,54.8619541 2.43768378,54.9039084 2.40902348,54.9390781 C2.34436474,55.0186945 2.29812059,55.1116033 2.27375242,55.2108814 C1.54063035,55.9893217 0.862198215,57.1387049 0.456800402,57.990946 C0.426617095,58.0546391 0.406125675,58.1224861 0.396433787,58.1922716 C0.373034802,58.3588428 0.349635816,58.5251372 0.325821463,58.69157 C0.218241511,58.9913428 0.192488781,59.2912542 0.169643617,59.5589036 C0.154275052,59.7387673 0.139598765,59.9085232 0.102769593,60.058202 C0.0867087502,60.1234182 0.0803397955,60.1904344 0.0835242728,60.2574506 L0.0849088282,60.2852817 C0.0894778609,60.3790213 0.0940468937,60.4726224 0.099031293,60.566362 C-0.0644846967,61.3392637 -0.00716410421,61.9666406 0.137937299,62.6460797 L0.130737611,62.7371885 C0.122014912,62.8465744 0.113430669,62.9559604 0.105261792,63.0652078 C0.0988928375,63.1516089 0.108723181,63.2384253 0.134337455,63.3212263 C0.19096577,63.5044132 0.289961479,63.6226608 0.360296892,63.6938309 C0.409171697,63.8208017 0.444893226,64.0200502 0.47701491,64.1982524 C0.522705238,64.4531632 0.570195487,64.7169357 0.674175596,64.9519077 C0.755587452,65.1364792 0.858459916,65.2685731 0.941117872,65.3747744 C0.998023098,65.4476061 1.03346772,65.4942682 1.04731327,65.5313763 C1.08746537,65.6403469 1.15420094,65.7367173 1.24073565,65.8124567 C1.47666389,66.2135847 1.76797434,66.4795725 2.00348721,66.6946059 C2.09528323,66.7782377 2.18264868,66.8579925 2.25603011,66.9358088 L2.45249852,67.2319817 C2.49361981,67.2934593 2.544433,67.3481523 2.60286123,67.3935683 C2.68441154,67.4571229 2.76970015,67.4983849 2.84765062,67.5273237 C2.86205,67.5511394 2.87811084,67.5739858 2.89555624,67.5960015 C2.9595227,67.676864 3.03304259,67.7406956 3.29555429,67.9573905 C3.36685889,68.0162374 3.43373291,68.0712073 3.46890062,68.1025 C3.52206755,68.1498544 3.58201879,68.1886241 3.64681598,68.2175629 L3.69887527,68.2409632 C3.76962605,68.3795649 3.88759016,68.5652441 4.10371926,68.6962303 C4.85553283,69.1520512 5.73832533,69.4532087 6.51713773,69.7189197 C6.63288656,69.7583817 6.74669701,69.7971514 6.85787681,69.8357826 C7.26452072,69.9771536 7.66271885,69.9443378 7.98255114,69.9178913 C8.07767009,69.9101374 8.21861783,69.8990603 8.27496923,69.9036296 C8.50023639,69.977292 8.70155075,70 8.87863538,70 C9.04035145,70 9.18185301,69.9810305 9.30217087,69.9648303 C9.42359637,69.9486301 9.51788459,69.93603 9.61743413,69.9403224 C9.78095012,69.9932153 9.95997313,69.9833844 10.1185047,69.9108297 C10.1824712,69.8814755 10.2372996,69.8478289 10.2843744,69.81349 C10.3477871,69.8061515 10.411892,69.7924436 10.4759969,69.772228 C10.5028573,69.7636433 10.5290254,69.7543662 10.5545012,69.74412 C10.8354275,69.7233505 11.1480601,69.6060721 11.5310281,69.4626242 C11.7538031,69.3791309 12.0588206,69.2647603 12.1813538,69.2510524 C12.3087329,69.2366522 12.429743,69.1872209 12.5306771,69.1081584 L12.5465995,69.096389 C12.5727676,69.0774195 12.5969973,69.0576193 12.6195655,69.0371267 C12.8538323,68.9471256 13.0534852,68.8380166 13.0566697,68.8360781 C13.1301896,68.7916314 13.1947098,68.7337538 13.247046,68.6654914 L13.3269349,68.561644 C14.1117009,68.1952703 14.6777071,67.8590816 15.3112796,67.244028 C15.4573502,67.1019647 16.1367516,66.4190641 16.2512543,65.8978885 C16.3473424,65.7099939 16.5037972,65.4916374 16.6677285,65.2626192 C16.8327675,65.0324933 17.0033448,64.7943366 17.1491385,64.5392873 C17.2385807,64.3836547 17.3696981,64.1232053 17.4278494,63.8480789 C17.5355679,63.6691844 17.5801505,63.4589973 17.5981498,63.2992107 C17.8433545,62.818051 17.8572001,62.3539223 17.8696611,61.9396403 C17.8786607,61.6413905 17.8871065,61.3596178 17.974195,61.0493218 C18.0185008,60.8914737 18.0050706,60.7249024 17.9391657,60.5785468 C17.9416579,60.5572235 17.944704,60.5338232 17.9474731,60.513746 Z" id="Fill-1-Copy-9" transform="translate(9.000000, 61.000000) rotate(-90.000000) translate(-9.000000, -61.000000) "></path>
                </g>
            </g>
        </g>
    </g>
</svg>