<?xml version="1.0" encoding="UTF-8"?>
<svg width="24px" height="77px" viewBox="0 0 24 77" version="1.1" xmlns="http://www.w3.org/2000/svg" xmlns:xlink="http://www.w3.org/1999/xlink">
    <title>Group 30</title>
    <g id="Page-1" stroke="none" stroke-width="1" fill="none" fill-rule="evenodd">
        <g id="01---Mediaforta-2019---Home-1" transform="translate(-711.000000, -4049.000000)">
            <g id="Group-24" transform="translate(-7.000000, 1275.000000)">
                <g id="Group-39">
                    <g id="Group-33" transform="translate(0.000000, 397.000000)">
                        <g id="Group-30" transform="translate(721.000000, 2379.000000)">
                            <line x1="9.5" y1="8" x2="9.5" y2="68" id="Path-4" stroke="#504FFF" stroke-width="2" stroke-linecap="round"></line>
                            <path d="M17.9474731,62.513746 C17.9682414,62.3534056 17.9969017,62.1336644 17.9417964,61.8906615 C17.8904294,61.664551 17.7793881,61.5173646 17.6972839,61.4280559 C17.6950686,61.4065941 17.6931303,61.3845784 17.6913303,61.3663013 C17.6880074,61.3298854 17.6844076,61.2909773 17.6798385,61.2509614 L17.7040682,61.0990672 C17.7289902,60.9466192 17.7024068,60.7901558 17.6284715,60.6547387 C17.5759969,60.5589222 17.5044154,60.4628287 17.4214805,60.3515043 C17.399743,60.3222885 17.3759286,60.2903035 17.3532219,60.2591493 C17.3475452,60.1601481 17.3421455,60.0611469 17.3366072,59.9622842 L17.3227617,59.7112503 C17.3179158,59.6233262 17.2961782,59.5373405 17.2590721,59.4575857 C17.1413849,59.2054442 17.0094368,58.9726875 16.8817808,58.7475463 C16.7552324,58.5246205 16.6357453,58.3138795 16.5483799,58.114354 C16.5224887,58.0555071 16.5019973,57.9985987 16.4820597,57.9437673 C16.4180932,57.7695805 16.3384813,57.5526087 16.1659657,57.3396522 C15.8372722,56.9329857 15.2664201,56.4655339 14.8474536,56.1834843 C14.7926252,56.1463761 14.7200745,56.1059449 14.5946338,56.0688367 C14.478608,55.9461583 14.3373834,55.807972 14.1662524,55.7053708 C14.1184852,55.6623087 14.0649029,55.625616 14.0063362,55.5969541 C13.7168257,55.4551677 12.9442438,55.0712092 12.6356264,54.8971609 C12.5420304,54.8232216 12.4322352,54.7755902 12.3169017,54.7570361 C12.235213,54.7334974 12.0525901,54.672989 12.0013616,54.6508348 C11.741619,54.5327257 11.4861685,54.4794174 11.2391638,54.4280475 C11.0572333,54.3899701 10.8689337,54.350785 10.6565429,54.2825227 C9.42982687,53.8883179 8.68493608,53.9536725 7.4152988,54.1922446 L6.97348718,54.2105218 C6.91256675,54.2128757 6.85220013,54.2235373 6.79404881,54.2419529 C6.60851839,54.3005229 6.45787876,54.332231 6.28356324,54.3690622 C6.02935887,54.4226475 5.7412329,54.4832943 5.34428087,54.63325 C4.98374265,54.7694978 4.75044507,54.9891005 4.58028322,55.1494409 C4.53777737,55.1893183 4.49679453,55.2286419 4.45511941,55.2629808 C4.43725865,55.2759963 4.37703049,55.3031351 4.33286317,55.3229353 C4.23483665,55.3672436 4.11285732,55.4222135 3.98617051,55.5101376 C3.96318689,55.5260609 3.94117246,55.5433688 3.92040413,55.5617844 L3.2920929,56.1208989 L3.1559911,56.1761457 C3.08994781,56.2030076 3.02861201,56.2401157 2.97378362,56.2858086 C2.78243806,56.4457336 2.62736786,56.6516284 2.50275788,56.817092 C2.46911318,56.8619541 2.43768378,56.9039084 2.40902348,56.9390781 C2.34436474,57.0186945 2.29812059,57.1116033 2.27375242,57.2108814 C1.54063035,57.9893217 0.862198215,59.1387049 0.456800402,59.990946 C0.426617095,60.0546391 0.406125675,60.1224861 0.396433787,60.1922716 C0.373034802,60.3588428 0.349635816,60.5251372 0.325821463,60.69157 C0.218241511,60.9913428 0.192488781,61.2912542 0.169643617,61.5589036 C0.154275052,61.7387673 0.139598765,61.9085232 0.102769593,62.058202 C0.0867087502,62.1234182 0.0803397955,62.1904344 0.0835242728,62.2574506 L0.0849088282,62.2852817 C0.0894778609,62.3790213 0.0940468937,62.4726224 0.099031293,62.566362 C-0.0644846967,63.3392637 -0.00716410421,63.9666406 0.137937299,64.6460797 L0.130737611,64.7371885 C0.122014912,64.8465744 0.113430669,64.9559604 0.105261792,65.0652078 C0.0988928375,65.1516089 0.108723181,65.2384253 0.134337455,65.3212263 C0.19096577,65.5044132 0.289961479,65.6226608 0.360296892,65.6938309 C0.409171697,65.8208017 0.444893226,66.0200502 0.47701491,66.1982524 C0.522705238,66.4531632 0.570195487,66.7169357 0.674175596,66.9519077 C0.755587452,67.1364792 0.858459916,67.2685731 0.941117872,67.3747744 C0.998023098,67.4476061 1.03346772,67.4942682 1.04731327,67.5313763 C1.08746537,67.6403469 1.15420094,67.7367173 1.24073565,67.8124567 C1.47666389,68.2135847 1.76797434,68.4795725 2.00348721,68.6946059 C2.09528323,68.7782377 2.18264868,68.8579925 2.25603011,68.9358088 L2.45249852,69.2319817 C2.49361981,69.2934593 2.544433,69.3481523 2.60286123,69.3935683 C2.68441154,69.4571229 2.76970015,69.4983849 2.84765062,69.5273237 C2.86205,69.5511394 2.87811084,69.5739858 2.89555624,69.5960015 C2.9595227,69.676864 3.03304259,69.7406956 3.29555429,69.9573905 C3.36685889,70.0162374 3.43373291,70.0712073 3.46890062,70.1025 C3.52206755,70.1498544 3.58201879,70.1886241 3.64681598,70.2175629 L3.69887527,70.2409632 C3.76962605,70.3795649 3.88759016,70.5652441 4.10371926,70.6962303 C4.85553283,71.1520512 5.73832533,71.4532087 6.51713773,71.7189197 C6.63288656,71.7583817 6.74669701,71.7971514 6.85787681,71.8357826 C7.26452072,71.9771536 7.66271885,71.9443378 7.98255114,71.9178913 C8.07767009,71.9101374 8.21861783,71.8990603 8.27496923,71.9036296 C8.50023639,71.977292 8.70155075,72 8.87863538,72 C9.04035145,72 9.18185301,71.9810305 9.30217087,71.9648303 C9.42359637,71.9486301 9.51788459,71.93603 9.61743413,71.9403224 C9.78095012,71.9932153 9.95997313,71.9833844 10.1185047,71.9108297 C10.1824712,71.8814755 10.2372996,71.8478289 10.2843744,71.81349 C10.3477871,71.8061515 10.411892,71.7924436 10.4759969,71.772228 C10.5028573,71.7636433 10.5290254,71.7543662 10.5545012,71.74412 C10.8354275,71.7233505 11.1480601,71.6060721 11.5310281,71.4626242 C11.7538031,71.3791309 12.0588206,71.2647603 12.1813538,71.2510524 C12.3087329,71.2366522 12.429743,71.1872209 12.5306771,71.1081584 L12.5465995,71.096389 C12.5727676,71.0774195 12.5969973,71.0576193 12.6195655,71.0371267 C12.8538323,70.9471256 13.0534852,70.8380166 13.0566697,70.8360781 C13.1301896,70.7916314 13.1947098,70.7337538 13.247046,70.6654914 L13.3269349,70.561644 C14.1117009,70.1952703 14.6777071,69.8590816 15.3112796,69.244028 C15.4573502,69.1019647 16.1367516,68.4190641 16.2512543,67.8978885 C16.3473424,67.7099939 16.5037972,67.4916374 16.6677285,67.2626192 C16.8327675,67.0324933 17.0033448,66.7943366 17.1491385,66.5392873 C17.2385807,66.3836547 17.3696981,66.1232053 17.4278494,65.8480789 C17.5355679,65.6691844 17.5801505,65.4589973 17.5981498,65.2992107 C17.8433545,64.818051 17.8572001,64.3539223 17.8696611,63.9396403 C17.8786607,63.6413905 17.8871065,63.3596178 17.974195,63.0493218 C18.0185008,62.8914737 18.0050706,62.7249024 17.9391657,62.5785468 C17.9416579,62.5572235 17.944704,62.5338232 17.9474731,62.513746 Z" id="Fill-1-Copy-10" stroke="#FFFFFF" stroke-width="6" fill="#0DF394" transform="translate(9.000000, 63.000000) rotate(-90.000000) translate(-9.000000, -63.000000) "></path>
                            <path d="M16.9533094,7.56777422 C16.9717701,7.42524941 16.997246,7.22992395 16.9482635,7.01392132 C16.9026039,6.81293426 16.8039005,6.6821019 16.730919,6.60271631 C16.7289499,6.58363916 16.7272269,6.56406969 16.725627,6.54782334 C16.7226732,6.51545371 16.7194734,6.48086868 16.715412,6.44529901 L16.7369496,6.31028198 C16.7591024,6.17477264 16.7354727,6.03569402 16.6697525,5.91532333 C16.6231083,5.83015306 16.5594803,5.74473663 16.4857604,5.64578158 C16.4664382,5.61981203 16.4452699,5.59138092 16.4250861,5.56368827 C16.4200402,5.4756872 16.4152404,5.38768613 16.4103176,5.29980814 L16.3980104,5.07666696 C16.3937029,4.99851216 16.3743807,4.92208046 16.3413975,4.85118729 C16.2367866,4.62706148 16.1194994,4.42016665 16.0060274,4.22004114 C15.89354,4.02188488 15.7873292,3.83455952 15.709671,3.65720352 C15.6866566,3.60489519 15.668442,3.55430995 15.6507197,3.5055709 C15.5938606,3.35073824 15.5230945,3.15787436 15.3697473,2.96857974 C15.0775753,2.60709842 14.5701512,2.19158566 14.1977365,1.94087492 C14.1490002,1.9078899 14.0845107,1.871951 13.9730078,1.83896599 C13.8698738,1.7299185 13.7443408,1.60708624 13.5922243,1.51588513 C13.5497646,1.47760774 13.5021359,1.44499196 13.4500766,1.41951472 C13.1927339,1.29348242 12.5059945,0.952185954 12.2316679,0.797476377 C12.1484715,0.7317525 12.0508757,0.689413523 11.9483571,0.672921014 C11.8757449,0.651997682 11.7134134,0.598212412 11.667877,0.578519864 C11.4369947,0.47353397 11.2099276,0.426148778 10.9903679,0.380486683 C10.8286518,0.346640117 10.6612744,0.311808924 10.4724826,0.251131262 C9.38206833,-0.0992730062 8.71994318,-0.041179991 7.59137671,0.17088413 L7.19865527,0.187130482 C7.14450377,0.189222815 7.09084456,0.198699854 7.03915449,0.215069284 C6.87423857,0.267131456 6.74033668,0.295316415 6.58538955,0.328055275 C6.35943011,0.375686625 6.10331813,0.429594974 5.75047189,0.562888905 C5.42999347,0.683998072 5.22261784,0.87920045 5.07136286,1.02172526 C5.03357988,1.05717185 4.99715069,1.09212612 4.96010614,1.12264957 C4.94422991,1.13421894 4.89069377,1.15834231 4.85143393,1.17594253 C4.76429925,1.21532762 4.65587318,1.26418975 4.54326267,1.34234455 C4.52283279,1.35649857 4.50326441,1.37188337 4.48480367,1.3882528 L3.9263048,1.88524347 L3.80532543,1.93435176 C3.74662028,1.95822898 3.69209956,1.99121399 3.64336322,2.03182987 C3.47327828,2.17398545 3.3354381,2.35700306 3.22467367,2.50408178 C3.19476727,2.54395919 3.16683002,2.58125195 3.1413542,2.61251387 C3.08387977,2.68328396 3.04277386,2.76586958 3.02111326,2.85411681 C2.3694492,3.5460637 1.76639841,4.56773768 1.4060448,5.32528537 C1.3792152,5.38190144 1.3610006,5.44220987 1.35238559,5.5042414 C1.33158649,5.65230474 1.31078739,5.80012192 1.28961908,5.94806219 C1.19399245,6.21452697 1.17110114,6.48111483 1.15079433,6.71902542 C1.13713338,6.87890429 1.12408779,7.02979844 1.09135075,7.16284621 C1.07707444,7.22081615 1.07141315,7.28038611 1.0742438,7.33995606 L1.07547451,7.36469483 C1.07953588,7.44801892 1.08359724,7.53121993 1.08802782,7.61454402 C0.94268027,8.30156777 0.993631907,8.85923611 1.12261093,9.46318192 L1.11621121,9.54416752 C1.1084577,9.64139948 1.10082726,9.73863143 1.09356604,9.83574031 C1.08790474,9.91254124 1.09664283,9.98971141 1.11941107,10.0633123 C1.16974735,10.2261451 1.25774354,10.331254 1.3202639,10.3945163 C1.36370818,10.5073793 1.39546064,10.6844891 1.42401325,10.842891 C1.46462688,11.0694784 1.50684043,11.3039428 1.5992672,11.5128069 C1.67163329,11.6768704 1.76307548,11.7942872 1.83654922,11.8886884 C1.88713164,11.9534276 1.91863797,11.9949051 1.93094513,12.0278901 C1.96663589,12.1247528 2.02595639,12.2104154 2.10287614,12.2777393 C2.31259012,12.6342975 2.57153275,12.8707311 2.78087752,13.0618719 C2.86247398,13.1362113 2.94013216,13.2071044 3.0053601,13.2762745 L3.17999868,13.5395393 C3.21655095,13.5941861 3.26171822,13.6428021 3.31365443,13.6831718 C3.38614359,13.7396648 3.46195569,13.7763421 3.531245,13.8020655 C3.54404444,13.823235 3.55832075,13.843543 3.57382777,13.8631124 C3.63068684,13.9349902 3.69603786,13.9917294 3.92938159,14.1843471 C3.99276346,14.2366554 4.05220703,14.2855176 4.08346722,14.3133333 C4.13072671,14.3554261 4.1840167,14.3898881 4.24161421,14.4156115 L4.28788913,14.4364117 C4.35077871,14.5596132 4.4556357,14.7246614 4.64775045,14.8410936 C5.31602918,15.2462677 6.10073363,15.5139633 6.79301132,15.7501508 C6.89589917,15.7852282 6.99706401,15.8196901 7.0958905,15.854029 C7.45735175,15.9796921 7.81130564,15.9505225 8.09560101,15.9270145 C8.18015119,15.9201221 8.30543807,15.9102758 8.35552821,15.9143374 C8.55576568,15.9798151 8.73471177,16 8.89212034,16 C9.03586795,16 9.16164712,15.9831383 9.26859633,15.9687381 C9.37653011,15.9543379 9.46034186,15.9431378 9.54883033,15.9469532 C9.69417788,15.9939692 9.85330944,15.9852306 9.99422641,15.9207375 C10.0510855,15.8946449 10.0998218,15.8647368 10.1416662,15.8342134 C10.198033,15.8276902 10.2550151,15.8155054 10.3119973,15.797536 C10.3358731,15.7899051 10.3591337,15.7816589 10.3817788,15.7725511 C10.6314911,15.7540893 10.9093867,15.6498419 11.2498028,15.5223326 C11.4478249,15.4481164 11.7189517,15.3464536 11.82787,15.3342688 C11.9410959,15.3214687 12.0486604,15.2775297 12.1383796,15.2072519 L12.1525329,15.1967902 C12.1757934,15.1799285 12.1973309,15.1623283 12.2173916,15.1441127 C12.4256287,15.0641117 12.603098,14.9671259 12.6059286,14.9654028 C12.6712796,14.9258946 12.728631,14.8744478 12.775152,14.8137702 L12.8461643,14.7214614 C13.5437341,14.3957958 14.0468508,14.0969614 14.6100264,13.5502471 C14.7398669,13.4239686 15.3437792,12.8169458 15.4455594,12.3536787 C15.5309711,12.1866612 15.6700419,11.9925666 15.8157587,11.7889949 C15.96246,11.5844385 16.1140842,11.3727436 16.2436786,11.1460332 C16.3231829,11.007693 16.4397317,10.7761825 16.4914217,10.5316257 C16.5871714,10.3726084 16.6268005,10.1857753 16.6427998,10.0437428 C16.8607596,9.61604532 16.8730667,9.20348645 16.8841432,8.83523581 C16.8921428,8.57012489 16.8996502,8.3196603 16.9770622,8.04384156 C17.0164451,7.90353216 17.0045072,7.75546882 16.9459251,7.62537492 C16.9481404,7.60642085 16.950848,7.58562059 16.9533094,7.56777422 Z" id="Fill-1-Copy-3" stroke="#504FFF" stroke-width="4" fill="#FFFFFF" transform="translate(9.000000, 8.000000) rotate(-90.000000) translate(-9.000000, -8.000000) "></path>
                        </g>
                    </g>
                </g>
            </g>
        </g>
    </g>
</svg>