<?xml version="1.0" encoding="UTF-8"?>
<svg width="175px" height="1888px" viewBox="0 0 175 1888" version="1.1" xmlns="http://www.w3.org/2000/svg" xmlns:xlink="http://www.w3.org/1999/xlink">
    <title>Group 31</title>
    <g id="Page-1" stroke="none" stroke-width="1" fill="none" fill-rule="evenodd">
        <g id="01---Mediaforta-2019---Home-1" transform="translate(-632.000000, -1674.000000)">
            <g id="Group-24" transform="translate(-7.000000, 1275.000000)">
                <g id="Group-39">
                    <g id="Group-33" transform="translate(0.000000, 397.000000)">
                        <g id="Group-31" transform="translate(642.000000, 5.000000)">
                            <path d="M85,9 C85,159.166 10,159.166 10,309.331 C10,459.495 160,459.495 160,609.658 C160,759.823 10,759.823 10,909.988 C10,1060.157 160,1060.157 160,1210.325 C160,1360.494 10,1360.494 10,1510.662 C10,1660.831 85,1660.831 85,1811" id="Stroke-1" stroke="#504FFF" stroke-width="2"></path>
                            <path d="M93.9474731,1820.51375 C93.9682414,1820.35341 93.9969017,1820.13366 93.9417964,1819.89066 C93.8904294,1819.66455 93.7793881,1819.51736 93.6972839,1819.42806 C93.6950686,1819.40659 93.6931303,1819.38458 93.6913303,1819.3663 C93.6880074,1819.32989 93.6844076,1819.29098 93.6798385,1819.25096 L93.7040682,1819.09907 C93.7289902,1818.94662 93.7024068,1818.79016 93.6284715,1818.65474 C93.5759969,1818.55892 93.5044154,1818.46283 93.4214805,1818.3515 C93.399743,1818.32229 93.3759286,1818.2903 93.3532219,1818.25915 C93.3475452,1818.16015 93.3421455,1818.06115 93.3366072,1817.96228 L93.3227617,1817.71125 C93.3179158,1817.62333 93.2961782,1817.53734 93.2590721,1817.45759 C93.1413849,1817.20544 93.0094368,1816.97269 92.8817808,1816.74755 C92.7552324,1816.52462 92.6357453,1816.31388 92.5483799,1816.11435 C92.5224887,1816.05551 92.5019973,1815.9986 92.4820597,1815.94377 C92.4180932,1815.76958 92.3384813,1815.55261 92.1659657,1815.33965 C91.8372722,1814.93299 91.2664201,1814.46553 90.8474536,1814.18348 C90.7926252,1814.14638 90.7200745,1814.10594 90.5946338,1814.06884 C90.478608,1813.94616 90.3373834,1813.80797 90.1662524,1813.70537 C90.1184852,1813.66231 90.0649029,1813.62562 90.0063362,1813.59695 C89.7168257,1813.45517 88.9442438,1813.07121 88.6356264,1812.89716 C88.5420304,1812.82322 88.4322352,1812.77559 88.3169017,1812.75704 C88.235213,1812.7335 88.0525901,1812.67299 88.0013616,1812.65083 C87.741619,1812.53273 87.4861685,1812.47942 87.2391638,1812.42805 C87.0572333,1812.38997 86.8689337,1812.35079 86.6565429,1812.28252 C85.4298269,1811.88832 84.6849361,1811.95367 83.4152988,1812.19224 L82.9734872,1812.21052 C82.9125667,1812.21288 82.8522001,1812.22354 82.7940488,1812.24195 C82.6085184,1812.30052 82.4578788,1812.33223 82.2835632,1812.36906 C82.0293589,1812.42265 81.7412329,1812.48329 81.3442809,1812.63325 C80.9837427,1812.7695 80.7504451,1812.9891 80.5802832,1813.14944 C80.5377774,1813.18932 80.4967945,1813.22864 80.4551194,1813.26298 C80.4372586,1813.276 80.3770305,1813.30314 80.3328632,1813.32294 C80.2348367,1813.36724 80.1128573,1813.42221 79.9861705,1813.51014 C79.9631869,1813.52606 79.9411725,1813.54337 79.9204041,1813.56178 L79.2920929,1814.1209 L79.1559911,1814.17615 C79.0899478,1814.20301 79.028612,1814.24012 78.9737836,1814.28581 C78.7824381,1814.44573 78.6273679,1814.65163 78.5027579,1814.81709 C78.4691132,1814.86195 78.4376838,1814.90391 78.4090235,1814.93908 C78.3443647,1815.01869 78.2981206,1815.1116 78.2737524,1815.21088 C77.5406303,1815.98932 76.8621982,1817.1387 76.4568004,1817.99095 C76.4266171,1818.05464 76.4061257,1818.12249 76.3964338,1818.19227 C76.3730348,1818.35884 76.3496358,1818.52514 76.3258215,1818.69157 C76.2182415,1818.99134 76.1924888,1819.29125 76.1696436,1819.5589 C76.1542751,1819.73877 76.1395988,1819.90852 76.1027696,1820.0582 C76.0867088,1820.12342 76.0803398,1820.19043 76.0835243,1820.25745 L76.0849088,1820.28528 C76.0894779,1820.37902 76.0940469,1820.47262 76.0990313,1820.56636 C75.9355153,1821.33926 75.9928359,1821.96664 76.1379373,1822.64608 L76.1307376,1822.73719 C76.1220149,1822.84657 76.1134307,1822.95596 76.1052618,1823.06521 C76.0988928,1823.15161 76.1087232,1823.23843 76.1343375,1823.32123 C76.1909658,1823.50441 76.2899615,1823.62266 76.3602969,1823.69383 C76.4091717,1823.8208 76.4448932,1824.02005 76.4770149,1824.19825 C76.5227052,1824.45316 76.5701955,1824.71694 76.6741756,1824.95191 C76.7555875,1825.13648 76.8584599,1825.26857 76.9411179,1825.37477 C76.9980231,1825.44761 77.0334677,1825.49427 77.0473133,1825.53138 C77.0874654,1825.64035 77.1542009,1825.73672 77.2407357,1825.81246 C77.4766639,1826.21358 77.7679743,1826.47957 78.0034872,1826.69461 C78.0952832,1826.77824 78.1826487,1826.85799 78.2560301,1826.93581 L78.4524985,1827.23198 C78.4936198,1827.29346 78.544433,1827.34815 78.6028612,1827.39357 C78.6844115,1827.45712 78.7697002,1827.49838 78.8476506,1827.52732 C78.86205,1827.55114 78.8781108,1827.57399 78.8955562,1827.596 C78.9595227,1827.67686 79.0330426,1827.7407 79.2955543,1827.95739 C79.3668589,1828.01624 79.4337329,1828.07121 79.4689006,1828.1025 C79.5220675,1828.14985 79.5820188,1828.18862 79.646816,1828.21756 L79.6988753,1828.24096 C79.769626,1828.37956 79.8875902,1828.56524 80.1037193,1828.69623 C80.8555328,1829.15205 81.7383253,1829.45321 82.5171377,1829.71892 C82.6328866,1829.75838 82.746697,1829.79715 82.8578768,1829.83578 C83.2645207,1829.97715 83.6627188,1829.94434 83.9825511,1829.91789 C84.0776701,1829.91014 84.2186178,1829.89906 84.2749692,1829.90363 C84.5002364,1829.97729 84.7015507,1830 84.8786354,1830 C85.0403514,1830 85.181853,1829.98103 85.3021709,1829.96483 C85.4235964,1829.94863 85.5178846,1829.93603 85.6174341,1829.94032 C85.7809501,1829.99322 85.9599731,1829.98338 86.1185047,1829.91083 C86.1824712,1829.88148 86.2372996,1829.84783 86.2843744,1829.81349 C86.3477871,1829.80615 86.411892,1829.79244 86.4759969,1829.77223 C86.5028573,1829.76364 86.5290254,1829.75437 86.5545012,1829.74412 C86.8354275,1829.72335 87.1480601,1829.60607 87.5310281,1829.46262 C87.7538031,1829.37913 88.0588206,1829.26476 88.1813538,1829.25105 C88.3087329,1829.23665 88.429743,1829.18722 88.5306771,1829.10816 L88.5465995,1829.09639 C88.5727676,1829.07742 88.5969973,1829.05762 88.6195655,1829.03713 C88.8538323,1828.94713 89.0534852,1828.83802 89.0566697,1828.83608 C89.1301896,1828.79163 89.1947098,1828.73375 89.247046,1828.66549 L89.3269349,1828.56164 C90.1117009,1828.19527 90.6777071,1827.85908 91.3112796,1827.24403 C91.4573502,1827.10196 92.1367516,1826.41906 92.2512543,1825.89789 C92.3473424,1825.70999 92.5037972,1825.49164 92.6677285,1825.26262 C92.8327675,1825.03249 93.0033448,1824.79434 93.1491385,1824.53929 C93.2385807,1824.38365 93.3696981,1824.12321 93.4278494,1823.84808 C93.5355679,1823.66918 93.5801505,1823.459 93.5981498,1823.29921 C93.8433545,1822.81805 93.8572001,1822.35392 93.8696611,1821.93964 C93.8786607,1821.64139 93.8871065,1821.35962 93.974195,1821.04932 C94.0185008,1820.89147 94.0050706,1820.7249 93.9391657,1820.57855 C93.9416579,1820.55722 93.944704,1820.53382 93.9474731,1820.51375 Z" id="Fill-1-Copy-7" stroke="#FFFFFF" stroke-width="6" fill="#0DF394" transform="translate(85.000000, 1821.000000) rotate(-90.000000) translate(-85.000000, -1821.000000) "></path>
                            <path d="M93.9474731,1846.51375 C93.9682414,1846.35341 93.9969017,1846.13366 93.9417964,1845.89066 C93.8904294,1845.66455 93.7793881,1845.51736 93.6972839,1845.42806 C93.6950686,1845.40659 93.6931303,1845.38458 93.6913303,1845.3663 C93.6880074,1845.32989 93.6844076,1845.29098 93.6798385,1845.25096 L93.7040682,1845.09907 C93.7289902,1844.94662 93.7024068,1844.79016 93.6284715,1844.65474 C93.5759969,1844.55892 93.5044154,1844.46283 93.4214805,1844.3515 C93.399743,1844.32229 93.3759286,1844.2903 93.3532219,1844.25915 C93.3475452,1844.16015 93.3421455,1844.06115 93.3366072,1843.96228 L93.3227617,1843.71125 C93.3179158,1843.62333 93.2961782,1843.53734 93.2590721,1843.45759 C93.1413849,1843.20544 93.0094368,1842.97269 92.8817808,1842.74755 C92.7552324,1842.52462 92.6357453,1842.31388 92.5483799,1842.11435 C92.5224887,1842.05551 92.5019973,1841.9986 92.4820597,1841.94377 C92.4180932,1841.76958 92.3384813,1841.55261 92.1659657,1841.33965 C91.8372722,1840.93299 91.2664201,1840.46553 90.8474536,1840.18348 C90.7926252,1840.14638 90.7200745,1840.10594 90.5946338,1840.06884 C90.478608,1839.94616 90.3373834,1839.80797 90.1662524,1839.70537 C90.1184852,1839.66231 90.0649029,1839.62562 90.0063362,1839.59695 C89.7168257,1839.45517 88.9442438,1839.07121 88.6356264,1838.89716 C88.5420304,1838.82322 88.4322352,1838.77559 88.3169017,1838.75704 C88.235213,1838.7335 88.0525901,1838.67299 88.0013616,1838.65083 C87.741619,1838.53273 87.4861685,1838.47942 87.2391638,1838.42805 C87.0572333,1838.38997 86.8689337,1838.35079 86.6565429,1838.28252 C85.4298269,1837.88832 84.6849361,1837.95367 83.4152988,1838.19224 L82.9734872,1838.21052 C82.9125667,1838.21288 82.8522001,1838.22354 82.7940488,1838.24195 C82.6085184,1838.30052 82.4578788,1838.33223 82.2835632,1838.36906 C82.0293589,1838.42265 81.7412329,1838.48329 81.3442809,1838.63325 C80.9837427,1838.7695 80.7504451,1838.9891 80.5802832,1839.14944 C80.5377774,1839.18932 80.4967945,1839.22864 80.4551194,1839.26298 C80.4372586,1839.276 80.3770305,1839.30314 80.3328632,1839.32294 C80.2348367,1839.36724 80.1128573,1839.42221 79.9861705,1839.51014 C79.9631869,1839.52606 79.9411725,1839.54337 79.9204041,1839.56178 L79.2920929,1840.1209 L79.1559911,1840.17615 C79.0899478,1840.20301 79.028612,1840.24012 78.9737836,1840.28581 C78.7824381,1840.44573 78.6273679,1840.65163 78.5027579,1840.81709 C78.4691132,1840.86195 78.4376838,1840.90391 78.4090235,1840.93908 C78.3443647,1841.01869 78.2981206,1841.1116 78.2737524,1841.21088 C77.5406303,1841.98932 76.8621982,1843.1387 76.4568004,1843.99095 C76.4266171,1844.05464 76.4061257,1844.12249 76.3964338,1844.19227 C76.3730348,1844.35884 76.3496358,1844.52514 76.3258215,1844.69157 C76.2182415,1844.99134 76.1924888,1845.29125 76.1696436,1845.5589 C76.1542751,1845.73877 76.1395988,1845.90852 76.1027696,1846.0582 C76.0867088,1846.12342 76.0803398,1846.19043 76.0835243,1846.25745 L76.0849088,1846.28528 C76.0894779,1846.37902 76.0940469,1846.47262 76.0990313,1846.56636 C75.9355153,1847.33926 75.9928359,1847.96664 76.1379373,1848.64608 L76.1307376,1848.73719 C76.1220149,1848.84657 76.1134307,1848.95596 76.1052618,1849.06521 C76.0988928,1849.15161 76.1087232,1849.23843 76.1343375,1849.32123 C76.1909658,1849.50441 76.2899615,1849.62266 76.3602969,1849.69383 C76.4091717,1849.8208 76.4448932,1850.02005 76.4770149,1850.19825 C76.5227052,1850.45316 76.5701955,1850.71694 76.6741756,1850.95191 C76.7555875,1851.13648 76.8584599,1851.26857 76.9411179,1851.37477 C76.9980231,1851.44761 77.0334677,1851.49427 77.0473133,1851.53138 C77.0874654,1851.64035 77.1542009,1851.73672 77.2407357,1851.81246 C77.4766639,1852.21358 77.7679743,1852.47957 78.0034872,1852.69461 C78.0952832,1852.77824 78.1826487,1852.85799 78.2560301,1852.93581 L78.4524985,1853.23198 C78.4936198,1853.29346 78.544433,1853.34815 78.6028612,1853.39357 C78.6844115,1853.45712 78.7697002,1853.49838 78.8476506,1853.52732 C78.86205,1853.55114 78.8781108,1853.57399 78.8955562,1853.596 C78.9595227,1853.67686 79.0330426,1853.7407 79.2955543,1853.95739 C79.3668589,1854.01624 79.4337329,1854.07121 79.4689006,1854.1025 C79.5220675,1854.14985 79.5820188,1854.18862 79.646816,1854.21756 L79.6988753,1854.24096 C79.769626,1854.37956 79.8875902,1854.56524 80.1037193,1854.69623 C80.8555328,1855.15205 81.7383253,1855.45321 82.5171377,1855.71892 C82.6328866,1855.75838 82.746697,1855.79715 82.8578768,1855.83578 C83.2645207,1855.97715 83.6627188,1855.94434 83.9825511,1855.91789 C84.0776701,1855.91014 84.2186178,1855.89906 84.2749692,1855.90363 C84.5002364,1855.97729 84.7015507,1856 84.8786354,1856 C85.0403514,1856 85.181853,1855.98103 85.3021709,1855.96483 C85.4235964,1855.94863 85.5178846,1855.93603 85.6174341,1855.94032 C85.7809501,1855.99322 85.9599731,1855.98338 86.1185047,1855.91083 C86.1824712,1855.88148 86.2372996,1855.84783 86.2843744,1855.81349 C86.3477871,1855.80615 86.411892,1855.79244 86.4759969,1855.77223 C86.5028573,1855.76364 86.5290254,1855.75437 86.5545012,1855.74412 C86.8354275,1855.72335 87.1480601,1855.60607 87.5310281,1855.46262 C87.7538031,1855.37913 88.0588206,1855.26476 88.1813538,1855.25105 C88.3087329,1855.23665 88.429743,1855.18722 88.5306771,1855.10816 L88.5465995,1855.09639 C88.5727676,1855.07742 88.5969973,1855.05762 88.6195655,1855.03713 C88.8538323,1854.94713 89.0534852,1854.83802 89.0566697,1854.83608 C89.1301896,1854.79163 89.1947098,1854.73375 89.247046,1854.66549 L89.3269349,1854.56164 C90.1117009,1854.19527 90.6777071,1853.85908 91.3112796,1853.24403 C91.4573502,1853.10196 92.1367516,1852.41906 92.2512543,1851.89789 C92.3473424,1851.70999 92.5037972,1851.49164 92.6677285,1851.26262 C92.8327675,1851.03249 93.0033448,1850.79434 93.1491385,1850.53929 C93.2385807,1850.38365 93.3696981,1850.12321 93.4278494,1849.84808 C93.5355679,1849.66918 93.5801505,1849.459 93.5981498,1849.29921 C93.8433545,1848.81805 93.8572001,1848.35392 93.8696611,1847.93964 C93.8786607,1847.64139 93.8871065,1847.35962 93.974195,1847.04932 C94.0185008,1846.89147 94.0050706,1846.7249 93.9391657,1846.57855 C93.9416579,1846.55722 93.944704,1846.53382 93.9474731,1846.51375 Z" id="Fill-1-Copy-8" stroke="#FFFFFF" stroke-width="6" fill="#0DF394" transform="translate(85.000000, 1847.000000) rotate(-90.000000) translate(-85.000000, -1847.000000) "></path>
                            <path d="M93.9474731,1872.51375 C93.9682414,1872.35341 93.9969017,1872.13366 93.9417964,1871.89066 C93.8904294,1871.66455 93.7793881,1871.51736 93.6972839,1871.42806 C93.6950686,1871.40659 93.6931303,1871.38458 93.6913303,1871.3663 C93.6880074,1871.32989 93.6844076,1871.29098 93.6798385,1871.25096 L93.7040682,1871.09907 C93.7289902,1870.94662 93.7024068,1870.79016 93.6284715,1870.65474 C93.5759969,1870.55892 93.5044154,1870.46283 93.4214805,1870.3515 C93.399743,1870.32229 93.3759286,1870.2903 93.3532219,1870.25915 C93.3475452,1870.16015 93.3421455,1870.06115 93.3366072,1869.96228 L93.3227617,1869.71125 C93.3179158,1869.62333 93.2961782,1869.53734 93.2590721,1869.45759 C93.1413849,1869.20544 93.0094368,1868.97269 92.8817808,1868.74755 C92.7552324,1868.52462 92.6357453,1868.31388 92.5483799,1868.11435 C92.5224887,1868.05551 92.5019973,1867.9986 92.4820597,1867.94377 C92.4180932,1867.76958 92.3384813,1867.55261 92.1659657,1867.33965 C91.8372722,1866.93299 91.2664201,1866.46553 90.8474536,1866.18348 C90.7926252,1866.14638 90.7200745,1866.10594 90.5946338,1866.06884 C90.478608,1865.94616 90.3373834,1865.80797 90.1662524,1865.70537 C90.1184852,1865.66231 90.0649029,1865.62562 90.0063362,1865.59695 C89.7168257,1865.45517 88.9442438,1865.07121 88.6356264,1864.89716 C88.5420304,1864.82322 88.4322352,1864.77559 88.3169017,1864.75704 C88.235213,1864.7335 88.0525901,1864.67299 88.0013616,1864.65083 C87.741619,1864.53273 87.4861685,1864.47942 87.2391638,1864.42805 C87.0572333,1864.38997 86.8689337,1864.35079 86.6565429,1864.28252 C85.4298269,1863.88832 84.6849361,1863.95367 83.4152988,1864.19224 L82.9734872,1864.21052 C82.9125667,1864.21288 82.8522001,1864.22354 82.7940488,1864.24195 C82.6085184,1864.30052 82.4578788,1864.33223 82.2835632,1864.36906 C82.0293589,1864.42265 81.7412329,1864.48329 81.3442809,1864.63325 C80.9837427,1864.7695 80.7504451,1864.9891 80.5802832,1865.14944 C80.5377774,1865.18932 80.4967945,1865.22864 80.4551194,1865.26298 C80.4372586,1865.276 80.3770305,1865.30314 80.3328632,1865.32294 C80.2348367,1865.36724 80.1128573,1865.42221 79.9861705,1865.51014 C79.9631869,1865.52606 79.9411725,1865.54337 79.9204041,1865.56178 L79.2920929,1866.1209 L79.1559911,1866.17615 C79.0899478,1866.20301 79.028612,1866.24012 78.9737836,1866.28581 C78.7824381,1866.44573 78.6273679,1866.65163 78.5027579,1866.81709 C78.4691132,1866.86195 78.4376838,1866.90391 78.4090235,1866.93908 C78.3443647,1867.01869 78.2981206,1867.1116 78.2737524,1867.21088 C77.5406303,1867.98932 76.8621982,1869.1387 76.4568004,1869.99095 C76.4266171,1870.05464 76.4061257,1870.12249 76.3964338,1870.19227 C76.3730348,1870.35884 76.3496358,1870.52514 76.3258215,1870.69157 C76.2182415,1870.99134 76.1924888,1871.29125 76.1696436,1871.5589 C76.1542751,1871.73877 76.1395988,1871.90852 76.1027696,1872.0582 C76.0867088,1872.12342 76.0803398,1872.19043 76.0835243,1872.25745 L76.0849088,1872.28528 C76.0894779,1872.37902 76.0940469,1872.47262 76.0990313,1872.56636 C75.9355153,1873.33926 75.9928359,1873.96664 76.1379373,1874.64608 L76.1307376,1874.73719 C76.1220149,1874.84657 76.1134307,1874.95596 76.1052618,1875.06521 C76.0988928,1875.15161 76.1087232,1875.23843 76.1343375,1875.32123 C76.1909658,1875.50441 76.2899615,1875.62266 76.3602969,1875.69383 C76.4091717,1875.8208 76.4448932,1876.02005 76.4770149,1876.19825 C76.5227052,1876.45316 76.5701955,1876.71694 76.6741756,1876.95191 C76.7555875,1877.13648 76.8584599,1877.26857 76.9411179,1877.37477 C76.9980231,1877.44761 77.0334677,1877.49427 77.0473133,1877.53138 C77.0874654,1877.64035 77.1542009,1877.73672 77.2407357,1877.81246 C77.4766639,1878.21358 77.7679743,1878.47957 78.0034872,1878.69461 C78.0952832,1878.77824 78.1826487,1878.85799 78.2560301,1878.93581 L78.4524985,1879.23198 C78.4936198,1879.29346 78.544433,1879.34815 78.6028612,1879.39357 C78.6844115,1879.45712 78.7697002,1879.49838 78.8476506,1879.52732 C78.86205,1879.55114 78.8781108,1879.57399 78.8955562,1879.596 C78.9595227,1879.67686 79.0330426,1879.7407 79.2955543,1879.95739 C79.3668589,1880.01624 79.4337329,1880.07121 79.4689006,1880.1025 C79.5220675,1880.14985 79.5820188,1880.18862 79.646816,1880.21756 L79.6988753,1880.24096 C79.769626,1880.37956 79.8875902,1880.56524 80.1037193,1880.69623 C80.8555328,1881.15205 81.7383253,1881.45321 82.5171377,1881.71892 C82.6328866,1881.75838 82.746697,1881.79715 82.8578768,1881.83578 C83.2645207,1881.97715 83.6627188,1881.94434 83.9825511,1881.91789 C84.0776701,1881.91014 84.2186178,1881.89906 84.2749692,1881.90363 C84.5002364,1881.97729 84.7015507,1882 84.8786354,1882 C85.0403514,1882 85.181853,1881.98103 85.3021709,1881.96483 C85.4235964,1881.94863 85.5178846,1881.93603 85.6174341,1881.94032 C85.7809501,1881.99322 85.9599731,1881.98338 86.1185047,1881.91083 C86.1824712,1881.88148 86.2372996,1881.84783 86.2843744,1881.81349 C86.3477871,1881.80615 86.411892,1881.79244 86.4759969,1881.77223 C86.5028573,1881.76364 86.5290254,1881.75437 86.5545012,1881.74412 C86.8354275,1881.72335 87.1480601,1881.60607 87.5310281,1881.46262 C87.7538031,1881.37913 88.0588206,1881.26476 88.1813538,1881.25105 C88.3087329,1881.23665 88.429743,1881.18722 88.5306771,1881.10816 L88.5465995,1881.09639 C88.5727676,1881.07742 88.5969973,1881.05762 88.6195655,1881.03713 C88.8538323,1880.94713 89.0534852,1880.83802 89.0566697,1880.83608 C89.1301896,1880.79163 89.1947098,1880.73375 89.247046,1880.66549 L89.3269349,1880.56164 C90.1117009,1880.19527 90.6777071,1879.85908 91.3112796,1879.24403 C91.4573502,1879.10196 92.1367516,1878.41906 92.2512543,1877.89789 C92.3473424,1877.70999 92.5037972,1877.49164 92.6677285,1877.26262 C92.8327675,1877.03249 93.0033448,1876.79434 93.1491385,1876.53929 C93.2385807,1876.38365 93.3696981,1876.12321 93.4278494,1875.84808 C93.5355679,1875.66918 93.5801505,1875.459 93.5981498,1875.29921 C93.8433545,1874.81805 93.8572001,1874.35392 93.8696611,1873.93964 C93.8786607,1873.64139 93.8871065,1873.35962 93.974195,1873.04932 C94.0185008,1872.89147 94.0050706,1872.7249 93.9391657,1872.57855 C93.9416579,1872.55722 93.944704,1872.53382 93.9474731,1872.51375 Z" id="Fill-1-Copy-9" stroke="#FFFFFF" stroke-width="6" fill="#0DF394" transform="translate(85.000000, 1873.000000) rotate(-90.000000) translate(-85.000000, -1873.000000) "></path>
                            <g id="Group-11" transform="translate(0.000000, 1495.000000)" fill="#FFFFFF" stroke="#0DF394" stroke-width="6">
                                <circle id="Oval-Copy-7" cx="11" cy="11" r="11"></circle>
                            </g>
                            <path d="M19.9416368,303.459718 C19.9647127,303.281562 19.9965575,303.037405 19.9353293,302.767402 C19.8782549,302.516168 19.7548756,302.352627 19.6636488,302.253395 C19.6611874,302.229549 19.6590336,302.205087 19.6570337,302.184779 C19.6533416,302.144317 19.6493417,302.101086 19.644265,302.056624 L19.6711869,301.887852 C19.698878,301.718466 19.6693409,301.544618 19.5871906,301.394154 C19.5288854,301.287691 19.4493504,301.180921 19.3572005,301.057227 C19.3330477,301.024765 19.3065874,300.989226 19.2813577,300.95461 C19.2750503,300.844609 19.2690505,300.734608 19.2628969,300.62476 L19.247513,300.345834 C19.2421286,300.24814 19.2179758,300.152601 19.1767468,300.063984 C19.0459833,299.783827 18.8993742,299.525208 18.7575342,299.275051 C18.6169249,299.027356 18.4841615,298.793199 18.3870887,298.571504 C18.3583208,298.506119 18.3355525,298.442887 18.3133996,298.381964 C18.2423258,298.188423 18.1538681,297.947343 17.9621841,297.710725 C17.5969691,297.258873 16.9626889,296.739482 16.4971707,296.426094 C16.4362502,296.384862 16.3556383,296.339939 16.2162598,296.298707 C16.0873423,296.162398 15.930426,296.008858 15.7402804,295.894856 C15.6872058,295.84701 15.6276699,295.80624 15.5625958,295.774393 C15.2409174,295.616853 14.3824931,295.190232 14.0395849,294.996845 C13.9355894,294.914691 13.8135947,294.861767 13.6854464,294.841151 C13.5946811,294.814997 13.3917668,294.747766 13.3348462,294.72315 C13.0462433,294.591917 12.7624095,294.532686 12.4879598,294.475608 C12.2858147,294.4333 12.076593,294.389761 11.8406033,294.313914 C10.4775854,293.875909 9.64992898,293.948525 8.23922089,294.213605 L7.74831909,294.233913 C7.68062972,294.236529 7.6135557,294.248375 7.54894312,294.268837 C7.34279821,294.333914 7.17542085,294.369146 6.98173693,294.410069 C6.69928764,294.469608 6.37914767,294.536994 5.93808986,294.703611 C5.53749184,294.854998 5.2782723,295.099001 5.08920358,295.277157 C5.04197485,295.321465 4.99643837,295.365158 4.95013268,295.403312 C4.93028739,295.417774 4.86336721,295.447928 4.81429241,295.469928 C4.70537406,295.51916 4.56984147,295.580237 4.42907834,295.677931 C4.40354099,295.695623 4.37908051,295.714854 4.35600459,295.735316 L3.657881,296.356554 L3.50665678,296.41794 C3.43327535,296.447786 3.36512446,296.489017 3.30420402,296.539787 C3.09159785,296.717482 2.91929762,296.946254 2.78084209,297.130102 C2.74345909,297.179949 2.70853753,297.226565 2.67669276,297.265642 C2.60484972,297.354105 2.55346733,297.457337 2.52639158,297.567646 C1.7118115,298.43258 0.957998017,299.709672 0.507556002,300.656607 C0.474018994,300.727377 0.45125075,300.802762 0.440481986,300.880302 C0.414483113,301.065381 0.38848424,301.250152 0.362023848,301.435078 C0.242490568,301.768159 0.213876423,302.101394 0.188492908,302.398782 C0.171416725,302.59863 0.155109739,302.787248 0.114188436,302.953558 C0.0963430558,303.02602 0.0892664394,303.100483 0.0928047476,303.174945 L0.0943431424,303.205869 C0.0994198455,303.310024 0.104496549,303.414025 0.11003477,303.51818 C-0.071649663,304.37696 -0.00796011578,305.074045 0.153263666,305.828977 L0.145264012,305.930209 C0.135572125,306.051749 0.126034077,306.173289 0.116957547,306.294675 C0.109880931,306.390677 0.120803534,306.487139 0.149263839,306.57914 C0.212184189,306.782681 0.322179421,306.914068 0.40032988,306.993145 C0.454635219,307.134224 0.494325806,307.355611 0.530016567,307.553614 C0.580783597,307.836848 0.633550541,308.129929 0.749083995,308.391009 C0.839541613,308.596088 0.953844351,308.742859 1.04568652,308.86086 C1.10891455,308.941785 1.14829746,308.993631 1.16368141,309.034863 C1.20829486,309.155941 1.28244549,309.263019 1.37859517,309.347174 C1.64073766,309.792872 1.96441593,310.088414 2.2260969,310.32734 C2.32809248,310.420264 2.4251652,310.508881 2.50670012,310.595343 L2.72499835,310.924424 C2.77068868,310.992733 2.82714777,311.053503 2.89206804,311.103965 C2.98267949,311.174581 3.07744462,311.220428 3.16405625,311.252582 C3.18005555,311.279044 3.19790093,311.304429 3.21728471,311.328891 C3.28835855,311.418738 3.37004732,311.489662 3.66172698,311.730434 C3.74095432,311.795819 3.81525879,311.856897 3.85433402,311.891667 C3.91340838,311.944283 3.98002088,311.98736 4.05201776,312.019514 L4.10986141,312.045515 C4.18847338,312.199517 4.31954463,312.405827 4.55968806,312.551367 C5.39503647,313.057835 6.37591704,313.392454 7.24126415,313.687689 C7.36987396,313.731535 7.49633001,313.774613 7.61986312,313.817536 C8.07168969,313.974615 8.51413205,313.938153 8.86950127,313.908768 C8.97518899,313.900153 9.13179759,313.887845 9.19441026,313.892922 C9.4447071,313.974769 9.66838972,314 9.86515042,314 C10.0448349,314 10.2020589,313.978923 10.3357454,313.960923 C10.4706626,313.942922 10.5754273,313.928922 10.6860379,313.933692 C10.8677224,313.992461 11.0666368,313.981538 11.242783,313.900922 C11.3138569,313.868306 11.3747773,313.830921 11.4270827,313.792767 C11.4975412,313.784613 11.5687689,313.769382 11.6399966,313.74692 C11.6698414,313.737381 11.6989171,313.727074 11.7272236,313.715689 C12.0393639,313.692612 12.3867334,313.562302 12.8122535,313.402916 C13.0597812,313.310145 13.3986896,313.183067 13.5348375,313.167836 C13.6763698,313.151836 13.8108256,313.096912 13.9229745,313.009065 L13.9406661,312.995988 C13.9697417,312.974911 13.9966637,312.95291 14.0217395,312.930141 C14.2820359,312.83014 14.5038724,312.708907 14.5074108,312.706753 C14.5890995,312.657368 14.6607887,312.59306 14.71894,312.517213 L14.8077054,312.401827 C15.6796676,311.994745 16.3085635,311.621202 17.0125329,310.937809 C17.1748336,310.779961 17.929724,310.021182 18.0569492,309.442098 C18.1637138,309.233327 18.3375524,308.990708 18.5196984,308.736244 C18.7030751,308.480548 18.8926053,308.21593 19.0545983,307.932541 C19.1539786,307.759616 19.2996646,307.470228 19.3642772,307.164532 C19.4839643,306.96576 19.5335006,306.732219 19.5534997,306.554679 C19.8259495,306.020057 19.8413334,305.504358 19.855179,305.044045 C19.8651785,304.712656 19.8745627,304.399575 19.9713278,304.054802 C20.0205564,303.879415 20.005634,303.694336 19.9324064,303.531719 C19.9351755,303.508026 19.93856,303.482026 19.9416368,303.459718 Z" id="Fill-1" stroke="#0DF394" stroke-width="6" fill="#FFFFFF" transform="translate(10.000000, 304.000000) rotate(-90.000000) translate(-10.000000, -304.000000) "></path>
                            <path d="M167.953309,614.567774 C167.97177,614.425249 167.997246,614.229924 167.948263,614.013921 C167.902604,613.812934 167.8039,613.682102 167.730919,613.602716 C167.72895,613.583639 167.727227,613.56407 167.725627,613.547823 C167.722673,613.515454 167.719473,613.480869 167.715412,613.445299 L167.73695,613.310282 C167.759102,613.174773 167.735473,613.035694 167.669752,612.915323 C167.623108,612.830153 167.55948,612.744737 167.48576,612.645782 C167.466438,612.619812 167.44527,612.591381 167.425086,612.563688 C167.42004,612.475687 167.41524,612.387686 167.410318,612.299808 L167.39801,612.076667 C167.393703,611.998512 167.374381,611.92208 167.341397,611.851187 C167.236787,611.627061 167.119499,611.420167 167.006027,611.220041 C166.89354,611.021885 166.787329,610.83456 166.709671,610.657204 C166.686657,610.604895 166.668442,610.55431 166.65072,610.505571 C166.593861,610.350738 166.523094,610.157874 166.369747,609.96858 C166.077575,609.607098 165.570151,609.191586 165.197737,608.940875 C165.149,608.90789 165.084511,608.871951 164.973008,608.838966 C164.869874,608.729919 164.744341,608.607086 164.592224,608.515885 C164.549765,608.477608 164.502136,608.444992 164.450077,608.419515 C164.192734,608.293482 163.505994,607.952186 163.231668,607.797476 C163.148472,607.731752 163.050876,607.689414 162.948357,607.672921 C162.875745,607.651998 162.713413,607.598212 162.667877,607.57852 C162.436995,607.473534 162.209928,607.426149 161.990368,607.380487 C161.828652,607.34664 161.661274,607.311809 161.472483,607.251131 C160.382068,606.900727 159.719943,606.95882 158.591377,607.170884 L158.198655,607.18713 C158.144504,607.189223 158.090845,607.1987 158.039154,607.215069 C157.874239,607.267131 157.740337,607.295316 157.58539,607.328055 C157.35943,607.375687 157.103318,607.429595 156.750472,607.562889 C156.429993,607.683998 156.222618,607.8792 156.071363,608.021725 C156.03358,608.057172 155.997151,608.092126 155.960106,608.12265 C155.94423,608.134219 155.890694,608.158342 155.851434,608.175943 C155.764299,608.215328 155.655873,608.26419 155.543263,608.342345 C155.522833,608.356499 155.503264,608.371883 155.484804,608.388253 L154.926305,608.885243 L154.805325,608.934352 C154.74662,608.958229 154.6921,608.991214 154.643363,609.03183 C154.473278,609.173985 154.335438,609.357003 154.224674,609.504082 C154.194767,609.543959 154.16683,609.581252 154.141354,609.612514 C154.08388,609.683284 154.042774,609.76587 154.021113,609.854117 C153.369449,610.546064 152.766398,611.567738 152.406045,612.325285 C152.379215,612.381901 152.361001,612.44221 152.352386,612.504241 C152.331586,612.652305 152.310787,612.800122 152.289619,612.948062 C152.193992,613.214527 152.171101,613.481115 152.150794,613.719025 C152.137133,613.878904 152.124088,614.029798 152.091351,614.162846 C152.077074,614.220816 152.071413,614.280386 152.074244,614.339956 L152.075475,614.364695 C152.079536,614.448019 152.083597,614.53122 152.088028,614.614544 C151.94268,615.301568 151.993632,615.859236 152.122611,616.463182 L152.116211,616.544168 C152.108458,616.641399 152.100827,616.738631 152.093566,616.83574 C152.087905,616.912541 152.096643,616.989711 152.119411,617.063312 C152.169747,617.226145 152.257744,617.331254 152.320264,617.394516 C152.363708,617.507379 152.395461,617.684489 152.424013,617.842891 C152.464627,618.069478 152.50684,618.303943 152.599267,618.512807 C152.671633,618.67687 152.763075,618.794287 152.836549,618.888688 C152.887132,618.953428 152.918638,618.994905 152.930945,619.02789 C152.966636,619.124753 153.025956,619.210415 153.102876,619.277739 C153.31259,619.634297 153.571533,619.870731 153.780878,620.061872 C153.862474,620.136211 153.940132,620.207104 154.00536,620.276275 L154.179999,620.539539 C154.216551,620.594186 154.261718,620.642802 154.313654,620.683172 C154.386144,620.739665 154.461956,620.776342 154.531245,620.802066 C154.544044,620.823235 154.558321,620.843543 154.573828,620.863112 C154.630687,620.93499 154.696038,620.991729 154.929382,621.184347 C154.992763,621.236655 155.052207,621.285518 155.083467,621.313333 C155.130727,621.355426 155.184017,621.389888 155.241614,621.415611 L155.287889,621.436412 C155.350779,621.559613 155.455636,621.724661 155.64775,621.841094 C156.316029,622.246268 157.100734,622.513963 157.793011,622.750151 C157.895899,622.785228 157.997064,622.81969 158.09589,622.854029 C158.457352,622.979692 158.811306,622.950522 159.095601,622.927014 C159.180151,622.920122 159.305438,622.910276 159.355528,622.914337 C159.555766,622.979815 159.734712,623 159.89212,623 C160.035868,623 160.161647,622.983138 160.268596,622.968738 C160.37653,622.954338 160.460342,622.943138 160.54883,622.946953 C160.694178,622.993969 160.853309,622.985231 160.994226,622.920737 C161.051085,622.894645 161.099822,622.864737 161.141666,622.834213 C161.198033,622.82769 161.255015,622.815505 161.311997,622.797536 C161.335873,622.789905 161.359134,622.781659 161.381779,622.772551 C161.631491,622.754089 161.909387,622.649842 162.249803,622.522333 C162.447825,622.448116 162.718952,622.346454 162.82787,622.334269 C162.941096,622.321469 163.04866,622.27753 163.13838,622.207252 L163.152533,622.19679 C163.175793,622.179928 163.197331,622.162328 163.217392,622.144113 C163.425629,622.064112 163.603098,621.967126 163.605929,621.965403 C163.67128,621.925895 163.728631,621.874448 163.775152,621.81377 L163.846164,621.721461 C164.543734,621.395796 165.046851,621.096961 165.610026,620.550247 C165.739867,620.423969 166.343779,619.816946 166.445559,619.353679 C166.530971,619.186661 166.670042,618.992567 166.815759,618.788995 C166.96246,618.584439 167.114084,618.372744 167.243679,618.146033 C167.323183,618.007693 167.439732,617.776183 167.491422,617.531626 C167.587171,617.372608 167.6268,617.185775 167.6428,617.043743 C167.86076,616.616045 167.873067,616.203486 167.884143,615.835236 C167.892143,615.570125 167.89965,615.31966 167.977062,615.043842 C168.016445,614.903532 168.004507,614.755469 167.945925,614.625375 C167.94814,614.606421 167.950848,614.585621 167.953309,614.567774 Z" id="Fill-1-Copy-2" stroke="#504FFF" stroke-width="4" fill="#FFFFFF" transform="translate(160.000000, 615.000000) rotate(-90.000000) translate(-160.000000, -615.000000) "></path>
                            <path d="M17.9533094,909.567774 C17.9717701,909.425249 17.997246,909.229924 17.9482635,909.013921 C17.9026039,908.812934 17.8039005,908.682102 17.730919,908.602716 C17.7289499,908.583639 17.7272269,908.56407 17.725627,908.547823 C17.7226732,908.515454 17.7194734,908.480869 17.715412,908.445299 L17.7369496,908.310282 C17.7591024,908.174773 17.7354727,908.035694 17.6697525,907.915323 C17.6231083,907.830153 17.5594803,907.744737 17.4857604,907.645782 C17.4664382,907.619812 17.4452699,907.591381 17.4250861,907.563688 C17.4200402,907.475687 17.4152404,907.387686 17.4103176,907.299808 L17.3980104,907.076667 C17.3937029,906.998512 17.3743807,906.92208 17.3413975,906.851187 C17.2367866,906.627061 17.1194994,906.420167 17.0060274,906.220041 C16.89354,906.021885 16.7873292,905.83456 16.709671,905.657204 C16.6866566,905.604895 16.668442,905.55431 16.6507197,905.505571 C16.5938606,905.350738 16.5230945,905.157874 16.3697473,904.96858 C16.0775753,904.607098 15.5701512,904.191586 15.1977365,903.940875 C15.1490002,903.90789 15.0845107,903.871951 14.9730078,903.838966 C14.8698738,903.729919 14.7443408,903.607086 14.5922243,903.515885 C14.5497646,903.477608 14.5021359,903.444992 14.4500766,903.419515 C14.1927339,903.293482 13.5059945,902.952186 13.2316679,902.797476 C13.1484715,902.731752 13.0508757,902.689414 12.9483571,902.672921 C12.8757449,902.651998 12.7134134,902.598212 12.667877,902.57852 C12.4369947,902.473534 12.2099276,902.426149 11.9903679,902.380487 C11.8286518,902.34664 11.6612744,902.311809 11.4724826,902.251131 C10.3820683,901.900727 9.71994318,901.95882 8.59137671,902.170884 L8.19865527,902.18713 C8.14450377,902.189223 8.09084456,902.1987 8.03915449,902.215069 C7.87423857,902.267131 7.74033668,902.295316 7.58538955,902.328055 C7.35943011,902.375687 7.10331813,902.429595 6.75047189,902.562889 C6.42999347,902.683998 6.22261784,902.8792 6.07136286,903.021725 C6.03357988,903.057172 5.99715069,903.092126 5.96010614,903.12265 C5.94422991,903.134219 5.89069377,903.158342 5.85143393,903.175943 C5.76429925,903.215328 5.65587318,903.26419 5.54326267,903.342345 C5.52283279,903.356499 5.50326441,903.371883 5.48480367,903.388253 L4.9263048,903.885243 L4.80532543,903.934352 C4.74662028,903.958229 4.69209956,903.991214 4.64336322,904.03183 C4.47327828,904.173985 4.3354381,904.357003 4.22467367,904.504082 C4.19476727,904.543959 4.16683002,904.581252 4.1413542,904.612514 C4.08387977,904.683284 4.04277386,904.76587 4.02111326,904.854117 C3.3694492,905.546064 2.76639841,906.567738 2.4060448,907.325285 C2.3792152,907.381901 2.3610006,907.44221 2.35238559,907.504241 C2.33158649,907.652305 2.31078739,907.800122 2.28961908,907.948062 C2.19399245,908.214527 2.17110114,908.481115 2.15079433,908.719025 C2.13713338,908.878904 2.12408779,909.029798 2.09135075,909.162846 C2.07707444,909.220816 2.07141315,909.280386 2.0742438,909.339956 L2.07547451,909.364695 C2.07953588,909.448019 2.08359724,909.53122 2.08802782,909.614544 C1.94268027,910.301568 1.99363191,910.859236 2.12261093,911.463182 L2.11621121,911.544168 C2.1084577,911.641399 2.10082726,911.738631 2.09356604,911.83574 C2.08790474,911.912541 2.09664283,911.989711 2.11941107,912.063312 C2.16974735,912.226145 2.25774354,912.331254 2.3202639,912.394516 C2.36370818,912.507379 2.39546064,912.684489 2.42401325,912.842891 C2.46462688,913.069478 2.50684043,913.303943 2.5992672,913.512807 C2.67163329,913.67687 2.76307548,913.794287 2.83654922,913.888688 C2.88713164,913.953428 2.91863797,913.994905 2.93094513,914.02789 C2.96663589,914.124753 3.02595639,914.210415 3.10287614,914.277739 C3.31259012,914.634297 3.57153275,914.870731 3.78087752,915.061872 C3.86247398,915.136211 3.94013216,915.207104 4.0053601,915.276275 L4.17999868,915.539539 C4.21655095,915.594186 4.26171822,915.642802 4.31365443,915.683172 C4.38614359,915.739665 4.46195569,915.776342 4.531245,915.802066 C4.54404444,915.823235 4.55832075,915.843543 4.57382777,915.863112 C4.63068684,915.93499 4.69603786,915.991729 4.92938159,916.184347 C4.99276346,916.236655 5.05220703,916.285518 5.08346722,916.313333 C5.13072671,916.355426 5.1840167,916.389888 5.24161421,916.415611 L5.28788913,916.436412 C5.35077871,916.559613 5.4556357,916.724661 5.64775045,916.841094 C6.31602918,917.246268 7.10073363,917.513963 7.79301132,917.750151 C7.89589917,917.785228 7.99706401,917.81969 8.0958905,917.854029 C8.45735175,917.979692 8.81130564,917.950522 9.09560101,917.927014 C9.18015119,917.920122 9.30543807,917.910276 9.35552821,917.914337 C9.55576568,917.979815 9.73471177,918 9.89212034,918 C10.035868,918 10.1616471,917.983138 10.2685963,917.968738 C10.3765301,917.954338 10.4603419,917.943138 10.5488303,917.946953 C10.6941779,917.993969 10.8533094,917.985231 10.9942264,917.920737 C11.0510855,917.894645 11.0998218,917.864737 11.1416662,917.834213 C11.198033,917.82769 11.2550151,917.815505 11.3119973,917.797536 C11.3358731,917.789905 11.3591337,917.781659 11.3817788,917.772551 C11.6314911,917.754089 11.9093867,917.649842 12.2498028,917.522333 C12.4478249,917.448116 12.7189517,917.346454 12.82787,917.334269 C12.9410959,917.321469 13.0486604,917.27753 13.1383796,917.207252 L13.1525329,917.19679 C13.1757934,917.179928 13.1973309,917.162328 13.2173916,917.144113 C13.4256287,917.064112 13.603098,916.967126 13.6059286,916.965403 C13.6712796,916.925895 13.728631,916.874448 13.775152,916.81377 L13.8461643,916.721461 C14.5437341,916.395796 15.0468508,916.096961 15.6100264,915.550247 C15.7398669,915.423969 16.3437792,914.816946 16.4455594,914.353679 C16.5309711,914.186661 16.6700419,913.992567 16.8157587,913.788995 C16.96246,913.584439 17.1140842,913.372744 17.2436786,913.146033 C17.3231829,913.007693 17.4397317,912.776183 17.4914217,912.531626 C17.5871714,912.372608 17.6268005,912.185775 17.6427998,912.043743 C17.8607596,911.616045 17.8730667,911.203486 17.8841432,910.835236 C17.8921428,910.570125 17.8996502,910.31966 17.9770622,910.043842 C18.0164451,909.903532 18.0045072,909.755469 17.9459251,909.625375 C17.9481404,909.606421 17.950848,909.585621 17.9533094,909.567774 Z" id="Fill-1-Copy-3" stroke="#0DF394" stroke-width="4" fill="#FFFFFF" transform="translate(10.000000, 910.000000) rotate(-90.000000) translate(-10.000000, -910.000000) "></path>
                            <path d="M168.947473,1215.51375 C168.968241,1215.35341 168.996902,1215.13366 168.941796,1214.89066 C168.890429,1214.66455 168.779388,1214.51736 168.697284,1214.42806 C168.695069,1214.40659 168.69313,1214.38458 168.69133,1214.3663 C168.688007,1214.32989 168.684408,1214.29098 168.679839,1214.25096 L168.704068,1214.09907 C168.72899,1213.94662 168.702407,1213.79016 168.628472,1213.65474 C168.575997,1213.55892 168.504415,1213.46283 168.42148,1213.3515 C168.399743,1213.32229 168.375929,1213.2903 168.353222,1213.25915 C168.347545,1213.16015 168.342145,1213.06115 168.336607,1212.96228 L168.322762,1212.71125 C168.317916,1212.62333 168.296178,1212.53734 168.259072,1212.45759 C168.141385,1212.20544 168.009437,1211.97269 167.881781,1211.74755 C167.755232,1211.52462 167.635745,1211.31388 167.54838,1211.11435 C167.522489,1211.05551 167.501997,1210.9986 167.48206,1210.94377 C167.418093,1210.76958 167.338481,1210.55261 167.165966,1210.33965 C166.837272,1209.93299 166.26642,1209.46553 165.847454,1209.18348 C165.792625,1209.14638 165.720075,1209.10594 165.594634,1209.06884 C165.478608,1208.94616 165.337383,1208.80797 165.166252,1208.70537 C165.118485,1208.66231 165.064903,1208.62562 165.006336,1208.59695 C164.716826,1208.45517 163.944244,1208.07121 163.635626,1207.89716 C163.54203,1207.82322 163.432235,1207.77559 163.316902,1207.75704 C163.235213,1207.7335 163.05259,1207.67299 163.001362,1207.65083 C162.741619,1207.53273 162.486169,1207.47942 162.239164,1207.42805 C162.057233,1207.38997 161.868934,1207.35079 161.656543,1207.28252 C160.429827,1206.88832 159.684936,1206.95367 158.415299,1207.19224 L157.973487,1207.21052 C157.912567,1207.21288 157.8522,1207.22354 157.794049,1207.24195 C157.608518,1207.30052 157.457879,1207.33223 157.283563,1207.36906 C157.029359,1207.42265 156.741233,1207.48329 156.344281,1207.63325 C155.983743,1207.7695 155.750445,1207.9891 155.580283,1208.14944 C155.537777,1208.18932 155.496795,1208.22864 155.455119,1208.26298 C155.437259,1208.276 155.37703,1208.30314 155.332863,1208.32294 C155.234837,1208.36724 155.112857,1208.42221 154.986171,1208.51014 C154.963187,1208.52606 154.941172,1208.54337 154.920404,1208.56178 L154.292093,1209.1209 L154.155991,1209.17615 C154.089948,1209.20301 154.028612,1209.24012 153.973784,1209.28581 C153.782438,1209.44573 153.627368,1209.65163 153.502758,1209.81709 C153.469113,1209.86195 153.437684,1209.90391 153.409023,1209.93908 C153.344365,1210.01869 153.298121,1210.1116 153.273752,1210.21088 C152.54063,1210.98932 151.862198,1212.1387 151.4568,1212.99095 C151.426617,1213.05464 151.406126,1213.12249 151.396434,1213.19227 C151.373035,1213.35884 151.349636,1213.52514 151.325821,1213.69157 C151.218242,1213.99134 151.192489,1214.29125 151.169644,1214.5589 C151.154275,1214.73877 151.139599,1214.90852 151.10277,1215.0582 C151.086709,1215.12342 151.08034,1215.19043 151.083524,1215.25745 L151.084909,1215.28528 C151.089478,1215.37902 151.094047,1215.47262 151.099031,1215.56636 C150.935515,1216.33926 150.992836,1216.96664 151.137937,1217.64608 L151.130738,1217.73719 C151.122015,1217.84657 151.113431,1217.95596 151.105262,1218.06521 C151.098893,1218.15161 151.108723,1218.23843 151.134337,1218.32123 C151.190966,1218.50441 151.289961,1218.62266 151.360297,1218.69383 C151.409172,1218.8208 151.444893,1219.02005 151.477015,1219.19825 C151.522705,1219.45316 151.570195,1219.71694 151.674176,1219.95191 C151.755587,1220.13648 151.85846,1220.26857 151.941118,1220.37477 C151.998023,1220.44761 152.033468,1220.49427 152.047313,1220.53138 C152.087465,1220.64035 152.154201,1220.73672 152.240736,1220.81246 C152.476664,1221.21358 152.767974,1221.47957 153.003487,1221.69461 C153.095283,1221.77824 153.182649,1221.85799 153.25603,1221.93581 L153.452499,1222.23198 C153.49362,1222.29346 153.544433,1222.34815 153.602861,1222.39357 C153.684412,1222.45712 153.7697,1222.49838 153.847651,1222.52732 C153.86205,1222.55114 153.878111,1222.57399 153.895556,1222.596 C153.959523,1222.67686 154.033043,1222.7407 154.295554,1222.95739 C154.366859,1223.01624 154.433733,1223.07121 154.468901,1223.1025 C154.522068,1223.14985 154.582019,1223.18862 154.646816,1223.21756 L154.698875,1223.24096 C154.769626,1223.37956 154.88759,1223.56524 155.103719,1223.69623 C155.855533,1224.15205 156.738325,1224.45321 157.517138,1224.71892 C157.632887,1224.75838 157.746697,1224.79715 157.857877,1224.83578 C158.264521,1224.97715 158.662719,1224.94434 158.982551,1224.91789 C159.07767,1224.91014 159.218618,1224.89906 159.274969,1224.90363 C159.500236,1224.97729 159.701551,1225 159.878635,1225 C160.040351,1225 160.181853,1224.98103 160.302171,1224.96483 C160.423596,1224.94863 160.517885,1224.93603 160.617434,1224.94032 C160.78095,1224.99322 160.959973,1224.98338 161.118505,1224.91083 C161.182471,1224.88148 161.2373,1224.84783 161.284374,1224.81349 C161.347787,1224.80615 161.411892,1224.79244 161.475997,1224.77223 C161.502857,1224.76364 161.529025,1224.75437 161.554501,1224.74412 C161.835427,1224.72335 162.14806,1224.60607 162.531028,1224.46262 C162.753803,1224.37913 163.058821,1224.26476 163.181354,1224.25105 C163.308733,1224.23665 163.429743,1224.18722 163.530677,1224.10816 L163.546599,1224.09639 C163.572768,1224.07742 163.596997,1224.05762 163.619566,1224.03713 C163.853832,1223.94713 164.053485,1223.83802 164.05667,1223.83608 C164.13019,1223.79163 164.19471,1223.73375 164.247046,1223.66549 L164.326935,1223.56164 C165.111701,1223.19527 165.677707,1222.85908 166.31128,1222.24403 C166.45735,1222.10196 167.136752,1221.41906 167.251254,1220.89789 C167.347342,1220.70999 167.503797,1220.49164 167.667729,1220.26262 C167.832768,1220.03249 168.003345,1219.79434 168.149138,1219.53929 C168.238581,1219.38365 168.369698,1219.12321 168.427849,1218.84808 C168.535568,1218.66918 168.580151,1218.459 168.59815,1218.29921 C168.843355,1217.81805 168.8572,1217.35392 168.869661,1216.93964 C168.878661,1216.64139 168.887106,1216.35962 168.974195,1216.04932 C169.018501,1215.89147 169.005071,1215.7249 168.939166,1215.57855 C168.941658,1215.55722 168.944704,1215.53382 168.947473,1215.51375 Z" id="Fill-1-Copy-4" stroke="#FFFFFF" stroke-width="6" fill="#504FFF" transform="translate(160.000000, 1216.000000) rotate(-90.000000) translate(-160.000000, -1216.000000) "></path>
                            <path d="M93.9474731,8.513746 C93.9682414,8.35340559 93.9969017,8.13366445 93.9417964,7.89066149 C93.8904294,7.66455104 93.7793881,7.51736463 93.6972839,7.42805585 C93.6950686,7.40659405 93.6931303,7.3845784 93.6913303,7.36630125 C93.6880074,7.32988543 93.6844076,7.29097726 93.6798385,7.25096139 L93.7040682,7.09906723 C93.7289902,6.94661922 93.7024068,6.79015578 93.6284715,6.65473874 C93.5759969,6.55892219 93.5044154,6.46282871 93.4214805,6.35150428 C93.399743,6.32228854 93.3759286,6.29030353 93.3532219,6.25914931 C93.3475452,6.1601481 93.3421455,6.0611469 93.3366072,5.96228415 L93.3227617,5.71125033 C93.3179158,5.62332618 93.2961782,5.53734052 93.2590721,5.4575857 C93.1413849,5.20544417 93.0094368,4.97268749 92.8817808,4.74754628 C92.7552324,4.52462049 92.6357453,4.31387946 92.5483799,4.11435395 C92.5224887,4.05550708 92.5019973,3.9985987 92.4820597,3.94376726 C92.4180932,3.76958052 92.3384813,3.55260865 92.1659657,3.33965221 C91.8372722,2.93298572 91.2664201,2.46553387 90.8474536,2.18348428 C90.7926252,2.14637614 90.7200745,2.10594488 90.5946338,2.06883673 C90.478608,1.94615832 90.3373834,1.80797202 90.1662524,1.70537077 C90.1184852,1.66230871 90.0649029,1.62561595 90.0063362,1.59695406 C89.7168257,1.45516772 88.9442438,1.0712092 88.6356264,0.897160925 C88.5420304,0.823221562 88.4322352,0.775590213 88.3169017,0.757036141 C88.235213,0.733497393 88.0525901,0.672988963 88.0013616,0.650834847 C87.741619,0.532725717 87.4861685,0.479417375 87.2391638,0.428047519 C87.0572333,0.389970132 86.8689337,0.350785039 86.6565429,0.282522669 C85.4298269,-0.111682132 84.6849361,-0.0463274898 83.4152988,0.192244647 L82.9734872,0.210521792 C82.9125667,0.212875667 82.8522001,0.223537335 82.7940488,0.241952944 C82.6085184,0.300522889 82.4578788,0.332230967 82.2835632,0.369062185 C82.0293589,0.422647453 81.7412329,0.483294345 81.3442809,0.633250018 C80.9837427,0.769497831 80.7504451,0.989100506 80.5802832,1.14944092 C80.5377774,1.18931833 80.4967945,1.22864188 80.4551194,1.26298076 C80.4372586,1.27599631 80.3770305,1.3031351 80.3328632,1.32293534 C80.2348367,1.36724357 80.1128573,1.42221347 79.9861705,1.51013762 C79.9631869,1.52606089 79.9411725,1.5433688 79.9204041,1.5617844 L79.2920929,2.12089891 L79.1559911,2.17614573 C79.0899478,2.2030076 79.028612,2.24011574 78.9737836,2.28580861 C78.7824381,2.44573363 78.6273679,2.65162845 78.5027579,2.817092 C78.4691132,2.86195409 78.4376838,2.90390844 78.4090235,2.9390781 C78.3443647,3.01869446 78.2981206,3.11160328 78.2737524,3.21088141 C77.5406303,3.98932166 76.8621982,5.13870489 76.4568004,5.99094604 C76.4266171,6.05463913 76.4061257,6.12248611 76.3964338,6.19227157 C76.3730348,6.35884283 76.3496358,6.52513716 76.3258215,6.69156996 C76.2182415,6.99134284 76.1924888,7.29125419 76.1696436,7.5589036 C76.1542751,7.73876733 76.1395988,7.90852324 76.1027696,8.05820199 C76.0867088,8.12341817 76.0803398,8.19043437 76.0835243,8.25745057 L76.0849088,8.28528168 C76.0894779,8.37902128 76.0940469,8.47262242 76.0990313,8.56636202 C75.9355153,9.33926375 75.9928359,9.96664062 76.1379373,10.6460797 L76.1307376,10.7371885 C76.1220149,10.8465744 76.1134307,10.9559604 76.1052618,11.0652078 C76.0988928,11.1516089 76.1087232,11.2384253 76.1343375,11.3212263 C76.1909658,11.5044132 76.2899615,11.6226608 76.3602969,11.6938309 C76.4091717,11.8208017 76.4448932,12.0200502 76.4770149,12.1982524 C76.5227052,12.4531632 76.5701955,12.7169357 76.6741756,12.9519077 C76.7555875,13.1364792 76.8584599,13.2685731 76.9411179,13.3747744 C76.9980231,13.4476061 77.0334677,13.4942682 77.0473133,13.5313763 C77.0874654,13.6403469 77.1542009,13.7367173 77.2407357,13.8124567 C77.4766639,14.2135847 77.7679743,14.4795725 78.0034872,14.6946059 C78.0952832,14.7782377 78.1826487,14.8579925 78.2560301,14.9358088 L78.4524985,15.2319817 C78.4936198,15.2934593 78.544433,15.3481523 78.6028612,15.3935683 C78.6844115,15.4571229 78.7697002,15.4983849 78.8476506,15.5273237 C78.86205,15.5511394 78.8781108,15.5739858 78.8955562,15.5960015 C78.9595227,15.676864 79.0330426,15.7406956 79.2955543,15.9573905 C79.3668589,16.0162374 79.4337329,16.0712073 79.4689006,16.1025 C79.5220675,16.1498544 79.5820188,16.1886241 79.646816,16.2175629 L79.6988753,16.2409632 C79.769626,16.3795649 79.8875902,16.5652441 80.1037193,16.6962303 C80.8555328,17.1520512 81.7383253,17.4532087 82.5171377,17.7189197 C82.6328866,17.7583817 82.746697,17.7971514 82.8578768,17.8357826 C83.2645207,17.9771536 83.6627188,17.9443378 83.9825511,17.9178913 C84.0776701,17.9101374 84.2186178,17.8990603 84.2749692,17.9036296 C84.5002364,17.977292 84.7015507,18 84.8786354,18 C85.0403514,18 85.181853,17.9810305 85.3021709,17.9648303 C85.4235964,17.9486301 85.5178846,17.93603 85.6174341,17.9403224 C85.7809501,17.9932153 85.9599731,17.9833844 86.1185047,17.9108297 C86.1824712,17.8814755 86.2372996,17.8478289 86.2843744,17.81349 C86.3477871,17.8061515 86.411892,17.7924436 86.4759969,17.772228 C86.5028573,17.7636433 86.5290254,17.7543662 86.5545012,17.74412 C86.8354275,17.7233505 87.1480601,17.6060721 87.5310281,17.4626242 C87.7538031,17.3791309 88.0588206,17.2647603 88.1813538,17.2510524 C88.3087329,17.2366522 88.429743,17.1872209 88.5306771,17.1081584 L88.5465995,17.096389 C88.5727676,17.0774195 88.5969973,17.0576193 88.6195655,17.0371267 C88.8538323,16.9471256 89.0534852,16.8380166 89.0566697,16.8360781 C89.1301896,16.7916314 89.1947098,16.7337538 89.247046,16.6654914 L89.3269349,16.561644 C90.1117009,16.1952703 90.6777071,15.8590816 91.3112796,15.244028 C91.4573502,15.1019647 92.1367516,14.4190641 92.2512543,13.8978885 C92.3473424,13.7099939 92.5037972,13.4916374 92.6677285,13.2626192 C92.8327675,13.0324933 93.0033448,12.7943366 93.1491385,12.5392873 C93.2385807,12.3836547 93.3696981,12.1232053 93.4278494,11.8480789 C93.5355679,11.6691844 93.5801505,11.4589973 93.5981498,11.2992107 C93.8433545,10.818051 93.8572001,10.3539223 93.8696611,9.93964029 C93.8786607,9.6413905 93.8871065,9.35961784 93.974195,9.04932175 C94.0185008,8.89147368 94.0050706,8.72490242 93.9391657,8.57854679 C93.9416579,8.55722345 93.944704,8.53382317 93.9474731,8.513746 Z" id="Fill-1-Copy-6" stroke="#FFFFFF" stroke-width="6" fill="#504FFF" transform="translate(85.000000, 9.000000) rotate(-90.000000) translate(-85.000000, -9.000000) "></path>
                        </g>
                    </g>
                </g>
            </g>
        </g>
    </g>
</svg>